<?xml version="1.0" encoding="utf-8"?>
<!-- Generator: Adobe Illustrator 24.0.0, SVG Export Plug-In . SVG Version: 6.00 Build 0) -->
<svg version="1.1" id="Capa_1" xmlns="http://www.w3.org/2000/svg" xmlns:xlink="http://www.w3.org/1999/xlink" x="0px" y="0px" viewBox="0 0 404 324" style="enable-background:new 0 0 404 324;" xml:space="preserve">
	<style type="text/css">
		.st0 {
			fill: #030104;
		}
	</style>
	<g>
		<g>
			<g>
				<path
					class="st0"
					d="M348.6,60.3h-40.5l-22.4-33.7c-8.4-12.7-23.2-20.2-38.4-20.2h-92.8c-15.2,0-29.9,7.6-38.4,20.2L93.7,60.3
				H53.2C27.5,60.3,6.8,81,6.8,106.7v163.7c0,25.7,20.7,46.4,46.4,46.4h295.2c25.7,0,46.4-20.7,46.4-46.4V106.7
				C395,81,374.4,60.3,348.6,60.3z M201,278.8c-57.8,0-104.6-46.8-104.6-104.6S143.2,70,201,70s104.6,46.8,104.6,104.6
				C305.6,232,258.8,278.8,201,278.8z M342.7,125.7c-0.4,0-0.8,0-1.7,0h-16.9c-7.6-0.4-13.5-6.7-13.1-14.3
				c0.4-7.2,5.9-12.7,13.1-13.1H341c7.6-0.4,13.9,5.5,14.3,13.1C355.8,118.9,350.3,125.3,342.7,125.7z"/>
			</g>
		</g>
		<g>
			<g>
				<path class="st0" d="M201,116.4c-32.1,0-58.2,26.2-58.2,58.2s26.2,57.8,58.2,57.8s58.2-26.2,58.2-58.2
				C259.2,142.1,233.1,116.4,201,116.4z"/>
			</g>
		</g>
	</g>
</svg>
