<svg xmlns="http://www.w3.org/2000/svg" viewBox="0 0 2427.81 2279.41"><defs><style>.cls-1,.cls-2{fill:#1f140f;}.cls-2{fill-rule:evenodd;}</style></defs><g id="Capa_2" data-name="Capa 2"><g id="Capa_1-2" data-name="Capa 1"><path class="cls-1" d="M2325.91,357.15c2.14-12.8-5.29-25.28-16.1-31.64-1.09-1.73-2.1-3.51-3.26-5.2-22.74-33.5-106.88-83.15-143.13-40.2-28.56,33.94-2.09,77.65,27.24,101.05,26.45,21,57.53,27.1,85.77,18.28,8.36,39.78,1.46,87.08-10.85,119-13.95,36.48,45,50.42,58.87,14.51C2345.36,478.53,2347.66,412.41,2325.91,357.15Z"/><path class="cls-1" d="M2137.64,358c-1.08-1.72-2.08-3.48-3.22-5.15-22.63-33.61-106.77-83.16-143-40.2-28.67,33.83-2.19,77.65,27.25,101.05,26.36,21,57.45,27.09,85.71,18.29,8.35,39.77,1.45,87.07-10.8,119-14.06,36.46,45,50.52,58.87,14.5,20.81-54.39,23.1-120.35,1.41-175.62C2156.09,377,2148.58,364.35,2137.64,358Z"/><path class="cls-1" d="M172.68,2096.3c-25.59-22-56.43-29.33-85-21.64-6.81-40.09,1.92-87.09,15.44-118.53,15.37-35.91-43.06-52.06-58.28-16.69-22.93,53.44-27.79,119.38-8.25,175.44-2.68,12.73,4.28,25.56,14.88,32.35,1,1.77,2,3.58,3,5.31,21.41,34.38,103.47,87.22,141.42,45.91C225.85,2165.5,201,2120.8,172.68,2096.3Z"/><path class="cls-1" d="M345.86,2070.48c-25.58-21.93-56.43-29.22-85-21.54-6.82-40.11,1.89-87.13,15.4-118.51,15.45-36-43-52.29-58.2-16.92-23,53.54-27.82,119.43-8.29,175.59-2.73,12.74,4.22,25.58,14.82,32.36,1,1.79,2,3.62,3.07,5.38,21.37,34.37,103.53,87.22,141.42,45.69C399.07,2139.79,374.25,2095,345.86,2070.48Z"/><path class="cls-1" d="M384.08,701c-38.72-177,39.77-189,188.23-202.34,116.43-10.32,232.2-26.8,348.76-36.91,304.81-26.58,606.78-37.56,912.7-37.78,54.37,0,54.37-84.37,0-84.37-445.09.44-879.59,40.64-1321.93,80.19-212.39,18.9-254.25,97.32-209.15,303.61,11.64,53.17,93,30.66,81.39-22.4Z"/><path class="cls-1" d="M1987.78,1918c38.77,177-39.76,189-188.17,202.35-116.43,10.42-232.21,26.9-348.86,37C1146,2184,844.06,2194.83,538.09,2195.05c-54.37.11-54.43,84.47,0,84.36,445.09-.33,879.59-40.53,1321.93-80.08,212.45-19,254.19-97.32,209.15-303.72-11.64-53.16-92.93-30.64-81.39,22.4Z"/><polygon class="cls-2" points="1545.08 75.75 1430.18 101.43 1371.02 0 1359.67 116.83 1245.51 141.66 1352.39 189.16 1341.59 305.33 1418.94 217.6 1526.26 264.9 1466.88 163.9 1545.08 75.75"/><polygon class="cls-2" points="180.1 675.35 111.02 690.79 75.45 629.81 68.63 700.05 0 714.97 64.26 743.53 57.76 813.37 104.26 760.63 168.78 789.07 133.09 728.34 180.1 675.35"/><polygon class="cls-2" points="2306.52 1936.54 2237.44 1951.98 2201.87 1891.01 2195.05 1961.24 2126.42 1976.17 2190.67 2004.73 2184.18 2074.57 2230.68 2021.82 2295.2 2050.26 2259.5 1989.54 2306.52 1936.54"/><polygon class="cls-1" points="1181.78 1084.74 1189.41 1084.1 1205.99 1080.25 1220.65 1075.8 1228.91 1072.58 1235.26 1068.78 1242.89 1063.04 1264.56 1039.48 1268.38 1031.17 1270.28 1023.49 1274.1 1007.61 1273.44 999.96 1269.61 992.28 1263.25 985.98 1256.89 980.85 1244.78 978.96 1233.96 978.96 1226.29 981.49 1218.66 985.33 1200.83 1001.9 1195.74 1013.39 1188.11 1024.22 1185.57 1032.51 1181.74 1040.12 1178.55 1047.79 1177.28 1056.06 1175.38 1064.36 1172.83 1072.62 1174.14 1080.94 1181.78 1084.74"/><polygon class="cls-1" points="1018.73 1681.53 1016.84 1673.9 1013.66 1665.63 1008.53 1659.23 1002.17 1654.13 995.11 1650.32 988.13 1647.76 974.09 1645.9 958.2 1647.19 948.02 1650.94 940.37 1655.44 933.36 1659.93 921.26 1671.44 917.46 1677.77 908.56 1693.08 907.34 1700.05 900.92 1715.39 900.32 1723.65 895.19 1744.67 893.97 1757.4 894.56 1765.05 893.31 1773.36 896.48 1789.91 899.06 1798.83 904.19 1807.09 908.02 1812.82 913.76 1819.18 920.12 1823.64 928.4 1827.46 951.95 1828.08 964.7 1824.23 975.53 1818.49 980.61 1808.95 985.67 1789.85 989.5 1782.84 995.2 1776.45 1004.78 1770.07 1012.43 1763.07 1014.95 1755.41 1017.5 1747.15 1020.71 1728.02 1021.95 1715.95 1022.6 1707.64 1020.69 1698.73 1018.73 1681.53"/><polygon class="cls-1" points="1449.31 1565.28 1456.98 1563.39 1465.22 1561.44 1473.55 1558.28 1481.15 1555.06 1502.14 1539.79 1511.09 1530.8 1523.81 1513.61 1526.33 1506.62 1530.8 1498.33 1532.7 1489.39 1532.06 1473.47 1528.86 1465.84 1525.05 1458.85 1514.19 1453.73 1503.4 1452.5 1497.02 1454.39 1488.76 1457.6 1482.36 1462.67 1477.94 1469.08 1472.16 1474.82 1464.52 1485.65 1460.1 1497.09 1456.29 1505.41 1448.63 1520.7 1446.75 1528.96 1444.21 1537.86 1440.99 1545.52 1439.72 1554.44 1441 1562.12 1449.31 1565.28"/><polygon class="cls-1" points="1431.69 1311.32 1432.95 1319.63 1435.49 1327.28 1438.74 1335.55 1442.53 1342.54 1448.89 1348.31 1455.88 1353.38 1462.28 1356.51 1471.21 1357.81 1483.3 1355.88 1494.76 1353.35 1504.33 1349.52 1511.98 1345.68 1518.94 1341.84 1524.09 1335.49 1530.39 1329.13 1543.77 1308.09 1546.96 1300.44 1550.13 1292.15 1560.28 1243.74 1560.95 1236.09 1562.85 1227.14 1562.84 1210.58 1564.08 1202.97 1560.92 1192.14 1553.88 1185.11 1546.25 1182.59 1530.29 1178.14 1511.22 1177.51 1499.13 1179.43 1490.2 1182.63 1481.92 1187.1 1476.13 1191.53 1469.8 1197.31 1463.44 1202.42 1458.97 1210.04 1453.25 1215.76 1442.45 1239.36 1439.28 1246.99 1434.19 1262.3 1432.92 1270.59 1429.73 1286.51 1431.01 1294.81 1431.69 1311.32"/><polygon class="cls-1" points="1282.47 1681.34 1280.54 1673.71 1277.38 1665.44 1272.27 1659.04 1265.89 1653.95 1258.88 1650.13 1251.9 1647.58 1237.88 1645.72 1221.95 1647.01 1211.74 1650.75 1204.11 1655.25 1197.11 1659.75 1185.03 1671.25 1181.21 1677.59 1172.31 1692.89 1171.04 1699.87 1164.65 1715.2 1164.03 1723.46 1158.96 1744.48 1157.65 1757.21 1158.3 1764.87 1157.06 1773.17 1160.22 1789.72 1162.81 1798.64 1167.94 1806.91 1171.7 1812.64 1177.48 1819 1183.88 1823.46 1192.15 1827.27 1215.72 1827.89 1228.43 1824.04 1239.28 1818.31 1244.36 1808.77 1249.42 1789.66 1253.25 1782.65 1258.97 1776.27 1268.52 1769.88 1276.15 1762.88 1278.74 1755.22 1281.24 1746.96 1284.43 1727.83 1285.68 1715.77 1286.34 1707.45 1284.41 1698.54 1282.47 1681.34"/><polygon class="cls-1" points="1018.73 1681.53 1016.84 1673.9 1013.66 1665.63 1008.53 1659.23 1002.17 1654.13 995.11 1650.32 988.13 1647.76 974.09 1645.9 958.2 1647.19 948.02 1650.94 940.37 1655.44 933.36 1659.93 921.26 1671.44 917.46 1677.77 908.56 1693.08 907.34 1700.05 900.92 1715.39 900.32 1723.65 895.19 1744.67 893.97 1757.4 894.56 1765.05 893.31 1773.36 896.48 1789.91 899.06 1798.83 904.19 1807.09 908.02 1812.82 913.76 1819.18 920.12 1823.64 928.4 1827.46 951.95 1828.08 964.7 1824.23 975.53 1818.49 980.61 1808.95 985.67 1789.85 989.5 1782.84 995.2 1776.45 1004.78 1770.07 1012.43 1763.07 1014.95 1755.41 1017.5 1747.15 1020.71 1728.02 1021.95 1715.95 1022.6 1707.64 1020.69 1698.73 1018.73 1681.53"/><polygon class="cls-1" points="1181.78 1084.74 1189.41 1084.1 1205.99 1080.25 1220.65 1075.8 1228.91 1072.58 1235.26 1068.78 1242.89 1063.04 1264.56 1039.48 1268.38 1031.17 1270.28 1023.49 1274.1 1007.61 1273.44 999.96 1269.61 992.28 1263.25 985.98 1256.89 980.85 1244.78 978.96 1233.96 978.96 1226.29 981.49 1218.66 985.33 1200.83 1001.9 1195.74 1013.39 1188.11 1024.22 1185.57 1032.51 1181.74 1040.12 1178.55 1047.79 1177.28 1056.06 1175.38 1064.36 1172.83 1072.62 1174.14 1080.94 1181.78 1084.74"/><polygon class="cls-1" points="1431.69 1311.32 1432.95 1319.63 1435.49 1327.28 1438.74 1335.55 1442.53 1342.54 1448.89 1348.31 1455.88 1353.38 1462.28 1356.51 1471.21 1357.81 1483.3 1355.88 1494.76 1353.35 1504.33 1349.52 1511.98 1345.68 1518.94 1341.84 1524.09 1335.49 1530.39 1329.13 1543.77 1308.09 1546.96 1300.44 1550.13 1292.15 1560.28 1243.74 1560.95 1236.09 1562.85 1227.14 1562.84 1210.58 1564.08 1202.97 1560.92 1192.14 1553.88 1185.11 1546.25 1182.59 1530.29 1178.14 1511.22 1177.51 1499.13 1179.43 1490.2 1182.63 1481.92 1187.1 1476.13 1191.53 1469.8 1197.31 1463.44 1202.42 1458.97 1210.04 1453.25 1215.76 1442.45 1239.36 1439.28 1246.99 1434.19 1262.3 1432.92 1270.59 1429.73 1286.51 1431.01 1294.81 1431.69 1311.32"/><polygon class="cls-1" points="1449.31 1565.28 1456.98 1563.39 1465.22 1561.44 1473.55 1558.28 1481.15 1555.06 1502.14 1539.79 1511.09 1530.8 1523.81 1513.61 1526.33 1506.62 1530.8 1498.33 1532.7 1489.39 1532.06 1473.47 1528.86 1465.84 1525.05 1458.85 1514.19 1453.73 1503.4 1452.5 1497.02 1454.39 1488.76 1457.6 1482.36 1462.67 1477.94 1469.08 1472.16 1474.82 1464.52 1485.65 1460.1 1497.09 1456.29 1505.41 1448.63 1520.7 1446.75 1528.96 1444.21 1537.86 1440.99 1545.52 1439.72 1554.44 1441 1562.12 1449.31 1565.28"/><polygon class="cls-1" points="1282.47 1681.34 1280.54 1673.71 1277.38 1665.44 1272.27 1659.04 1265.89 1653.95 1258.88 1650.13 1251.9 1647.58 1237.88 1645.72 1221.95 1647.01 1211.74 1650.75 1204.11 1655.25 1197.11 1659.75 1185.03 1671.25 1181.21 1677.59 1172.31 1692.89 1171.04 1699.87 1164.65 1715.2 1164.03 1723.46 1158.96 1744.48 1157.65 1757.21 1158.3 1764.87 1157.06 1773.17 1160.22 1789.72 1162.81 1798.64 1167.94 1806.91 1171.7 1812.64 1177.48 1819 1183.88 1823.46 1192.15 1827.27 1215.72 1827.89 1228.43 1824.04 1239.28 1818.31 1244.36 1808.77 1249.42 1789.66 1253.25 1782.65 1258.97 1776.27 1268.52 1769.88 1276.15 1762.88 1278.74 1755.22 1281.24 1746.96 1284.43 1727.83 1285.68 1715.77 1286.34 1707.45 1284.41 1698.54 1282.47 1681.34"/><path class="cls-1" d="M2137.31,1118.16l-44.15-13.65,21-41.16a153.59,153.59,0,0,0,16.69-69.44c0-84.55-68.78-153.33-153.32-153.33a152.88,152.88,0,0,0-26.75,2.38l-37.74,6.75-7.27-37.64C1860.64,578.32,1654.67,408.66,1416,408.66c-217.91,0-408.84,139.27-475.08,346.57l-20.08,62.83-45.24-48C813.49,704.12,729.3,667.81,638.58,667.81c-179.81,0-326.1,146.29-326.1,326.1a327.46,327.46,0,0,0,9.7,79.2l8.81,35.28-34.62,11.15c-168.53,54.17-286.23,215.64-286.23,392.67,0,215.86,166.7,393.39,378.11,410.94,37.49,174.06,192.23,304.54,377.5,304.54,178,0,327.78-120.44,372.53-284.24A385.92,385.92,0,0,0,1631.19,1926a386,386,0,0,0,351.07-1.32h33.07c227.44,0,412.48-185,412.48-412.48C2427.81,1333,2308.35,1171,2137.31,1118.16ZM1885.73,881.63l36.47,30.52,40.32-25.36-17.7,44.15,36.48,30.21-47.46-2.85-17.58,44-11.64-46-47.45-3.19,40.21-25.37ZM1496.81,778.05l55.37-103.39,15.48,116.14L1683.57,812l-106.32,50.58L1593.16,979l-80.94-85L1407,944.73l54.91-103.28-80.1-84.84ZM635.12,730.23a211.87,211.87,0,0,1,51.48,6.3,211.27,211.27,0,0,0-89.49,172.84c0,99.26,68.2,182.46,160.3,205.49a210.37,210.37,0,0,1-122.29,38.88c-116.94,0-211.79-94.78-211.79-211.79S518.18,730.23,635.12,730.23Zm-225.28,439,34,9.66,19.72-29.44,1.54,35.27,33.94,9.66-33.23,12.19,1.37,35.38-21.91-27.57-33.12,12.29,19.55-29.76ZM809.2,1751.76,806,1768.28l-1.9,7.7L801,1783.6l-1.94,7-5.08,8.31-7.64,14.63-4.47,6.37-7,5.76-5.68,7-7.69,8.29-10.81,7-7,4.47-7,3.84-8.3,2.55L720.1,1862l-7.65,2.53-8.29,1.27-7.63,1.3-8.28.64-9.56.65H671l-8.26-1.28-9.56-.61-15.29-3.84-8.26-3.17L613,1854.44l-7-3.79-6.34-4.46L593.3,1843l-10.21-8.24-5.09-9.6,1.9-8.25,3.17-7,4.45-6.4,10.21,1.94,11.46,4.44,7.64,5.73,14.69,7,7.64,3.18,8.3,2.53,8.24,1.25,8.31,1.9,7.67.64h7.66l9.51-.66,14.66-3.8,9.56-1.91,7-3.85,16.56-12.1,9.52-8.9,5.13-5.75,8.25-14.68,4.44-7,1.9-7.65,2.55-8.93,1.27-8.28.62-7-1.24-8.3V1725l-5.82-24.83-4.41-7L755,1686.8l-12.1-13.35-7-4.46-5.74-5.75-7-4.43-17.19-6.37-7.64-3.2-12.71-2.51-9.59-1.25-21-1.3-12.11-2.53-11.49-4.43-4.48-6.37-1.26-8.26,2.5-7.06,8.35-6.37,26.69-12.75L686.12,1583l25.48-21.66,4.43-7.65,5.75-6.38,4.47-7L737.67,1518l.65-8.94,1.24-7.61-.63-8.9-2.53-8.31-.66-8.92-5.11-7-4.43-5.77-5.78-5.06-7.62-3.23-9.55-1.21H691.11l-10.81.61-7.63,1.29-8.28,3.83-7.65,1.88-7,4.51L644,1469l-7,5.06-14,14.07-7,10.16-12.72,19.78-4.43,7.61-2.57,7.68-4.45,8.29-1.89,7-3.2,8.3-2.52,8.31-3.82,7.62-2.55,7.66-1.9,7.64-1.27,8.29-3.16,17.18-3.2,7.68-2.52,8.9v8.29l-2.55,7.63L559.43,1671v8.28l-3.81,17.85v7l-1.24,8.27-.66,16.55-3.17,17.84v7.67l-1.25,8.3-.65,8.21-1.87,9-1.9,32.51-1.27,9.52-1.94,15.93,1.33,7.66-3.17,12.08-6.37,9.56-7.63,1.93-8.33-.63-7-1.9-4.44-10.18-1.93-12.13-.64-7,1.28-8.88,1.27-8.31.59-7.59-.6-9,1.91-8.24.61-24.87,1.25-7.63-.65-8.29.64-8.31.61-16.51.65-8.32-1.28-8.28,1.91-8.29v-8.26l.62-8.9-.63-7.66L511,1663.4l1.93-7L511,1639.2V1622l-.66-7.65L509,1597.78l.64-7.63-1.89-8.92.62-8.3-2-12.08-2.54-11.46-1.91-8.9-1.91-7-.67-8.26-1.91-8.94-3.19-7L489.24,1494l-2.58-8.27-3.18-7.67-3.81-7-3.84-7.7-5.75-6.36-7.64-7.65-13.39-11.47-4.47-9.53v-8.91l5.1-7,7.63-3.84,10.85,1.26,12.07,5.73,5.11,5.73,6.39,6.38,5.73,5.07,5.13,7.66,9.54,13.36,4.46,8.32,2.58,7,2.56,7.62,3.18,7.66,2.52,8.31,3.88,7.59.6,7.66,1.31,8.92,2.56,11.46,2.54,12.73V1550l.64,7.66,2.54,16.59.69,26.12.65,4.47,1.9-4.47v-7.67l1.25-8.9,3.82-16.57,5.72-15.28,1.91-8.29,2.53-8.29,3.19-7,1.27-8.31,3.16-7.61,8.89-14.68,2.55-7.66,5.73-7,6.39-10.21,7-9.58,5.72-7.67,4.47-5.68,7-5.11,7-5.73,21-12.15,6.35-4.42,8.31-1.32,7-3.18,12.09-2.56,12.08-.63,16.57-.67,8.93,1.27,7.66,1.9,7.63,2.55,8.28,3.19,7,4.46,6.4,5.07,5.06,4.46,5.76,5.73,4.44,7,7.64,14.66.65,8.26,2.58,7.65.61,8.31,0,24.18-1.88,7-1.94,8.31-3.8,7.62-5.74,16-5.05,5.7-7,10.86-7,9.57-6.38,5.73-7,4.45-14,10.84-5.73,3.82-8.28,5.09-7,3.19-3.18,3.83,7.64,3.82,13.36,1.9,6.38,2.57,12.74,3.81,12.14,5,7.61,5.15,7.66,3.76,6.36,5.1,5.13,6.39,7,6.38,5.07,5.72,5.73,7,2.56,6.32,5.08,7.63,2.58,8.32,2.54,7,1.91,8.91,4.47,24.2v8.92Zm35.73-398-5.06-7-3.81-6.4-3.19-8.27-4.48-6.37L822,1309.25l-3.18-7-1.31-7.65-1.9-8.32-3.19-7.57-.67-7.67-1.87-9,.6-8.23-1.91-8.29v-8.28l-.66-8.9v-7l.65-8.87,1.89-21.71,3.18-21,.64-8.27,2.53-7.63v-7.67l2.57-8.92,6.33-15.93,1.29-7.63,3.17-7.64,1.9-8.92,3.84-7,2.53-7.69,4.47-8.27,2.54-7,5.08-7.67,3.2-7,4.45-7,3.79-8.3,10.18-13.42,4.45-7.65,16.55-17.8,6.35-5.78L911,981.1l6.35-5.12,14-10.17,8.28-3.2,7-3.83,7.65-3.85,15.29-5.09,7-3.21,8.91-.65,7.66-1.91,9.51-1.26h10.85l14,.63,7.66,1.89,8.26,1.93,6.36,3.81,8.32,4.43,7,5.13,9.57,11.45,5.73,7.62,3.18,6.42,4.45,16.51-.62,7.64.63,7.64-1.22,8.3-1.3,8.88-1.27,8.34-3.79,16.57-4.45,7-7,14.63-7,9.61-11.45,5.72-7.64-2.56-8.3-4.42v-11.46l2.56-12.14,2.53-7,4.47-7.68,1.87-7.62.67-8.27,2.5-8.3-1.26-7v-8.26L1046,1004l-3.84-7-5.06-7-4.5-3.78-7.64-3.88L1012.26,981H1000.1l-7,.62-8.93,2.62-7,1.92-25.47,12.72-15.93,12.75-6.95,6.36-15.93,17.86-13.39,21-5.7,6.37-3.18,7.66-3.82,7.67-3.82,7-3.8,7.67-1.92,7.65-3.83,7-3.79,7.64-6.34,24.2-3.2,7.66-1.29,8.87-.6,8.3-1.9,7.68-2.54,7.62-.64,12.09-1.27,13.4v8.29l-.64,8.26v8.31l-.63,7.62,1.29,8.3.58,8.29,1.36,8.88.63,7.67,3.18,7.67.66,8.26,3.81,7.63,3.18,8.91,3.83,6.36,2.52,8.31,9,14,12.1,10.83,10.86,7.65,10.79,6.31,7,3.88,6.36,2.53,9.58,2.51,7.63,1.93,8.94,1.27,19.09.62,42.73-7,10.13-4.48,7.68-2.53,10.83-6.39,5.7-4.49,10.18-6.33,7.65-6.41,4.45-5.72,7-5.76,5.07-5.72,4.48-7,5.07-7.68,4.47-7,5.73-6.38,3.84-8.26,8.9-16,.69-.41-.06-2.81.64-7.61-.66-8.32-1.26-8.26.62-8.91-.63-7.64.62-8.29.63-8.91-1.26-8.92,1.89-8.3.64-7.61v-7.68l.64-8.26v-8.93l1.89-7.65-.65-7.64,1.29-8.89-2.56-9.57-4.46-6.37-11.48-4.45-7-9,1.9-8.9,4.45-6.36,11.48-3.82,11.44-2.58,5.12-7.63,3.8-7,.64-8.3,2.55-7.64,4.42-8.92,1.92-7,3.18-8.28,3.82-7,15.89-28,4.48-6.43,7-6.34L1190,962.43l5.75-4.47,7-4.46,8.9-4.45,13.34-4.49,7.7-1.91,7.66-.66h13.36l13.36.63,5.76,2.53,15.94,7.64,5.09,4.45,5.73,6.38,4.46,5.76,7,15.25.65,7.62,1.91,8.33-1.27,7v8.23l-1.27,8.93-1.85,7.68L1306,1040l-3.8,7-14.64,21-7,9.55-10.2,8.27-7.61,4.47-7.7,3.83-7,5.07-14,7.08-24.87,7-9,1.92H1192l-7.63.62-8.3,1.27-10.19,3.85-5.74,8.94v15.25l-2.52,7.67.63,7.65-.62,8.26,1.3,8.29-1.91,15.93-.65,8.93,2.58,4.47,3.15-3.82,3.83-7.05,10.85-12.09,5-7,5.77-5.1,5-5.74,7-5.11,5.07-6.36,6.38-5.14,10.83-5.74,10.83-4.43,7-3.86,24.2-4.46,8.3-.63,8.29,1.25,7.65,1.26,8.22,2.54,5.8,3.86,4.43,4.41,4.46,7,4.46,6.36,5.11,14.66,1.29,8.26.65,7.67-1.26,17.18-1.27,8.26-1.9,8.29-.62,9-1.29,7.62-2.55,7.66-1.9,8.94-3.82,8.27-1.27,7.63-5.09,12.13-3.8,12.09-1.32,7-3.77,7.63v7.61l-.62,8.31-1.92,7.65,1.93,8.27,3.19,8.91,3.83,6.35,10.23,2.55,10.79-2,7.65-3.14,17.16-16,5.14-7.64,5.7-7,5.71-6.37,8.94-15.24,5.08-7,1.89-7,8.27-14.62,6.13-9,.29-3.11,1.23-8.32,1.87-8.26,2.57-7,1.9-8.27,3.19-7.68,12.72-22.29,4.47-7.65,4.45-6.38,5.73-7,15.25-14.66,17.86-11.48,6.35-3.16,8.31-2.58,8.28-3.21,8.25-1.26,12.76-.65,11.44.63,15.31,1.88,8.29,3.2,7,1.93,8.26,3.79,7,.63,7-7,5.07-6.37,12.11-.63,12.11,3.19,3.21,8.9.68,12.09.59,8.29-.58,7.67-1.91,17.18-1.29,8.9-1.22,24.21-2.58,17.16-.6,9,.61,7.61v8.94l-1.25,11.48v12.07l1.26,8.94-.6,8.92.61,8.27,1.3,8.3,1.89,7,2,8.9,6.37,6.36,10.83,2.57,11.46-2.58,5.75-3.19,8.28-4.49,9.55-13.37,5.72-5.73,5.1-7.62,5.73-6.41,3.15-7.62,5.75-7.66,3.15-7,3.82-7.66,5.77-8.26,5-8.12.07-.86v-7.63l.65-8.93v-8.26l2.57-7.66-.68-7.63,2.55-9v-7.59l1.3-8.3,4.42-15.3,1.91-24.86,3.83-15.91,1.25-7.63-4.44-9.56-8.33-5.09-13.36-5.09-9.57-7.62,1.92-9,3.8-7.61,10.86-1.29,8.91.66,14-2.58,3.19-8.31,4.39-24.85,1.94-15.88,1.88-31.86,3.15-12.76,5.14-10.2,7.63-1.9,9.56-.68,7.65,3.2,5.72,11.49v12.06l-.62,8.3v8.29l-1.89,7.63-.65,7.64V1048l-1.27,8.27v8.27l-3.16,17.19,3.83,7.69,7.64,4.41,8.93-1.26,25.45,3.15,12.09,5.11,8.33,7,1.24,8.24-3.78,7-9.58,2.57h-12.73l-8.91-2.55h-7.64l-9.58-.62h-8.26l-9.55,4.5-4.47,8.27-.62,8.27-1.27,8.92-1.25,7.65-2.55,7.63-1.31,8.93L1747,1185l-.63,7.67v8.29l-1.92,8.91-1.92,8.28.66,7.65-1.3,8.91-1.87,7.64,1.24,7-1.23,9.53-.66,8.3-1.92,7.62.67,8.31-.66,8.27,1.3,12.74.64,12.08,2.56,8.31,1.3,8.24,3.83,7.68,5.09,6.35,5.78,5.71,7.59,3.8,8.31,3.23,10.81-1.29,12.73-2,7.66-2.52,6.35-3.18,12.75-9,7-5.72,4.45-7,5.12-5.74,5.1-6.41,3.8-7,5.71-7,4.47-7,3.82-7.66,4.47-7.67,3.17-8.24,5.7-9.6,9.56-5.72,8.3,1.27,6.39,4.44v12.11l-2.57,10.81L1884,1314.86l-12.12,21-5.7,6.37-8.92,13.37-20.34,19.79-16.59,12.11-8.24,3.19-7,1.88-8.28,2.57-11.48,1.92h-16.52l-13.41-2.48-7-2.58-7-1.89-7-4.46-7.66-5.08-6.36-5.73-13.43-21-1.25-8.27-3.19-7.62-2.69-14.46-3.71,6.8-4.46,6.39-3.82,7-5,7-5.12,5.69-4.45,6.41-7,7-5.1,4.48-11.46,7-17.18,9-12.78,2.5-12.09.68-7-1.89-9.57-5.73-8.93-7.67-4.48-6.31-3.86-6.43L1568,1341.8l-4.48-4.44-3.8,3.2-4.48,5.74-4.42,7-6.36,6.37L1540,1366l-7,4.48-12.75,10.23-6.36,3.82-14,6.36-9,1.88-23.57,2.58-9.56-1.25-7.64-1.3-8.28-2.49-7.64-3.86-7-3.79-6.39-4.47-5.71-5.71-11.47-14-3.23-7.64-3.81-7-.65-8.93-3-7.24-2.75,3.41-3.82,7-5.7,7.63-5.1,7-7,9.59-9.57,9.6-7,5.69-5.1,5.1-7.63,5.11L1333,1391l-21,5.76-12.73.62-7.66-2.48-7-1.31-8.31-3.79-5.73-5.1-8.3-13.39-4.43-7-4.51-15.88v-8.34l-1.31-16.53,1.3-8.28,1.26-7.63,1.92-8.3,1.3-7.65,5.69-21,7-15.3,2.54-11.47,3.17-8.3,1.9-7.61.67-8.93,1.24-7.68v-17.17l.64-7.63-3.81-8.3-5.13-5.11L1264,1170h-12.74l-12.09,2.6-6.37,3.83-7,2.57-7,3.79-5.73,5.73-6.4,4.47-16.55,19.15-3.82,6.35-4.43,6.35-3.8,7-9.54,14.63-3.83,7.06-2.54,7.64-2.55,11.47-1.89,12.72,1.3,8.29-1.91,15.92.63,8.31,1.31,17.82,0,24.21-1.29,7.63.63,13.41-5.09,12-7.61,2.57-7,1.92-9.55-1.91-6.39-8.93-1.93-12.71,0-16.56-1.26-8.27-.65-7v-8.93l1.07-14-5.52,8.37-3.85,6.37-6.37,7-5.08,7L1094,1353l-7,5.76-11.45,11.49-5.71,4.48-7.05,4.45-29.94,14.66-7,2.57-7.63,1.91-8.26,2.53-7,1.92-42,3.88H952l-23.57-3.18-7.64-1.91-9.54-1.93-22.32-9.49-7.66-4.5-7-4.41-11.44-9.57-12.77-12.08Zm1053,403.57-4.47,7-5.1,7.63-3.2,6.37-4.43,7-4.45,7.65-2.56,5.75-10.16,13.37-6.37,6.37-12.73,10.86-6.38,4.48-5.12,4.42-8.26,3.84-6.38,1.93-29.29,5.77-8.91,4.43-8.28,4.51-5.1,3.8-12.73,5.1-20.37,3.82h-11.48l-11.44-1.26-8.31-3.2-7.65-3.79-13.37-10.85-5.71-7-2.59-7v-7l.65-5.72,2.5-6.39,5.77-7,7.65-3.83,8.28,3.81,5.72,7,4.46,5.75,5.1,5,12.14,2.57,10.81.63,8.26-3.22,5.74-7.58,3.8-10.24,1.29-7.68,4.45-7.62,7.63-9,.62-9.54-1.91-8.27-.65-8.92-3.84-7-3.18-7.66-4.46-7.67-8.27-15.27-15.33-22.28-3.16-7-6.38-8.28-3.19-7.65-5.1-4.44-7,1.27-7,5.76-15.92,27.39-2.5,7-3.87,8.25-3.8,7.66-4.45,7-2.55,6.34-3.6,4.88-1.52,6.61-3.15,7-4.47,8.31-5.07,7.63-4.48,6.35-2.5,7-5.1,7-4.47,7.64-3.82,7-4.47,7.06-5.73,7-5.72,5.77-3.83,5.68-6.35,5.13-6.35,6.39-7,5.11-7.63,3.15-6.35,3.21-8.93,2.53-11.51,1.3-11.46.61-22.92-7.61-11.45-8.91-5.73-5.71-7-6.38L1489,1827.7l-6.41-10.2-5.76-15.24-4.46-7.64-2.54-7.65-1.92-8.32-1.27-10.8-.63-12.13,1.25-8.31,5.07-6.31,5.78-5.11,23.54-5.15,7.65-3.75,9.51-3.24,6.4-4.49,5.73-5.1,6.37-6.36,3.8-7,5.74-16,.63-8.29-1.91-8.23L1543,1662l-7-6.37-7-3.19-7-1.23h-12.71l-11.51,2.53-8.86,3.85-14,7-5.75,5.73-6.35,5.75-5.7,5.1-5.77,7-6.35,7-3.85,6.37-5,7.65-2,7.63-5,6.39-3.84,12.75-.62,11.41-1.23,8.31.57,8.29-1.25,8.27-.64,8.28.66,16.58.7,8.29-1.94,8.31,1.26,7.65,1.26,8.85-1.9,7.66.66,14-5,11.45-5.15,2.54-9.53,1.26-9-1.89-6.39-8.87-1.26-11.49-.64-15.94-2-8.89v-7.66l1.29-8.9-.63-7.67-.09-2.94-4.36,8-6.37,9.56-7.63,8.91-5.73,5.12-6.37,5.7-6.4,4.51-8.26,3.8-6.37,3.84-7.64,1.93-24.21.64-7-1.28-9.54-1.89h-10.18l-9.56,3.2-18.48,10.85-10.2,4.47-8.26,2.55-7,1.89-7.61.63-13.4.66-11.47-1.26-7.63-.63-16.57-7-7.63-3.82-5.74-6.35-7-4.46-5.73-6.37-4.49-7.64-5.06-7-2.58-7.06-4.46-8.29-.63-8.23-.79-3.67-3.69,6.83-6.37,9.57-7.63,8.91-5.75,5.12-6.35,5.7-6.35,4.5-8.3,3.8-6.38,3.85-7.63,1.93-24.18.64-7-1.28-9.53-1.9h-10.21l-9.53,3.19-18.51,10.85-10.18,4.47-8.28,2.55-7,1.9-7.64.63-13.36.66-11.5-1.27-7.62-.62-16.54-7-7.66-3.82-5.76-6.34-7-4.46-5.71-6.38-4.48-7.64-5.09-7-2.6-7.06-4.39-8.29-.68-8.23-1.91-8.93-2.58-7.66,1.29-8.94-1.93-8.26,1.25-8.3,3.18-25.49.64-8.88,1.25-7.67,2.62-8.89,1.18-7,3.84-8.92,2.57-8.27,5.72-7,2.53-7.68,5.7-7,5.12-7,3.83-7,11.49-11.5,7.59-5.77,13.38-8.28,8.3-3.19,8.26-1.91,7.65-2.54,12.71-1.9,17.22-1.32,12.73,1.3,17.24,2.51,14.64,7.62,7,3.86,7,5.7,5.74,6.35,4.43,6.4,4.49,7,3.22,8.29,7,24.84-.62,7.63.63,8.95,1.33,8.26-.66,8.91-1.27,12.78-1.89,12.72-.6,8.24-8.29,24.88-1.29,8.28-3.78,8.29-3.19,7-.65,8.28,5.11,3.82,13.38-1.28,10.18-5.1,7-5.1,6.37-5.09,4.45-7.68,5.73-6.36,7.62-14,5.1-7,3.17-7.6,2.53-7.68,7.91-10.36.38-3,.64-8.89,1.23-7.66,2.54-8.89,1.3-7,3.82-8.92,2.55-8.28,5.72-7,2.55-7.68,5.7-7,5.12-7,3.8-7,11.48-11.5,7.65-5.77,13.38-8.28,8.25-3.2,8.28-1.91,7.63-2.53,12.74-1.9,17.21-1.33,12.74,1.31,17.19,2.5,14.69,7.62,7,3.86,7,5.7,5.73,6.36,4.46,6.4,4.48,7,3.19,8.29,7,24.84-.62,7.62.63,9,1.28,8.26-.62,8.91-1.26,12.78-1.92,12.72-.62,8.25-8.26,24.87-1.25,8.29-3.85,8.28-3.17,7-.66,8.27,5.15,3.83,13.38-1.29,10.16-5.1,7-5.1,6.38-5.08,4.44-7.68,5.73-6.36,7.62-14,5.1-7,3.22-7.61,2.53-7.68,7.62-10v-12.27l-1.26-15.94.6-8.92.64-8.29-.65-7.6,3.18-16-1.28-8.94,1.27-7.63v-8.26l1.27-8.34,1.89-8.9-1.3-7.62,2-9-2.58-7.62-9.58-7-11.44-5.06-6.37-8.93.62-8.92,3.83-7,9.55-3.16,11.44,2.52,7.66-2.54,6.35-7,1.92-8.27.64-8.29,2.52-8.28,3.85-7.68,2.52-8.24,3.8-7,1.27-7.65,5.75-8.3,3.17-7.63,19.75-27.4,5.75-7.06,3.8-5.72,8.25-5.06,7-6.4,7.63-3.18,8.31-3.83,5.72-3.21,8.29-1.92,8.93-1.3h13.36l13.36,1.91,7.66,2.54,13.41,8.94,9.55,12.71,3.81,7.63,1.3,8.33,3.19,7.6.63,7.64-4.44,25.5-1.92,7-3.17,7.68-5,11.46-5.77,11.45-6.35,7.69-9.57,9.56-7,8.9-13.38,9.57-9.53,5.73-10.23,5.75-14.61,6.42-9.53,2.52-8.33,1.26-7.63,1.92-15.26,1.94-8.33,4.43-5.7,8.32v8.91l-1.9,7.64-1.92,8.29.63,8.3-1.29,9.52.68,7.68-.67,8.93.68,4.44,5.08-2.57,6.4-5.72,3.77-6.37,14.68-14.67,8.92-7.67,15.91-10.2,11.46-5.08,12.75-3.84,7.64-1.3,12.08-2.55,24.85,3.82,7,2.52,7.61,4.49,7,5.07,4.46,6.39,3.84,6.33,2.53,7.66,2,8.29,2.52,7.67.66,16.55-4.47,16.56-1.87,7-2.57,7.64-5.06,7-4.44,7.64-16.56,17.18-7,4.51-14,7.63-8.89,2.56-7,2.59-7.65,5.08-1.29,8.91,2.58,8.25,7.64,14.69,3.18,8.26,10.85,11.46,7,5.75,7.65,3.8,12.14,1.28,10.18-2.57,14-7.66,5.08-6.38,5.75-5.74,7-5.73,9.55-14.62,3.82-6.42,3.82-7.61,14-21.66,2.53-8.35,5.52-9.79.83-2.94,4.47-7.62,2.52-7,4.47-8.32,2.55-7,5.07-7.64,3.15-7,5.13-7.66,5.7-6.37,3.84-7.62,5.73-5.74,4.47-6.4,6.38-5.06,5.72-10.2,5.08-11.5,1.26-8.27,2.53-8.3,5.12-6.37,5.7-7,7.68-4.47,8.28-1.3h7.63l8.91,1.92,5.76,5.72,3.16,6.36,1.93,7.66-1.29,8.89-2.53,8.31-4.45,7-4.44,12.07,1.24,11.48,6.43,14.67,8.89,10.15,7,9.59,7.64,14.61,5.11,7.68,6.39,14,4.44,7.63,3.2,7,2.54,8.25,4.48,7,1.26,7.66.68,13.35,2.54,12.1-1.9,8.31,2.54,7.64,7.65.63,7-2.56,7-5.1,5.73-6.38,3.8-5.72,5.72-7,3.85-7.66,5.7-7.63,4.5-7,5-8.28,10.19-19.11,8.28-6.38,8.91,3.17,5.71,5.73.66,10.82Zm88.51-112.5-55.09-24.28-39.71,45,5.55-59.63-54.87-24.39,58.6-12.74,5.83-60,30.37,52.07,59-13.18L1956,1593Z"/></g></g></svg>