<?xml version="1.0" encoding="utf-8"?>
<!-- Generator: Adobe Illustrator 21.0.0, SVG Export Plug-In . SVG Version: 6.00 Build 0) -->
<svg version="1.1" id="Capa_1" xmlns="http://www.w3.org/2000/svg" xmlns:xlink="http://www.w3.org/1999/xlink" x="0px" y="0px" viewBox="0 0 1200 1200" style="enable-background:new 0 0 1200 1200;" xml:space="preserve">
	<style type="text/css">
		.st0 {
			fill: url("#SVGID_1_");
		}
		.st1 {
			fill: #FFFFFF;
		}
		.st2 {
			fill: #599BEE;
		}
		.st3 {
			fill: url("#SVGID_2_");
		}
		.st4 {
			fill: url("#SVGID_3_");
		}
		.st5 {
			fill: url("#SVGID_4_");
		}
		.st6 {
			fill: url("#SVGID_5_");
		}
		.st7 {
			fill: url("#SVGID_6_");
		}
		.st8 {
			fill: url("#SVGID_7_");
		}
		.st9 {
			fill: #960000;
		}
		.st10 {
			fill: #EBD8BB;
		}
		.st11 {
			opacity: 0.26;
			fill: #272425;
		}
		.st12 {
			fill: #233048;
		}
		.st13 {
			fill: #1C283A;
		}
		.st14 {
			fill: #9BCDDF;
		}
		.st15 {
			fill: #6EBDCD;
		}
		.st16 {
			fill: #B6E4EF;
		}
		.st17 {
			fill: #C90100;
		}
		.st18 {
			fill: url("#SVGID_8_");
		}
		.st19 {
			fill: url("#SVGID_9_");
		}
		.st20 {
			opacity: 0.26;
		}
		.st21 {
			fill: #272425;
		}
		.st22 {
			fill: #E9E3D8;
		}
		.st23 {
			opacity: 0.69;
		}
		.st24 {
			fill: #82CEC2;
		}
		.st25 {
			fill-rule: evenodd;
			clip-rule: evenodd;
			fill: #FFFFFF;
		}
		.st26 {
			fill: #7E2B89;
		}
		.st27 {
			fill: none;
			stroke: #599BEE;
			stroke-width: 9.7595;
			stroke-miterlimit: 10;
		}
		.st28 {
			fill: none;
			stroke: #FFFFFF;
			stroke-width: 8.9147;
			stroke-miterlimit: 10;
		}
		.st29 {
			fill: #E27F25;
		}
		.st30 {
			fill: none;
			stroke: #FFFFFF;
			stroke-width: 8.9152;
			stroke-miterlimit: 10;
		}
		.st31 {
			fill: #211915;
		}
		.st32 {
			fill: none;
			stroke: #FFFFFF;
			stroke-width: 8.885;
			stroke-miterlimit: 10;
		}
		.st33 {
			fill: #FFFFFF;
			stroke: #FFFFFF;
			stroke-width: 1.5743;
			stroke-miterlimit: 10;
		}
		.st34 {
			fill: none;
			stroke: #FFFFFF;
			stroke-width: 8.8329;
			stroke-miterlimit: 10;
		}
	</style>
	<g>
		<radialGradient id="SVGID_1_" cx="576.3304" cy="612.5396" r="521.5396" gradientUnits="userSpaceOnUse">
			<stop offset="0.5217" style="stop-color:#202020"/>
			<stop offset="0.5776" style="stop-color:#434343"/>
			<stop offset="0.6914" style="stop-color:#858585"/>
			<stop offset="0.7946" style="stop-color:#BABABA"/>
			<stop offset="0.8837" style="stop-color:#DFDFDF"/>
			<stop offset="0.9552" style="stop-color:#F7F7F7"/>
			<stop offset="1" style="stop-color:#FFFFFF"/>
		</radialGradient>
		<path class="st0" d="M576.3,1134.1L576.3,1134.1c-288,0-521.5-233.5-521.5-521.5l0,0C54.8,324.5,288.3,91,576.3,91l0,0
		c288,0,521.5,233.5,521.5,521.5l0,0C1097.9,900.6,864.4,1134.1,576.3,1134.1z"/>
		<path class="st1" d="M601.2,972.3L601.2,972.3c-227.8,0-412.4-184.6-412.4-412.4l0,0c0-227.8,184.6-412.4,412.4-412.4l0,0
		c227.8,0,412.4,184.6,412.4,412.4l0,0C1013.6,787.7,829,972.3,601.2,972.3z"/>
	</g>
	<g>
		<circle class="st2" cx="600.9" cy="654.9" r="42.4"/>
		<path class="st2" d="M650,716.4c-13.5,10.8-30.5,17.2-49.1,17.2s-35.6-6.5-49.1-17.2c-14.5,13.3-23.6,32.4-23.6,53.6v18.2
		c0,10,8.1,18.2,18.2,18.2h109c10,0,18.2-8.1,18.2-18.2v-18.2C673.5,748.7,664.5,729.7,650,716.4z"/>
		<path class="st2" d="M683.8,426.7v15.1h163.5c20.1,0,36.3-16.3,36.3-36.3c0-20.1-16.3-36.3-36.3-36.3H741.4
		C709.6,369.2,683.8,394.9,683.8,426.7z"/>
		<path class="st2" d="M683.8,499.3c0,45.1,36.7,81.7,81.7,81.7s81.7-36.7,81.7-81.7v-21.2H683.8V499.3z"/>
		<path class="st2" d="M436.2,581.1c45.1,0,81.7-36.7,81.7-81.7v-32l-19.9,5c-6.2,1.6-12.6,2.3-18.9,2.3c-15.2,0-30.2-4.4-42.9-12.6
		c-18.1,11.7-40.6,15.6-61.8,10.3l-19.9-5v32C354.5,544.4,391.2,581.1,436.2,581.1z"/>
		<path
			class="st2"
			d="M423.4,425.9c3.4-3.4,8-5.3,12.8-5.3c4.8,0,9.4,1.9,12.8,5.3c10.5,10.5,25.9,14.7,40.2,11.1l26.1-6.5
		c-5.7-22.3-20.6-40.9-40.4-51.6c4.2-6.9,6.7-15,6.7-23.7c0-25.1-20.3-45.4-45.4-45.4c-25.1,0-45.4,20.3-45.4,45.4
		c0,8.7,2.4,16.8,6.7,23.7c-19.8,10.7-34.7,29.3-40.4,51.6l26.1,6.5C397.5,440.7,412.9,436.4,423.4,425.9z"/>
		<path
			class="st2"
			d="M858.8,571.6c-21.6,27.8-55.4,45.7-93.3,45.7c-37.9,0-71.6-17.9-93.2-45.7c-9.8,4.6-18.7,11-26.4,18.8
		c20.3,14.2,33.6,37.8,33.6,64.5c0,11.7-2.6,22.9-7.2,32.9c0.7,0.6,1.4,1.2,2.1,1.8c22.2,20.3,35,49.1,35.3,79.1h182.9
		c10,0,18.2-8.1,18.2-18.2v-96.9C910.9,617.5,889.6,586.2,858.8,571.6L858.8,571.6z"/>
		<path
			class="st2"
			d="M522.2,654.9c0-26.6,13.3-50.2,33.6-64.4c-7.5-7.8-16.4-14.2-26.3-18.9c-21.6,27.8-55.4,45.8-93.3,45.8
		s-71.7-17.9-93.3-45.8c-30.7,14.6-52,45.9-52,82.1v96.9c0,10,8.1,18.2,18.2,18.2h182.9c0.3-30,13.2-58.8,35.3-79.1
		c0.7-0.6,1.4-1.2,2.1-1.8C524.8,677.8,522.2,666.7,522.2,654.9z"/>
	</g>
</svg>
