<?xml version="1.0" encoding="utf-8"?>
<!-- Generator: Adobe Illustrator 21.0.0, SVG Export Plug-In . SVG Version: 6.00 Build 0) -->
<svg version="1.1" id="Capa_1" xmlns="http://www.w3.org/2000/svg" xmlns:xlink="http://www.w3.org/1999/xlink" x="0px" y="0px" viewBox="0 0 1200 1200" style="enable-background:new 0 0 1200 1200;" xml:space="preserve">
	<style type="text/css">
		.st0 {
			fill: url("#SVGID_1_");
		}
		.st1 {
			fill: #FFFFFF;
		}
		.st2 {
			fill: #599BEE;
		}
		.st3 {
			fill: url("#SVGID_2_");
		}
		.st4 {
			fill: url("#SVGID_3_");
		}
		.st5 {
			fill: url("#SVGID_4_");
		}
		.st6 {
			fill: url("#SVGID_5_");
		}
		.st7 {
			fill: url("#SVGID_6_");
		}
		.st8 {
			fill: url("#SVGID_7_");
		}
		.st9 {
			fill: #960000;
		}
		.st10 {
			fill: #EBD8BB;
		}
		.st11 {
			opacity: 0.26;
			fill: #272425;
		}
		.st12 {
			fill: #233048;
		}
		.st13 {
			fill: #1C283A;
		}
		.st14 {
			fill: #9BCDDF;
		}
		.st15 {
			fill: #6EBDCD;
		}
		.st16 {
			fill: #B6E4EF;
		}
		.st17 {
			fill: #C90100;
		}
		.st18 {
			fill: url("#SVGID_8_");
		}
		.st19 {
			fill: url("#SVGID_9_");
		}
		.st20 {
			opacity: 0.26;
		}
		.st21 {
			fill: #272425;
		}
		.st22 {
			fill: #E9E3D8;
		}
		.st23 {
			opacity: 0.69;
		}
		.st24 {
			fill: #82CEC2;
		}
		.st25 {
			fill-rule: evenodd;
			clip-rule: evenodd;
			fill: #FFFFFF;
		}
		.st26 {
			fill: #7E2B89;
		}
		.st27 {
			fill: none;
			stroke: #599BEE;
			stroke-width: 9.7595;
			stroke-miterlimit: 10;
		}
		.st28 {
			fill: none;
			stroke: #FFFFFF;
			stroke-width: 8.9147;
			stroke-miterlimit: 10;
		}
		.st29 {
			fill: #E27F25;
		}
		.st30 {
			fill: none;
			stroke: #FFFFFF;
			stroke-width: 8.9152;
			stroke-miterlimit: 10;
		}
		.st31 {
			fill: #211915;
		}
		.st32 {
			fill: none;
			stroke: #FFFFFF;
			stroke-width: 8.885;
			stroke-miterlimit: 10;
		}
		.st33 {
			fill: #FFFFFF;
			stroke: #FFFFFF;
			stroke-width: 1.5743;
			stroke-miterlimit: 10;
		}
		.st34 {
			fill: none;
			stroke: #FFFFFF;
			stroke-width: 8.8329;
			stroke-miterlimit: 10;
		}
	</style>
	<g>
		<g>
			<radialGradient id="SVGID_1_" cx="585.4149" cy="612.5396" r="521.5396" gradientUnits="userSpaceOnUse">
				<stop offset="0.5217" style="stop-color:#202020"/>
				<stop offset="0.5776" style="stop-color:#434343"/>
				<stop offset="0.6914" style="stop-color:#858585"/>
				<stop offset="0.7946" style="stop-color:#BABABA"/>
				<stop offset="0.8837" style="stop-color:#DFDFDF"/>
				<stop offset="0.9552" style="stop-color:#F7F7F7"/>
				<stop offset="1" style="stop-color:#FFFFFF"/>
			</radialGradient>
			<path class="st0" d="M585.4,1134.1L585.4,1134.1c-288,0-521.5-233.5-521.5-521.5l0,0C63.9,324.5,297.4,91,585.4,91l0,0
			c288,0,521.5,233.5,521.5,521.5l0,0C1107,900.6,873.5,1134.1,585.4,1134.1z"/>
			<path class="st1" d="M610.3,972.3L610.3,972.3c-227.8,0-412.4-184.6-412.4-412.4l0,0c0-227.8,184.6-412.4,412.4-412.4l0,0
			c227.8,0,412.4,184.6,412.4,412.4l0,0C1022.7,787.7,838.1,972.3,610.3,972.3z"/>
		</g>
		<g>
			<g>
				<path
					class="st2"
					d="M962.2,435.2c-5.3-2.2-13.9-6.7-24.1-9.4c-10.2-2.9-23.9-7.6-38-8.8c-14.2-1.5-30.2-1.9-47.7-1.1
				c-17.1,1.4-34.4,5-53.1,9.8c-18.6,4.8-35.6,12.8-53.8,21.5c-17.7,9-33.9,20.3-50.1,32.6c-15.3,12.7-29.8,26.7-43.1,41.6
				c-12.4,15.3-24.7,31.1-34.1,47.9c-9.8,16.7-18.2,33.9-24.3,51.5c-13,34.9-18.2,70.7-18.8,102.7c0,16.2,1,31.2,3,45.1
				c1.8,13.7,5.2,26.4,7.8,36.7c1.1,4.8,2.6,9.4,4.1,13.5c2.6-5.5,5.5-11.3,8.6-17.6c15.7-31.2,38.7-71.8,65.5-109.9
				c13.4-19.1,28-37.2,42.3-53.5c7.6-7.9,14.9-15.4,21.8-22.6c7.4-6.7,14.4-13,20.9-18.8c7-5.2,13.3-10,19-14.2
				c5.4-4.5,11.1-7.1,15.3-9.8c8.7-5.1,13.6-8.1,13.6-8.1s-4.7,3.3-12.9,9.1c-4,3.1-9.4,6-14.4,10.9c-5.2,4.6-11.1,9.8-17.6,15.5
				c-5.9,6.3-12.3,13-19,20.1c-6.2,7.6-12.8,15.6-19.5,23.8c-12.8,17.2-25.6,36-37.2,55.6c-23.3,39.2-42.5,80.6-55.4,112.1
				c-3.6,8.9-6.7,16.8-9.3,23.8c5.5-1.5,12.5-3,20.1-5.8c9.6-3.3,22-6.8,34-11.7c12.3-4.7,25.4-10.3,38.7-16.6
				c13.4-6.2,26.5-13.6,40-21.3c13.4-7.7,26.1-16.5,38.7-25.5c12.3-9.4,24.4-18.9,35.5-29.4c10.9-10.8,21.9-20.9,31.5-32.6
				c19.6-22.4,36.3-46.4,49.9-71.8c7.1-11.9,13-25.8,18.7-38.4c5.8-12.5,10.8-26.3,15.7-39c5-12.4,9.6-25.1,13.6-37.3
				c4.4-12.7,8.3-23.7,11.5-32.7c3.7-9,6-18.4,8.1-24c1.9-6.3,2.9-9.6,2.9-9.6S967.7,437.7,962.2,435.2z"/>
				<path
					class="st2"
					d="M528.1,715.6c-19.1-13.4-37.1-28-53.5-42.3c-7.8-7.5-15.4-14.9-22.6-21.8c-6.7-7.4-13-14.4-18.8-20.9
				c-5.2-6.9-10-13.3-14.2-19c-4.5-5.4-7.1-11.1-9.8-15.3c-5.1-8.6-8.1-13.6-8.1-13.6s3.3,4.7,9.1,12.9c3,4,6,9.4,10.9,14.4
				c4.6,5.2,9.8,11.1,15.5,17.6c6.2,5.9,13,12.3,20.1,19c7.6,6.2,15.6,12.8,23.8,19.5c17.2,12.7,36,25.6,55.6,37.2
				c8.1,4.9,16.4,9.1,24.6,13.5c2.7-43.9,11.7-87.4,25.2-126.9c-7.7-10-15.6-19.8-24.2-28.9c-10.8-10.9-20.9-22-32.6-31.5
				c-22.5-19.6-46.4-36.3-71.8-49.9c-11.9-7.1-25.8-13-38.4-18.7c-12.4-5.8-26.2-10.8-38.9-15.7c-12.5-5-25.1-9.5-37.4-13.6
				c-12.6-4.4-23.6-8.3-32.7-11.5c-9-3.7-18.5-6-24-8.1c-6.2-1.9-9.6-2.9-9.6-2.9s-1.8,3-4.4,8.5c-2.1,5.3-6.7,13.9-9.4,24.1
				c-2.9,10.1-7.6,23.9-8.8,37.9c-1.5,14.2-1.9,30.2-1.1,47.7c1.4,17.1,5,34.4,9.8,53c4.8,18.6,12.8,35.6,21.5,53.8
				c9,17.7,20.3,33.8,32.6,50c12.7,15.3,26.7,29.8,41.6,43.1c15.3,12.3,31.1,24.6,48,34.1c16.7,9.8,33.9,18.2,51.5,24.3
				c34.8,13.1,70.7,18.2,102.7,18.8c1.4,0,2.5-0.1,3.8-0.2c-3.4-22.4-4.7-45.3-4.2-68.2C549.3,729.6,538.7,723.1,528.1,715.6z"/>
			</g>
		</g>
	</g>
</svg>
