<?xml version="1.0" encoding="utf-8"?>
<!-- Generator: Adobe Illustrator 21.0.0, SVG Export Plug-In . SVG Version: 6.00 Build 0) -->
<svg version="1.1" id="Capa_1" xmlns="http://www.w3.org/2000/svg" xmlns:xlink="http://www.w3.org/1999/xlink" x="0px" y="0px" viewBox="0 0 1200 1200" style="enable-background:new 0 0 1200 1200;" xml:space="preserve">
	<style type="text/css">
		.st0 {
			fill: url("#SVGID_1_");
		}
		.st1 {
			fill: #FFFFFF;
		}
		.st2 {
			fill: #599BEE;
		}
		.st3 {
			fill: url("#SVGID_2_");
		}
		.st4 {
			fill: url("#SVGID_3_");
		}
		.st5 {
			fill: url("#SVGID_4_");
		}
		.st6 {
			fill: url("#SVGID_5_");
		}
		.st7 {
			fill: url("#SVGID_6_");
		}
		.st8 {
			fill: url("#SVGID_7_");
		}
		.st9 {
			fill: #960000;
		}
		.st10 {
			fill: #EBD8BB;
		}
		.st11 {
			opacity: 0.26;
			fill: #272425;
		}
		.st12 {
			fill: #233048;
		}
		.st13 {
			fill: #1C283A;
		}
		.st14 {
			fill: #9BCDDF;
		}
		.st15 {
			fill: #6EBDCD;
		}
		.st16 {
			fill: #B6E4EF;
		}
		.st17 {
			fill: #C90100;
		}
		.st18 {
			fill: url("#SVGID_8_");
		}
		.st19 {
			fill: url("#SVGID_9_");
		}
		.st20 {
			opacity: 0.26;
		}
		.st21 {
			fill: #272425;
		}
		.st22 {
			fill: #E9E3D8;
		}
		.st23 {
			opacity: 0.69;
		}
		.st24 {
			fill: #82CEC2;
		}
		.st25 {
			fill-rule: evenodd;
			clip-rule: evenodd;
			fill: #FFFFFF;
		}
		.st26 {
			fill: #7E2B89;
		}
		.st27 {
			fill: none;
			stroke: #599BEE;
			stroke-width: 9.7595;
			stroke-miterlimit: 10;
		}
		.st28 {
			fill: none;
			stroke: #FFFFFF;
			stroke-width: 8.9147;
			stroke-miterlimit: 10;
		}
		.st29 {
			fill: #E27F25;
		}
		.st30 {
			fill: none;
			stroke: #FFFFFF;
			stroke-width: 8.9152;
			stroke-miterlimit: 10;
		}
		.st31 {
			fill: #211915;
		}
		.st32 {
			fill: none;
			stroke: #FFFFFF;
			stroke-width: 8.885;
			stroke-miterlimit: 10;
		}
		.st33 {
			fill: #FFFFFF;
			stroke: #FFFFFF;
			stroke-width: 1.5743;
			stroke-miterlimit: 10;
		}
		.st34 {
			fill: none;
			stroke: #FFFFFF;
			stroke-width: 8.8329;
			stroke-miterlimit: 10;
		}
	</style>
	<g>
		<g>
			<g>
				<g>
					<path
						class="st1"
						d="M1082.9,718.2c-2.4-55.4-12-116.8-26.5-174.6c-14.5-55.4-32.5-107.2-54.2-146.9
					c-84.3-148.1-175.8-125.2-285.4-96.3c-34.9,8.4-72.3,18.1-110.8,21.7h-12c-38.5-3.6-75.9-13.2-110.8-21.7
					c-109.6-27.7-201.1-51.8-285.4,97.5c-21.7,39.7-40.9,91.5-54.2,146.9c-14.5,57.8-24.1,119.2-26.5,174.6
					c-2.4,61.4,3.6,106,16.9,137.3c13.2,28.9,32.5,47,57.8,54.2c22.9,6,49.4,3.6,77.1-8.4c47-19.3,101.2-60.2,154.1-109.6
					c37.3-36.1,107.2-54.2,177-54.2s139.7,18.1,177,54.2c53,49.4,107.2,90.3,154.1,109.6c27.7,10.8,54.2,14.5,77.1,8.4
					c24.1-7.2,44.6-24.1,57.8-55.4C1079.3,825.4,1085.3,780.8,1082.9,718.2z M1025.1,838.6c-7.2,16.9-16.9,26.5-28.9,30.1
					c-13.2,3.6-30.1,1.2-49.4-6c-42.1-16.9-91.5-54.2-139.7-99.9C761.4,717,680.7,694.1,600,694.1S438.6,717,391.7,760.3
					c-49.4,45.8-98.7,84.3-139.7,99.9c-19.3,7.2-36.1,10.8-49.4,6c-12-3.6-21.7-13.2-28.9-30.1c-9.6-22.9-14.5-60.2-12-115.6
					c2.4-51.8,10.8-110.8,25.3-166.2c13.2-51.8,30.1-99.9,50.6-136.1c66.2-119.2,143.3-99.9,234.8-75.9c37.3,9.6,75.9,19.3,118,22.9
					c1.2,0,1.2,0,2.4,0H606c1.2,0,1.2,0,2.4,0c43.4-3.6,81.9-13.2,119.2-22.9c91.5-22.9,168.6-43.4,234.8,75.9
					c20.5,36.1,37.3,83.1,50.6,136.1c13.2,55.4,22.9,113.2,25.3,166.2C1040.7,776,1035.9,813.3,1025.1,838.6z"/>
				</g>
			</g>
			<g>
				<g>
					<path
						class="st1"
						d="M489.2,483.4c-12-10.8-26.5-19.3-43.4-20.5c-1.2-15.7-8.4-31.3-19.3-42.1l-1.2-1.2
					c-13.2-13.2-30.1-20.5-49.4-20.5s-37.3,8.4-49.4,20.5c-10.8,10.8-19.3,26.5-20.5,43.4c-16.9,1.2-31.3,8.4-43.4,19.3l-1.2,1.2
					c-13.2,13.2-20.5,30.1-20.5,49.4c0,19.3,8.4,37.3,20.5,49.4c12,12,26.5,19.3,44.6,20.5c1.2,16.9,8.4,32.5,20.5,43.4
					c13.2,13.2,30.1,20.5,49.4,20.5s37.3-8.4,49.4-20.5c10.8-12,19.3-26.5,20.5-43.4c16.9-1.2,32.5-8.4,43.4-20.5
					c13.2-13.2,20.5-30.1,20.5-49.4C509.7,513.5,501.3,495.4,489.2,483.4z M459.1,550.8c-4.8,4.8-10.8,7.2-18.1,7.2h-16.9
					c-12,0-22.9,9.6-22.9,22.9v15.7c0,7.2-2.4,13.2-7.2,18.1c-4.8,4.8-10.8,7.2-18.1,7.2c-7.2,0-13.2-2.4-18.1-7.2
					s-7.2-10.8-7.2-18.1v-16.9c0-12-9.6-22.9-22.9-22.9H311c-7.2,0-13.2-2.4-18.1-7.2c-3.6-3.6-7.2-9.6-7.2-16.9s2.4-13.2,7.2-18.1
					c0,0,0,0,1.2-1.2c4.8-3.6,10.8-6,16.9-6h16.9c12,0,22.9-9.6,22.9-22.9v-16.9c0-7.2,2.4-13.2,7.2-18.1s10.8-7.2,18.1-7.2
					c7.2,0,13.2,2.4,18.1,7.2c0,0,0,0,1.2,1.2c3.6,4.8,6,10.8,6,16.9v16.9c0,12,9.6,22.9,22.9,22.9H441c7.2,0,13.2,2.4,18.1,7.2
					c4.8,4.8,7.2,10.8,7.2,18.1C466.3,540,463.9,546,459.1,550.8z"/>
				</g>
			</g>
			<g>
				<g>
					<circle class="st1" cx="809.5" cy="447.2" r="42.1"/>
				</g>
			</g>
			<g>
				<g>
					<circle class="st1" cx="809.5" cy="618.2" r="42.1"/>
				</g>
			</g>
			<g>
				<g>
					<circle class="st1" cx="724" cy="532.7" r="42.1"/>
				</g>
			</g>
			<g>
				<g>
					<circle class="st1" cx="895" cy="532.7" r="42.1"/>
				</g>
			</g>
		</g>
	</g>
</svg>
