<?xml version="1.0" encoding="utf-8"?>
<!-- Generator: Adobe Illustrator 24.0.0, SVG Export Plug-In . SVG Version: 6.00 Build 0) -->
<svg version="1.1" id="Capa_1" xmlns:svgjs="http://svgjs.com/svgjs" xmlns="http://www.w3.org/2000/svg" xmlns:xlink="http://www.w3.org/1999/xlink" x="0px" y="0px" viewBox="0 0 512 512" style="enable-background:new 0 0 512 512;" xml:space="preserve">
	<style type="text/css">
		.st0 {
			fill: #679BE8;
		}
	</style>
	<g>
		<path
			class="st0"
			d="M488,40h-48v-8c0-4.4-3.6-8-8-8s-8,3.6-8,8v8h-16v-8c0-4.4-3.6-8-8-8s-8,3.6-8,8v8h-16v-8c0-4.4-3.6-8-8-8
		s-8,3.6-8,8v8h-16v-8c0-4.4-3.6-8-8-8s-8,3.6-8,8v8h-16v-8c0-4.4-3.6-8-8-8s-8,3.6-8,8v8h-16v-8c0-4.4-3.6-8-8-8s-8,3.6-8,8v8h-16
		v-8c0-4.4-3.6-8-8-8s-8,3.6-8,8v8h-16v-8c0-4.4-3.6-8-8-8s-8,3.6-8,8v8h-16v-8c0-4.4-3.6-8-8-8s-8,3.6-8,8v8h-16v-8
		c0-4.4-3.6-8-8-8s-8,3.6-8,8v8h-16v-8c0-4.4-3.6-8-8-8s-8,3.6-8,8v8H88v-8c0-4.4-3.6-8-8-8s-8,3.6-8,8v8H24c-4.4,0-8,3.6-8,8v384
		c0,4.4,3.6,8,8,8h335.4l41,41c9.4,9.4,24.6,9.4,33.9,0c0,0,0,0,0,0l22.6-22.6c4.5-4.5,7-10.6,7-17c0-0.5,0-0.9,0-1.4h24
		c4.4,0,8-3.6,8-8V48C496,43.6,492.4,40,488,40z M267.2,291.3l20.7,8L275.2,312L267.2,291.3z M329.4,335.8c3.3-1.1,5.5-4.1,5.5-7.6
		v-3.3l71.2,71.2l-11.3,11.3l-70-70L329.4,335.8z M417.4,407.4l11.3,11.3l-33.9,33.9l-11.3-11.3L417.4,407.4z M318.9,322.5
		l-11.5,3.8c-2.4,0.8-4.3,2.7-5.1,5.1l-3.8,11.5h-11.4l-5.6-14.5l22.8-22.8l14.5,5.6L318.9,322.5z M304.2,358.9
		c3.4,0,6.5-2.2,7.6-5.5l1.6-4.7l70,70l-11.3,11.3l-71.2-71.2H304.2z M445.7,447L423,469.7c-3.1,3.1-8.2,3.1-11.3,0c0,0,0,0,0,0
		l-5.7-5.7l33.9-33.9l5.7,5.7C448.8,438.8,448.8,443.9,445.7,447C445.7,447,445.7,447,445.7,447L445.7,447z M480,424h-23.4
		L332.5,299.9l0,0c-0.8-0.8-1.7-1.4-2.8-1.8l-73.5-28.3c-4.1-1.6-8.8,0.5-10.3,4.6c-0.7,1.8-0.7,3.9,0,5.7l6.1,15.8H88
		c-4.4,0-8-3.6-8-8v-32c0-30.9,25.1-56,56-56h200c19,0,35.4-13.4,39.2-32c0.3,0,0.5,0,0.8,0c4.4,0,8-3.6,8-8s-3.6-8-8-8
		c-13.2,0-24-10.8-24-24v-8h20.7l13.7,13.7c3.1,3.1,8.2,3.1,11.3,0c0,0,0,0,0,0l13.7-13.7H432v8c0,13.2-10.8,24-24,24
		c-4.4,0-8,3.6-8,8s3.6,8,8,8v32c0,27.6-12.5,58.8-29.8,74c-3.3,2.9-3.6,8-0.7,11.3s8,3.6,11.3,0.7c20.7-18.3,35.2-53.7,35.2-86
		v-35.4c14.6-6.4,24-20.8,24-36.6v-16c0-4.4-3.6-8-8-8h-32c-2.1,0-4.2,0.8-5.7,2.3L392,116.7l-10.3-10.3c-1.5-1.5-3.5-2.3-5.7-2.3
		h-32c-4.4,0-8,3.6-8,8v16c0,15.7,9.2,30,23.6,36.5c-2.2,11.3-12,19.5-23.6,19.5h-68l-21.6-28.8c-2.7-3.5-7.7-4.3-11.2-1.6
		c-0.6,0.5-1.1,1-1.6,1.6L212,184h-76c-39.7,0-72,32.3-72,72v32c0,13.2,10.8,24,24,24h56v8c0,22.1,17.9,40,40,40h16c4.4,0,8-3.6,8-8
		v-40h50.1l16.1,41.7c0.4,1,1,2,1.8,2.8l0,0l67.5,67.5H32V56h40v8c0,4.4,3.6,8,8,8s8-3.6,8-8v-8h16v8c0,4.4,3.6,8,8,8s8-3.6,8-8v-8
		h16v8c0,4.4,3.6,8,8,8s8-3.6,8-8v-8h16v8c0,4.4,3.6,8,8,8s8-3.6,8-8v-8h16v8c0,4.4,3.6,8,8,8s8-3.6,8-8v-8h16v8c0,4.4,3.6,8,8,8
		s8-3.6,8-8v-8h16v8c0,4.4,3.6,8,8,8s8-3.6,8-8v-8h16v8c0,4.4,3.6,8,8,8s8-3.6,8-8v-8h16v8c0,4.4,3.6,8,8,8s8-3.6,8-8v-8h16v8
		c0,4.4,3.6,8,8,8s8-3.6,8-8v-8h16v8c0,4.4,3.6,8,8,8s8-3.6,8-8v-8h16v8c0,4.4,3.6,8,8,8s8-3.6,8-8v-8h40V424z M160,312h32v32h-8
		c-13.2,0-24-10.8-24-24V312z M232,184l8-10.7l8,10.7H232z"/>
		<circle class="st0" cx="128" cy="256" r="8"/>
	</g>
</svg>
