<?xml version="1.0" encoding="utf-8"?>
<!-- Generator: Adobe Illustrator 21.0.0, SVG Export Plug-In . SVG Version: 6.00 Build 0) -->
<svg version="1.1" id="Capa_1" xmlns="http://www.w3.org/2000/svg" xmlns:xlink="http://www.w3.org/1999/xlink" x="0px" y="0px" viewBox="0 0 1200 1200" style="enable-background:new 0 0 1200 1200;" xml:space="preserve">
	<style type="text/css">
		.st0 {
			fill: url("#SVGID_1_");
		}
		.st1 {
			fill: #FFFFFF;
		}
		.st2 {
			fill: #599BEE;
		}
		.st3 {
			fill: url("#SVGID_2_");
		}
		.st4 {
			fill: url("#SVGID_3_");
		}
		.st5 {
			fill: url("#SVGID_4_");
		}
		.st6 {
			fill: url("#SVGID_5_");
		}
		.st7 {
			fill: url("#SVGID_6_");
		}
		.st8 {
			fill: url("#SVGID_7_");
		}
		.st9 {
			fill: #960000;
		}
		.st10 {
			fill: #EBD8BB;
		}
		.st11 {
			opacity: 0.26;
			fill: #272425;
		}
		.st12 {
			fill: #233048;
		}
		.st13 {
			fill: #1C283A;
		}
		.st14 {
			fill: #9BCDDF;
		}
		.st15 {
			fill: #6EBDCD;
		}
		.st16 {
			fill: #B6E4EF;
		}
		.st17 {
			fill: #C90100;
		}
		.st18 {
			fill: url("#SVGID_8_");
		}
		.st19 {
			fill: url("#SVGID_9_");
		}
		.st20 {
			opacity: 0.26;
		}
		.st21 {
			fill: #272425;
		}
		.st22 {
			fill: #E9E3D8;
		}
		.st23 {
			opacity: 0.69;
		}
		.st24 {
			fill: #82CEC2;
		}
		.st25 {
			fill-rule: evenodd;
			clip-rule: evenodd;
			fill: #FFFFFF;
		}
		.st26 {
			fill: #7E2B89;
		}
		.st27 {
			fill: none;
			stroke: #599BEE;
			stroke-width: 9.7595;
			stroke-miterlimit: 10;
		}
		.st28 {
			fill: none;
			stroke: #FFFFFF;
			stroke-width: 8.9147;
			stroke-miterlimit: 10;
		}
		.st29 {
			fill: #E27F25;
		}
		.st30 {
			fill: none;
			stroke: #FFFFFF;
			stroke-width: 8.9152;
			stroke-miterlimit: 10;
		}
		.st31 {
			fill: #211915;
		}
		.st32 {
			fill: none;
			stroke: #FFFFFF;
			stroke-width: 8.885;
			stroke-miterlimit: 10;
		}
		.st33 {
			fill: #FFFFFF;
			stroke: #FFFFFF;
			stroke-width: 1.5743;
			stroke-miterlimit: 10;
		}
		.st34 {
			fill: none;
			stroke: #FFFFFF;
			stroke-width: 8.8329;
			stroke-miterlimit: 10;
		}
	</style>
	<g>
		<g>
			<path
				class="st24"
				d="M1058.8,265c0.9-5.3-2.2-10.4-6.6-13c-0.4-0.7-0.9-1.4-1.3-2.1c-9.3-13.8-43.9-34.2-58.8-16.5
			c-11.7,13.9-0.9,31.9,11.2,41.5c10.9,8.6,23.6,11.1,35.2,7.5c3.4,16.3,0.6,35.8-4.5,48.9c-5.7,15,18.5,20.7,24.2,6
			C1066.8,314.8,1067.7,287.7,1058.8,265z"/>
			<path
				class="st24"
				d="M981.5,265.3c-0.4-0.7-0.9-1.4-1.3-2.1c-9.3-13.8-43.9-34.2-58.7-16.5c-11.8,13.9-0.9,31.9,11.2,41.5
			c10.8,8.6,23.6,11.1,35.2,7.5c3.4,16.3,0.6,35.8-4.4,48.9c-5.8,15,18.5,20.8,24.2,6c8.5-22.3,9.5-49.4,0.6-72.1
			C989,273.1,985.9,267.9,981.5,265.3z"/>
		</g>
		<g>
			<path
				class="st24"
				d="M174.3,979.4c-10.5-9-23.2-12-34.9-8.9c-2.8-16.5,0.8-35.8,6.3-48.7c6.3-14.8-17.7-21.4-23.9-6.9
			c-9.4,21.9-11.4,49-3.4,72.1c-1.1,5.2,1.8,10.5,6.1,13.3c0.4,0.7,0.8,1.5,1.2,2.2c8.8,14.1,42.5,35.8,58.1,18.9
			C196.1,1007.8,185.9,989.4,174.3,979.4z"/>
			<path
				class="st24"
				d="M245.4,968.8c-10.5-9-23.2-12-34.9-8.9c-2.8-16.5,0.8-35.8,6.3-48.7c6.3-14.8-17.7-21.5-23.9-6.9
			c-9.4,22-11.4,49.1-3.4,72.1c-1.1,5.2,1.7,10.5,6.1,13.3c0.4,0.7,0.8,1.5,1.3,2.2c8.8,14.1,42.5,35.8,58.1,18.8
			C267.3,997.2,257.1,978.8,245.4,968.8z"/>
		</g>
		<g>
			<path
				class="st1"
				d="M261.1,406.2c-15.9-72.7,16.3-77.7,77.3-83.1c47.8-4.2,95.4-11,143.3-15.2C606.9,297,731,292.5,856.6,292.4
			c22.3,0,22.3-34.7,0-34.7c-182.8,0.2-361.3,16.7-543,32.9c-87.2,7.8-104.4,40-85.9,124.7C232.5,437.3,265.9,428,261.1,406.2
			L261.1,406.2z"/>
		</g>
		<g>
			<path
				class="st1"
				d="M919.9,906.1c15.9,72.7-16.3,77.7-77.3,83.1c-47.8,4.3-95.4,11.1-143.3,15.2
			c-125.2,10.9-249.2,15.4-374.9,15.5c-22.3,0-22.4,34.7,0,34.7c182.8-0.1,361.3-16.6,543-32.9c87.3-7.8,104.4-40,85.9-124.8
			C948.5,875.1,915.1,884.4,919.9,906.1L919.9,906.1z"/>
		</g>
		<g>
			<polygon class="st25" points="738,149.4 690.8,159.9 666.5,118.3 661.9,166.3 615,176.5 658.9,196 654.5,243.7 686.2,207.7
			730.3,227.1 705.9,185.6 		"/>
		</g>
		<g>
			<polygon class="st25" points="177.3,395.7 149,402 134.4,377 131.5,405.8 103.4,412 129.8,423.7 127.1,452.4 146.2,430.7
			172.7,442.4 158,417.5 		"/>
		</g>
		<g>
			<polygon class="st25" points="1050.8,913.8 1022.4,920.1 1007.8,895.1 1005,923.9 976.8,930 1003.2,941.8 1000.6,970.5
			1019.7,948.8 1046.2,960.5 1031.5,935.5 		"/>
		</g>
		<path
			class="st24"
			d="M981.3,577.6l-18.1-5.6l8.6-16.9c4.5-8.8,6.9-18.7,6.9-28.5c0-34.7-28.3-63-63-63c-3.6,0-7.3,0.3-11,1
		l-15.5,2.8l-3-15.5c-18.5-96-103.1-165.7-201.2-165.7c-89.5,0-167.9,57.2-195.2,142.4l-8.2,25.8l-18.6-19.7
		c-25.5-27.1-60.1-42-97.4-42c-73.9,0-134,60.1-134,134c0,11,1.3,22,4,32.5l3.6,14.5l-14.2,4.6c-69.2,22.3-117.6,88.6-117.6,161.3
		c0,88.7,68.5,161.6,155.3,168.8c15.4,71.5,79,125.1,155.1,125.1c73.1,0,134.6-49.5,153-116.8c26.8,20.7,60.4,33.1,96.9,33.1
		c40.5,0,77.5-15.2,105.6-40.2c21.5,10.9,45.8,17.1,71.6,17.1c26.2,0,50.9-6.4,72.6-17.6h13.6c93.4,0,169.4-76,169.4-169.4
		C1100.6,665.8,1051.6,599.3,981.3,577.6z"/>
		<g>
			<g>
				<g>
					<polygon class="st25" points="923.3,754.1 899.1,759.5 886.6,738.1 884.2,762.7 860.1,768 882.7,778 880.4,802.5 896.7,784
					919.3,793.9 906.8,772.6 				"/>
				</g>
			</g>
			<g>
				<g>
					<polygon class="st25" points="272.7,622.1 280.7,609.9 271.7,598.5 285.7,602.5 293.8,590.4 294.4,604.9 308.3,608.9
					294.7,613.9 295.3,628.4 286.3,617.1 				"/>
				</g>
			</g>
		</g>
		<g>
			<g>
				<polygon class="st25" points="878,480.4 882.8,499.4 866.2,509.8 885.7,511.1 890.5,530 897.7,511.9 917.2,513.1 902.2,500.7
				909.5,482.5 893,493 			"/>
			</g>
		</g>
		<g>
			<polygon class="st25" points="794.9,451.8 751.3,472.6 757.8,520.4 724.5,485.5 681.3,506.3 703.9,463.9 671,429.1 718.2,437.9
			741,395.4 747.3,443.1 		"/>
		</g>
		<g>
			<path
				class="st26"
				d="M881.7,635.1l-3.4-0.5l-3.9,2.4l-2.3,3.9l-1.3,3.4l-1.8,3.2l-1.6,3.1l-1.8,2.9l-2.3,2.9l-1.6,2.9l-2.1,2.6
			l-2.1,2.4l-1.8,2.9l-2.9,2.4l-5.2,3.7l-2.6,1.3l-3.1,1l-5.2,0.8l-4.4,0.5l-3.4-1.3l-3.1-1.6l-2.4-2.3l-2.1-2.6l-1.6-3.2l-0.5-3.4
			l-1.1-3.4l-0.3-5l-0.5-5.2l0.3-3.4l-0.3-3.4l0.8-3.1l0.3-3.4l0.5-3.9l-0.5-2.9l0.8-3.1l0.5-3.7l-0.3-3.1l0.8-3.4l0.8-3.7l0-3.4
			l0.3-3.1l0.8-3.4l0.5-3.7l1-3.1l0.5-3.1l0.5-3.7l0.3-3.4l1.8-3.4l3.9-1.9l3.4,0l3.9,0.3l3.1,0l3.7,1l5.2,0l3.9-1.1l1.6-2.9
			l-0.5-3.4l-3.4-2.9l-5-2.1l-10.5-1.3l-3.7,0.5l-3.1-1.8l-1.6-3.2l1.3-7.1l0-3.4l0.5-3.4l0-3.2l0.3-3.1l0.8-3.1l0-3.4l0.3-3.4l0-5
			l-2.3-4.7l-3.1-1.3l-3.9,0.3l-3.1,0.8l-2.1,4.2l-1.3,5.2l-0.8,13.1l-0.8,6.5l-1.8,10.2l-1.3,3.4l-5.8,1.1l-3.7-0.3l-4.5,0.5
			l-1.6,3.1l-0.8,3.7l3.9,3.1l5.5,2.1l3.4,2.1l1.8,3.9l-0.5,3.1l-1.6,6.5l-0.8,10.2l-1.8,6.3l-0.5,3.4l0,3.1l-1,3.7l0.3,3.1
			l-1.1,3.1l0,3.4l-0.3,3.7l0,3.1l0,0.4l-2,3.3l-2.4,3.4l-1.6,3.1l-1.3,2.9l-2.4,3.1l-1.3,3.1l-2.4,2.6l-2.1,3.1l-2.4,2.4l-3.9,5.5
			l-3.4,1.8l-2.4,1.3l-4.7,1.1l-4.5-1.1l-2.6-2.6l-0.8-3.7l-0.8-2.9l-0.5-3.4l-0.3-3.4l0.2-3.7l-0.5-3.7l0-5l0.5-4.7l0-3.7l-0.3-3.1
			l0.2-3.7l1.1-7.1l0.5-9.9l0.5-3.7l0.8-7.1l0.2-3.1l-0.2-3.4l-0.3-5l-1.3-3.7l-5-1.3l-5,0.3l-2.1,2.6l-2.9,2.9l-2.9-0.3l-3.4-1.6
			l-2.9-0.8l-3.4-1.3l-6.3-0.8l-4.7-0.3l-5.2,0.3l-3.4,0.5l-3.4,1.3l-3.4,1.1l-2.6,1.3l-7.3,4.7l-6.3,6l-2.4,2.9l-1.8,2.6l-1.8,3.1
			l-5.2,9.2l-1.3,3.2l-0.8,3.4l-1.1,2.9l-0.8,3.4l-0.5,3.4l-0.1,1.3l-2.5,3.7l-3.4,6l-0.8,2.9l-2.1,2.9l-3.7,6.3l-2.3,2.6l-2.3,2.9
			l-2.1,3.1l-7,6.6l-3.1,1.3l-4.4,0.8l-4.2-1l-1.6-2.6l-1.3-3.7l-0.8-3.4l0.8-3.1l0.3-3.4l0-3.1l1.6-3.1l0.5-2.9l1.6-5l2.1-5
			l0.5-3.1l1.6-3.4l0.8-3.7l1-3.1l0.5-3.1l0.3-3.7l0.8-3.4l0.5-3.4l0.5-7.1l-0.3-3.1l-0.5-3.4l-2.1-6l-1.8-2.6l-1.8-2.9l-1.8-1.8
			l-2.4-1.6l-3.4-1l-3.1-0.5l-3.4-0.5l-3.4,0.3l-9.9,1.8l-2.9,1.6l-4.4,1.8l-4.4,2.4l-2.6,2.1l-2.1,2.6l-2.9,2.1l-2.1,2.4l-2.4,2.1
			l-2.1,2.9l-4.5,5l-1.6,2.9l-1.3,1.6l-1.1-1.8l0.3-3.7l0.8-6.5l-0.5-3.4l0.3-3.4l-0.3-3.1l1-3.2l0-6.3l2.4-3.7l4.2-1.6l3.4-0.5
			l3.1-0.3l3.4,0l3.7-0.8l10.2-2.9l5.7-2.9l2.9-2.1l3.2-1.6l3.1-1.8l4.2-3.4l2.9-3.9l6-8.6l1.6-2.9l1.3-3.1l0.8-3.2l0.5-3.7l0-3.4
			l0.5-2.9l-0.8-3.4l-0.3-3.1l-2.9-6.3l-1.8-2.4l-2.4-2.6l-2.1-1.8l-6.5-3.1l-2.4-1l-5.5-0.3l-5.5,0l-3.1,0.3l-3.2,0.8l-5.5,1.8
			l-3.7,1.8l-2.9,1.8l-2.4,1.8l-4.7,4.7l-2.9,2.6l-1.8,2.6l-6.5,11.5l-1.6,2.9l-1.3,3.4l-0.8,2.9l-1.8,3.7l-1,3.1l-0.3,3.4l-1.6,2.9
			l-2.1,3.1l-4.7,1.1l-4.7,1.6l-1.8,2.6l-0.8,3.7l2.9,3.7l4.7,1.8l1.8,2.6l1.1,3.9l-0.5,3.7l0.3,3.1l-0.8,3.1l0,3.7l-0.3,3.4l0,3.2
			l-0.3,3.1l-0.8,3.4l0.5,3.7l-0.3,3.7l-0.3,3.4l0.3,3.1l-0.3,3.7l0.5,3.4l0.3,3.4l-0.3,3.1l0,1.2l-0.3,0.2l-3.7,6.6l-1.6,3.4
			l-2.4,2.6l-1.8,2.9l-2.1,3.2l-1.8,2.9l-2.1,2.4l-2.9,2.4l-1.8,2.4l-3.1,2.6l-4.2,2.6l-2.3,1.8l-4.4,2.6l-3.2,1l-4.2,1.8l-17.6,2.9
			l-7.8-0.3l-3.7-0.5l-3.1-0.8l-3.9-1l-2.6-1l-2.9-1.6l-4.4-2.6l-4.5-3.1l-5-4.4l-3.7-5.7l-1-3.4l-1.6-2.6l-1.3-3.7l-1.6-3.1
			l-0.3-3.4l-1.3-3.1l-0.3-3.2l-0.6-3.6l-0.2-3.4l-0.5-3.4l0.3-3.1l0-3.4l0.3-3.4l0-3.4l0.5-5.5l0.3-5l1-3.1l0.8-3.2l0.2-3.4
			l0.5-3.6l1.3-3.1l2.6-9.9l1.6-3.1l1.6-2.9l0.8-3.1l1.6-3.1l1.6-2.9l1.6-3.2l1.3-3.1l2.3-2.6l5.5-8.6l6.5-7.3l2.9-2.6l6.5-5.2
			l10.5-5.2l2.9-0.8l3.7-1.1l2.9-0.3l5,0l5.2,0.5l3.1,1.6l1.8,1.6l2.1,2.9l1.6,2.9l0.8,3.4l0,3.4l0.5,2.9l-1,3.4l-0.3,3.4l-0.8,3.1
			l-1.8,3.2l-1,2.9l-1.1,5l0,4.7l3.4,1.8l3.1,1.1l4.7-2.4l2.9-3.9l2.9-6l1.8-2.9l1.6-6.8l0.5-3.4l0.5-3.7l0.5-3.4l-0.3-3.1l0.3-3.1
			l-1.8-6.8l-1.3-2.6l-2.4-3.1l-3.9-4.7l-2.9-2.1l-3.4-1.8l-2.6-1.6l-3.4-0.8l-3.1-0.8l-5.8-0.3l-4.5,0l-3.9,0.5l-3.1,0.8l-3.7,0.3
			l-2.9,1.3l-6.3,2.1l-3.1,1.6l-2.9,1.6l-3.4,1.3l-5.7,4.2l-2.6,2.1l-4.7,4.7l-2.6,2.4l-6.8,7.3l-1.8,3.1l-4.2,5.5l-1.6,3.4
			l-1.8,2.9l-1.3,2.9l-2.1,3.2l-1,2.9l-1.8,3.4l-1,3.2l-1.6,2.9l-0.8,3.7l-1.3,3.1l-0.5,3.1l-2.6,6.5l-1.1,3.7l0,3.1l-1,3.1
			l-0.3,3.4l-1.3,8.6l-0.8,8.9l-0.3,3.6l0,2.9l0.3,3.7l0,3.4l0.8,3.4l-0.2,3.4l0.8,3.7l0.3,3.1l1.3,3.1l0.8,3.4l0.5,3.1l1.3,2.9
			l2.6,6.8l1.8,2.6l1.3,3.4l1.6,2.6l2.1,2.9l2.1,2.4l5.2,5l4.7,3.9l2.9,1.8l3.1,1.8l9.2,3.9l3.9,0.8l3.1,0.8l9.7,1.3l3.7,0l17.3-1.6
			l2.9-0.8l3.4-1l3.1-0.8l2.9-1.1l12.3-6l2.9-1.8l2.3-1.8l4.7-4.7l2.9-2.4l2.1-2.1l2.1-2.9l2.6-2.9l1.6-2.6l2.3-3.4l-0.4,5.8l0,3.7
			l0.3,2.9l0.5,3.4l0,6.8l0.8,5.2l2.6,3.7l3.9,0.8l2.9-0.8l3.1-1.1l2.1-4.9l-0.3-5.5l0.5-3.1l0-9.9l-0.5-7.3l-0.3-3.4l0.8-6.5
			l-0.5-3.4l0.8-5.2l1-4.7l1-3.1l1.6-2.9l3.9-6l1.6-2.9l1.8-2.6l1.6-2.6l6.8-7.9l2.6-1.8l2.4-2.4l2.9-1.6l2.9-1.1l2.6-1.6l5-1.1
			l5.2,0l3.1,1.3l2.1,2.1l1.6,3.4l-0.3,3.1l0,7.1l-0.5,3.2l-0.3,3.7l-0.8,3.1l-1.3,3.4l-1,4.7l-2.9,6.3l-2.3,8.6l-0.5,3.1l-0.8,3.4
			l-0.5,3.1l-0.5,3.4l0.5,6.8l0,3.4l1.9,6.5l1.8,2.9l3.4,5.5l2.4,2.1l3.4,1.6l2.9,0.5l3.1,1l5.2-0.3l8.6-2.4l2.6-1.3l3.1-2.1
			l2.1-2.1l2.9-2.3l3.9-3.9l2.9-3.9l2.1-2.9l2.3-3.1l1.6-2.9l1.1-1.4l1.2,3l0.3,3.7l1.6,2.9l1.3,3.1l4.7,5.8l2.3,2.3l2.6,1.8
			l2.9,1.6l3.1,1.6l3.4,1l3.1,0.5l3.9,0.5l9.7-1.1l3.7-0.8l5.8-2.6l2.6-1.6l5.2-4.2l2.9-1.8l1.8-2.6l2.6-2.6l1.8-2.9l1.8-2.4
			l1.6-1.3l1.8,1.8l2.4,9.7l1.6,2.6l1.8,2.6l3.7,3.2l3.9,2.4l2.9,0.8l5-0.3l5.2-1l7.1-3.7l4.7-2.9l2.1-1.8l2.9-2.9l1.8-2.6l2.1-2.3
			l2.1-2.9l1.6-2.9l1.8-2.6l1.5-2.8l1.1,5.9l1.3,3.1l0.5,3.4l5.5,8.6l2.6,2.4l3.1,2.1l2.9,1.8l2.9,0.8l2.9,1.1l5.5,1l6.8,0l4.7-0.8
			l3.4-1.1l2.9-0.8l3.4-1.3l6.8-5l8.4-8.1l3.7-5.5l2.3-2.6l5-8.6l6-12.1l1.1-4.4l0-5L881.7,635.1z M586.2,555.5l0.8-3.4l0.5-3.4
			l1.3-3.1l1.6-3.1l1-3.4l3.1-4.4l2.1-4.7l7.3-6.8l3.1-1.6l3.2-1l4.4,0l5,0.8l2.6,2.1l2.6,2.6l1.6,3.2l0.3,3.1l-1.6,6.5l-0.8,3.2
			l-1.6,3.4l-8.9,9.7l-3.1,2.4l-2.6,1.6l-3.4,1.3l-6,1.8l-6.8,1.6l-3.1,0.3l-3.1-1.6l-0.5-3.4L586.2,555.5z M745.3,615.5l0,6.8
			l-0.8,3.7l-0.3,3.1l-4.2,19.9l-1.3,3.4l-1.3,3.1l-5.5,8.6l-2.6,2.6l-2.1,2.6l-2.9,1.6l-3.1,1.6l-3.9,1.6l-4.7,1l-5,0.8l-3.7-0.5
			l-2.6-1.3l-2.9-2.1l-2.6-2.4l-1.6-2.9l-1.3-3.4l-1-3.1l-0.5-3.4l-0.3-6.8l-0.5-3.4l1.3-6.5l0.5-3.4l2.1-6.3l1.3-3.1l4.4-9.7
			l2.4-2.4l1.8-3.1l2.6-2.1l2.6-2.4l2.4-1.8l3.4-1.8l3.7-1.3l5-0.8l7.8,0.3l6.6,1.8l3.1,1l2.9,2.9l1.3,4.4L745.3,615.5z"/>
			<polygon
				class="st26"
				points="433.6,816.9 432.6,814 431.5,810.6 429.5,807.5 428.4,804.9 426,802 424,799.7 421.1,797 419,794.4
			416.4,792.3 413.2,790.8 410.1,788.7 405.1,786.6 399.9,785 397.2,784 391.8,783.2 388.6,781.6 389.9,780 392.8,778.7
			396.2,776.6 398.6,775.1 404.3,770.6 407.2,768.8 409.8,766.4 412.7,762.5 415.6,758 417.6,755.7 420,749.1 421.6,746
			422.3,742.6 423.1,739.7 423.1,729.8 422.9,726.4 421.8,723.2 421.5,719.8 418.4,713.8 416.6,710.9 414.2,708.6 412.1,706.8
			409.5,704.7 406.6,702.8 403.2,701.5 400.1,700.5 396.9,699.7 393.3,699.2 386.5,699.5 381.5,699.7 376.5,700.8 373.7,702.1
			370.2,702.6 367.6,704.4 359,709.4 356.1,711.8 353.2,713.9 351.4,716.2 349.1,719.4 346.2,723.3 343.6,727.5 341.2,730.3
			340.2,733.5 336.5,739.5 335.2,742.7 334.7,746.1 333.4,748.9 332.3,752.4 331.6,755.8 329.2,762 327.6,768.8 327.1,772.5
			327.1,775.6 326.3,777.5 326.1,775.6 325.8,764.9 324.7,758.1 324.5,755 324.5,751.3 323.4,746.1 322.4,741.4 321.9,737.7
			321.6,734.6 320,731.4 319,728 317.7,724.9 316.6,721.8 315.6,718.9 313.7,715.5 309.8,710 307.7,706.8 305.3,704.7 302.7,702.1
			300.6,699.8 295.7,697.4 291.2,696.9 288.1,698.5 286,701.4 286,705 287.8,708.9 293.3,713.6 296.5,716.8 298.8,719.4
			300.4,722.6 302,725.4 303.3,728.6 304.3,732 306.4,738.2 307.7,741.1 308.5,744.8 308.8,748.2 309.6,751.1 310.4,754.7
			311.4,759.4 312.2,764.4 311.9,767.8 312.7,771.5 312.5,774.6 313,781.4 313.3,784.6 313.3,791.6 314.1,798.7 313.3,801.6
			313.5,808.4 313.8,811.5 313.5,815.2 313.5,818.6 312.8,822 313.3,825.4 313,828.8 312.8,835.6 312.5,839 312.8,842.4
			312.3,845.5 312,855.7 311.2,859.1 311.5,862.8 311.2,865.9 310.7,869.3 310.2,873 310.4,875.9 311.2,880.9 313.1,885
			315.9,885.8 319.4,886.1 322.5,885.3 325.1,881.4 326.4,876.4 325.9,873.2 326.7,866.7 327.2,862.8 328,849.4 328.7,845.8
			329,842.4 329.5,839 329.5,835.8 330.8,828.5 331.1,821.7 331.6,818.3 331.6,815.4 333.2,808.1 333.2,804.7 334.7,794.5
			335.8,791.3 335.8,787.9 336.8,784.3 338.1,781.1 339.4,774.1 339.9,770.7 340.7,767.5 341.8,764.4 343.3,761.2 344.4,757.8
			345.7,754.4 346.5,751.6 348.3,748.2 349.3,745 351.2,741.9 356.4,733.8 359.3,729.6 365,723.8 367.9,721.7 370.3,720.1
			373.1,718.3 376.3,717.5 379.7,715.9 382.8,715.4 387.3,715.2 392.2,715.2 396.2,715.7 399.3,717 401.7,719.1 403.5,721.4
			405.6,724.3 405.9,728 406.9,731.4 407.2,735 406.6,738.2 406.4,741.8 401.7,751 399.8,753.9 397.5,756.5 395.7,759.6
			385.2,768.5 375.8,774 364.8,779.3 361.4,781.9 360.4,784.8 360.9,788.2 362.7,790.8 367.4,792.6 372.4,793.7 381,794.2
			385,794.7 390.2,795.7 393.3,797.1 400.4,799.7 403.3,801.5 405.6,803.9 408.5,805.7 413.5,811.2 415.1,813.8 416.9,816.7
			419.3,826.9 419.3,830.3 419.8,833.7 419.5,836.5 419,840 418,843.6 417.2,846.8 415.4,849.6 412,855.7 409.9,858 405.9,861.7
			399.1,866.7 396.3,868.2 392.3,869 386.3,870.6 382.4,870.8 379.3,870.9 376.1,870.6 372.7,869.8 369.3,869.3 365.9,868.3
			362.8,866.9 356.7,864.1 353.6,861.7 348.9,859.9 344.7,859.1 342.9,861.7 341.6,864.6 340.8,868 342.9,871.9 347.1,875.3
			349.7,876.6 352.3,878.5 355.2,880 362,882.1 365.4,883.4 371.7,885 375.6,885.2 379,885.8 382.1,885.8 386.1,885.5 389.5,885.2
			392.6,884.7 396,884.2 399.2,883.1 402.5,881.8 406,880.8 408.8,879.2 411.7,877.4 416.1,874.5 419.3,871.1 421.6,868.2
			424.5,865.8 426.3,863.2 429.5,857.2 431.6,853.8 432.4,850.9 433.7,847.8 434.4,844.6 435.8,837.9 436.3,834.2 436.3,830.5
			434.4,820.6 		"/>
			<path
				class="st26"
				d="M881.1,828.6l-3.7-1.3l-3.4,2.6l-4.2,7.9l-2.1,3.4l-1.8,2.9l-2.3,3.1l-1.6,3.1l-2.4,2.9l-1.6,2.4l-2.4,2.6
			l-2.9,2.1l-2.9,1l-3.1-0.3l-1-3.1l0.8-3.4l-1-5l-0.3-5.5l-0.5-3.1l-1.8-2.9l-1-3.4l-1.3-2.9l-1.8-3.1l-2.6-5.7l-2.1-3.2l-3.1-6
			l-2.9-3.9l-3.7-4.2l-2.6-6l-0.5-4.7l1.8-5l1.8-2.9l1-3.4l0.5-3.7l-0.8-3.1l-1.3-2.6l-2.4-2.4l-3.7-0.8l-3.1,0l-3.4,0.5l-3.2,1.8
			l-2.3,2.9l-2.1,2.6l-1,3.4l-0.5,3.4l-2.1,4.7l-2.4,4.2l-2.6,2.1l-1.8,2.6l-2.4,2.4l-1.6,3.1l-2.3,2.6l-2.1,3.1l-1.3,2.9l-2.1,3.1
			l-1,2.9l-1.8,3.4l-1,2.9l-1.8,3.1l-0.3,1.2l-2.3,4l-1,3.4l-5.8,8.9l-1.6,3.1l-1.6,2.6l-3.9,6l-2.9,2.4l-2.4,2.4l-2.1,2.6l-5.7,3.1
			l-4.2,1.1l-5-0.5l-3.1-1.6l-2.9-2.4l-4.5-4.7l-1.3-3.4l-3.1-6l-1.1-3.4l0.5-3.7l3.1-2.1l2.9-1.1l3.6-1.1l5.8-3.1l2.9-1.9l6.8-7.1
			l1.8-3.1l2.1-2.9l1.1-3.1l0.8-2.9l1.8-6.8l-0.3-6.8l-1-3.1l-0.8-3.4l-1-3.1L750,790l-1.8-2.6l-2.9-2.1l-3.1-1.8l-2.9-1l-10.2-1.6
			l-5,1l-3.1,0.5l-5.2,1.6l-4.7,2.1l-6.5,4.2l-3.7,3.2l-6,6l-1.6,2.6l-2.6,2.4l-2.1,1.1l-0.3-1.8l0.3-3.7l-0.3-3.2l0.5-3.9l-0.3-3.4
			l0.8-3.4l0.8-3.1l0-3.7l2.3-3.4l3.4-1.8l6.3-0.8l3.1-0.8l3.4-0.5l3.9-1l6-2.6l4.2-2.4l3.9-2.4l5.5-3.9l2.9-3.7l3.9-3.9l2.6-3.2
			l2.4-4.7l2.1-4.7l1.3-3.2l0.8-2.9L750,723l-0.3-3.1l-1.3-3.1l-0.5-3.4l-1.6-3.1l-3.9-5.2l-5.5-3.7l-3.1-1l-5.5-0.8l-5.5,0
			l-3.7,0.5l-3.4,0.8l-2.4,1.3l-3.4,1.6l-3.1,1.3l-2.9,2.6l-3.4,2.1l-1.6,2.4l-2.4,2.9l-8.1,11.3l-1.3,3.1l-2.4,3.4l-0.5,3.1
			l-1.6,2.9l-1,3.4l-1.6,3.2l-1,3.4l-0.3,3.4l-0.8,3.4l-2.6,2.9l-3.1,1l-4.7-1l-3.9,1.3l-1.6,2.9l-0.3,3.7l2.6,3.7l4.7,2.1l3.9,2.9
			l1.1,3.1l-0.8,3.7l0.5,3.1l-0.8,3.7l-0.5,3.4l0,3.4l-0.5,3.1l0.5,3.7l-1.3,6.6l0.3,3.1l-0.3,3.4l-0.2,3.7l0.5,6.5l0,5l-3.1,4.1
			l-1,3.2l-1.3,3.1l-2.1,2.9l-3.1,5.8l-2.4,2.6l-1.8,3.2l-2.6,2.1l-2.9,2.1l-4.2,2.1l-5.5,0.5l-2.1-1.6l0.3-3.4l1.3-2.9l1.6-3.4
			l0.5-3.4l3.4-10.2l0.3-3.4l0.8-5.2l0.5-5.3l0.3-3.7l-0.5-3.4l-0.3-3.7l0.3-3.1l-2.9-10.2l-1.3-3.4l-1.8-2.9l-1.8-2.6l-2.4-2.6
			l-2.9-2.3l-2.9-1.6l-6-3.1l-7.1-1l-5.2-0.5l-7.1,0.5l-5.2,0.8l-3.1,1l-3.4,0.8l-3.4,1.3l-5.5,3.4l-3.1,2.4l-4.7,4.7l-1.6,2.9
			l-2.1,2.9l-2.3,2.9l-1,3.2l-2.4,2.9l-1,3.4l-1.6,3.7l-0.5,2.9l-1,3.7l-0.5,3.1l-0.3,3.7l-0.2,1.3l-3.3,4.3l-1,3.2l-1.3,3.1
			l-2.1,2.9l-3.1,5.8l-2.4,2.6l-1.8,3.2l-2.6,2.1l-2.9,2.1l-4.2,2.1l-5.5,0.5l-2.1-1.6l0.3-3.4l1.3-2.9l1.6-3.4l0.5-3.4l3.4-10.2
			l0.2-3.4l0.8-5.2l0.5-5.3l0.3-3.7l-0.5-3.4l-0.3-3.7l0.3-3.1l-2.9-10.2l-1.3-3.4l-1.8-2.9l-1.8-2.6l-2.4-2.6l-2.9-2.3l-2.9-1.6
			l-6-3.1l-7.1-1l-5.2-0.5l-7.1,0.5l-5.2,0.8l-3.1,1l-3.4,0.8l-3.4,1.3l-5.5,3.4l-3.1,2.4l-4.7,4.7l-1.6,2.9l-2.1,2.9l-2.3,2.9
			l-1,3.2l-2.4,2.9l-1.1,3.4l-1.6,3.7l-0.5,2.9l-1.1,3.7l-0.5,3.1l-0.3,3.7l-1.3,10.5l-0.5,3.4l0.8,3.4l-0.5,3.7l1.1,3.1l0.8,3.7
			l0.3,3.4l1.8,3.4l1.1,2.9l2.1,2.9l1.8,3.1l2.3,2.6l2.9,1.8l2.4,2.6l3.1,1.6l6.8,2.9l3.1,0.3l4.7,0.5l5.5-0.3l3.1-0.3l2.9-0.8
			l3.4-1l4.2-1.8l7.6-4.5l3.9-1.3l4.2,0l3.9,0.8l2.9,0.5l9.9-0.3l3.1-0.8l2.6-1.6l3.4-1.6l2.6-1.9l2.6-2.3l2.4-2.1l3.1-3.7l2.6-3.9
			l1.5-2.8l0.3,1.5l0.3,3.4l1.8,3.4l1.1,2.9l2.1,2.9l1.8,3.1l2.4,2.6l2.9,1.8l2.4,2.6l3.1,1.6l6.8,2.9l3.1,0.3l4.7,0.5l5.5-0.3
			l3.1-0.3l2.9-0.8l3.4-1l4.2-1.8l7.6-4.5l3.9-1.3l4.2,0l3.9,0.8l2.9,0.5l9.9-0.3l3.1-0.8l2.6-1.6l3.4-1.6l2.6-1.9l2.6-2.3l2.4-2.1
			l3.1-3.7l2.6-3.9l1.8-3.3l0,1.2l0.3,3.1l-0.5,3.7l0,3.1l0.8,3.6l0.3,6.6l0.5,4.7l2.6,3.6l3.7,0.8l3.9-0.5l2.1-1l2.1-4.7l-0.3-5.8
			l0.8-3.1l-0.5-3.6l-0.5-3.1l0.8-3.4l-0.3-3.4l-0.3-6.8l0.3-3.4l0.5-3.4l-0.2-3.4l0.5-3.4l0.3-4.7l1.6-5.2l2.1-2.6l0.8-3.1l2.1-3.1
			l1.6-2.6l2.6-2.9l2.4-2.9l2.3-2.1l2.6-2.4l2.4-2.4l5.8-2.9l3.6-1.6l4.7-1l5.2,0l2.9,0.5l2.9,1.3l2.9,2.6l1.1,2.6l0.8,3.4l-0.3,3.4
			l-2.4,6.6l-1.6,2.9l-2.6,2.6l-2.4,2.1l-2.6,1.8l-3.9,1.3l-3.1,1.5l-9.7,2.1l-2.4,2.1l-2.1,2.6l-0.5,3.4l0.3,5l0.5,4.4l0.8,3.4
			l1,3.1l1.8,3.1l2.4,6.3l2.6,4.2l2.3,4.4l2.9,2.6l2.4,2.3l4.7,3.7l9.4,3.1l4.7-0.3l4.7-0.5l3.7-1l2.6-1.3l3.1-1.3l2.9-2.1l2.6-2.6
			l2.6-2.1l1.6-2.3l2.4-2.4l2.4-2.9l1.8-2.9l1.6-2.9l1.8-3.1l2.1-2.9l1-2.9l1.8-2.6l2.1-3.1l1.8-3.4l1.3-2.9l0.6-2.7l1.5-2l1-2.6
			l1.8-2.9l1.6-3.1l1.6-3.4l1-2.9l6.5-11.2l2.9-2.4l2.9-0.5l2.1,1.8l1.3,3.1l2.6,3.4l1.3,2.9l6.3,9.2l3.4,6.3l1.8,3.1l1.3,3.1
			l1.6,2.9l0.3,3.7l0.8,3.4l-0.3,3.9l-3.1,3.7l-1.8,3.1l-0.5,3.2l-1.6,4.2l-2.4,3.1l-3.4,1.3l-4.4-0.3l-5-1.1l-2.1-2.1l-1.8-2.4
			l-2.3-2.9l-3.4-1.6l-3.1,1.6l-2.4,2.9l-1,2.6l-0.3,2.3l0,2.9l1.1,2.9l2.3,2.9l5.5,4.5l3.1,1.6l3.4,1.3l4.7,0.5l4.7,0l8.4-1.6
			l5.2-2.1l2.1-1.6l3.4-1.9l3.7-1.8l12-2.4l2.6-0.8l3.4-1.6l2.1-1.8l2.6-1.8l5.2-4.5l2.6-2.6l4.2-5.5l1.1-2.4l1.8-3.1l1.8-2.9
			l1.3-2.6l2.1-3.1l1.8-2.9l0.8-4.7l-0.3-4.4L881.1,828.6z M520.3,839.4l-1,3.1l-3.1,2.9l-3.9,2.6l-2.3,2.6l-1.6,2.9l-2.1,7.8
			l-2.1,3.9l-4.4,2.4l-5.2,1.6l-9.7-0.3l-3.4-1.6l-2.6-1.8l-2.4-2.6l-1.6-2.4l-2.1-3.4l-1.1-3.7l-1.3-6.8l0.5-3.4l-0.2-3.1l0.5-5.2
			l2.1-8.6l0.2-3.4l2.6-6.3l0.5-2.9l3.7-6.3l1.6-2.6l5-4.7l2.9-1.8l3.1-1.8l4.2-1.5l6.5-0.5l5.8,0.8l2.9,1.1l2.9,1.6l2.6,2.1
			l2.1,2.6l1.3,3.4l0.8,3.1l0.8,7.1l0.8,3.7l-0.3,3.4l-0.5,5l-1.3,7.9L520.3,839.4z M628.6,839.3l-1.1,3.1l-3.1,2.9l-3.9,2.6
			l-2.4,2.6l-1.6,2.9l-2.1,7.8l-2.1,3.9l-4.5,2.4l-5.2,1.6l-9.7-0.3l-3.4-1.6l-2.6-1.8l-2.4-2.6l-1.5-2.4l-2.1-3.4l-1.1-3.7
			l-1.3-6.8l0.5-3.4l-0.3-3.1l0.5-5.2l2.1-8.6l0.3-3.4l2.6-6.3l0.5-2.9l3.7-6.3l1.6-2.6l5-4.7l2.9-1.8l3.1-1.8l4.2-1.5l6.5-0.5
			l5.8,0.8l2.9,1.1l2.9,1.6l2.6,2.1l2.1,2.6l1.3,3.4l0.8,3.1l0.8,7.1l0.8,3.7l-0.3,3.4l-0.5,5l-1.3,7.9L628.6,839.3z M695.3,753.1
			l1.3-3.1l1-3.7l0.8-3.4l3.1-6.3l1.6-3.4l1.8-4.7l3.1-4.4l2.4-2.4l1.8-2.6l2.6-2.1l3.4-1.3l2.6-0.8l4.4,0.5l4.5,2.1l1.6,2.9
			l1.3,3.1l0.3,6.5l-0.8,3.7l-1.8,3.4l-1,2.9l-5.2,7.1l-3.7,3.7l-8.6,6.3l-3.1,1.3l-3.4,1.3l-3.4,0.8l-3.2,0.8l-3.4-1.3l-0.5-3.2
			L695.3,753.1z"/>
		</g>
		<g>
			<path class="st1" d="M414.5,576.2c-14.2,10.1-31.5,16-50.2,16c-48,0-87-38.9-87-87c0-48,39-87,87-87c7.3,0,14.4,0.9,21.1,2.6
			c-22.2,15.7-36.8,41.7-36.8,71C348.6,532.6,376.7,566.8,414.5,576.2z"/>
		</g>
	</g>
</svg>
