<?xml version="1.0" encoding="utf-8"?>
<!-- Generator: Adobe Illustrator 24.1.1, SVG Export Plug-In . SVG Version: 6.00 Build 0) -->
<svg version="1.1" id="Capa_1" xmlns="http://www.w3.org/2000/svg" xmlns:xlink="http://www.w3.org/1999/xlink" x="0px" y="0px" viewBox="0 0 1200 1200" style="enable-background:new 0 0 1200 1200;" xml:space="preserve">
  <style type="text/css">
    .st0 {
      fill: #FFFFFF;
    }
    .st1 {
      fill: #599BEE;
    }
  </style>
  <g>
    <path class="st0" d="M607.4,972.3L607.4,972.3C379.6,972.3,195,787.7,195,559.9l0,0c0-227.8,184.6-412.4,412.4-412.4l0,0
		c227.8,0,412.4,184.6,412.4,412.4l0,0C1019.8,787.7,835.2,972.3,607.4,972.3z"/>
    <g>
      <g>
        <g>
          <path class="st1" d="M607.8,268.8c-57.2,0-103.7,47.7-103.7,104.9s46.5,103.7,103.7,103.7s103.7-46.5,103.7-103.7
					S665,268.8,607.8,268.8z"/>
        </g>
      </g>
      <g>
        <g>
          <path class="st1" d="M642.4,477.4h-34.6h-34.6c-24.4,0-47.9,6.3-69.4,17c36.4,9.8,70.6,24,103.9,43.1
					c33.3-19.1,67.6-33.3,103.9-43.1C690.4,483.7,666.8,477.4,642.4,477.4z"/>
        </g>
      </g>
      <g>
        <g>
          <path class="st1" d="M868.3,581.1c-19.1,0-34.6,15.5-34.6,34.6v69.2c0,19.1,15.5,34.6,34.6,34.6s34.6-15.5,34.6-34.6v-69.2
					C902.9,596.6,887.4,581.1,868.3,581.1z"/>
        </g>
      </g>
      <g>
        <g>
          <path class="st1" d="M347.4,581.1c-19.1,0-34.6,15.5-34.6,34.6v69.2c0,19.1,15.5,34.6,34.6,34.6S382,704,382,684.9v-69.2
					C381.9,596.6,366.5,581.1,347.4,581.1z"/>
        </g>
      </g>
      <g>
        <g>
          <path class="st1" d="M364.6,512c-9.6,0-17.3,7.7-17.3,17.3v17.3c38.1,0,69.2,31,69.2,69.2V685c0,38.1-31,69.2-69.2,69.2v17.3
					c0,9.6,7.7,17.3,17.3,17.3c88.6,0,159.5,28,225.9,70.3V568C523.8,529.7,452.1,512,364.6,512z"/>
        </g>
      </g>
      <g>
        <g>
          <path class="st1" d="M868.3,546.5v-17.3c0-9.6-7.7-17.3-17.3-17.3c-87.5,0-159.2,17.8-225.9,56v290.9
					c66.4-42.3,137.3-70.3,225.9-70.3c9.6,0,17.3-7.7,17.3-17.3V754c-38.1,0-69.2-31-69.2-69.2v-69.2
					C799.1,577.6,830.2,546.5,868.3,546.5z"/>
        </g>
      </g>
    </g>
  </g>
</svg>
