<?xml version="1.0" encoding="utf-8"?>
<!-- Generator: Adobe Illustrator 24.2.3, SVG Export Plug-In . SVG Version: 6.00 Build 0) -->
<svg version="1.1" id="svg" xmlns="http://www.w3.org/2000/svg" xmlns:xlink="http://www.w3.org/1999/xlink" x="0px" y="0px" viewBox="0 0 400 400" style="enable-background:new 0 0 400 400;" xml:space="preserve">
	<style type="text/css">
		.st0 {
			fill-rule: evenodd;
			clip-rule: evenodd;
			fill: #FBFBFC;
		}
		.st1 {
			fill-rule: evenodd;
			clip-rule: evenodd;
			fill: #861c82;
		}
		.st2 {
			fill-rule: evenodd;
			clip-rule: evenodd;
			fill: #861c82;
		}
		.st3 {
			fill-rule: evenodd;
			clip-rule: evenodd;
			fill: #861c82;
		}
		.st4 {
			fill-rule: evenodd;
			clip-rule: evenodd;
			fill: #861c82;
		}
	</style>
	<g id="svgg">
		<path
			id="path0"
			class="st0"
			d="M195,53c-2.2,0.3-4.7,0.7-5.6,0.9c-0.9,0.2-2.1,0.5-2.7,0.7s-1.2,0.4-1.3,0.6
		c-0.1,0.2-0.5,0.4-0.8,0.4c-1,0-4.8,1.9-9.6,4.9c-4.8,3-12.5,12.9-15,19.4c-0.2,0.5-0.5,1.3-0.7,1.8c-0.2,0.5-0.5,1.4-0.6,2.1
		c-0.1,0.7-0.5,2-0.7,3c-0.3,1.3-0.5,17.6-0.7,55.6c-0.2,47.4-0.3,53.8-0.8,53.9c-0.3,0.1-4-3.3-8.3-7.6c-4.2-4.2-8.3-8.3-9-8.9
		c-3.4-3.1-9.9-6.7-14.1-7.8c-0.7-0.2-2.3-0.6-3.6-1c-1.8-0.5-4-0.7-8.4-0.7s-6.6,0.2-8.4,0.7c-4.4,1.2-4.8,1.4-5.7,1.6
		c-7.6,2.3-15.8,9.6-20.1,17.8c-0.7,1.4-1.5,2.7-1.7,2.7c-0.2,0.1-0.3,0.6-0.3,1.1c0,0.5-0.2,1.1-0.4,1.2c-0.2,0.1-0.4,0.7-0.4,1.2
		c0,0.5-0.2,1.3-0.4,1.7c-1.1,2.2-1.3,4.2-1.3,10.8c0,4.5,0.2,7.1,0.4,7.4c0.2,0.2,0.4,0.9,0.4,1.5s0.2,1.2,0.4,1.3
		c0.2,0.1,0.4,0.7,0.4,1.2c0,0.5,0.2,1.1,0.4,1.2s0.4,0.6,0.4,1c0,0.7,0.7,2.2,1.2,2.8c0.1,0.1,0.8,1.4,1.6,2.8
		c2.1,4.1,2.3,4.2,53.6,55.6c54.7,54.7,54.8,54.8,59.2,54.8c0.4,0,0.9,0.2,1,0.3c0.7,1.1,12.6,1.1,13.3,0c0.1-0.2,0.6-0.3,1-0.3
		c1.3,0,5-1.9,7.8-4c3.8-2.9,100.5-99.7,102.7-102.8c2.2-3.1,4.8-7.9,5.5-10.4c0.3-1,0.7-2.2,0.9-2.6c0.2-0.4,0.5-1.3,0.6-2
		c0.5-1.9,0.6-14.6,0.2-15.8c-0.2-0.6-0.6-1.8-0.9-2.8c-0.3-1-0.6-2.1-0.8-2.5s-0.4-1-0.4-1.3c0-0.3-0.4-1.3-0.9-2.1s-1.4-2.5-2-3.7
		c-2.1-3.9-5.2-7.4-9.5-10.9c-1.4-1.1-8.4-4.7-10.6-5.4c-5.1-1.7-7.8-2.1-13.2-2.1c-5.4,0-8.1,0.4-13.2,2.1c-1.7,0.6-8,3.6-8.1,4
		c-0.1,0.2-0.4,0.3-0.7,0.3c-0.3,0-0.6,0.1-0.6,0.3c0,0.2-0.6,0.7-1.3,1.1c-0.7,0.4-5.2,4.6-10,9.4c-4.8,4.7-9,8.6-9.4,8.6
		c-0.6,0-0.7-3.7-0.9-54c-0.1-29.7-0.4-54.5-0.5-55.2c-0.7-2.8-1.2-4.5-1.6-5.4c-0.2-0.5-0.5-1.4-0.7-1.8
		c-1.4-3.8-5.6-10.4-8.5-13.4c-3.6-3.7-8.4-7.6-9.5-7.6c-0.2,0-0.5-0.1-0.5-0.3c-0.2-0.4-5.3-2.9-6-2.9c-0.3,0-0.7-0.1-0.9-0.3
		c-0.4-0.3-2.3-0.9-5.4-1.6c-1.7-0.4-9.2-1.3-9.9-1.2C199.1,52.5,197.2,52.7,195,53"/>
		<path
			id="path1"
			class="st1"
			d="M179,0.4c-2,0.2-4.9,0.5-6.6,0.6c-1.6,0.1-3.2,0.4-3.4,0.6S167.7,2,166.5,2s-2.1,0.2-2.1,0.4
		c0,0.2-0.9,0.4-2,0.4c-1.1,0-2.1,0.2-2.2,0.4s-1,0.4-1.8,0.4c-0.9,0-1.6,0.2-1.6,0.4c0,0.2-0.8,0.4-1.8,0.4s-1.9,0.2-2,0.4
		c-0.1,0.2-0.9,0.4-1.6,0.4c-0.7,0-1.5,0.2-1.6,0.4C149.7,5.8,149,6,148.4,6c-0.6,0-1.3,0.2-1.4,0.4c-0.1,0.2-0.8,0.4-1.4,0.4
		c-0.6,0-1.3,0.2-1.4,0.4c-0.1,0.2-0.8,0.4-1.4,0.4s-1.3,0.2-1.4,0.4c-0.1,0.2-0.8,0.4-1.4,0.4s-1.2,0.2-1.2,0.4s-0.5,0.4-1.2,0.4
		c-0.7,0-1.2,0.2-1.2,0.3c0,0.2-0.8,0.5-1.8,0.6s-2.1,0.4-2.5,0.6c-1.1,0.6-2.6,1.1-4.2,1.7c-0.8,0.3-1.5,0.7-1.5,0.8
		c0,0.2-0.4,0.3-0.9,0.3c-0.5,0-1.1,0.1-1.3,0.3c-0.2,0.2-1.2,0.6-2.2,0.9s-1.9,0.6-2,0.8c-0.4,0.5-2,1.2-2.6,1.2
		c-0.3,0-0.6,0.2-0.6,0.4c0,0.2-0.4,0.4-0.8,0.4s-0.8,0.2-0.8,0.4s-0.3,0.4-0.7,0.4c-0.9,0-2.9,0.9-2.9,1.3c0,0.2-0.4,0.3-0.8,0.3
		c-0.4,0-0.8,0.2-0.8,0.4c0,0.2-0.3,0.4-0.8,0.4c-0.4,0-0.8,0.1-0.9,0.3c-0.1,0.3-2.2,1.5-4.6,2.7c-0.5,0.2-0.9,0.6-0.9,0.7
		s-0.4,0.3-0.8,0.3s-0.8,0.2-0.8,0.4c0,0.2-0.3,0.4-0.7,0.4c-0.4,0-0.9,0.3-1.3,0.7c-0.4,0.4-1.2,0.9-1.9,1c-0.7,0.2-1.6,0.6-2,1.1
		c-0.4,0.4-0.9,0.8-1.2,0.8s-0.5,0.2-0.5,0.4c0,0.2-0.2,0.4-0.5,0.4c-0.3,0-0.9,0.4-1.4,0.8c-0.5,0.4-1.1,0.8-1.4,0.8
		s-0.8,0.4-1.1,0.8c-0.3,0.4-0.8,0.8-1,0.8c-0.2,0-1,0.5-1.8,1.2c-0.8,0.7-1.6,1.2-1.9,1.2c-0.3,0-0.5,0.2-0.5,0.3
		c0,0.2-0.5,0.6-1.1,0.9c-0.6,0.3-1.4,0.9-1.7,1.3c-0.4,0.4-0.8,0.7-1,0.7c-0.2,0-1.2,0.7-2.2,1.6c-1,0.9-2.1,1.9-2.6,2.4
		c-0.5,0.4-1.4,1-2,1.4c-0.6,0.3-2.1,1.5-3.2,2.5c-1.1,1.1-2.6,2.4-3.4,2.9c-0.8,0.5-2.5,2.2-4,3.7c-2.6,2.7-3.9,4-10.2,10.3
		c-1.9,1.8-3.4,3.5-3.4,3.7c0,0.2-1,1.4-2.2,2.7c-1.2,1.3-2.5,2.9-2.8,3.5c-0.3,0.6-1,1.5-1.4,2c-0.4,0.5-1.5,1.6-2.4,2.6
		c-0.9,1-1.6,1.9-1.6,2.2c0,0.2-0.3,0.7-0.7,1c-0.4,0.4-1,1.1-1.3,1.7c-0.3,0.6-0.7,1.1-0.9,1.1c-0.2,0-0.3,0.2-0.3,0.5
		c0,0.3-0.5,1.1-1.2,1.9c-0.7,0.8-1.2,1.6-1.2,1.8c0,0.2-0.4,0.7-0.8,1c-0.4,0.3-0.8,0.8-0.8,1.1s-0.4,0.9-0.8,1.4
		c-0.4,0.5-0.8,1.1-0.8,1.4c0,0.3-0.2,0.5-0.4,0.5c-0.2,0-0.4,0.2-0.4,0.5s-0.4,0.9-0.8,1.2c-0.4,0.4-0.9,1.3-1.1,2
		c-0.2,0.7-0.6,1.5-1,1.9c-0.4,0.4-0.7,0.9-0.7,1.3c0,0.4-0.2,0.7-0.4,0.7c-0.2,0-0.4,0.4-0.4,0.8s-0.1,0.8-0.3,0.8
		s-0.5,0.4-0.7,0.9c-1.2,2.4-2.4,4.5-2.7,4.6c-0.2,0.1-0.3,0.5-0.3,0.9c0,0.4-0.2,0.8-0.4,0.8c-0.2,0-0.4,0.4-0.4,0.8
		c0,0.4-0.1,0.8-0.3,0.8c-0.4,0-1.3,2-1.3,2.9c0,0.4-0.2,0.7-0.4,0.7s-0.4,0.4-0.4,0.8s-0.2,0.8-0.4,0.8c-0.2,0-0.4,0.3-0.4,0.6
		c0,0.6-0.7,2.2-1.2,2.6c-0.1,0.1-0.5,1-0.8,2s-0.7,2-0.9,2.2c-0.2,0.2-0.3,0.8-0.3,1.3c0,0.5-0.1,0.9-0.3,0.9
		c-0.2,0-0.5,0.7-0.8,1.5c-0.6,1.7-1.2,3.1-1.7,4.2c-0.2,0.4-0.5,1.5-0.6,2.5s-0.4,1.8-0.6,1.8c-0.2,0-0.3,0.5-0.3,1.2
		c0,0.7-0.2,1.2-0.4,1.2s-0.4,0.5-0.4,1.2s-0.2,1.3-0.4,1.4c-0.2,0.1-0.4,0.8-0.4,1.4s-0.2,1.3-0.4,1.4c-0.2,0.1-0.4,0.8-0.4,1.4
		c0,0.6-0.2,1.3-0.4,1.4c-0.2,0.1-0.4,0.8-0.4,1.4c0,0.6-0.2,1.3-0.4,1.4c-0.2,0.1-0.4,0.9-0.4,1.6c0,0.7-0.2,1.5-0.4,1.6
		c-0.2,0.1-0.4,1-0.4,2s-0.2,1.8-0.4,1.8c-0.2,0-0.4,0.7-0.4,1.6c0,0.9-0.2,1.7-0.4,1.8s-0.4,1.1-0.4,2.2c0,1.1-0.2,2-0.4,2
		c-0.2,0-0.4,1-0.4,2.1s-0.2,2.3-0.4,2.5s-0.5,1.6-0.6,3.2c-0.1,1.5-0.4,4.7-0.6,7c-0.5,5.4-0.5,36.2,0,41.6c0.2,2.3,0.5,5.5,0.6,7
		c0.1,1.5,0.4,3,0.6,3.2s0.4,1.3,0.4,2.5s0.2,2.1,0.4,2.1c0.2,0,0.4,1,0.4,2.2c0,1.2,0.2,2.2,0.4,2.2s0.4,0.7,0.4,1.6
		c0,0.9,0.2,1.6,0.4,1.6c0.2,0,0.4,0.8,0.4,1.8s0.2,1.9,0.4,2c0.2,0.1,0.4,1,0.4,1.8c0,0.9,0.2,1.6,0.4,1.6c0.2,0,0.4,0.5,0.4,1.2
		s0.2,1.3,0.4,1.4c0.2,0.1,0.4,0.9,0.4,1.6c0,0.8,0.2,1.4,0.4,1.4c0.2,0,0.4,0.5,0.4,1.2s0.2,1.3,0.4,1.4c0.2,0.1,0.4,0.8,0.4,1.4
		c0,0.6,0.2,1.2,0.4,1.2s0.4,0.5,0.4,1.2s0.2,1.2,0.4,1.2c0.2,0,0.4,0.4,0.4,0.9c0,1.1,1.1,4.7,1.7,5.3c0.2,0.2,0.3,0.7,0.3,1
		c0,0.4,0.4,1.4,0.8,2.3c0.4,0.9,0.8,1.9,0.8,2.3c0,0.3,0.1,0.6,0.3,0.6c0.2,0,0.6,0.9,0.9,2s0.7,2,0.9,2c0.2,0,0.3,0.4,0.3,0.8
		s0.2,0.8,0.4,0.8c0.2,0,0.4,0.4,0.4,0.8s0.2,0.8,0.4,0.8c0.2,0,0.4,0.4,0.4,0.8s0.2,0.8,0.4,0.8s0.4,0.3,0.4,0.6
		c0,0.6,0.9,2.5,2.3,5.1c0.5,0.8,0.9,1.8,0.9,2.1c0,0.3,0.1,0.6,0.3,0.7c0.4,0.2,1.7,2.3,2,3.2c0.1,0.4,0.4,0.7,0.6,0.7
		c0.2,0,0.4,0.4,0.4,0.8s0.2,0.8,0.4,0.8c0.2,0,0.4,0.3,0.4,0.7c0,0.4,0.4,1,0.8,1.3c0.4,0.3,0.8,0.8,0.8,1.1c0,0.8,1.1,3,1.9,3.9
		c0.4,0.4,0.9,1.2,1.2,1.9c0.3,0.6,0.7,1.1,0.9,1.1c0.2,0,0.3,0.3,0.3,0.7c0,0.4,0.4,1,0.8,1.3c0.4,0.3,0.8,0.9,0.8,1.2
		s0.4,0.9,0.8,1.2c0.4,0.3,0.8,0.8,0.8,1c0,0.2,0.5,1,1.2,1.8s1.2,1.6,1.2,1.8c0,0.2,0.4,0.7,0.8,1c0.4,0.3,0.8,0.8,0.8,1.1
		c0,0.3,0.2,0.5,0.4,0.5c0.2,0,0.4,0.2,0.4,0.4c0,0.4,1,1.6,3.1,3.9c0.5,0.5,1.2,1.5,1.5,2.1s1.6,2.1,2.8,3.4
		c1.2,1.3,2.2,2.5,2.2,2.7c0,0.2,1.9,2.2,4.2,4.5c5.2,5.1,5.9,5.8,10.4,10.3c2,2,3.7,3.6,3.9,3.6s1.3,1,2.6,2.2
		c1.2,1.2,2.4,2.2,2.5,2.2s1,0.6,1.8,1.4c0.8,0.8,1.7,1.4,1.8,1.4s1,0.6,1.8,1.4c0.8,0.8,1.8,1.4,2.1,1.4s0.5,0.1,0.5,0.3
		c0,0.2,0.5,0.6,1.1,1c0.6,0.4,1.6,1.1,2.3,1.7c0.7,0.6,1.4,1,1.6,1c0.2,0,0.7,0.4,1,0.8c0.3,0.4,0.9,0.8,1.2,0.8s0.9,0.4,1.2,0.8
		c0.3,0.4,0.9,0.8,1.3,0.8c0.4,0,0.7,0.1,0.7,0.3c0,0.2,0.5,0.6,1.1,0.9c0.6,0.3,1.4,0.9,1.8,1.2c0.4,0.4,1.6,1.1,2.6,1.6
		c1,0.5,2,1.1,2.1,1.2c0.4,0.4,2.7,1.6,3.3,1.6c0.3,0,0.6,0.1,0.7,0.3c0.2,0.4,2.3,1.7,3.2,2c0.4,0.1,0.7,0.4,0.7,0.6
		c0,0.2,0.2,0.4,0.5,0.4c0.7,0,2.7,0.9,2.7,1.3c0,0.2,0.4,0.3,0.8,0.3c0.4,0,0.8,0.1,0.8,0.3c0,0.4,2,1.3,2.9,1.3
		c0.4,0,0.7,0.2,0.7,0.4s0.4,0.4,0.8,0.4s0.8,0.2,0.8,0.4s0.4,0.4,0.8,0.4c0.4,0,0.8,0.2,0.8,0.4s0.4,0.4,0.8,0.4
		c0.4,0,0.8,0.2,0.8,0.4s0.3,0.4,0.8,0.4s0.9,0.2,1,0.4c0.1,0.2,0.7,0.4,1.2,0.4c0.5,0,1,0.2,1,0.4c0,0.2,0.4,0.4,0.9,0.6
		c1.2,0.3,4.8,1.6,5.1,1.9c0.4,0.4,9.4,3.2,10.3,3.2c0.5,0,1,0.2,1.1,0.4c0.1,0.2,0.8,0.4,1.4,0.4s1.3,0.2,1.4,0.4s0.8,0.4,1.4,0.4
		c0.6,0,1.3,0.2,1.4,0.4s0.8,0.4,1.4,0.4s1.2,0.2,1.2,0.4s0.7,0.4,1.6,0.4c0.9,0,1.7,0.2,1.8,0.4s1,0.4,2,0.4s1.8,0.2,1.8,0.4
		s0.7,0.4,1.6,0.4c0.9,0,1.6,0.2,1.6,0.4s1,0.4,2.2,0.4c1.2,0,2.2,0.2,2.2,0.4s1,0.4,2.1,0.4s2.3,0.2,2.5,0.4s1.6,0.5,3.2,0.6
		c1.5,0.1,5.1,0.4,8,0.7c7.2,0.6,44,0.3,44.7-0.3c0.3-0.3,1.6-0.5,3.2-0.5c1.5,0,2.8-0.2,2.9-0.4s1.1-0.4,2.2-0.4
		c1.1,0,2.1-0.2,2.2-0.4c0.1-0.2,1.2-0.4,2.4-0.4c1.2,0,2.2-0.2,2.2-0.4s0.7-0.4,1.6-0.4c0.9,0,1.6-0.2,1.6-0.4s0.8-0.4,1.8-0.4
		s1.9-0.2,2-0.4s1-0.4,1.8-0.4c0.9,0,1.6-0.2,1.6-0.4s0.5-0.4,1.2-0.4s1.3-0.2,1.4-0.4s0.9-0.4,1.6-0.4c0.8,0,1.4-0.2,1.4-0.4
		s0.6-0.4,1.4-0.4c0.8,0,1.4-0.2,1.4-0.4s0.4-0.4,1-0.4c1,0,4.3-1,5.5-1.6c0.4-0.2,1-0.4,1.3-0.4c0.3,0,1.4-0.4,2.3-0.8
		c0.9-0.4,1.9-0.8,2.2-0.8c0.3,0,0.9-0.2,1.3-0.4s1.2-0.6,1.6-0.8c0.4-0.2,1.1-0.4,1.4-0.4c0.3,0,0.6-0.2,0.6-0.4s0.4-0.4,0.8-0.4
		c0.4,0,1.4-0.4,2.2-0.8s1.7-0.8,2-0.8s0.6-0.2,0.6-0.4s0.4-0.4,0.8-0.4s0.8-0.2,0.8-0.4s0.4-0.4,0.8-0.4s0.8-0.2,0.8-0.4
		s0.3-0.4,0.8-0.4c0.7,0,3.9-1.5,4.4-2c0.5-0.5,2-1.2,2.6-1.2c0.3,0,0.6-0.1,0.7-0.3c0.2-0.4,2.3-1.7,3.2-2c0.4-0.1,0.7-0.4,0.7-0.6
		c0-0.2,0.3-0.4,0.6-0.4c0.6,0,3-1.1,3.4-1.6c0.1-0.1,0.7-0.5,1.4-0.8c1.7-0.8,6-3.7,6.1-4.1c0.1-0.2,0.4-0.3,0.8-0.3
		c0.4,0,0.9-0.4,1.3-0.8c0.3-0.4,0.9-0.8,1.2-0.8s0.9-0.4,1.2-0.8c0.3-0.4,0.8-0.8,1-0.8c0.2,0,1-0.5,1.8-1.2s1.6-1.2,1.8-1.2
		c0.2,0,0.7-0.4,1-0.8c0.3-0.4,0.8-0.8,1-0.8c0.2,0,1.2-0.7,2.2-1.6s1.9-1.6,2-1.6s1-0.6,1.8-1.4c0.8-0.8,1.7-1.4,1.9-1.4
		c0.2,0,1.2-0.9,2.3-2c1.1-1.1,2.1-2,2.4-2s2.4-2,4.7-4.4c5.2-5.3,4.4-4.5,9.7-9.7c2.4-2.4,4.4-4.5,4.4-4.7s0.9-1.3,2-2.4
		c1.1-1.1,2-2.1,2-2.3c0-0.2,0.6-1,1.4-1.9c0.8-0.8,1.4-1.6,1.4-1.8s0.7-1.1,1.6-2s1.6-2,1.6-2.2c0-0.2,0.4-0.7,0.8-1
		c0.4-0.3,0.8-0.8,0.8-1c0-0.2,0.5-1,1.2-1.8s1.2-1.6,1.2-1.8c0-0.2,0.4-0.7,0.8-1c0.4-0.3,0.8-0.9,0.8-1.2s0.4-0.9,0.8-1.2
		c0.4-0.3,0.8-0.9,0.8-1.3c0-0.4,0.1-0.7,0.3-0.8c0.4-0.2,3.3-4.5,4.1-6.1c0.3-0.7,0.7-1.3,0.8-1.4c0.4-0.4,1.6-2.8,1.6-3.3
		c0-0.3,0.1-0.6,0.3-0.7c0.4-0.2,1.7-2.3,2-3.2c0.1-0.4,0.4-0.7,0.6-0.7c0.2,0,0.4-0.3,0.4-0.6c0-0.6,0.7-2.1,1.2-2.6
		c0.5-0.5,2-3.8,2-4.4c0-0.4,0.2-0.8,0.4-0.8s0.4-0.4,0.4-0.8s0.2-0.8,0.4-0.8s0.4-0.4,0.4-0.8s0.2-0.8,0.4-0.8s0.4-0.3,0.4-0.6
		s0.4-1.2,0.8-2s0.8-1.8,0.8-2.2c0-0.4,0.2-0.8,0.4-0.8s0.4-0.3,0.4-0.6c0-0.3,0.2-1,0.4-1.4c0.2-0.4,0.6-1.2,0.8-1.6s0.4-1,0.4-1.3
		c0-0.3,0.4-1.3,0.8-2.2c0.4-0.9,0.8-1.9,0.8-2.3c0-0.3,0.2-0.9,0.4-1.3c0.6-1.2,1.6-4.5,1.6-5.5c0-0.5,0.2-1,0.4-1s0.4-0.6,0.4-1.4
		c0-0.8,0.2-1.4,0.4-1.4s0.4-0.6,0.4-1.4c0-0.8,0.2-1.5,0.4-1.6s0.4-0.8,0.4-1.4s0.2-1.2,0.4-1.2s0.4-0.7,0.4-1.6
		c0-0.9,0.2-1.7,0.4-1.8s0.4-1,0.4-2s0.2-1.8,0.4-1.8s0.4-0.7,0.4-1.6c0-0.9,0.2-1.6,0.4-1.6s0.4-1,0.4-2.2c0-1.2,0.2-2.3,0.4-2.4
		c0.2-0.1,0.4-1.1,0.4-2.2c0-1.1,0.2-2.1,0.4-2.2s0.4-1.5,0.4-2.9c0-1.6,0.2-2.9,0.5-3.2c0.4-0.4,0.5-5.9,0.5-24.7
		c0-19-0.1-24.3-0.5-24.4c-0.3-0.1-0.5-1.2-0.5-3.3c0-1.7-0.2-3.2-0.4-3.2c-0.2,0-0.5-0.9-0.6-2.1c-0.5-4.6-0.7-6.1-1.1-6.5
		c-0.2-0.2-0.4-1.2-0.4-2.1s-0.2-1.7-0.4-1.7s-0.4-0.7-0.4-1.6c0-0.9-0.2-1.6-0.4-1.6s-0.4-0.8-0.4-1.8c0-1-0.2-1.8-0.4-1.8
		s-0.4-0.6-0.4-1.4c0-0.8-0.2-1.4-0.4-1.4s-0.4-0.6-0.4-1.4s-0.2-1.4-0.4-1.4s-0.4-0.5-0.4-1.2s-0.2-1.2-0.3-1.2s-0.4-1-0.6-2.3
		s-0.4-2.4-0.7-2.7s-0.4-0.8-0.4-1.3s-0.2-1-0.4-1.1c-0.2-0.1-0.4-0.7-0.4-1.2c0-0.5-0.2-1-0.4-1s-0.4-0.4-0.4-0.8
		c0-0.4-0.2-1.2-0.4-1.6c-0.2-0.4-0.6-1.2-0.8-1.6s-0.4-1.1-0.4-1.4s-0.2-0.6-0.4-0.6s-0.4-0.5-0.4-1.2c0-0.7-0.2-1.2-0.4-1.2
		s-0.4-0.4-0.4-0.8c0-0.4-0.2-0.8-0.4-0.8s-0.4-0.3-0.4-0.8s-0.2-0.9-0.4-1s-0.4-0.7-0.4-1.2s-0.2-1-0.4-1s-0.4-0.4-0.4-0.8
		c0-0.4-0.2-0.8-0.4-0.8s-0.4-0.4-0.4-0.8s-0.2-0.8-0.4-0.8s-0.4-0.4-0.4-0.8c0-0.4-0.2-0.8-0.4-0.8s-0.4-0.4-0.4-1
		c0-0.5-0.1-1-0.3-1.1c-0.4-0.2-1.7-2.3-2-3.2c-0.1-0.4-0.4-0.7-0.6-0.7c-0.2,0-0.4-0.4-0.4-0.8c0-0.4-0.2-0.8-0.4-0.8
		s-0.4-0.4-0.4-0.8c0-0.4-0.2-0.8-0.4-0.8s-0.4-0.4-0.4-0.8c0-0.4-0.2-0.8-0.4-0.8s-0.4-0.3-0.4-0.6s-0.5-1.3-1-2.2
		c-0.6-0.9-1-1.7-1-1.8s-0.5-1-1.2-2s-1.2-1.9-1.2-2.1c0-0.2-0.4-0.6-0.8-0.9c-0.4-0.3-0.8-0.9-0.8-1.3c0-0.4-0.2-0.7-0.4-0.7
		c-0.2,0-0.6-0.5-0.8-1.2s-0.7-1.2-0.8-1.2c-0.2,0-0.4-0.2-0.4-0.5c0-0.3-0.5-1.1-1.2-1.8c-0.7-0.7-1.2-1.5-1.2-1.8
		c0-0.3-0.4-0.8-0.8-1.1s-0.8-0.8-0.8-1c0-0.2-0.3-0.8-0.7-1.2c-0.4-0.4-1.1-1.4-1.7-2.2c-0.5-0.8-1.2-1.6-1.4-1.8s-1.1-1.2-1.8-2.2
		c-0.8-1-1.6-2-1.9-2.3c-0.3-0.3-0.5-0.7-0.5-0.8s-1-1.4-2.3-2.7c-2.6-2.7-3.7-4-3.7-4.3c0-0.1-1.1-1.3-2.5-2.6
		c-2.8-2.6-3.4-3.3-8-8c-1.7-1.8-3.7-3.6-4.4-4.1c-0.7-0.5-2.2-1.8-3.5-3c-1.2-1.2-2.3-2.1-2.5-2.1c-0.1,0-0.6-0.3-1.1-0.7
		c-0.5-0.4-1.3-1.1-1.9-1.5c-0.6-0.4-1.7-1.4-2.4-2.1c-0.7-0.7-1.5-1.3-1.6-1.3c-0.2,0-0.9-0.5-1.7-1.2c-0.8-0.7-1.6-1.2-1.8-1.2
		c-0.2,0-0.7-0.4-1-0.8c-0.3-0.4-0.8-0.8-1.1-0.8c-0.3,0-1.1-0.5-1.8-1.2c-0.7-0.7-1.5-1.2-1.8-1.2c-0.3,0-0.5-0.2-0.5-0.4
		c0-0.2-0.5-0.6-1.2-0.8c-0.7-0.3-1.2-0.7-1.2-0.8c0-0.2-0.2-0.4-0.4-0.4c-0.2,0-1.6-0.8-3.1-1.8c-1.5-1-3-1.8-3.4-1.8
		c-0.4,0-0.7-0.2-0.7-0.4c0-0.2-0.3-0.4-0.6-0.4c-0.3,0-0.6-0.2-0.6-0.4s-0.3-0.4-0.6-0.4c-0.3,0-0.6-0.2-0.6-0.4
		c0-0.2-0.4-0.4-0.8-0.4s-0.8-0.2-0.8-0.4c0-0.2-0.4-0.4-0.8-0.4s-0.8-0.2-0.8-0.4c0-0.2-0.4-0.4-0.8-0.4S294,23,294,22.8
		c0-0.2-0.4-0.4-0.8-0.4s-0.8-0.2-0.8-0.4s-0.3-0.4-0.6-0.4c-0.3,0-0.6-0.1-0.7-0.3c-0.2-0.4-3.5-2.1-4.2-2.1
		c-0.3,0-0.6-0.2-0.6-0.4c0-0.2-0.4-0.4-0.8-0.4s-0.8-0.2-0.8-0.4s-0.4-0.4-0.8-0.4s-0.8-0.2-0.8-0.4c0-0.2-0.4-0.4-0.8-0.4
		s-0.8-0.2-0.8-0.4c0-0.2-0.3-0.4-0.8-0.4s-0.9-0.2-1-0.4c-0.1-0.2-0.7-0.4-1.2-0.4c-0.5,0-1-0.2-1-0.4s-0.4-0.4-0.8-0.4
		S276,14.2,276,14s-0.3-0.4-0.7-0.4c-0.4,0-1.5-0.4-2.4-0.8c-0.9-0.4-1.9-0.8-2.3-0.8s-0.7-0.2-0.8-0.4c-0.1-0.2-0.7-0.4-1.2-0.4
		c-0.5,0-1-0.2-1-0.4c0-0.2-0.9-0.5-2-0.6c-1.1-0.2-2.1-0.4-2.2-0.6c-0.1-0.2-0.7-0.4-1.2-0.4c-0.5,0-1-0.2-1-0.4s-0.6-0.4-1.4-0.4
		c-0.8,0-1.4-0.2-1.4-0.4c0-0.2-0.5-0.4-1.2-0.4s-1.3-0.2-1.4-0.4c-0.1-0.2-0.9-0.4-1.6-0.4c-0.8,0-1.4-0.2-1.4-0.4
		c0-0.2-0.6-0.4-1.4-0.4c-0.8,0-1.4-0.2-1.4-0.4c0-0.2-0.8-0.4-1.8-0.4c-1,0-1.8-0.2-1.8-0.4c0-0.2-0.7-0.4-1.6-0.4
		c-0.9,0-1.6-0.2-1.6-0.4c0-0.2-0.8-0.4-1.8-0.4c-1,0-1.8-0.2-1.8-0.4s-0.9-0.4-2-0.4c-1.1,0-2.1-0.2-2.2-0.4
		C235.3,2.2,234.2,2,233,2c-1.2,0-2.2-0.2-2.2-0.4c0-0.2-1.2-0.4-2.9-0.4c-1.8,0-3.1-0.2-3.4-0.5C223.9,0.1,184.8-0.1,179,0.4
		 M208,52.4c3.4,0.8,6.1,1.5,8.2,2.3c1.8,0.7,4.8,2.2,4.9,2.5c0.1,0.2,0.3,0.3,0.5,0.3c0.4,0,3.8,2.2,4.7,3.1
		c0.3,0.3,0.7,0.5,0.9,0.5c2.3,0,13.6,15.4,13.6,18.6c0,0.3,0.2,0.7,0.4,0.8s0.4,0.7,0.4,1.2c0,0.5,0.2,1.1,0.4,1.2s0.4,0.7,0.4,1.3
		c0,0.6,0.2,1.3,0.4,1.5c0.8,0.9,0.9,7.1,1.1,57.2l0.2,52.4l8.3-8.2c8.1-8,10.2-9.9,12.4-11.2c0.6-0.3,1.2-0.7,1.3-0.8
		c0.4-0.5,7.2-3.6,7.8-3.6c0.4,0,1-0.2,1.3-0.4c3.1-1.6,12-2.5,17.2-1.6c2.6,0.4,3.3,0.6,6.8,1.6c2.3,0.6,9.7,4.2,10.8,5.2
		c0.4,0.4,1,0.8,1.2,0.8c2.8,0,11.9,13,13.7,19.6c0.3,1,0.6,2.2,0.8,2.6c1.2,2.8,1.1,17.7-0.1,18.4c-0.2,0.1-0.4,0.7-0.4,1.4
		s-0.2,1.3-0.4,1.4c-0.2,0.1-0.4,0.6-0.4,1.1c0,1.1-3.7,8.4-5.7,11.1c-1.8,2.5-99.4,100.2-102.6,102.7c-1.2,0.9-2.5,1.8-3,1.9
		s-1.3,0.6-1.9,0.9c-1.3,0.8-3.6,1.6-4.7,1.6c-0.5,0-1,0.2-1.1,0.4c-0.3,0.5-10.5,0.5-10.8,0c-0.1-0.2-0.6-0.4-1.1-0.4
		c-2.2,0-7-2.4-10.5-5.2C179.5,332,82.3,234.5,80.9,232.4c-1.8-2.7-5.3-9.6-5.3-10.4c0-0.4-0.2-0.8-0.4-1c-0.2-0.1-0.4-0.8-0.4-1.4
		c0-0.6-0.2-1.2-0.3-1.4c-1.3-0.8-1.3-18.5,0-19.3c0.2-0.1,0.4-0.6,0.4-1.2s0.2-1.1,0.4-1.2c0.2-0.1,0.4-0.7,0.4-1.2
		c0-3.7,7.9-14.6,13.2-18.2c0.8-0.5,1.5-1.1,1.6-1.2c0.1-0.1,1-0.6,2-1.2c1-0.5,2.7-1.4,3.8-2c1.1-0.6,2.5-1.2,3-1.3
		c0.5-0.1,1.7-0.4,2.6-0.7c6.9-1.9,17.3-2.1,20.7-0.4c0.4,0.2,1.1,0.4,1.7,0.4s1.1,0.2,1.2,0.4s0.7,0.4,1.2,0.4c1,0,4.3,1.5,4.5,2.1
		c0.1,0.2,0.5,0.3,0.9,0.3c0.4,0,0.8,0.2,0.8,0.4s0.4,0.4,0.8,0.4c0.4,0,0.8,0.2,0.8,0.4s0.3,0.4,0.6,0.4s0.6,0.2,0.6,0.4
		s0.3,0.4,0.6,0.4s0.6,0.1,0.6,0.3c0,0.2,0.6,0.6,1.2,1c0.7,0.4,5,4.5,9.6,9.1l8.4,8.3l0.2-52.3c0.1-50,0.3-56.2,1.1-57.1
		c0.2-0.2,0.4-0.9,0.4-1.5c0-0.6,0.2-1.2,0.4-1.3s0.4-0.6,0.4-1s0.2-1.1,0.4-1.5c0.2-0.4,0.7-1.6,1.2-2.7c0.5-1.1,1.1-2.5,1.5-3
		c0.3-0.6,0.7-1.3,0.8-1.7c0.1-0.4,0.4-0.7,0.6-0.7c0.2,0,0.4-0.2,0.4-0.4c0-1.3,5.6-7.4,10.4-11.3c1.5-1.2,4.4-3.1,4.8-3.1
		c0.2,0,0.4-0.2,0.4-0.4c0-0.2,0.4-0.4,0.8-0.4c0.4,0,0.8-0.2,0.8-0.4c0-0.2,0.3-0.4,0.6-0.4c0.3,0,1.2-0.3,1.9-0.7
		c1.3-0.7,1.7-0.9,4.7-1.7c3.4-1,4.8-1.2,8.2-1.5C200,51.7,205.5,51.9,208,52.4"/>
		<path
			id="path2"
			class="st2"
			d="M193.2,52.8c-0.6,0.2,0.3,0.2,2.2,0.1c1.8-0.1,3.3-0.3,3.4-0.4C199.1,52.3,194.2,52.5,193.2,52.8
		 M201.2,52.5c0.1,0.1,1.6,0.2,3.4,0.4c1.9,0.1,2.8,0.1,2.2-0.1C205.8,52.5,200.9,52.3,201.2,52.5 M189.4,53.6l-0.8,0.3h0.8
		c0.4,0,1.2-0.2,1.6-0.3l0.8-0.3H191C190.6,53.3,189.8,53.4,189.4,53.6 M209,53.6c0.4,0.2,1.2,0.3,1.6,0.3h0.8l-0.8-0.3
		c-0.4-0.2-1.2-0.3-1.6-0.3h-0.8L209,53.6 M186.4,54.4c-0.5,0.3-0.5,0.4,0,0.4c0.3,0,0.9-0.2,1.2-0.4c0.5-0.3,0.5-0.4,0-0.4
		C187.3,54,186.7,54.2,186.4,54.4 M212.4,54.4c0.3,0.2,0.9,0.4,1.2,0.4c0.5,0,0.5,0,0-0.4c-0.3-0.2-0.9-0.4-1.2-0.4
		C211.9,54,211.9,54.1,212.4,54.4 M176.7,59c-1.5,1-2.7,1.9-2.7,2s0.8-0.3,1.8-1c1-0.7,1.9-1.2,2.1-1.2c0.2,0,0.8-0.4,1.3-0.8
		C181,56.6,179.4,57.2,176.7,59 M221.6,58.4c0,0.2,0.2,0.4,0.4,0.4s1.3,0.6,2.3,1.2c1.2,0.8,1.5,0.9,0.8,0.3
		C223.5,58.9,221.6,57.9,221.6,58.4 M169.9,64.5c-4.1,4.1-8,9.5-9.2,12.8c-0.5,1.3,0.1,0.7,0.8-0.8c1.5-3.2,4.8-7.7,8.4-11.3
		c2.1-2.1,3.7-3.8,3.6-3.9C173.4,61.2,171.8,62.7,169.9,64.5 M226.4,61.5c0,0.2,0.1,0.5,0.3,0.5c1.5,0,9.9,10.3,11.8,14.5
		c0.4,0.8,0.8,1.4,0.9,1.3c0.4-0.4-3.6-6.9-6.2-10C230.4,64.5,226.4,60.8,226.4,61.5 M239.6,78.7c0,0.3,0.1,0.8,0.3,1.2
		c0.2,0.4,0.5,1,0.6,1.5c0.1,0.4,0.3,0.7,0.5,0.5c0.1-0.1-0.1-1-0.6-2C240,79,239.7,78.4,239.6,78.7 M158.4,82.8
		c0,0.3-0.2,1-0.3,1.6c-0.2,0.9-0.2,0.9,0.2,0.3c0.2-0.4,0.4-1.1,0.3-1.6C158.6,82.6,158.5,82.5,158.4,82.8 M241.2,83
		c0,0.4,0.2,1,0.4,1.4c0.3,0.4,0.3,0.3,0.1-0.6C241.4,82.3,241.2,82,241.2,83 M157.5,86.9c-0.2,0.8-0.2,1.6-0.1,1.7
		c0.3,0.3,0.7-1.7,0.6-2.6C157.8,85.7,157.6,86,157.5,86.9 M242,86.4c0,0.5,0.2,1.3,0.4,1.6c0.5,0.8,0.5-0.6,0-1.8
		C242.1,85.5,242.1,85.5,242,86.4 M243,142.8c0,49.8,0.1,53.4,0.7,53.4c0.4,0,4.6-3.9,9.4-8.6c4.8-4.7,9.3-9,10-9.4
		c0.7-0.4,1.3-0.9,1.3-1.1c0-0.9-4.1,2.8-11.8,10.5c-4.6,4.6-8.5,8.4-8.7,8.4c-0.2,0-0.3-22.9-0.3-50.9c0-28-0.2-52-0.3-53.3
		C243.1,90.5,242.9,113.4,243,142.8 M156.7,93.1c-0.1,1.7-0.3,25.4-0.3,52.8c0,27.4-0.1,49.7-0.3,49.7c-0.2,0-4-3.7-8.5-8.1
		c-7.5-7.4-11-10.5-13.5-11.8c-1.6-0.9-0.9-0.2,1.4,1.3c2.9,1.9,3.5,2.5,12.8,11.8c5.5,5.5,7.9,7.7,8.4,7.5
		c0.6-0.2,1.1-106.3,0.5-106.3C157,90,156.8,91.4,156.7,93.1 M109,170c-0.9,0.1,0.9,0.3,4,0.3c3.6,0,5-0.1,3.8-0.3
		C114.7,169.6,111.2,169.6,109,170 M284.2,170c-1.1,0.2-0.1,0.3,2.8,0.3c3.4,0,4-0.1,2.6-0.3C287.5,169.6,286.4,169.6,284.2,170
		 M103.8,170.8l-0.8,0.3h0.8c0.4,0,1.2-0.2,1.6-0.3l0.8-0.3h-0.8C105,170.5,104.2,170.6,103.8,170.8 M120.6,170.8
		c0.4,0.2,1.2,0.3,1.6,0.3h0.8l-0.8-0.3c-0.4-0.2-1.2-0.3-1.6-0.3h-0.8L120.6,170.8 M278.2,170.8l-0.8,0.3l0.8,0
		c0.4,0,1.3-0.2,2-0.3l1.2-0.3l-1.2,0C279.5,170.5,278.6,170.6,278.2,170.8 M293.8,170.8c0.7,0.2,1.6,0.3,2,0.3l0.8,0l-0.8-0.3
		c-0.4-0.2-1.3-0.3-2-0.3l-1.2,0L293.8,170.8 M101,171.6l-0.8,0.3l0.8,0c0.4,0,1.1-0.2,1.4-0.4C103.2,171.1,102.2,171.1,101,171.6
		 M123.6,171.6c0.3,0.2,1,0.4,1.4,0.4l0.8,0l-0.8-0.3C123.8,171.1,122.8,171.1,123.6,171.6 M275.4,171.6l-0.8,0.3l0.8,0
		c0.4,0,1.1-0.2,1.4-0.4C277.6,171.1,276.6,171.1,275.4,171.6 M297.2,171.6c0.3,0.2,1,0.4,1.4,0.4l0.8,0l-0.8-0.3
		C297.4,171.1,296.4,171.1,297.2,171.6 M98.4,172.4c-0.5,0.3-0.5,0.4,0,0.4c0.3,0,0.9-0.2,1.2-0.4c0.5-0.3,0.5-0.4,0-0.4
		C99.3,172,98.7,172.2,98.4,172.4 M126.4,172.4c0.3,0.2,0.9,0.4,1.2,0.4c0.5,0,0.5,0,0-0.4c-0.3-0.2-0.9-0.4-1.2-0.4
		C125.9,172,125.9,172.1,126.4,172.4 M272.8,172.4c-0.5,0.3-0.5,0.4,0,0.4c0.3,0,0.9-0.2,1.2-0.4c0.5-0.3,0.5-0.4,0-0.4
		C273.7,172,273.1,172.2,272.8,172.4 M300,172.4c0.3,0.2,0.9,0.4,1.2,0.4c0.5,0,0.5,0,0-0.4c-0.3-0.2-0.9-0.4-1.2-0.4
		C299.5,172,299.5,172.1,300,172.4 M302,173c0,0.1,1.7,1,3.7,2c6.5,3.3,11.5,7.9,14.6,13.8c0.6,1.2,1.6,2.9,2,3.7s0.9,1.9,0.9,2.3
		c0,0.4,0.2,0.9,0.4,1c2.6,1.6-4.8-10.9-8.7-14.7C311.2,177.4,302,171.7,302,173 M94.4,174.4c-0.8,0.4-1.3,0.8-1.1,0.8
		c0.4,0,2.7-1.2,2.7-1.4C96,173.5,96,173.5,94.4,174.4 M267,175.2c-0.7,0.4-1.1,0.8-1,0.8c0.4,0,2.8-1.2,2.8-1.4
		C268.8,174.2,268.2,174.4,267,175.2 M90.3,176.7c-3.1,2.1-6.2,5.1-8.4,7.9c-2,2.7-5.4,8.6-4.9,8.6c0.2,0,0.8-0.9,1.3-2.1
		c2.6-5.5,7.2-10.9,12.1-14.1c2.1-1.4,2.6-1.8,2.2-1.8C92.6,175.2,91.5,175.9,90.3,176.7 M76.4,193.9c0,0.3-0.2,0.8-0.3,1.2
		c-0.2,0.6-0.1,0.6,0.2,0.3c0.3-0.3,0.4-0.8,0.3-1.2C76.6,193.7,76.5,193.6,76.4,193.9 M75.7,196.5c0,0.4-0.2,1-0.3,1.4
		c-0.2,0.6-0.1,0.6,0.2,0.3c0.3-0.2,0.4-0.9,0.3-1.4C75.8,196.2,75.7,196.1,75.7,196.5 M324,197c0,0.4,0.2,1.1,0.4,1.4
		c0.5,0.8,0.5-0.2,0-1.4l-0.3-0.8L324,197 M74.6,199.8c-0.1,0.6-0.2,1.2-0.1,1.3s0.3-0.3,0.5-0.9c0.1-0.6,0.2-1.2,0.1-1.3
		S74.8,199.2,74.6,199.8 M324.8,199.8c0,0.4,0.2,1.1,0.4,1.4c0.5,0.8,0.5-0.2,0-1.4l-0.3-0.8L324.8,199.8 M73.8,206.1
		c-0.1,1.8-0.1,4.5,0.1,5.9c0.3,2.3,0.4,1.9,0.4-3.3C74.3,202,74.2,201.4,73.8,206.1 M325.7,208.6c0,4.9,0,5.3,0.3,2.9
		c0.2-1.5,0.2-4,0-5.6C325.7,203.2,325.7,203.5,325.7,208.6 M325.1,216.2c-0.1,0.4-0.3,1-0.2,1.4c0,0.4,0.2,0.3,0.4-0.3
		c0.2-0.5,0.3-1.2,0.2-1.4C325.4,215.6,325.2,215.8,325.1,216.2 M74.4,216.7c0.1,1,0.7,1.9,0.7,1c0-0.5-0.2-1-0.4-1.1
		C74.6,216.5,74.4,216.5,74.4,216.7 M324.3,219.2c-1,3.4-1.4,4.6-2.8,7.2c-3.1,5.9-5,8-54.3,57.2c-53.4,53.4-55.3,55.2-59.6,55.2
		c-0.4,0-0.9,0.2-1,0.4c-1,1.6,6.4-2,10-4.8C219.8,331.8,318,233.6,318,233c0-0.2,0.3-0.8,0.7-1.2c1.9-2.1,6.6-12.2,5.9-12.9
		C324.5,218.8,324.3,218.9,324.3,219.2 M75.2,219.5c0.1,1,0.7,1.9,0.7,1c0-0.5-0.2-1-0.4-1.1C75.4,219.3,75.2,219.3,75.2,219.5
		 M76,221.9c0.1,1,0.7,1.9,0.7,1c0-0.5-0.2-1-0.4-1.1S76,221.7,76,221.9 M78.6,227.7c0.6,1.2,1.7,3,2.5,4.1
		c1.7,2.4,98.8,99.8,102.5,102.8c3.3,2.7,10.8,6.2,9.8,4.7c-0.1-0.2-0.6-0.4-1.1-0.4c-4.4,0-4.5-0.1-59.2-54.8
		c-50.7-50.7-51.8-51.9-53.8-55.9c-0.7-1.4-1.3-2.5-1.5-2.5C77.7,225.6,78.1,226.5,78.6,227.7 M195.4,340c2.2,0.5,4.5,0.4,3,0
		c-0.5-0.2-1.8-0.3-2.8-0.3l-1.8,0L195.4,340 M201.6,340c-1.5,0.5,0.8,0.5,3,0l1.6-0.3l-1.8,0C203.4,339.7,202.1,339.8,201.6,340"/>
		<path
			id="path3"
			class="st3"
			d="M197.9,52.3c1.2,0.1,3,0.1,4.2,0c1.2-0.1,0.2-0.1-2.1-0.1S196.7,52.2,197.9,52.3 M166.6,67.7
		l-1.2,1.3l1.3-1.2c1.2-1.1,1.5-1.4,1.2-1.4C167.8,66.4,167.2,67,166.6,67.7 M241.8,84.2c0.3,1.5,0.6,1.8,0.6,0.8
		c0-0.4-0.2-1-0.4-1.4C241.7,83.2,241.6,83.3,241.8,84.2 M242.9,88.4c0,0.8,0.1,1.1,0.2,0.7c0.1-0.4,0.1-1,0-1.4
		C243,87.3,242.9,87.6,242.9,88.4 M156.9,88.8c0,0.8,0.1,1.1,0.2,0.7c0.1-0.4,0.1-1,0-1.4C157,87.7,156.9,88,156.9,88.8 M156.5,92.4
		c0,1,0.1,1.4,0.2,0.9c0.1-0.5,0.1-1.3,0-1.8C156.6,91,156.5,91.4,156.5,92.4 M243.3,92.2c0,0.9,0.1,1.2,0.2,0.7
		c0.1-0.5,0.1-1.2,0-1.6C243.4,90.9,243.3,91.3,243.3,92.2 M108.5,169.9c0.4,0.1,1,0.1,1.4,0c0.4-0.1,0.1-0.2-0.7-0.2
		C108.4,169.7,108.1,169.8,108.5,169.9 M116.1,169.9c0.4,0.1,1,0.1,1.4,0c0.4-0.1,0.1-0.2-0.7-0.2
		C116,169.7,115.7,169.8,116.1,169.9 M283.7,169.9c0.4,0.1,1,0.1,1.4,0c0.4-0.1,0.1-0.2-0.7-0.2
		C283.6,169.7,283.3,169.8,283.7,169.9 M288.9,169.9c0.4,0.1,1,0.1,1.4,0c0.4-0.1,0.1-0.2-0.7-0.2
		C288.8,169.7,288.5,169.8,288.9,169.9 M105.7,170.3c0.4,0.1,1,0.1,1.4,0c0.4-0.1,0.1-0.2-0.7-0.2
		C105.6,170.1,105.3,170.2,105.7,170.3 M118.9,170.3c0.4,0.1,1,0.1,1.4,0c0.4-0.1,0.1-0.2-0.7-0.2
		C118.8,170.1,118.5,170.2,118.9,170.3 M280.7,170.3c0.5,0.1,1.2,0.1,1.6,0c0.4-0.1,0-0.2-0.9-0.2
		C280.5,170.1,280.2,170.2,280.7,170.3 M291.9,170.3c0.5,0.1,1.2,0.1,1.6,0c0.4-0.1,0-0.2-0.9-0.2
		C291.7,170.1,291.4,170.2,291.9,170.3 M263.5,177c-1,0.8-1.9,1.5-1.9,1.6c0,0.1,2.5-1.5,4.4-2.9c0.1-0.1,0-0.1-0.2-0.1
		C265.6,175.6,264.5,176.2,263.5,177 M86.6,179.3l-1.2,1.3l1.3-1.2c0.7-0.6,1.3-1.2,1.3-1.3C88,177.8,87.7,178.1,86.6,179.3
		 M312.8,178.9c0,0.1,0.6,0.7,1.3,1.3l1.3,1.2l-1.2-1.3C313.1,178.9,312.8,178.6,312.8,178.9 M252.2,187.6c-4.4,4.4-8.1,7.9-8.3,7.8
		c-0.2-0.1-0.3,0-0.3,0.2c0,0.9,0.9,0.1,8.8-7.8c4.5-4.5,8.1-8.2,8-8.2C260.3,179.6,256.6,183.2,252.2,187.6 M148.3,188
		c4.2,4.3,7.7,7.7,7.8,7.6c0.1-0.1-3.4-3.6-7.7-7.8l-7.8-7.6L148.3,188 M315.6,181.7c0,0.1,0.6,0.7,1.3,1.3l1.3,1.2l-1.2-1.3
		C315.9,181.7,315.6,181.4,315.6,181.7 M74.1,201.6c0,0.8,0.1,1.1,0.2,0.7c0.1-0.4,0.1-1,0-1.4C74.2,200.5,74.1,200.8,74.1,201.6
		 M325.7,202c0,0.8,0.1,1.1,0.2,0.7c0.1-0.4,0.1-1,0-1.4C325.8,200.9,325.7,201.2,325.7,202 M73.3,208.8c0,1,0.1,1.4,0.2,0.9
		c0.1-0.5,0.1-1.3,0-1.8C73.4,207.4,73.3,207.8,73.3,208.8 M325.7,215.1c0,0.7-0.2,1.6-0.3,2c-0.2,0.7-0.2,0.7,0.2,0
		c0.3-0.4,0.4-1.3,0.3-2l-0.2-1.3L325.7,215.1 M74.1,215.6c0,0.8,0.1,1.1,0.2,0.7c0.1-0.4,0.1-1,0-1.4
		C74.2,214.5,74.1,214.8,74.1,215.6 M81.1,232.3c0.4,0.6,1.2,1.5,1.7,1.9s0.2-0.1-0.6-1.1C80.5,231,79.9,230.6,81.1,232.3
		 M132.6,284.4c27.1,27.1,49.3,49.2,49.4,49.2c0.1,0-21.9-22.1-49-49.2s-49.3-49.2-49.4-49.2S105.5,257.3,132.6,284.4 M300.6,250.9
		l-3.2,3.3l3.3-3.2c1.8-1.8,3.3-3.2,3.3-3.3C304,247.4,303.6,247.8,300.6,250.9 M283.8,267.7l-3.6,3.7l3.7-3.6c2-2,3.7-3.6,3.7-3.7
		C287.6,263.8,287.1,264.3,283.8,267.7 M267,284.5l-1.6,1.7l1.7-1.6c1.6-1.5,1.9-1.8,1.6-1.8C268.6,282.8,267.9,283.6,267,284.5
		 M250.6,300.9l-1.6,1.7l1.7-1.6c0.9-0.9,1.7-1.6,1.7-1.7C252.4,299,252.1,299.3,250.6,300.9 M234.2,317.3l-1.6,1.7l1.7-1.6
		c0.9-0.9,1.7-1.6,1.7-1.7C236,315.4,235.7,315.7,234.2,317.3 M198.3,340.7c0.9,0.1,2.5,0.1,3.4,0c0.9-0.1,0.2-0.2-1.7-0.2
		S197.4,340.6,198.3,340.7"/>
		<path
			id="path4"
			class="st4"
			d="M192.2,52.4c-0.5,0.2,0,0.3,1.4,0.1c1.2-0.1,2.3-0.3,2.4-0.4C196.3,51.8,193,52.1,192.2,52.4
		 M204,52.1c0.1,0.1,1.2,0.2,2.4,0.4c1.4,0.1,1.9,0.1,1.4-0.1C207,52.1,203.7,51.8,204,52.1 M188.8,53.2c-0.4,0.3-0.3,0.3,0.6,0.1
		c1.5-0.3,1.8-0.6,0.8-0.5C189.7,52.8,189.1,53,188.8,53.2 M209.2,52.9c0.1,0.1,0.7,0.3,1.4,0.4c0.9,0.2,1,0.2,0.6-0.1
		C210.7,52.9,208.8,52.6,209.2,52.9 M227.9,62.2c0.6,0.5,1.2,0.9,1.3,0.8c0.2-0.2-1.6-1.7-2.1-1.8C226.9,61.2,227.3,61.6,227.9,62.2
		 M166.6,67.3l-1.2,1.3l1.3-1.2c1.2-1.1,1.5-1.4,1.2-1.4C167.8,66,167.2,66.6,166.6,67.3 M234.2,68.5c0.8,1,1.6,1.9,1.7,1.9
		c0.3,0-2.3-3.1-2.8-3.5C232.8,66.8,233.3,67.5,234.2,68.5 M157.1,85.9c-0.1,0.1-0.3,0.6-0.2,1.1c0,0.8,0.1,0.8,0.4-0.1
		C157.6,85.9,157.5,85.4,157.1,85.9 M156.2,90.6c-0.1,0.4-0.2,24.1-0.2,52.7l0.1,52.1l0.2-52.6C156.6,86.7,156.6,89.6,156.2,90.6
		 M243.5,142.5c0.1,28.8,0.2,52.6,0.4,52.7c0.2,0.2,4-3.4,8.5-7.9c4.5-4.5,8.1-8.2,8-8.2c-0.1,0-3.9,3.6-8.3,8.1l-8.1,8.1l0-52.2
		c0-28.7-0.1-52.4-0.3-52.7C243.5,90.3,243.4,113.7,243.5,142.5 M108.8,169.4c1.2,0.3,11,0.4,10,0.1c-0.6-0.2-3.2-0.3-5.8-0.3
		C110.4,169.3,108.5,169.4,108.8,169.4 M283.8,169.4c0.2,0.1,2.4,0.2,4.8,0.3c2.4,0.1,3.9,0,3.2-0.1
		C290.6,169.3,283,169.1,283.8,169.4 M103.2,170.4c-0.4,0.3-0.3,0.3,0.6,0.1c1.5-0.3,1.8-0.6,0.8-0.6
		C104.1,170,103.5,170.2,103.2,170.4 M277.6,170.4c-0.4,0.3-0.2,0.3,0.8,0.1c1.7-0.3,2.1-0.5,0.8-0.5
		C278.6,170,277.9,170.2,277.6,170.4 M294,170.1c0.1,0.1,0.8,0.3,1.6,0.4c1,0.2,1.2,0.1,0.8-0.1C295.9,170.1,293.6,169.8,294,170.1
		 M138.4,178.3c0,0.2,0.6,0.7,1.2,1.3c0.6,0.5,1.2,0.8,1.2,0.6c0-0.2-0.6-0.7-1.2-1.3C138.9,178.4,138.4,178.1,138.4,178.3
		 M84.2,181.3l-2.4,2.5l2.5-2.4c2.3-2.2,2.7-2.6,2.4-2.6C86.6,178.8,85.5,179.9,84.2,181.3 M315.4,181.2c1.3,1.3,2.5,2.4,2.6,2.4
		c0.1,0-0.9-1.1-2.2-2.4c-1.3-1.3-2.5-2.4-2.6-2.4C313.1,178.8,314.1,179.9,315.4,181.2 M80.6,185.5c-0.6,0.8-0.9,1.3-0.7,1.2
		c0.5-0.3,2.2-2.7,2-2.7C81.8,184,81.2,184.7,80.6,185.5 M319.8,186.7c0.6,0.9,1.2,1.7,1.3,1.7c0.3,0-1.2-2.4-1.8-2.9
		C318.9,185.2,319.2,185.8,319.8,186.7 M73.5,203.7c-0.1,0.5-0.2,1.5-0.2,2.3c0,1.1,0.1,1,0.4-0.8C74,203,73.9,202,73.5,203.7
		 M326.2,205.6c0.3,2.2,0.6,2.6,0.5,0.8c0-0.8-0.2-1.6-0.4-2C326.1,204,326.1,204.3,326.2,205.6 M326.5,210.2c0,0.5-0.2,1.5-0.3,2.2
		c-0.2,1.2-0.2,1.3,0.2,0.4c0.2-0.5,0.4-1.5,0.3-2.2C326.6,209.9,326.5,209.7,326.5,210.2 M73.2,211.8c0,0.9,0.2,1.9,0.4,2.4
		c0.2,0.5,0.3,0,0.1-1.4C73.4,210.2,73.2,209.7,73.2,211.8 M318.9,231.9c-0.6,0.8-1.7,2.2-2.5,3c-0.8,0.8-1.3,1.5-1.1,1.5
		c0.2,0,0.9-0.6,1.5-1.4c1.5-1.7,3.6-4.6,3.4-4.6C320.1,230.4,319.5,231.1,318.9,231.9 M82.2,234c0.6,0.8,1.3,1.4,1.4,1.3
		c0.1-0.1-0.4-0.7-1.2-1.4l-1.4-1.3L82.2,234 M132,284.1c26.5,26.6,49.1,49.1,50.2,50c1.1,0.9,1.9,1.6,1.8,1.5
		c-0.1-0.1-22.7-22.6-50.2-50l-50-49.8L132,284.1 M304.1,247.6c-5.9,5.9-10.7,10.8-10.5,10.8s5.1-4.9,11-10.8
		c5.9-5.9,10.7-10.8,10.5-10.8C315,236.8,310,241.7,304.1,247.6 M283.9,267.7c-3.9,3.9-6.9,7.1-6.8,7.1c0.1,0,3.5-3.2,7.5-7.2
		c4-4,7-7.2,6.8-7.1C291.2,260.5,287.8,263.7,283.9,267.7 M268.3,283.3c-3.4,3.5-6.1,6.3-6,6.3c0.4,0,12.7-12.3,12.4-12.5
		C274.7,277,271.8,279.8,268.3,283.3 M250.7,300.9c-3.2,3.3-5.8,5.9-5.6,5.9c0.4,0,11.9-11.5,11.7-11.7
		C256.7,295,254,297.6,250.7,300.9 M233.9,317.7c-3,3-5.3,5.5-5.2,5.5c0.4,0,11.1-10.7,10.8-10.9
		C239.5,312.2,236.9,314.6,233.9,317.7 M220.9,330.7c-1.2,1.2-2.1,2.2-2,2.3c0.1,0.1,1.1-0.8,2.3-2c1.2-1.2,2.1-2.2,2-2.3
		C223.1,328.6,222,329.5,220.9,330.7 M216.2,335.1c-1.7,1.6-1.8,1.7-0.4,0.6c1.5-1.1,2.9-2.5,2.5-2.4
		C218.3,333.2,217.3,334.1,216.2,335.1 M194.7,340.5c0.2,0.2,0.8,0.3,1.3,0.2c0.8-0.1,0.7-0.2-0.4-0.4
		C194.9,340.2,194.5,340.3,194.7,340.5 M204.2,340.4l-1.2,0.3l1.1,0c0.6,0,1.2-0.1,1.3-0.4c0.1-0.2,0.2-0.4,0.1-0.4
		C205.5,340.1,204.9,340.2,204.2,340.4"/>
	</g>
</svg>
