<?xml version="1.0" encoding="utf-8"?>
<!-- Generator: Adobe Illustrator 21.0.2, SVG Export Plug-In . SVG Version: 6.00 Build 0) -->
<svg version="1.1" id="Capa_1" xmlns="http://www.w3.org/2000/svg" xmlns:xlink="http://www.w3.org/1999/xlink" x="0px" y="0px" viewBox="0 0 278.2 211.3" style="enable-background:new 0 0 278.2 211.3;" xml:space="preserve">
	<style type="text/css">
		.st0 {
			fill: #599BEE;
		}
		.st1 {
			fill: none;
			stroke: #599BEE;
			stroke-width: 9.7595;
			stroke-miterlimit: 10;
		}
	</style>
	<g>
		<path
			class="st0"
			d="M112.7,85.4l-34.2,3.9C35.4,94.3,0,107.4,0,153.9c0,35.4,31.6,57.4,63.5,57.4c29.6,0,55-8.4,77-32.7
		c0.8,17.3,8.9,32.7,33.1,32.7c13.5,0,25.4-8.8,25.4-21.5c0-8.9-5.8-14.2-5.8-37.7V57.7C193.2,17.3,155.9,0,102,0
		C44.3,0,12.7,28.5,12.7,50.8c0,11.6,9.6,21.6,23.8,21.6c22.3,0,23.5-30.8,65.1-30.8c18.9,0,35.4,6.9,35.4,23.1
		C136.9,80.8,126.2,83.8,112.7,85.4z M136.9,133.5c0,20.8-18.8,40.8-49.6,40.8c-19.2,0-31.2-10.4-31.2-23.1
		c0-17,12.7-24.3,36.2-27.7l20.4-3.1c6.5-1.1,18.1-3.1,24.3-8.9L136.9,133.5L136.9,133.5z"/>
		<g>
			<line class="st1" x1="256.8" y1="24.5" x2="256.8" y2="168.7"/>
			<polyline class="st0" points="278.2,158.9 256.8,202.2 235.5,158.9 		"/>
		</g>
	</g>
</svg>
