<?xml version="1.0" encoding="utf-8"?>
<!-- Generator: Adobe Illustrator 21.0.0, SVG Export Plug-In . SVG Version: 6.00 Build 0) -->
<svg version="1.1" id="Capa_1" xmlns="http://www.w3.org/2000/svg" xmlns:xlink="http://www.w3.org/1999/xlink" x="0px" y="0px" viewBox="0 0 1200 1200" style="enable-background:new 0 0 1200 1200;" xml:space="preserve">
	<style type="text/css">
		.st0 {
			fill: url("#SVGID_1_");
		}
		.st1 {
			fill: #FFFFFF;
		}
		.st2 {
			fill: #599BEE;
		}
		.st3 {
			fill: url("#SVGID_2_");
		}
		.st4 {
			fill: url("#SVGID_3_");
		}
		.st5 {
			fill: url("#SVGID_4_");
		}
		.st6 {
			fill: url("#SVGID_5_");
		}
		.st7 {
			fill: url("#SVGID_6_");
		}
		.st8 {
			fill: url("#SVGID_7_");
		}
		.st9 {
			fill: #960000;
		}
		.st10 {
			fill: #EBD8BB;
		}
		.st11 {
			opacity: 0.26;
			fill: #272425;
		}
		.st12 {
			fill: #233048;
		}
		.st13 {
			fill: #1C283A;
		}
		.st14 {
			fill: #9BCDDF;
		}
		.st15 {
			fill: #6EBDCD;
		}
		.st16 {
			fill: #B6E4EF;
		}
		.st17 {
			fill: #C90100;
		}
		.st18 {
			fill: url("#SVGID_8_");
		}
		.st19 {
			fill: url("#SVGID_9_");
		}
		.st20 {
			opacity: 0.26;
		}
		.st21 {
			fill: #272425;
		}
		.st22 {
			fill: #E9E3D8;
		}
		.st23 {
			opacity: 0.69;
		}
		.st24 {
			fill: #82CEC2;
		}
		.st25 {
			fill-rule: evenodd;
			clip-rule: evenodd;
			fill: #FFFFFF;
		}
		.st26 {
			fill: #7E2B89;
		}
		.st27 {
			fill: none;
			stroke: #599BEE;
			stroke-width: 9.7595;
			stroke-miterlimit: 10;
		}
		.st28 {
			fill: none;
			stroke: #FFFFFF;
			stroke-width: 8.9147;
			stroke-miterlimit: 10;
		}
		.st29 {
			fill: #E27F25;
		}
		.st30 {
			fill: none;
			stroke: #FFFFFF;
			stroke-width: 8.9152;
			stroke-miterlimit: 10;
		}
		.st31 {
			fill: #211915;
		}
		.st32 {
			fill: none;
			stroke: #FFFFFF;
			stroke-width: 8.885;
			stroke-miterlimit: 10;
		}
		.st33 {
			fill: #FFFFFF;
			stroke: #FFFFFF;
			stroke-width: 1.5743;
			stroke-miterlimit: 10;
		}
		.st34 {
			fill: none;
			stroke: #FFFFFF;
			stroke-width: 8.8329;
			stroke-miterlimit: 10;
		}
	</style>
	<g>
		<radialGradient id="SVGID_1_" cx="580" cy="616.424" r="517.655" gradientUnits="userSpaceOnUse">
			<stop offset="0.5217" style="stop-color:#202020"/>
			<stop offset="0.5776" style="stop-color:#434343"/>
			<stop offset="0.6914" style="stop-color:#858585"/>
			<stop offset="0.7946" style="stop-color:#BABABA"/>
			<stop offset="0.8837" style="stop-color:#DFDFDF"/>
			<stop offset="0.9552" style="stop-color:#F7F7F7"/>
			<stop offset="1" style="stop-color:#FFFFFF"/>
		</radialGradient>
		<path class="st0" d="M580,1134.1L580,1134.1c-285.9,0-517.7-231.8-517.7-517.7l0,0C62.3,330.5,294.1,98.8,580,98.8l0,0
		c285.9,0,517.7,231.8,517.7,517.7l0,0C1097.7,902.3,865.9,1134.1,580,1134.1z"/>
		<path class="st1" d="M604.7,973.5L604.7,973.5c-226.1,0-409.3-183.3-409.3-409.3l0,0c0-226.1,183.3-409.3,409.3-409.3l0,0
		c226.1,0,409.3,183.3,409.3,409.3l0,0C1014.1,790.3,830.8,973.5,604.7,973.5z"/>
	</g>
	<g>
		<g>
			<path class="st2" d="M607.7,393.5c-97.5,0-176.8,79.3-176.8,176.8s79.3,176.8,176.8,176.8c97.5,0,176.8-79.3,176.8-176.8
			S705.2,393.5,607.7,393.5z"/>
			<g>
				<g>
					<path class="st2" d="M607.7,341.5c-19.1,0-34.5-15.4-34.5-34.5v-55.2c0-19.1,15.4-34.5,34.5-34.5s34.5,15.4,34.5,34.5V307
					C642.2,326,626.7,341.5,607.7,341.5z"/>
				</g>
				<g>
					<path class="st2" d="M607.7,799.1c-19.1,0-34.5,15.4-34.5,34.5v55.2c0,19.1,15.4,34.5,34.5,34.5s34.5-15.4,34.5-34.5v-55.2
					C642.2,814.5,626.7,799.1,607.7,799.1z"/>
				</g>
				<g>
					<path class="st2" d="M769.5,408.5c-13.5-13.5-13.5-35.3,0-48.8l39-39c13.5-13.5,35.3-13.5,48.8,0c13.5,13.5,13.5,35.3,0,48.8
					l-39,39C804.8,422,783,422,769.5,408.5z"/>
				</g>
				<g>
					<path class="st2" d="M445.9,732.1c-13.5-13.5-35.3-13.5-48.8,0l-39,39c-13.5,13.5-13.5,35.3,0,48.8s35.3,13.5,48.8,0l39-39.1
					C459.4,767.4,459.4,745.5,445.9,732.1z"/>
				</g>
				<g>
					<path class="st2" d="M836.5,570.3c0-19.1,15.4-34.5,34.5-34.5h55.2c19.1,0,34.5,15.4,34.5,34.5s-15.4,34.5-34.5,34.5H871
					C851.9,604.8,836.5,589.3,836.5,570.3z"/>
				</g>
				<g>
					<path class="st2" d="M378.9,570.3c0-19.1-15.4-34.5-34.5-34.5h-55.2c-19.1,0-34.5,15.4-34.5,34.5s15.4,34.5,34.5,34.5h55.2
					C363.4,604.8,378.9,589.3,378.9,570.3z"/>
				</g>
				<g>
					<path class="st2" d="M769.5,732.1c13.5-13.5,35.3-13.5,48.8,0l39,39c13.5,13.4,13.5,35.3,0,48.8c-13.5,13.5-35.3,13.5-48.8,0
					l-39-39C756,767.4,756,745.6,769.5,732.1z"/>
				</g>
				<g>
					<path class="st2" d="M445.9,408.5c13.5-13.5,13.5-35.3,0-48.8l-39-39c-13.5-13.5-35.3-13.5-48.8,0c-13.5,13.5-13.5,35.3,0,48.8
					l39,39C410.6,422,432.4,422,445.9,408.5z"/>
				</g>
			</g>
		</g>
	</g>
</svg>
