<?xml version="1.0" encoding="utf-8"?>
<!-- Generator: Adobe Illustrator 21.0.0, SVG Export Plug-In . SVG Version: 6.00 Build 0)  -->
<svg version="1.1" id="Capa_1" xmlns="http://www.w3.org/2000/svg" xmlns:xlink="http://www.w3.org/1999/xlink" x="0px" y="0px"
	 viewBox="0 0 1200 1200" style="enable-background:new 0 0 1200 1200;" xml:space="preserve">
<style type="text/css">
	.st0{fill:url(#SVGID_1_);}
	.st1{fill:#FFFFFF;}
	.st2{fill:#599BEE;}
	.st3{fill:url(#SVGID_2_);}
	.st4{fill:url(#SVGID_3_);}
	.st5{fill:url(#SVGID_4_);}
	.st6{fill:url(#SVGID_5_);}
	.st7{fill:url(#SVGID_6_);}
	.st8{fill:url(#SVGID_7_);}
	.st9{fill:#960000;}
	.st10{fill:#EBD8BB;}
	.st11{opacity:0.26;fill:#272425;}
	.st12{fill:#233048;}
	.st13{fill:#1C283A;}
	.st14{fill:#9BCDDF;}
	.st15{fill:#6EBDCD;}
	.st16{fill:#B6E4EF;}
	.st17{fill:#C90100;}
	.st18{fill:url(#SVGID_8_);}
	.st19{fill:url(#SVGID_9_);}
	.st20{opacity:0.26;}
	.st21{fill:#272425;}
	.st22{fill:#E9E3D8;}
	.st23{opacity:0.69;}
	.st24{fill:#82CEC2;}
	.st25{fill-rule:evenodd;clip-rule:evenodd;fill:#FFFFFF;}
	.st26{fill:#7E2B89;}
	.st27{fill:none;stroke:#599BEE;stroke-width:9.7595;stroke-miterlimit:10;}
	.st28{fill:none;stroke:#FFFFFF;stroke-width:8.9147;stroke-miterlimit:10;}
	.st29{fill:#E27F25;}
	.st30{fill:none;stroke:#FFFFFF;stroke-width:8.9152;stroke-miterlimit:10;}
	.st31{fill:#211915;}
	.st32{fill:none;stroke:#FFFFFF;stroke-width:8.885;stroke-miterlimit:10;}
	.st33{fill:#FFFFFF;stroke:#FFFFFF;stroke-width:1.5743;stroke-miterlimit:10;}
	.st34{fill:none;stroke:#FFFFFF;stroke-width:8.8329;stroke-miterlimit:10;}
</style>
<g>
	<radialGradient id="SVGID_1_" cx="600" cy="609.6694" r="524.4097" gradientUnits="userSpaceOnUse">
		<stop  offset="0.5217" style="stop-color:#202020"/>
		<stop  offset="0.5776" style="stop-color:#434343"/>
		<stop  offset="0.6914" style="stop-color:#858585"/>
		<stop  offset="0.7946" style="stop-color:#BABABA"/>
		<stop  offset="0.8837" style="stop-color:#DFDFDF"/>
		<stop  offset="0.9552" style="stop-color:#F7F7F7"/>
		<stop  offset="1" style="stop-color:#FFFFFF"/>
	</radialGradient>
	<path class="st0" d="M600,1134.1L600,1134.1c-289.6,0-524.4-234.8-524.4-524.4l0,0C75.6,320,310.4,85.3,600,85.3l0,0
		c289.6,0,524.4,234.8,524.4,524.4l0,0C1124.4,899.3,889.6,1134.1,600,1134.1z"/>
	<path class="st1" d="M625,971.4L625,971.4c-229,0-414.7-185.7-414.7-414.7l0,0c0-229,185.7-414.7,414.7-414.7l0,0
		c229,0,414.7,185.7,414.7,414.7l0,0C1039.7,785.8,854.1,971.4,625,971.4z"/>
</g>
<path class="st2" d="M721.5,369.2c0-0.1,0-0.2,0-0.3 M913.3,611.3c2.8,1,5.9,0.5,8.4-1.3c2.4-1.7,3.9-4.6,3.9-7.5
	c0-19.6-25.5-67.6-39.7-93h2.5c3.3,0,6.3-1.7,8-4.6c1.7-2.8,1.7-6.3,0.1-9.2c-1.7-3.1-14.5-25.7-28.9-40.4c4.2-3,8.3-6.4,12.1-10.2
	c31.6-31.6,27.5-71.4-12.2-118.3c-18.2-21.4-42-34.4-65.3-35.4c-16.9-0.8-33.1,4.8-47.2,16.1c-0.4-0.3-0.7-0.6-1.2-0.9
	c-40.6-25.8-83-38.9-125.9-38.9c-42.9,0-85.3,13.1-125.9,38.9c-0.4,0.3-0.8,0.6-1.2,0.9c-14.1-11.3-30.3-16.9-47.2-16.1
	c-23.4,1.1-47.2,14-65.3,35.4c-39.7,46.9-43.8,86.7-12.2,118.3c3.8,3.8,7.9,7.2,12.1,10.2c-14.4,14.7-27.2,37.3-28.9,40.4
	l-29.1,106.8c0,3,1.4,5.8,3.9,7.5c2.4,1.8,5.5,2.2,8.4,1.3l8-2.6c-8.5,20.6-20.2,53.4-20.2,77.5c0,3,1.4,5.8,3.9,7.5
	c2.4,1.8,5.5,2.2,8.4,1.3l15.7-5.2v70.8c0,5.1,4.2,9.3,9.3,9.3h34.6l-6.4,25.7c-0.7,2.8-0.1,5.7,1.7,8c1.8,2.3,4.5,3.6,7.3,3.6h33.6
	l-5.2,15.7c-1.5,4.5,0.7,9.4,5,11.4c0.7,0.3,16.6,7.5,48.2,14.5c28.7,6.5,76.6,14.2,141.7,14.2c0,0,0,0,0,0
	c65.1,0,112.9-7.7,141.7-14.2c31.5-7.1,47.5-14.3,48.2-14.5c4.3-2,6.5-6.9,5-11.4l-5.2-15.7h33.6c2.8,0,5.6-1.3,7.3-3.6
	c1.8-2.2,2.4-5.2,1.7-8l-6.4-25.6h34.6c5.1,0,9.3-4.1,9.3-9.3v-70.8l15.7,5.2c2.8,0.9,5.9,0.5,8.4-1.3c2.4-1.7,3.9-4.6,3.9-7.6
	c0-24.1-11.7-56.9-20.2-77.5L913.3,611.3z M461.4,390.6c-12.1,21-34.5,30.8-50,21.9c-15.5-8.9-18.2-33.2-6-54.2
	c12.2-21,34.5-30.8,50-21.9C470.9,345.3,473.6,369.5,461.4,390.6z M639.9,698.2l18.6-18.6c3.6-3.6,9.5-3.6,13.2,0
	c3.6,3.6,3.6,9.5,0,13.1l-18.6,18.6c-1.8,1.8-4.2,2.7-6.6,2.7c-2.4,0-4.8-0.9-6.6-2.7C636.3,707.8,636.3,701.9,639.9,698.2z
	 M584.1,679.6c3.6-3.6,9.5-3.6,13.1,0l18.6,18.6c3.6,3.6,3.6,9.5,0,13.1c-1.8,1.8-4.2,2.7-6.6,2.7c-2.4,0-4.8-0.9-6.6-2.7
	l-18.6-18.6C580.5,689.2,580.5,683.3,584.1,679.6z M534.9,565.3c-14.1,0-25.5-16.1-25.5-35.9c0-9.6,2.7-18.1,6.9-24.5v-39.5h7.7V497
	c2.2-1.4,4.5-2.4,6.9-2.9v-28.7h7.7v28.7c2.1,0.5,4.2,1.2,6.1,2.3v-31h7.7v38.3c4.8,6.5,7.8,15.6,7.8,25.8
	C560.4,549.2,549,565.3,534.9,565.3z M637.2,807.1h-18.6c-5.1,0-9.3-4.2-9.3-9.3c0-5.1,4.1-9.3,9.3-9.3h18.6c5.1,0,9.3,4.2,9.3,9.3
	C646.5,803,642.3,807.1,637.2,807.1z M688,778.2c-8.8,4.6-17.2,6.3-25,6.3c-15.4,0-28-6.9-35.1-11.9c-7.2,5.1-19.8,11.9-35.1,11.9
	c-7.7,0-16.1-1.7-24.9-6.3c-4.6-2.4-6.3-8-4-12.5c2.4-4.6,8-6.3,12.5-4c18.9,9.8,35.7-0.4,42.2-5.4v-23.6c0-5.1,4.2-9.3,9.3-9.3
	c5.1,0,9.3,4.1,9.3,9.3v23.6c6.5,5,23.3,15.2,42.2,5.4c4.6-2.4,10.2-0.6,12.5,4C694.3,770.2,692.6,775.8,688,778.2z M720.9,565.3
	c-14.1,0-25.5-16.1-25.5-35.9c0-9.6,2.7-18.1,7-24.5v-39.5h7.7V497c2.2-1.4,4.5-2.4,6.9-2.9v-28.7h7.7v28.7c2.1,0.5,4.2,1.2,6.1,2.3
	v-31h7.7v38.3c4.8,6.5,7.8,15.6,7.8,25.8C746.3,549.2,735,565.3,720.9,565.3z M847.7,412.5c-15.5,8.9-37.9-0.9-50-21.9
	c-12.1-21-9.5-45.3,6-54.2c15.5-8.9,37.9,0.9,50,21.9C865.9,379.3,863.2,403.5,847.7,412.5z M627.9,844.3
	C627.9,844.3,627.9,844.3,627.9,844.3"/>
</svg>
