<?xml version="1.0" encoding="utf-8"?>
<!-- Generator: Adobe Illustrator 21.0.0, SVG Export Plug-In . SVG Version: 6.00 Build 0) -->
<svg version="1.1" id="Capa_1" xmlns="http://www.w3.org/2000/svg" xmlns:xlink="http://www.w3.org/1999/xlink" x="0px" y="0px" viewBox="0 0 1200 1200" style="enable-background:new 0 0 1200 1200;" xml:space="preserve">
	<style type="text/css">
		.st0 {
			fill: url("#SVGID_1_");
		}
		.st1 {
			fill: #FFFFFF;
		}
		.st2 {
			fill: #599BEE;
		}
		.st3 {
			fill: url("#SVGID_2_");
		}
		.st4 {
			fill: url("#SVGID_3_");
		}
		.st5 {
			fill: url("#SVGID_4_");
		}
		.st6 {
			fill: url("#SVGID_5_");
		}
		.st7 {
			fill: url("#SVGID_6_");
		}
		.st8 {
			fill: url("#SVGID_7_");
		}
		.st9 {
			fill: #960000;
		}
		.st10 {
			fill: #EBD8BB;
		}
		.st11 {
			opacity: 0.26;
			fill: #272425;
		}
		.st12 {
			fill: #233048;
		}
		.st13 {
			fill: #1C283A;
		}
		.st14 {
			fill: #9BCDDF;
		}
		.st15 {
			fill: #6EBDCD;
		}
		.st16 {
			fill: #B6E4EF;
		}
		.st17 {
			fill: #C90100;
		}
		.st18 {
			fill: url("#SVGID_8_");
		}
		.st19 {
			fill: url("#SVGID_9_");
		}
		.st20 {
			opacity: 0.26;
		}
		.st21 {
			fill: #272425;
		}
		.st22 {
			fill: #E9E3D8;
		}
		.st23 {
			opacity: 0.69;
		}
		.st24 {
			fill: #82CEC2;
		}
		.st25 {
			fill-rule: evenodd;
			clip-rule: evenodd;
			fill: #FFFFFF;
		}
		.st26 {
			fill: #7E2B89;
		}
		.st27 {
			fill: none;
			stroke: #599BEE;
			stroke-width: 9.7595;
			stroke-miterlimit: 10;
		}
		.st28 {
			fill: none;
			stroke: #FFFFFF;
			stroke-width: 8.9147;
			stroke-miterlimit: 10;
		}
		.st29 {
			fill: #E27F25;
		}
		.st30 {
			fill: none;
			stroke: #FFFFFF;
			stroke-width: 8.9152;
			stroke-miterlimit: 10;
		}
		.st31 {
			fill: #211915;
		}
		.st32 {
			fill: none;
			stroke: #FFFFFF;
			stroke-width: 8.885;
			stroke-miterlimit: 10;
		}
		.st33 {
			fill: #FFFFFF;
			stroke: #FFFFFF;
			stroke-width: 1.5743;
			stroke-miterlimit: 10;
		}
		.st34 {
			fill: none;
			stroke: #FFFFFF;
			stroke-width: 8.8329;
			stroke-miterlimit: 10;
		}
	</style>
	<g>
		<g>
			<g>
				<path
					class="st1"
					d="M234.3,183.1C234.3,183.1,234.3,183.1,234.3,183.1c-10.2,0-19.7,3.9-26.9,11.1c-7.3,7.2-11.3,16.9-11.3,27.2
				V795c0,21,17.2,38.2,38.3,38.2c89,0.2,238.2,18.8,341.1,126.5V359.4c0-7.1-1.8-13.8-5.3-19.4C485.9,204,323.6,183.4,234.3,183.1z
				"/>
				<path
					class="st1"
					d="M1014.4,795V221.4c0-10.3-4-19.9-11.3-27.2c-7.2-7.2-16.7-11.1-26.8-11.1c0,0-0.1,0-0.1,0
				C887,183.4,724.7,204,640.3,340c-3.4,5.5-5.3,12.2-5.3,19.4v600.3C737.9,852,887.1,833.5,976.1,833.3
				C997.3,833.2,1014.4,816,1014.4,795z"/>
				<path class="st1" d="M1101.6,315.4h-27.7V795c0,53.7-43.8,97.5-97.5,97.6c-75.5,0.2-200.1,14.9-288.3,98.4
				c152.5-37.3,313.3-13.1,405,7.8c11.4,2.6,23.3-0.1,32.4-7.4c9.1-7.3,14.4-18.2,14.4-29.9V353.7
				C1139.8,332.6,1122.7,315.4,1101.6,315.4z"/>
				<path class="st1" d="M136.8,795V315.4H109c-21.1,0-38.2,17.2-38.2,38.2v607.9c0,11.7,5.2,22.6,14.4,29.9c9.2,7.3,21,10,32.4,7.4
				c91.6-20.9,252.4-45.2,405-7.8c-88.2-83.5-212.7-98.2-288.3-98.4C180.5,892.5,136.8,848.7,136.8,795z"/>
			</g>
		</g>
	</g>
</svg>
