<?xml version="1.0" encoding="utf-8"?>
<!-- Generator: Adobe Illustrator 24.2.3, SVG Export Plug-In . SVG Version: 6.00 Build 0) -->
<svg version="1.1" id="svg" xmlns="http://www.w3.org/2000/svg" xmlns:xlink="http://www.w3.org/1999/xlink" x="0px" y="0px" viewBox="0 0 400 400" style="enable-background:new 0 0 400 400;" xml:space="preserve">
	<style type="text/css">
		.st0 {
			fill-rule: evenodd;
			clip-rule: evenodd;
			fill: #FBFBFC;
		}
		.st1 {
			fill-rule: evenodd;
			clip-rule: evenodd;
			fill: #861c82;
		}
		.st2 {
			fill-rule: evenodd;
			clip-rule: evenodd;
			fill: #861c82;
		}
		.st3 {
			fill-rule: evenodd;
			clip-rule: evenodd;
			fill: #861c82;
		}
		.st4 {
			fill-rule: evenodd;
			clip-rule: evenodd;
			fill: #861c82;
		}
	</style>
	<g id="svgg">
		<path
			id="path0"
			class="st0"
			d="M198,60c-0.6,0.2-1.6,0.4-2.4,0.4c-2.6,0.1-6.4,1.6-10.2,4.2c-3,2-100.8,99.8-103.4,103.4
		c-2.1,3-5.2,8.7-5.2,9.7c0,0.4-0.2,0.9-0.4,1c-0.2,0.1-0.4,0.7-0.4,1.2s-0.2,1.1-0.4,1.2c-1.6,1-1.6,17.8,0,20.7
		c0.2,0.4,0.4,1,0.4,1.5c0,0.4,0.2,0.9,0.4,1s0.4,0.6,0.4,1c0,1,3.2,6.9,5.2,9.7c3.2,4.4,8.2,8.4,13.8,11.1c1.5,0.7,3.1,1.5,3.5,1.7
		c0.4,0.2,1.1,0.4,1.6,0.4s1.1,0.2,1.3,0.3c0.7,0.6,8.1,1.8,10.8,1.7c3-0.1,9.7-1,11.2-1.6c0.4-0.2,1.5-0.5,2.4-0.8
		c1.6-0.5,3.4-1.3,3.8-1.6c0.1-0.1,1.1-0.6,2.2-1.2c3.8-1.9,5.6-3.4,14.7-12.4c5.8-5.8,9.2-8.9,9.5-8.6c0.2,0.2,0.4,20.3,0.5,53.8
		c0.1,50.6,0.2,56.5,1.1,57.4c0.2,0.2,0.4,0.9,0.4,1.5s0.2,1.2,0.4,1.3c0.2,0.1,0.4,0.5,0.4,0.8c0,4.8,14.4,22.6,18.3,22.6
		c0.2,0,0.5,0.1,0.6,0.3c0.2,0.4,5.1,2.9,5.8,2.9c0.3,0,0.9,0.2,1.2,0.4c2.1,1.1,3,1.3,7.3,2.1c8.1,1.4,17.9,0.3,24.1-2.9
		c0.4-0.2,1-0.4,1.3-0.4c0.3,0,0.6-0.2,0.6-0.4s0.3-0.4,0.6-0.4c3.8,0,15.9-12.1,19.3-19.4c1.9-4.1,2.3-5.3,3.6-10.5
		c1.1-4.3,1.2-13.3,1.2-60.2c0-26.8,0.1-48.8,0.3-48.9c0.2-0.1,4,3.5,8.5,8c9,9.1,11.8,11.4,16.8,13.8c1.9,0.9,3.7,1.8,4.1,2
		c0.4,0.2,1.1,0.4,1.7,0.4c0.5,0,1.1,0.2,1.2,0.4c0.1,0.2,0.8,0.4,1.4,0.4s1.2,0.2,1.4,0.3c0.8,1.2,15.7,0.7,19.2-0.7
		c0.4-0.2,1.5-0.5,2.4-0.8c1.9-0.6,5.1-2.1,5.3-2.5c0.1-0.2,0.5-0.3,0.9-0.3c0.4,0,0.8-0.2,0.8-0.4s0.2-0.4,0.5-0.4
		c3.6,0,15.9-15.7,15.9-20.3c0-0.5,0.2-1,0.4-1.1c0.2-0.1,0.4-0.8,0.4-1.4s0.2-1.2,0.3-1.4c0.3-0.2,0.9-5.5,0.9-8.4
		c0-3-0.6-8.2-0.9-8.4c-0.2-0.1-0.3-0.7-0.3-1.4c0-0.6-0.2-1.3-0.4-1.4s-0.4-0.6-0.4-1.1c0-1.1-2.9-7-4.9-10.1
		c-1.8-2.7-97.7-99.1-102.5-102.9c-4.1-3.3-8.4-5.3-13-5.8C199.5,59.7,199,59.7,198,60"/>
		<path
			id="path1"
			class="st1"
			d="M179,0.4c-2,0.2-4.9,0.5-6.6,0.6c-1.6,0.1-3.2,0.4-3.4,0.6S167.7,2,166.5,2s-2.1,0.2-2.1,0.4
		c0,0.2-0.9,0.4-2,0.4c-1.1,0-2.1,0.2-2.2,0.4s-1,0.4-1.8,0.4c-0.9,0-1.6,0.2-1.6,0.4c0,0.2-0.8,0.4-1.8,0.4s-1.9,0.2-2,0.4
		c-0.1,0.2-0.9,0.4-1.6,0.4c-0.7,0-1.5,0.2-1.6,0.4C149.7,5.8,149,6,148.4,6c-0.6,0-1.3,0.2-1.4,0.4c-0.1,0.2-0.8,0.4-1.4,0.4
		c-0.6,0-1.3,0.2-1.4,0.4c-0.1,0.2-0.8,0.4-1.4,0.4s-1.3,0.2-1.4,0.4c-0.1,0.2-0.8,0.4-1.4,0.4s-1.2,0.2-1.2,0.4s-0.5,0.4-1.2,0.4
		c-0.7,0-1.2,0.2-1.2,0.3c0,0.2-0.8,0.5-1.8,0.6s-2.1,0.4-2.5,0.6c-1.1,0.6-2.6,1.1-4.2,1.7c-0.8,0.3-1.5,0.7-1.5,0.8
		c0,0.2-0.4,0.3-0.9,0.3c-0.5,0-1.1,0.1-1.3,0.3c-0.2,0.2-1.2,0.6-2.2,0.9s-1.9,0.6-2,0.8c-0.4,0.5-2,1.2-2.6,1.2
		c-0.3,0-0.6,0.2-0.6,0.4c0,0.2-0.4,0.4-0.8,0.4s-0.8,0.2-0.8,0.4s-0.3,0.4-0.7,0.4c-0.9,0-2.9,0.9-2.9,1.3c0,0.2-0.4,0.3-0.8,0.3
		c-0.4,0-0.8,0.2-0.8,0.4c0,0.2-0.3,0.4-0.8,0.4c-0.4,0-0.8,0.1-0.9,0.3c-0.1,0.3-2.2,1.5-4.6,2.7c-0.5,0.2-0.9,0.6-0.9,0.7
		s-0.4,0.3-0.8,0.3s-0.8,0.2-0.8,0.4c0,0.2-0.3,0.4-0.7,0.4c-0.4,0-0.9,0.3-1.3,0.7c-0.4,0.4-1.2,0.9-1.9,1c-0.7,0.2-1.6,0.6-2,1.1
		c-0.4,0.4-0.9,0.8-1.2,0.8s-0.5,0.2-0.5,0.4c0,0.2-0.2,0.4-0.5,0.4c-0.3,0-0.9,0.4-1.4,0.8c-0.5,0.4-1.1,0.8-1.4,0.8
		s-0.8,0.4-1.1,0.8c-0.3,0.4-0.8,0.8-1,0.8c-0.2,0-1,0.5-1.8,1.2c-0.8,0.7-1.6,1.2-1.9,1.2c-0.3,0-0.5,0.2-0.5,0.3
		c0,0.2-0.5,0.6-1.1,0.9c-0.6,0.3-1.4,0.9-1.7,1.3c-0.4,0.4-0.8,0.7-1,0.7c-0.2,0-1.2,0.7-2.2,1.6c-1,0.9-2.1,1.9-2.6,2.4
		c-0.5,0.4-1.4,1-2,1.4c-0.6,0.3-2.1,1.5-3.2,2.5c-1.1,1.1-2.6,2.4-3.4,2.9c-0.8,0.5-2.5,2.2-4,3.7c-2.6,2.7-3.9,4-10.2,10.3
		c-1.9,1.8-3.4,3.5-3.4,3.7c0,0.2-1,1.4-2.2,2.7c-1.2,1.3-2.5,2.9-2.8,3.5c-0.3,0.6-1,1.5-1.4,2c-0.4,0.5-1.5,1.6-2.4,2.6
		c-0.9,1-1.6,1.9-1.6,2.2c0,0.2-0.3,0.7-0.7,1c-0.4,0.4-1,1.1-1.3,1.7c-0.3,0.6-0.7,1.1-0.9,1.1c-0.2,0-0.3,0.2-0.3,0.5
		c0,0.3-0.5,1.1-1.2,1.9c-0.7,0.8-1.2,1.6-1.2,1.8c0,0.2-0.4,0.7-0.8,1c-0.4,0.3-0.8,0.8-0.8,1.1s-0.4,0.9-0.8,1.4
		c-0.4,0.5-0.8,1.1-0.8,1.4c0,0.3-0.2,0.5-0.4,0.5c-0.2,0-0.4,0.2-0.4,0.5s-0.4,0.9-0.8,1.2c-0.4,0.4-0.9,1.3-1.1,2
		c-0.2,0.7-0.6,1.5-1,1.9c-0.4,0.4-0.7,0.9-0.7,1.3c0,0.4-0.2,0.7-0.4,0.7c-0.2,0-0.4,0.4-0.4,0.8s-0.1,0.8-0.3,0.8
		s-0.5,0.4-0.7,0.9c-1.2,2.4-2.4,4.5-2.7,4.6c-0.2,0.1-0.3,0.5-0.3,0.9c0,0.4-0.2,0.8-0.4,0.8c-0.2,0-0.4,0.4-0.4,0.8
		c0,0.4-0.1,0.8-0.3,0.8c-0.4,0-1.3,2-1.3,2.9c0,0.4-0.2,0.7-0.4,0.7s-0.4,0.4-0.4,0.8s-0.2,0.8-0.4,0.8c-0.2,0-0.4,0.3-0.4,0.6
		c0,0.6-0.7,2.2-1.2,2.6c-0.1,0.1-0.5,1-0.8,2s-0.7,2-0.9,2.2c-0.2,0.2-0.3,0.8-0.3,1.3c0,0.5-0.1,0.9-0.3,0.9
		c-0.2,0-0.5,0.7-0.8,1.5c-0.6,1.7-1.2,3.1-1.7,4.2c-0.2,0.4-0.5,1.5-0.6,2.5s-0.4,1.8-0.6,1.8c-0.2,0-0.3,0.5-0.3,1.2
		c0,0.7-0.2,1.2-0.4,1.2s-0.4,0.5-0.4,1.2s-0.2,1.3-0.4,1.4c-0.2,0.1-0.4,0.8-0.4,1.4s-0.2,1.3-0.4,1.4c-0.2,0.1-0.4,0.8-0.4,1.4
		c0,0.6-0.2,1.3-0.4,1.4c-0.2,0.1-0.4,0.8-0.4,1.4c0,0.6-0.2,1.3-0.4,1.4c-0.2,0.1-0.4,0.9-0.4,1.6c0,0.7-0.2,1.5-0.4,1.6
		c-0.2,0.1-0.4,1-0.4,2s-0.2,1.8-0.4,1.8c-0.2,0-0.4,0.7-0.4,1.6c0,0.9-0.2,1.7-0.4,1.8s-0.4,1.1-0.4,2.2c0,1.1-0.2,2-0.4,2
		c-0.2,0-0.4,1-0.4,2.1s-0.2,2.3-0.4,2.5s-0.5,1.6-0.6,3.2c-0.1,1.5-0.4,4.7-0.6,7c-0.5,5.4-0.5,36.2,0,41.6c0.2,2.3,0.5,5.5,0.6,7
		c0.1,1.5,0.4,3,0.6,3.2s0.4,1.3,0.4,2.5s0.2,2.1,0.4,2.1c0.2,0,0.4,1,0.4,2.2c0,1.2,0.2,2.2,0.4,2.2s0.4,0.7,0.4,1.6
		c0,0.9,0.2,1.6,0.4,1.6c0.2,0,0.4,0.8,0.4,1.8s0.2,1.9,0.4,2c0.2,0.1,0.4,1,0.4,1.8c0,0.9,0.2,1.6,0.4,1.6c0.2,0,0.4,0.5,0.4,1.2
		s0.2,1.3,0.4,1.4c0.2,0.1,0.4,0.9,0.4,1.6c0,0.8,0.2,1.4,0.4,1.4c0.2,0,0.4,0.5,0.4,1.2s0.2,1.3,0.4,1.4c0.2,0.1,0.4,0.8,0.4,1.4
		c0,0.6,0.2,1.2,0.4,1.2s0.4,0.5,0.4,1.2s0.2,1.2,0.4,1.2c0.2,0,0.4,0.4,0.4,0.9c0,1.1,1.1,4.7,1.7,5.3c0.2,0.2,0.3,0.7,0.3,1
		c0,0.4,0.4,1.4,0.8,2.3c0.4,0.9,0.8,1.9,0.8,2.3c0,0.3,0.1,0.6,0.3,0.6c0.2,0,0.6,0.9,0.9,2s0.7,2,0.9,2c0.2,0,0.3,0.4,0.3,0.8
		s0.2,0.8,0.4,0.8c0.2,0,0.4,0.4,0.4,0.8s0.2,0.8,0.4,0.8c0.2,0,0.4,0.4,0.4,0.8s0.2,0.8,0.4,0.8s0.4,0.3,0.4,0.6
		c0,0.6,0.9,2.5,2.3,5.1c0.5,0.8,0.9,1.8,0.9,2.1c0,0.3,0.1,0.6,0.3,0.7c0.4,0.2,1.7,2.3,2,3.2c0.1,0.4,0.4,0.7,0.6,0.7
		c0.2,0,0.4,0.4,0.4,0.8s0.2,0.8,0.4,0.8c0.2,0,0.4,0.3,0.4,0.7c0,0.4,0.4,1,0.8,1.3c0.4,0.3,0.8,0.8,0.8,1.1c0,0.8,1.1,3,1.9,3.9
		c0.4,0.4,0.9,1.2,1.2,1.9c0.3,0.6,0.7,1.1,0.9,1.1c0.2,0,0.3,0.3,0.3,0.7c0,0.4,0.4,1,0.8,1.3c0.4,0.3,0.8,0.9,0.8,1.2
		s0.4,0.9,0.8,1.2c0.4,0.3,0.8,0.8,0.8,1c0,0.2,0.5,1,1.2,1.8s1.2,1.6,1.2,1.8c0,0.2,0.4,0.7,0.8,1c0.4,0.3,0.8,0.8,0.8,1.1
		c0,0.3,0.2,0.5,0.4,0.5c0.2,0,0.4,0.2,0.4,0.4c0,0.4,1,1.6,3.1,3.9c0.5,0.5,1.2,1.5,1.5,2.1s1.6,2.1,2.8,3.4
		c1.2,1.3,2.2,2.5,2.2,2.7c0,0.2,1.9,2.2,4.2,4.5c5.2,5.1,5.9,5.8,10.4,10.3c2,2,3.7,3.6,3.9,3.6s1.3,1,2.6,2.2
		c1.2,1.2,2.4,2.2,2.5,2.2s1,0.6,1.8,1.4c0.8,0.8,1.7,1.4,1.8,1.4s1,0.6,1.8,1.4c0.8,0.8,1.8,1.4,2.1,1.4s0.5,0.1,0.5,0.3
		c0,0.2,0.5,0.6,1.1,1c0.6,0.4,1.6,1.1,2.3,1.7c0.7,0.6,1.4,1,1.6,1c0.2,0,0.7,0.4,1,0.8c0.3,0.4,0.9,0.8,1.2,0.8s0.9,0.4,1.2,0.8
		c0.3,0.4,0.9,0.8,1.3,0.8c0.4,0,0.7,0.1,0.7,0.3c0,0.2,0.5,0.6,1.1,0.9c0.6,0.3,1.4,0.9,1.8,1.2c0.4,0.4,1.6,1.1,2.6,1.6
		c1,0.5,2,1.1,2.1,1.2c0.4,0.4,2.7,1.6,3.3,1.6c0.3,0,0.6,0.1,0.7,0.3c0.2,0.4,2.3,1.7,3.2,2c0.4,0.1,0.7,0.4,0.7,0.6
		c0,0.2,0.2,0.4,0.5,0.4c0.7,0,2.7,0.9,2.7,1.3c0,0.2,0.4,0.3,0.8,0.3c0.4,0,0.8,0.1,0.8,0.3c0,0.4,2,1.3,2.9,1.3
		c0.4,0,0.7,0.2,0.7,0.4s0.4,0.4,0.8,0.4s0.8,0.2,0.8,0.4s0.4,0.4,0.8,0.4c0.4,0,0.8,0.2,0.8,0.4s0.4,0.4,0.8,0.4
		c0.4,0,0.8,0.2,0.8,0.4s0.3,0.4,0.8,0.4s0.9,0.2,1,0.4c0.1,0.2,0.7,0.4,1.2,0.4c0.5,0,1,0.2,1,0.4c0,0.2,0.4,0.4,0.9,0.6
		c1.2,0.3,4.8,1.6,5.1,1.9c0.4,0.4,9.4,3.2,10.3,3.2c0.5,0,1,0.2,1.1,0.4c0.1,0.2,0.8,0.4,1.4,0.4s1.3,0.2,1.4,0.4s0.8,0.4,1.4,0.4
		c0.6,0,1.3,0.2,1.4,0.4s0.8,0.4,1.4,0.4s1.2,0.2,1.2,0.4s0.7,0.4,1.6,0.4c0.9,0,1.7,0.2,1.8,0.4s1,0.4,2,0.4s1.8,0.2,1.8,0.4
		s0.7,0.4,1.6,0.4c0.9,0,1.6,0.2,1.6,0.4s1,0.4,2.2,0.4c1.2,0,2.2,0.2,2.2,0.4s1,0.4,2.1,0.4s2.3,0.2,2.5,0.4s1.6,0.5,3.2,0.6
		c1.5,0.1,5.1,0.4,8,0.7c7.2,0.6,44,0.3,44.7-0.3c0.3-0.3,1.6-0.5,3.2-0.5c1.5,0,2.8-0.2,2.9-0.4s1.1-0.4,2.2-0.4
		c1.1,0,2.1-0.2,2.2-0.4c0.1-0.2,1.2-0.4,2.4-0.4c1.2,0,2.2-0.2,2.2-0.4s0.7-0.4,1.6-0.4c0.9,0,1.6-0.2,1.6-0.4s0.8-0.4,1.8-0.4
		s1.9-0.2,2-0.4s1-0.4,1.8-0.4c0.9,0,1.6-0.2,1.6-0.4s0.5-0.4,1.2-0.4s1.3-0.2,1.4-0.4s0.9-0.4,1.6-0.4c0.8,0,1.4-0.2,1.4-0.4
		s0.6-0.4,1.4-0.4c0.8,0,1.4-0.2,1.4-0.4s0.4-0.4,1-0.4c1,0,4.3-1,5.5-1.6c0.4-0.2,1-0.4,1.3-0.4c0.3,0,1.4-0.4,2.3-0.8
		c0.9-0.4,1.9-0.8,2.2-0.8c0.3,0,0.9-0.2,1.3-0.4s1.2-0.6,1.6-0.8c0.4-0.2,1.1-0.4,1.4-0.4c0.3,0,0.6-0.2,0.6-0.4s0.4-0.4,0.8-0.4
		c0.4,0,1.4-0.4,2.2-0.8s1.7-0.8,2-0.8s0.6-0.2,0.6-0.4s0.4-0.4,0.8-0.4s0.8-0.2,0.8-0.4s0.4-0.4,0.8-0.4s0.8-0.2,0.8-0.4
		s0.3-0.4,0.8-0.4c0.7,0,3.9-1.5,4.4-2c0.5-0.5,2-1.2,2.6-1.2c0.3,0,0.6-0.1,0.7-0.3c0.2-0.4,2.3-1.7,3.2-2c0.4-0.1,0.7-0.4,0.7-0.6
		c0-0.2,0.3-0.4,0.6-0.4c0.6,0,3-1.1,3.4-1.6c0.1-0.1,0.7-0.5,1.4-0.8c1.7-0.8,6-3.7,6.1-4.1c0.1-0.2,0.4-0.3,0.8-0.3
		c0.4,0,0.9-0.4,1.3-0.8c0.3-0.4,0.9-0.8,1.2-0.8s0.9-0.4,1.2-0.8c0.3-0.4,0.8-0.8,1-0.8c0.2,0,1-0.5,1.8-1.2s1.6-1.2,1.8-1.2
		c0.2,0,0.7-0.4,1-0.8c0.3-0.4,0.8-0.8,1-0.8c0.2,0,1.2-0.7,2.2-1.6s1.9-1.6,2-1.6s1-0.6,1.8-1.4c0.8-0.8,1.7-1.4,1.9-1.4
		c0.2,0,1.2-0.9,2.3-2c1.1-1.1,2.1-2,2.4-2s2.4-2,4.7-4.4c5.2-5.3,4.4-4.5,9.7-9.7c2.4-2.4,4.4-4.5,4.4-4.7s0.9-1.3,2-2.4
		c1.1-1.1,2-2.1,2-2.3c0-0.2,0.6-1,1.4-1.9c0.8-0.8,1.4-1.6,1.4-1.8s0.7-1.1,1.6-2s1.6-2,1.6-2.2c0-0.2,0.4-0.7,0.8-1
		c0.4-0.3,0.8-0.8,0.8-1c0-0.2,0.5-1,1.2-1.8s1.2-1.6,1.2-1.8c0-0.2,0.4-0.7,0.8-1c0.4-0.3,0.8-0.9,0.8-1.2s0.4-0.9,0.8-1.2
		c0.4-0.3,0.8-0.9,0.8-1.3c0-0.4,0.1-0.7,0.3-0.8c0.4-0.2,3.3-4.5,4.1-6.1c0.3-0.7,0.7-1.3,0.8-1.4c0.4-0.4,1.6-2.8,1.6-3.3
		c0-0.3,0.1-0.6,0.3-0.7c0.4-0.2,1.7-2.3,2-3.2c0.1-0.4,0.4-0.7,0.6-0.7c0.2,0,0.4-0.3,0.4-0.6c0-0.6,0.7-2.1,1.2-2.6
		c0.5-0.5,2-3.8,2-4.4c0-0.4,0.2-0.8,0.4-0.8s0.4-0.4,0.4-0.8s0.2-0.8,0.4-0.8s0.4-0.4,0.4-0.8s0.2-0.8,0.4-0.8s0.4-0.3,0.4-0.6
		s0.4-1.2,0.8-2s0.8-1.8,0.8-2.2c0-0.4,0.2-0.8,0.4-0.8s0.4-0.3,0.4-0.6c0-0.3,0.2-1,0.4-1.4c0.2-0.4,0.6-1.2,0.8-1.6s0.4-1,0.4-1.3
		c0-0.3,0.4-1.3,0.8-2.2c0.4-0.9,0.8-1.9,0.8-2.3c0-0.3,0.2-0.9,0.4-1.3c0.6-1.2,1.6-4.5,1.6-5.5c0-0.5,0.2-1,0.4-1s0.4-0.6,0.4-1.4
		c0-0.8,0.2-1.4,0.4-1.4s0.4-0.6,0.4-1.4c0-0.8,0.2-1.5,0.4-1.6s0.4-0.8,0.4-1.4s0.2-1.2,0.4-1.2s0.4-0.7,0.4-1.6
		c0-0.9,0.2-1.7,0.4-1.8s0.4-1,0.4-2s0.2-1.8,0.4-1.8s0.4-0.7,0.4-1.6c0-0.9,0.2-1.6,0.4-1.6s0.4-1,0.4-2.2c0-1.2,0.2-2.3,0.4-2.4
		c0.2-0.1,0.4-1.1,0.4-2.2c0-1.1,0.2-2.1,0.4-2.2s0.4-1.5,0.4-2.9c0-1.6,0.2-2.9,0.5-3.2c0.4-0.4,0.5-5.9,0.5-24.7
		c0-19-0.1-24.3-0.5-24.4c-0.3-0.1-0.5-1.2-0.5-3.3c0-1.7-0.2-3.2-0.4-3.2c-0.2,0-0.5-0.9-0.6-2.1c-0.5-4.6-0.7-6.1-1.1-6.5
		c-0.2-0.2-0.4-1.2-0.4-2.1s-0.2-1.7-0.4-1.7s-0.4-0.7-0.4-1.6c0-0.9-0.2-1.6-0.4-1.6s-0.4-0.8-0.4-1.8c0-1-0.2-1.8-0.4-1.8
		s-0.4-0.6-0.4-1.4c0-0.8-0.2-1.4-0.4-1.4s-0.4-0.6-0.4-1.4s-0.2-1.4-0.4-1.4s-0.4-0.5-0.4-1.2s-0.2-1.2-0.3-1.2s-0.4-1-0.6-2.3
		s-0.4-2.4-0.7-2.7s-0.4-0.8-0.4-1.3s-0.2-1-0.4-1.1c-0.2-0.1-0.4-0.7-0.4-1.2c0-0.5-0.2-1-0.4-1s-0.4-0.4-0.4-0.8
		c0-0.4-0.2-1.2-0.4-1.6c-0.2-0.4-0.6-1.2-0.8-1.6s-0.4-1.1-0.4-1.4s-0.2-0.6-0.4-0.6s-0.4-0.5-0.4-1.2c0-0.7-0.2-1.2-0.4-1.2
		s-0.4-0.4-0.4-0.8c0-0.4-0.2-0.8-0.4-0.8s-0.4-0.3-0.4-0.8s-0.2-0.9-0.4-1s-0.4-0.7-0.4-1.2s-0.2-1-0.4-1s-0.4-0.4-0.4-0.8
		c0-0.4-0.2-0.8-0.4-0.8s-0.4-0.4-0.4-0.8s-0.2-0.8-0.4-0.8s-0.4-0.4-0.4-0.8c0-0.4-0.2-0.8-0.4-0.8s-0.4-0.4-0.4-1
		c0-0.5-0.1-1-0.3-1.1c-0.4-0.2-1.7-2.3-2-3.2c-0.1-0.4-0.4-0.7-0.6-0.7c-0.2,0-0.4-0.4-0.4-0.8c0-0.4-0.2-0.8-0.4-0.8
		s-0.4-0.4-0.4-0.8c0-0.4-0.2-0.8-0.4-0.8s-0.4-0.4-0.4-0.8c0-0.4-0.2-0.8-0.4-0.8s-0.4-0.3-0.4-0.6s-0.5-1.3-1-2.2
		c-0.6-0.9-1-1.7-1-1.8s-0.5-1-1.2-2s-1.2-1.9-1.2-2.1c0-0.2-0.4-0.6-0.8-0.9c-0.4-0.3-0.8-0.9-0.8-1.3c0-0.4-0.2-0.7-0.4-0.7
		c-0.2,0-0.6-0.5-0.8-1.2s-0.7-1.2-0.8-1.2c-0.2,0-0.4-0.2-0.4-0.5c0-0.3-0.5-1.1-1.2-1.8c-0.7-0.7-1.2-1.5-1.2-1.8
		c0-0.3-0.4-0.8-0.8-1.1s-0.8-0.8-0.8-1c0-0.2-0.3-0.8-0.7-1.2c-0.4-0.4-1.1-1.4-1.7-2.2c-0.5-0.8-1.2-1.6-1.4-1.8s-1.1-1.2-1.8-2.2
		c-0.8-1-1.6-2-1.9-2.3c-0.3-0.3-0.5-0.7-0.5-0.8s-1-1.4-2.3-2.7c-2.6-2.7-3.7-4-3.7-4.3c0-0.1-1.1-1.3-2.5-2.6
		c-2.8-2.6-3.4-3.3-8-8c-1.7-1.8-3.7-3.6-4.4-4.1c-0.7-0.5-2.2-1.8-3.5-3c-1.2-1.2-2.3-2.1-2.5-2.1c-0.1,0-0.6-0.3-1.1-0.7
		c-0.5-0.4-1.3-1.1-1.9-1.5c-0.6-0.4-1.7-1.4-2.4-2.1c-0.7-0.7-1.5-1.3-1.6-1.3c-0.2,0-0.9-0.5-1.7-1.2c-0.8-0.7-1.6-1.2-1.8-1.2
		c-0.2,0-0.7-0.4-1-0.8c-0.3-0.4-0.8-0.8-1.1-0.8c-0.3,0-1.1-0.5-1.8-1.2c-0.7-0.7-1.5-1.2-1.8-1.2c-0.3,0-0.5-0.2-0.5-0.4
		c0-0.2-0.5-0.6-1.2-0.8c-0.7-0.3-1.2-0.7-1.2-0.8c0-0.2-0.2-0.4-0.4-0.4c-0.2,0-1.6-0.8-3.1-1.8c-1.5-1-3-1.8-3.4-1.8
		c-0.4,0-0.7-0.2-0.7-0.4c0-0.2-0.3-0.4-0.6-0.4c-0.3,0-0.6-0.2-0.6-0.4s-0.3-0.4-0.6-0.4c-0.3,0-0.6-0.2-0.6-0.4
		c0-0.2-0.4-0.4-0.8-0.4s-0.8-0.2-0.8-0.4c0-0.2-0.4-0.4-0.8-0.4s-0.8-0.2-0.8-0.4c0-0.2-0.4-0.4-0.8-0.4S294,23,294,22.8
		c0-0.2-0.4-0.4-0.8-0.4s-0.8-0.2-0.8-0.4s-0.3-0.4-0.6-0.4c-0.3,0-0.6-0.1-0.7-0.3c-0.2-0.4-3.5-2.1-4.2-2.1
		c-0.3,0-0.6-0.2-0.6-0.4c0-0.2-0.4-0.4-0.8-0.4s-0.8-0.2-0.8-0.4s-0.4-0.4-0.8-0.4s-0.8-0.2-0.8-0.4c0-0.2-0.4-0.4-0.8-0.4
		s-0.8-0.2-0.8-0.4c0-0.2-0.3-0.4-0.8-0.4s-0.9-0.2-1-0.4c-0.1-0.2-0.7-0.4-1.2-0.4c-0.5,0-1-0.2-1-0.4s-0.4-0.4-0.8-0.4
		S276,14.2,276,14s-0.3-0.4-0.7-0.4c-0.4,0-1.5-0.4-2.4-0.8c-0.9-0.4-1.9-0.8-2.3-0.8s-0.7-0.2-0.8-0.4c-0.1-0.2-0.7-0.4-1.2-0.4
		c-0.5,0-1-0.2-1-0.4c0-0.2-0.9-0.5-2-0.6c-1.1-0.2-2.1-0.4-2.2-0.6c-0.1-0.2-0.7-0.4-1.2-0.4c-0.5,0-1-0.2-1-0.4s-0.6-0.4-1.4-0.4
		c-0.8,0-1.4-0.2-1.4-0.4c0-0.2-0.5-0.4-1.2-0.4s-1.3-0.2-1.4-0.4c-0.1-0.2-0.9-0.4-1.6-0.4c-0.8,0-1.4-0.2-1.4-0.4
		c0-0.2-0.6-0.4-1.4-0.4c-0.8,0-1.4-0.2-1.4-0.4c0-0.2-0.8-0.4-1.8-0.4c-1,0-1.8-0.2-1.8-0.4c0-0.2-0.7-0.4-1.6-0.4
		c-0.9,0-1.6-0.2-1.6-0.4c0-0.2-0.8-0.4-1.8-0.4c-1,0-1.8-0.2-1.8-0.4s-0.9-0.4-2-0.4c-1.1,0-2.1-0.2-2.2-0.4
		C235.3,2.2,234.2,2,233,2c-1.2,0-2.2-0.2-2.2-0.4c0-0.2-1.2-0.4-2.9-0.4c-1.8,0-3.1-0.2-3.4-0.5C223.9,0.1,184.8-0.1,179,0.4
		 M205.6,59.6c0,0.2,0.4,0.4,0.9,0.4c0.5,0,1.6,0.3,2.5,0.6c0.9,0.3,1.9,0.7,2.3,0.8c0.4,0.1,0.7,0.4,0.7,0.6c0,0.2,0.3,0.4,0.6,0.4
		s1.5,0.6,2.5,1.3c2.3,1.5,100,99,103.1,102.8c2.2,2.8,6.2,9.9,6.2,11.2c0,0.4,0.2,0.8,0.4,1c0.2,0.1,0.4,0.8,0.4,1.4
		s0.2,1.3,0.4,1.4c1.4,0.8,1.4,19.2,0,20.1c-0.2,0.1-0.4,0.7-0.4,1.4s-0.2,1.3-0.4,1.4s-0.4,0.6-0.4,1c0,0.7-0.5,1.7-3.3,6.9
		c-2.2,4.1-6.3,8.5-10.6,11.5c-2,1.4-8.9,4.8-9.7,4.8c-0.4,0-0.8,0.2-1,0.4c-0.1,0.2-0.8,0.4-1.4,0.4s-1.2,0.2-1.4,0.3
		c-0.8,1.4-18.8,1.4-19.7,0c-0.1-0.2-0.7-0.3-1.4-0.3s-1.3-0.2-1.4-0.4c-0.1-0.2-0.8-0.4-1.4-0.4s-1.2-0.1-1.2-0.3
		c0-0.4-1.9-1.3-2.6-1.3c-0.3,0-0.5-0.1-0.6-0.3c-0.1-0.2-0.9-0.7-1.9-1.2c-3.3-1.7-6.6-4.5-14.7-12.6l-8.1-8.1l0,52.9
		c0,34.8-0.1,53-0.4,53.1c-0.2,0.1-0.4,1-0.4,2c0,1-0.2,1.9-0.4,2c-0.2,0.1-0.4,0.9-0.4,1.6c0,0.7-0.2,1.5-0.4,1.6
		c-0.2,0.1-0.4,0.5-0.4,0.8c0,0.3-0.5,1.7-1.2,3.2c-0.7,1.4-1.2,2.7-1.2,2.8c0,2-9,12.5-12.7,14.9c-0.6,0.4-1.5,1-1.9,1.4
		c-0.4,0.4-1,0.7-1.3,0.7s-0.6,0.1-0.6,0.3c-0.2,0.4-6.8,3.7-7.4,3.7c-0.3,0-0.8,0.2-1.2,0.4s-1.5,0.6-2.5,0.8
		c-1,0.3-2.4,0.6-3.1,0.9c-1.8,0.6-15.4,0.5-16.4,0c-0.4-0.2-1.4-0.4-2-0.4c-0.7,0-1.3-0.2-1.4-0.4c-0.1-0.2-0.7-0.4-1.2-0.4
		c-0.5,0-1.1-0.2-1.2-0.4s-0.6-0.4-1-0.4c-0.4,0-1.4-0.4-2.2-0.8s-1.7-0.8-2-0.8c-0.3,0-0.6-0.2-0.6-0.4s-0.4-0.4-0.8-0.4
		c-0.4,0-0.8-0.1-0.8-0.3c0-0.2-0.5-0.5-1.1-0.8c-4.2-1.9-12.1-9.7-14.7-14.5c-0.4-0.8-0.9-1.5-1-1.6c-0.5-0.5-2-3.7-2-4.2
		c0-0.3-0.2-0.6-0.4-0.6s-0.4-0.4-0.4-0.9c0-0.5-0.1-1.1-0.3-1.2c-0.4-0.4-1.3-3.2-1.3-4.1c0-0.5-0.2-1-0.4-1.2
		c-0.8-0.8-0.9-7.2-1.1-57l-0.2-51.8l-8.5,8.4c-4.7,4.6-9.4,9-10.5,9.7c-2.6,1.8-9.4,5.2-10.3,5.2c-0.4,0-0.8,0.2-1,0.4
		c-0.1,0.2-0.8,0.4-1.4,0.4c-0.6,0-1.2,0.2-1.4,0.3c-0.8,1.4-18.8,1.4-19.7,0c-0.1-0.2-0.7-0.3-1.4-0.3s-1.3-0.2-1.4-0.4
		s-0.7-0.4-1.2-0.4s-1.8-0.5-2.9-1.1c-1.1-0.6-2.8-1.6-3.9-2.1s-2.1-1.1-2.2-1.2c-0.1-0.1-0.8-0.7-1.6-1.2c-2.2-1.5-6-5.2-7.3-7.2
		c-0.7-1-1.3-1.9-1.5-2c-0.6-0.5-4.4-8.6-4.4-9.5c0-0.5-0.2-0.9-0.4-0.9c-0.2,0-0.4-0.5-0.4-1.1s-0.2-1.3-0.4-1.5
		c-1.2-1.3-1.2-17.7,0-18.4c0.2-0.1,0.4-0.7,0.4-1.4s0.2-1.2,0.4-1.2c0.2,0,0.4-0.5,0.4-1s0.2-1.4,0.5-1.9c0.3-0.5,0.6-1.2,0.8-1.6
		c3.9-7.9,1.6-5.4,54.6-58.6c45.9-46.1,53.4-53.3,55.6-53.9c0.5-0.1,1-0.4,1-0.6c0-0.2,0.3-0.4,0.7-0.5c0.4-0.1,1.4-0.5,2.3-0.8
		c0.9-0.3,2-0.6,2.5-0.6c0.5,0,1-0.2,1.1-0.4c0.1-0.2,2.5-0.4,5.6-0.4C203.5,59.2,205.6,59.4,205.6,59.6"/>
		<path
			id="path2"
			class="st2"
			d="M198.5,59.5c0.8,0.1,2.2,0.1,3,0c0.8-0.1,0.1-0.2-1.5-0.2S197.7,59.4,198.5,59.5 M267.2,115.8
		c27.2,27.2,49.5,49.4,49.6,49.4c0.1,0-22-22.2-49.2-49.4S218.1,66.4,218,66.4C217.9,66.4,240,88.6,267.2,115.8 M83.8,164.9
		l-1.2,1.3l1.3-1.2c1.2-1.1,1.5-1.4,1.2-1.4C85,163.6,84.4,164.2,83.8,164.9 M74.1,185.4c0,0.9,0.1,1.2,0.2,0.7
		c0.1-0.5,0.1-1.2,0-1.6C74.2,184.1,74.1,184.5,74.1,185.4 M326.5,191.4c0,1.8,0.1,2.4,0.2,1.5c0.1-0.9,0.1-2.4,0-3.2
		C326.6,188.9,326.5,189.6,326.5,191.4 M74.1,197.4c0,0.9,0.1,1.2,0.2,0.7c0.1-0.5,0.1-1.2,0-1.6C74.2,196.1,74.1,196.5,74.1,197.4
		 M243.8,204.5c-0.1,0.3-0.1,23.2-0.1,50.9l0.1,50.4l0.1-50.8l0.1-50.8l1.1,1l1.1,1l-1-1.1C244.1,203.8,244,203.8,243.8,204.5
		 M147.8,212.5l-8,8.1l8-7.9c4.4-4.3,8.1-7.9,8.3-7.9s0.3,23,0.4,51.1l0.1,51.1l0.1-51.3c0.1-41,0-51.3-0.4-51.3
		C156,204.4,152.2,208,147.8,212.5 M252.2,212.4c3.3,3.3,6.1,6,6.2,6c0.1,0-2.5-2.7-5.8-6c-3.3-3.3-6.1-6-6.2-6
		S248.9,209.1,252.2,212.4 M315.2,219.1l-1.4,1.5l1.5-1.4c1.4-1.3,1.7-1.6,1.4-1.6C316.6,217.6,315.9,218.3,315.2,219.1 M84.8,218.9
		c0,0.1,0.6,0.7,1.3,1.3l1.3,1.2l-1.2-1.3C85.1,218.9,84.8,218.6,84.8,218.9 M258.8,218.9c0,0.1,0.6,0.7,1.3,1.3l1.3,1.2l-1.2-1.3
		C259.1,218.9,258.8,218.6,258.8,218.9 M166.4,332.1c0,0.1,0.6,0.7,1.3,1.3l1.3,1.2l-1.2-1.3C166.7,332.1,166.4,331.8,166.4,332.1
		 M232.2,333.7L231,335l1.3-1.2c0.7-0.6,1.3-1.2,1.3-1.3C233.6,332.2,233.3,332.5,232.2,333.7 M229.4,336.5l-1.2,1.3l1.3-1.2
		c0.7-0.6,1.3-1.2,1.3-1.3C230.8,335,230.5,335.3,229.4,336.5 M171.2,337c0.7,0.8,1.4,1.4,1.6,1.4s-0.4-0.6-1.2-1.4
		c-0.7-0.8-1.4-1.4-1.6-1.4S170.5,336.2,171.2,337 M197.5,347.9c1.4,0.1,3.6,0.1,5,0s0.2-0.1-2.5-0.1S196.1,347.8,197.5,347.9"/>
		<path
			id="path3"
			class="st3"
			d="M195.2,60l-1.4,0.3l1.6,0c0.9,0,2.1-0.1,2.6-0.3C199.4,59.6,197.3,59.6,195.2,60 M202,60
		c0.6,0.2,1.7,0.3,2.6,0.3l1.6,0l-1.6-0.3c-0.9-0.2-2.1-0.3-2.6-0.3l-1,0L202,60 M192,60.8c-0.8,0.3-0.9,0.3-0.2,0.4
		c0.4,0,1.1-0.1,1.4-0.4C193.9,60.3,193.4,60.3,192,60.8 M206.8,60.8c0.3,0.2,0.9,0.4,1.4,0.4c1,0,0.7-0.2-0.8-0.5
		C206.5,60.4,206.4,60.5,206.8,60.8 M188,62.5c-1.2,0.7-3.3,2.1-4.6,3.2c-2.5,2-48.6,48-48.1,48c0.2,0,11-10.7,24-23.7
		c22.7-22.7,26.1-25.8,30-27.6c0.8-0.4,1.5-0.8,1.5-0.9C190.8,61,190.1,61.3,188,62.5 M209.2,61.4c0,0.1,1,0.7,2.3,1.3
		c1.3,0.6,3.6,2.1,5.1,3.4c4.1,3.4,100.7,100.2,102.2,102.6c0.7,1.1,2.2,3.7,3.3,5.8c1.1,2.1,1.8,3.4,1.7,2.8
		c-0.4-1.3-3.6-7.4-4.9-9.2c-1.6-2.2-99.5-100.2-102.5-102.6C213.5,63.1,209.2,60.7,209.2,61.4 M132.8,115.8c-1,1-1.7,1.9-1.6,2
		c0.1,0.1,1-0.7,2.1-1.8c1.1-1.1,1.8-2,1.6-2C134.7,114,133.8,114.8,132.8,115.8 M124.2,124.4c-2.2,2.2-3.8,4-3.7,4
		c0.4,0,8-7.6,7.8-7.8C128.2,120.5,126.4,122.2,124.2,124.4 M115.2,133.4c-1.6,1.6-2.9,3-2.8,3.1c0.1,0.1,1.6-1.3,3.3-3
		c1.7-1.7,3-3.1,2.8-3.1C118.4,130.4,116.9,131.8,115.2,133.4 M107.8,140.8c-0.9,0.9-1.4,1.6-1.3,1.6c0.4,0,3.2-2.8,3-3
		C109.4,139.3,108.6,139.9,107.8,140.8 M101.2,147.4c-0.7,0.8-1.2,1.4-1.1,1.4c0.2,0,0.9-0.6,1.7-1.4c0.8-0.8,1.2-1.4,1.1-1.4
		C102.8,146,102,146.6,101.2,147.4 M97.3,151.4c-0.7,0.7-1.3,1.5-1.3,1.6c0,0.2,0.7-0.4,1.5-1.2c0.8-0.8,1.4-1.5,1.3-1.6
		C98.7,150.1,98,150.6,97.3,151.4 M90.6,158c-0.9,0.9-1.4,1.6-1.3,1.6c0.4,0,3.2-2.8,3-3C92.2,156.5,91.4,157.1,90.6,158
		 M83.8,165.1c-1.9,2.2-3.8,4.9-4.7,6.9c-0.7,1.5-0.5,1.2,1.8-2.3c0.8-1.2,2.3-3.2,3.3-4.4c1-1.2,1.7-2.1,1.6-2.1
		C85.6,163.3,84.7,164.1,83.8,165.1 M77.6,174.7c-0.8,1.7-0.8,1.7-0.6,1.7c0.3,0,1.5-2.5,1.3-2.7C78.2,173.7,77.9,174.1,77.6,174.7
		 M76.4,177.1c0,0.3-0.2,0.8-0.3,1.2c-0.2,0.6-0.1,0.6,0.2,0.3c0.3-0.3,0.4-0.8,0.3-1.2C76.6,176.9,76.5,176.8,76.4,177.1
		 M324,179.1c0,0.5,0.2,1,0.4,1.1c0.5,0.3,0.5-0.1,0-1.2C324.1,178.2,324.1,178.2,324,179.1 M75.6,179.5c0,0.3-0.2,0.8-0.3,1.2
		c-0.2,0.6-0.1,0.6,0.2,0.3c0.3-0.3,0.4-0.8,0.3-1.2C75.8,179.3,75.7,179.2,75.6,179.5 M324.8,181.9c0,0.5,0.2,1,0.4,1.1
		c0.5,0.3,0.5-0.1,0-1.2C324.9,181,324.9,181,324.8,181.9 M74.6,183c-0.1,0.6-0.2,1.2-0.1,1.3s0.3-0.3,0.5-0.9
		c0.1-0.6,0.2-1.2,0.1-1.3S74.8,182.4,74.6,183 M325.6,186c0,1.2,0.2,2.6,0.4,3.2c0.2,0.6,0.2-0.2,0.1-2
		C325.9,183.6,325.6,183,325.6,186 M73.9,189.5c-0.1,1.5-0.1,3.6,0.1,4.7c0.3,1.6,0.3,1.2,0.4-2.7C74.4,186.2,74.2,185.4,73.9,189.5
		 M325.9,194c-0.1,0.7-0.2,2.2-0.2,3.2c0,1.6,0.1,1.5,0.4-0.9C326.4,193.2,326.3,191.7,325.9,194 M74.5,198.6c0,0.4,0.2,1.2,0.3,1.6
		l0.3,0.8v-0.8c0-0.4-0.2-1.2-0.3-1.6l-0.3-0.8V198.6 M325.1,199.9c-0.1,0.1-0.3,0.6-0.2,1.1c0,0.8,0.1,0.8,0.4-0.1
		C325.6,199.9,325.5,199.4,325.1,199.9 M75.2,201.9c0.1,1,0.7,1.9,0.7,1c0-0.5-0.2-1-0.4-1.1S75.2,201.7,75.2,201.9 M324.3,202.7
		c-0.1,0.1-0.3,0.6-0.2,1.1c0,0.8,0.1,0.8,0.4-0.1C324.8,202.7,324.7,202.2,324.3,202.7 M147.3,212.5c-9.2,9.1-11,10.6-14.8,12.3
		c-1.2,0.5-2.1,1.1-2.1,1.3c0,0.4,3.7-1.5,6-3c1-0.7,5.8-5.1,10.6-9.9c4.9-4.8,9-8.7,9.3-8.7c0.4,0,0.5,12.5,0.6,52.5l0.1,52.5
		l0.1-52.7c0.1-36.5,0-52.8-0.3-52.9C156.5,203.6,152.3,207.6,147.3,212.5 M243.8,204c-0.2,0.3-0.1,0.4,0.1,0.2
		c0.2-0.1,0.9,0.2,1.4,0.8c1.4,1.6,7.1,7.1,7.1,6.9C252.4,211.3,244.1,203.6,243.8,204 M76,204.3c0.1,1,0.7,1.9,0.7,1
		c0-0.5-0.2-1-0.4-1.1S76,204.1,76,204.3 M322.3,207.9c-0.8,1.7-1.4,3.1-1.4,3.2c0.1,0.1,0.8-1.2,1.6-2.9c0.8-1.7,1.4-3.1,1.4-3.2
		C323.9,205,323.1,206.3,322.3,207.9 M78.6,210.1c2.3,4.6,6.9,9.9,10.6,12.4c2.7,1.8,3.6,2.4,3.6,2.2c0-0.1-0.9-0.8-2.1-1.6
		c-4.7-3.1-9.2-8.1-11.5-12.8c-0.6-1.3-1.3-2.3-1.4-2.3C77.7,208,78.1,208.9,78.6,210.1 M319,213.8c-2.5,3.7-9.4,10.2-11,10.2
		c-0.3,0-0.5,0.2-0.5,0.4c0,0.9,5.3-3,8.2-6.1c2.1-2.3,5.4-6.7,4.8-6.7C320.6,211.6,319.8,212.6,319,213.8 M257.6,217.4
		c0.5,0.7,1,1.2,1.1,1.1c0.1-0.1-0.3-0.6-1-1.2l-1.1-1.1L257.6,217.4 M260,219.8c1.3,1.4,6.8,5.4,6.8,4.9c0-0.1-0.7-0.6-1.5-1.1
		c-0.8-0.5-2.6-1.8-3.9-2.9C260.1,219.6,259.5,219.2,260,219.8 M300.8,227.6c-0.5,0.3-0.5,0.4,0,0.4c0.3,0,0.9-0.2,1.2-0.4
		c0.5-0.3,0.5-0.4,0-0.4C301.7,227.2,301.1,227.4,300.8,227.6 M101,228.4c1.1,0.5,1.5,0.5,1.2,0c-0.1-0.2-0.6-0.4-1.1-0.4
		C100.2,228.1,100.2,228.1,101,228.4 M275,228.4c1.1,0.5,1.5,0.5,1.2,0c-0.1-0.2-0.6-0.4-1.1-0.4C274.2,228.1,274.2,228.1,275,228.4
		 M298.2,228.4c-0.3,0.5,0.1,0.5,1.2,0c0.8-0.3,0.8-0.3-0.1-0.4C298.8,228,298.3,228.2,298.2,228.4 M103.8,229.2
		c0.4,0.2,1.1,0.3,1.4,0.3c0.4,0,0.3-0.1-0.2-0.3c-0.4-0.2-1.1-0.3-1.4-0.3C103.2,228.9,103.3,229,103.8,229.2 M121.2,229.2
		c-0.8,0.5,0.2,0.5,1.4,0l0.8-0.3l-0.8,0C122.2,228.8,121.5,229,121.2,229.2 M277.8,229.2c1.1,0.5,1.5,0.5,1.2,0
		c-0.1-0.2-0.6-0.4-1.1-0.4C277,228.9,277,228.9,277.8,229.2 M295.2,229.2c-0.8,0.5,0.2,0.5,1.4,0l0.8-0.3l-0.8,0
		C296.2,228.8,295.5,229,295.2,229.2 M108.8,230c1,0.2,2.3,0.3,3,0.3l1.2,0l-1.2-0.3c-0.7-0.2-2-0.3-3-0.3l-1.8,0L108.8,230
		 M114.2,230l-1.2,0.3l1.2,0c0.7,0,2.1-0.1,3.2-0.3l2-0.3l-2,0C116.3,229.7,114.9,229.8,114.2,230 M282.8,230.1
		c2.3,0.4,6.5,0.4,8.8,0c1.1-0.2-0.5-0.3-4.4-0.3C283.4,229.8,281.7,229.9,282.8,230.1 M243,307.1c-0.2,2-0.2,3.8-0.1,3.9
		c0.3,0.3,0.8-4.6,0.6-6.3C243.4,304,243.2,304.9,243,307.1 M157.2,311.4c0.1,1.6,0.7,3,0.7,1.6c0-0.7-0.1-1.5-0.4-1.8
		C157.3,310.7,157.2,310.7,157.2,311.4 M242.2,313c-0.1,0.4-0.2,1-0.2,1.5c0,0.6,0.1,0.5,0.4-0.5C242.9,312.7,242.7,311.9,242.2,313
		 M158.2,315.9c0.4,1.5,0.6,1.7,0.6,0.4c0-0.6-0.2-1.2-0.4-1.3C158.1,314.8,158.1,315.1,158.2,315.9 M241.5,316.2
		c-0.2,0.4-0.3,1-0.2,1.4c0,0.4,0.2,0.3,0.4-0.3c0.2-0.5,0.3-1.2,0.2-1.4C241.8,315.6,241.6,315.8,241.5,316.2 M240.6,319
		c-0.1,0.4-0.4,1.2-0.7,1.7c-0.2,0.5-0.3,1-0.2,1.1c0.1,0.1,0.5-0.5,0.9-1.4c0.4-0.9,0.6-1.8,0.5-1.9
		C240.9,318.4,240.7,318.6,240.6,319 M160.4,321.8c0,3.4,10.9,16.1,16.4,19.2c1,0.5,0-0.3-2.6-2.3c-4.9-3.7-10.2-10-12.4-14.9
		C160.9,321.9,160.4,321.1,160.4,321.8 M238.6,323.7c-0.3,0.7-0.6,1.4-0.6,1.5c0,0.3,1-1.3,1.3-2C239.7,322,239.3,322.3,238.6,323.7
		 M235.9,328.3c-2.8,4.1-7.1,8.5-11.2,11.3c-4.1,2.8-5.4,3.8-2.9,2.4c6-3.5,12.2-9.6,15.5-15.2C238.6,324.6,237.8,325.5,235.9,328.3
		 M212.8,345.6c-0.5,0.3-0.5,0.4,0,0.4c0.3,0,0.9-0.2,1.2-0.4c0.5-0.3,0.5-0.4,0-0.4C213.7,345.2,213.1,345.4,212.8,345.6
		 M209.6,346.4c-0.8,0.5,0.2,0.5,1.4,0l0.8-0.3l-0.8,0C210.6,346,209.9,346.2,209.6,346.4 M193,347.2c0.7,0.2,1.6,0.3,2,0.3l0.8,0
		l-0.8-0.3c-0.4-0.2-1.3-0.3-2-0.3l-1.2,0L193,347.2 M205.2,347.2l-1,0.3h1c0.6,0,1.4-0.1,2-0.3l1-0.3h-1
		C206.6,346.9,205.8,347,205.2,347.2"/>
		<path
			id="path4"
			class="st4"
			d="M194.7,59.5c-0.1,0.2,0.4,0.2,1.2,0.2c0.8-0.1,1.4-0.2,1.4-0.3C197.2,59.1,194.8,59.2,194.7,59.5
		 M202.8,59.4c0,0.1,0.6,0.2,1.4,0.3s1.4,0,1.4-0.2s-0.6-0.3-1.4-0.3S202.8,59.3,202.8,59.4 M185.7,63.2c-0.7,0.4-1.4,1-1.5,1.2
		c-0.2,0.4,2.4-1.2,2.9-1.8C187.5,62.2,186.9,62.4,185.7,63.2 M216,64.6c1,0.8,24.5,24.2,52.3,51.9c27.8,27.7,50,49.8,49.3,49
		C315.4,162.9,217,64.9,215.6,64C214.5,63.3,214.6,63.5,216,64.6 M163.3,84.5c-10.8,10.8-19.6,19.8-19.6,19.8
		c0.1,0.1,9.1-8.8,20-19.7s19.7-19.8,19.6-19.8C183.2,64.8,174.2,73.7,163.3,84.5 M140.2,107.6c-0.6,0.7-1.1,1.3-1,1.3
		c0.1,0.1,0.8-0.5,1.5-1.2c0.7-0.7,1.2-1.3,1-1.3S140.8,106.9,140.2,107.6 M132.4,115.4c-2.9,3-5.2,5.4-5,5.4
		c0.5,0,10.8-10.3,10.5-10.6C137.8,110.1,135.3,112.4,132.4,115.4 M123.8,124c-1.5,1.5-2.7,2.9-2.6,3c0.1,0.1,1.5-1.2,3.1-2.8
		c1.6-1.6,2.8-3,2.6-3C126.8,121.2,125.4,122.5,123.8,124 M116.4,131.4c-2.3,2.3-4,4.2-3.8,4.2c0.5,0,8.4-7.9,8.2-8.1
		C120.7,127.4,118.7,129.2,116.4,131.4 M110.1,137.8c-0.9,1-1.6,1.8-1.4,1.8c0.2,0,1.1-0.8,2.1-1.8c1-1,1.6-1.8,1.4-1.8
		C112,136,111,136.9,110.1,137.8 M106.4,141.8c-1,1-1.7,1.8-1.6,1.8s1-0.8,2-1.8c1-1,1.7-1.8,1.6-1.8
		C108.3,140,107.4,140.8,106.4,141.8 M103.3,144.7c-0.5,0.5-0.9,1.1-0.8,1.1c0.1,0.1,0.6-0.3,1.1-0.8s0.9-1.1,0.8-1.1
		C104.3,143.8,103.8,144.1,103.3,144.7 M98.9,149.1c-1.6,1.6-2.8,2.9-2.6,2.9c0.4,0,5.9-5.5,5.7-5.7
		C101.9,146.2,100.5,147.4,98.9,149.1 M94.7,153.4c-0.6,0.5-1,1-0.8,1s0.8-0.4,1.3-1C96.4,152.1,96.1,152.1,94.7,153.4 M91.6,156.6
		c-1,1-1.7,1.8-1.6,1.8s1-0.8,2-1.8c1-1,1.7-1.8,1.6-1.8S92.6,155.6,91.6,156.6 M85.6,162.6c-2.1,2.1-3.6,3.8-3.4,3.7
		c0.4-0.1,7.7-7.5,7.4-7.5C89.5,158.8,87.7,160.5,85.6,162.6 M319.8,169.1c0.6,0.9,1.2,1.7,1.3,1.7c0.3,0-1-2.3-1.7-2.8
		C319,167.6,319.2,168.1,319.8,169.1 M80.3,168.7c-0.7,0.8-1.6,2.5-1.4,2.7c0.1,0.1,0.6-0.7,1.2-1.6
		C81.2,167.9,81.3,167.6,80.3,168.7 M74.3,182.3c-0.1,0.1-0.3,0.6-0.2,1.1c0,0.8,0.1,0.8,0.4-0.1C74.8,182.3,74.7,181.8,74.3,182.3
		 M326.2,186c0.1,1.2,0.3,2.3,0.4,2.4c0.4,0.4,0.1-3.4-0.3-4C326.1,184,326.1,184.5,326.2,186 M73.5,187.3c-0.3,1.3-0.3,7.6,0.1,8.2
		c0.2,0.3,0.3-1.7,0.3-4.3C73.8,186,73.8,186,73.5,187.3 M326.5,195.2c0,0.6-0.2,1.7-0.3,2.4c-0.2,1.1-0.1,1.2,0.2,0.6
		c0.2-0.4,0.4-1.5,0.3-2.4C326.6,195,326.5,194.7,326.5,195.2 M74,199.5c0,0.5,0.2,1,0.4,1.1c0.5,0.3,0.5-0.1,0-1.2
		C74.1,198.6,74.1,198.6,74,199.5 M251.2,211.9c4.1,4.1,7.9,7.9,8.6,8.5c0.7,0.5-2.6-2.8-7.2-7.5c-4.6-4.7-8.5-8.5-8.6-8.5
		C243.9,204.4,247.1,207.8,251.2,211.9 M147.8,212.7c-4.4,4.4-8.5,8.3-9.2,8.8c-0.6,0.5-1.1,1-0.9,1.1c0.1,0.1,4.3-3.8,9.3-8.7
		l9-8.9l0,51.2c0,28.6,0.2,51.6,0.4,52.2c0.3,0.7,0.3,0.5,0.2-1c-0.1-1.1-0.2-24.6-0.2-52.3s-0.1-50.3-0.3-50.3
		C155.9,204.8,152.2,208.4,147.8,212.7 M319.8,213.7c-0.6,0.9-0.9,1.5-0.6,1.2c0.6-0.5,2.1-2.9,1.8-2.9
		C321,212,320.4,212.8,319.8,213.7 M315,219.3c-3.1,3.1-3.2,3.4-1.1,1.5c2-1.7,5.4-5.4,4.8-5.2C318.7,215.6,317,217.3,315,219.3
		 M84.2,218.8c1.3,1.3,2.5,2.4,2.6,2.4c0.3,0-4.2-4.7-4.5-4.8C82,216.4,82.9,217.5,84.2,218.8 M121.8,229.6
		c-0.8,0.3-0.8,0.3,0.1,0.4c0.5,0,1-0.2,1.1-0.4C123.3,229.1,122.9,229.1,121.8,229.6 M295.8,229.6c-0.8,0.3-0.8,0.3,0.1,0.4
		c0.5,0,1-0.2,1.1-0.4C297.3,229.1,296.9,229.1,295.8,229.6 M107,230.4c0.8,0.3,5.7,0.5,5.4,0.2c-0.1-0.1-1.5-0.2-3.2-0.4
		C107.4,230.2,106.5,230.2,107,230.4 M116,230.4l-2.2,0.3l2.4,0c1.3,0,2.8-0.1,3.2-0.3C120.4,230,119.5,230,116,230.4 M281,230.4
		c0.8,0.3,5.7,0.5,5.4,0.2c-0.1-0.1-1.5-0.2-3.2-0.4C281.4,230.2,280.5,230.2,281,230.4 M290,230.4l-2.2,0.3l2.4,0
		c1.3,0,2.8-0.1,3.2-0.3C294.4,230,293.5,230,290,230.4 M243.7,307.5c0,1.1-0.2,2.4-0.3,2.8c-0.2,0.6-0.1,0.6,0.2,0.3
		c0.3-0.3,0.4-1.3,0.3-2.8l-0.1-2.4L243.7,307.5 M156.8,312.3c0,0.7,0.2,1.4,0.4,1.5c0.2,0.2,0.3-0.3,0.1-1.1
		C157,311,156.8,310.8,156.8,312.3 M235.8,329.4c-0.8,1.2-2.8,3.6-4.3,5.3c-2,2.2-2.3,2.5-0.8,1.1c2.2-2.1,5.6-6.2,6.4-7.7
		C238,326.5,237.4,327.1,235.8,329.4 M165.9,331.9c0.7,0.8,1.6,1.9,2.1,2.3c0.5,0.4,0-0.2-1-1.5
		C164.8,330.1,164.1,329.6,165.9,331.9 M169,335.5c0.2,0.2,1.1,0.9,2,1.7l1.6,1.4l-1.6-1.7c-0.9-0.9-1.8-1.7-2-1.7
		C168.8,335.2,168.8,335.3,169,335.5 M226.8,338.9c-0.8,0.7-1,1-0.6,0.8c1.2-0.7,2.4-1.6,2.2-1.8
		C228.3,337.8,227.6,338.2,226.8,338.9 M172.9,338.7c0.3,0.5,2.7,2.2,2.7,2c0-0.1-0.7-0.7-1.5-1.3
		C173.3,338.8,172.8,338.5,172.9,338.7 M188.6,346.8c0.1,0.2,0.7,0.4,1.3,0.4c1.3,0,1.1-0.2-0.4-0.6
		C188.7,346.5,188.4,346.5,188.6,346.8 M210.4,346.8c-0.8,0.3-0.9,0.3-0.2,0.4c0.4,0,1.1-0.1,1.4-0.4
		C212.3,346.3,211.8,346.3,210.4,346.8 M192,347.6c0.3,0.2,1.2,0.4,2,0.4c1.8,0,1.5-0.2-0.8-0.5C191.9,347.3,191.6,347.3,192,347.6
		 M206.2,347.6l-1.6,0.3l1.6,0.1c0.9,0,1.9-0.1,2.2-0.3C209.1,347.1,208.8,347.1,206.2,347.6 M199.3,348.3c0.4,0.1,1,0.1,1.4,0
		c0.4-0.1,0.1-0.2-0.7-0.2S198.9,348.2,199.3,348.3"/>
	</g>
</svg>
