<?xml version="1.0" encoding="utf-8"?>
<!-- Generator: Adobe Illustrator 24.2.3, SVG Export Plug-In . SVG Version: 6.00 Build 0) -->
<svg version="1.1" id="svg" xmlns="http://www.w3.org/2000/svg" xmlns:xlink="http://www.w3.org/1999/xlink" x="0px" y="0px" viewBox="0 0 400 400" style="enable-background:new 0 0 400 400;" xml:space="preserve">
	<style type="text/css">
		.st0 {
			fill-rule: evenodd;
			clip-rule: evenodd;
			fill: #FBFBFB;
		}
		.st1 {
			fill-rule: evenodd;
			clip-rule: evenodd;
			fill: #861c82;
		}
		.st2 {
			fill-rule: evenodd;
			clip-rule: evenodd;
			fill: #861c82;
		}
		.st3 {
			fill-rule: evenodd;
			clip-rule: evenodd;
			fill: #861c82;
		}
		.st4 {
			fill-rule: evenodd;
			clip-rule: evenodd;
			fill: #861c82;
		}
	</style>
	<g id="svgg">
		<path
			id="path0"
			class="st0"
			d="M186.8,74.8c-0.6,0.2-1.8,0.4-2.7,0.4c-0.9,0-1.8,0.2-1.9,0.4s-0.8,0.4-1.4,0.4s-1.3,0.2-1.4,0.4
		c-0.1,0.2-0.7,0.4-1.2,0.4c-0.8,0-4,1.4-4.6,2c-0.1,0.1-1.2,0.7-2.4,1.3c-1.2,0.6-3.1,1.8-4.2,2.6c-2.8,2.1-100.6,99.8-102.2,102.1
		c-2,2.8-3.7,6.2-3.7,7.3c0,0.5-0.2,1-0.4,1.2c-1.1,0.7-1.1,12.6,0,13.3c0.2,0.1,0.4,0.6,0.4,1.1c0,0.8,2.2,5.6,2.8,6.2
		c0.1,0.1,0.7,0.9,1.4,1.8c1.8,2.5,103.5,103.9,104.8,104.6c0.6,0.3,2.2,1.2,3.4,2c1.2,0.8,2.8,1.7,3.6,2c2,0.7,2.9,1.1,4,1.5
		c4,1.7,13.2,2.4,18.2,1.4c1.3-0.3,3-0.6,3.8-0.7c1.2-0.2,3.5-1.1,5.7-2.2c0.4-0.2,1-0.4,1.3-0.4c0.3,0,0.6-0.2,0.6-0.4
		s0.3-0.4,0.6-0.4c1.9,0,13.4-9.8,13.4-11.4c0-0.1,0.5-1,1.1-1.9c5-7.3,7.5-19.7,5.6-27.8c-1.3-5.9-1.3-5.8-3.5-10.5
		c-2.1-4.4-4.4-7.2-14.2-17.1c-8.8-8.9-10.7-11-10.2-11.4c0.1-0.1,24.4-0.2,54.1-0.3c29.7-0.1,54.5-0.4,55.2-0.5
		c2.8-0.7,4.5-1.2,5.4-1.6c0.6-0.2,1.4-0.5,1.8-0.7c9.3-3.4,18.5-11.9,23-21.4c0.7-1.5,1.5-3.1,1.7-3.5c0.2-0.4,0.4-1,0.4-1.5
		c0-0.4,0.2-0.9,0.4-1c0.2-0.1,0.5-0.8,0.6-1.5c0.1-0.7,0.4-2.5,0.7-3.9c1-5.4,0.4-15.9-1.2-19.8c-0.2-0.4-0.5-1.4-0.8-2.2
		c-2.5-7.2-8.6-15.4-14.8-19.7c-1-0.7-1.9-1.4-2-1.5c-0.5-0.6-5.6-3.2-7.8-4c-0.4-0.2-1.2-0.5-1.8-0.7c-0.5-0.2-1.5-0.5-2.2-0.7
		c-0.7-0.1-1.9-0.5-2.8-0.7c-1.2-0.3-16.3-0.5-55.5-0.6c-48.1-0.1-53.9-0.2-54.1-0.7c-0.2-0.4,2.1-3,7.5-8.3
		c11-11,11.6-11.7,14-16.1c2.1-4,2.7-5.3,2.7-5.9c0-0.3,0.2-0.9,0.4-1.3c2.5-4.9,2.6-17.2,0-23.9c-0.2-0.4-0.5-1.5-0.8-2.4
		c-0.3-0.9-0.6-1.7-0.8-1.8c-0.1-0.1-0.8-1.2-1.4-2.5c-3.5-7.3-15.7-17.5-20.9-17.5c-0.5,0-1-0.2-1.2-0.4c-0.1-0.2-0.7-0.4-1.3-0.4
		s-1.3-0.2-1.5-0.4C199.8,74.9,188.5,74.2,186.8,74.8"/>
		<path
			id="path1"
			class="st1"
			d="M179,0.3c-2,0.1-3.8,0.3-4,0.5s-1.6,0.4-3.1,0.4s-2.8,0.2-2.9,0.4S167.8,2,166.6,2
		c-1.2,0-2.2,0.2-2.2,0.4c0,0.2-0.9,0.4-2,0.4c-1.1,0-2.1,0.2-2.2,0.4s-1,0.4-1.8,0.4c-0.9,0-1.6,0.2-1.6,0.4c0,0.2-0.8,0.4-1.8,0.4
		s-1.9,0.2-2,0.4c-0.1,0.2-0.9,0.4-1.6,0.4c-0.7,0-1.5,0.2-1.6,0.4C149.7,5.8,149,6,148.4,6c-0.6,0-1.3,0.2-1.4,0.4
		c-0.1,0.2-0.8,0.4-1.4,0.4c-0.6,0-1.3,0.2-1.4,0.4c-0.1,0.2-0.8,0.4-1.4,0.4s-1.3,0.2-1.4,0.4c-0.1,0.2-0.8,0.4-1.4,0.4
		s-1.2,0.2-1.2,0.4s-0.5,0.4-1.2,0.4c-0.7,0-1.2,0.2-1.2,0.3c0,0.2-0.8,0.5-1.8,0.6s-2.1,0.4-2.5,0.6c-1.1,0.6-2.6,1.1-4.2,1.7
		c-0.8,0.3-1.5,0.7-1.5,0.8c0,0.2-0.5,0.3-1.2,0.3c-0.7,0-1.2,0.1-1.2,0.3c0,0.2-0.9,0.6-2,0.9s-2,0.7-2,0.9c0,0.2-0.4,0.3-0.8,0.3
		c-0.4,0-0.8,0.2-0.8,0.4c0,0.2-0.4,0.4-0.8,0.4c-0.4,0-0.8,0.2-0.8,0.4c0,0.2-0.4,0.4-0.8,0.4s-0.8,0.2-0.8,0.4s-0.3,0.4-0.7,0.4
		c-0.9,0-2.9,0.9-2.9,1.3c0,0.2-0.4,0.3-0.8,0.3c-0.4,0-0.8,0.2-0.8,0.4c0,0.2-0.3,0.4-0.8,0.4c-0.4,0-0.8,0.1-0.9,0.3
		c-0.1,0.3-2.2,1.5-4.6,2.7c-0.5,0.2-0.9,0.6-0.9,0.7s-0.4,0.3-0.8,0.3s-0.8,0.2-0.8,0.4c0,0.2-0.3,0.4-0.7,0.4
		c-0.4,0-0.9,0.3-1.3,0.7c-0.4,0.4-1.2,0.9-1.9,1c-0.7,0.2-1.6,0.6-2,1.1c-0.4,0.4-0.9,0.8-1.2,0.8s-0.5,0.2-0.5,0.4
		c0,0.2-0.2,0.4-0.5,0.4c-0.3,0-0.9,0.4-1.4,0.8c-0.5,0.4-1.1,0.8-1.3,0.8c-0.3,0-0.8,0.3-1.1,0.7c-0.4,0.4-1.1,1-1.7,1.3
		c-0.6,0.3-1.1,0.7-1.1,0.9c0,0.2-0.2,0.3-0.5,0.3c-0.3,0-1.1,0.5-1.9,1.2s-1.6,1.2-1.8,1.2c-0.2,0-0.7,0.4-1,0.8
		c-0.3,0.4-0.8,0.8-1,0.8c-0.2,0-1.2,0.7-2.2,1.6c-1,0.9-2.1,1.9-2.6,2.4c-0.5,0.4-1.4,1-2,1.4c-0.6,0.3-2.1,1.5-3.2,2.5
		c-1.1,1.1-2.6,2.4-3.4,2.9c-0.8,0.5-2.5,2.2-4,3.7c-2.6,2.7-3.9,4-10.2,10.3c-1.9,1.8-3.4,3.5-3.4,3.7c0,0.2-1,1.4-2.2,2.7
		c-1.2,1.3-2.5,2.9-2.8,3.5c-0.3,0.6-1,1.5-1.4,2c-0.4,0.5-1.5,1.6-2.4,2.6c-0.9,1-1.6,2-1.6,2.2c0,0.2-0.4,0.7-0.8,1
		c-0.4,0.3-0.8,0.8-0.8,1c0,0.2-0.5,1-1.2,1.8s-1.2,1.6-1.2,1.9c0,0.3-0.2,0.5-0.3,0.5c-0.2,0-0.6,0.5-0.9,1.1
		c-0.3,0.6-0.9,1.4-1.3,1.7c-0.4,0.4-0.7,0.9-0.7,1.1c0,0.3-0.4,0.9-0.8,1.3c-0.4,0.5-0.8,1.1-0.8,1.4c0,0.3-0.2,0.5-0.4,0.5
		c-0.2,0-0.4,0.2-0.4,0.5s-0.4,0.9-0.8,1.2c-0.4,0.4-0.9,1.3-1.1,2c-0.2,0.7-0.6,1.5-1,1.9c-0.4,0.4-0.7,0.9-0.7,1.3
		c0,0.4-0.2,0.7-0.4,0.7c-0.2,0-0.4,0.4-0.4,0.8s-0.1,0.8-0.3,0.8s-0.5,0.4-0.7,0.9c-1.2,2.4-2.4,4.5-2.7,4.6
		c-0.2,0.1-0.3,0.5-0.3,0.9c0,0.4-0.2,0.8-0.4,0.8c-0.2,0-0.4,0.4-0.4,0.8c0,0.4-0.1,0.8-0.3,0.8c-0.4,0-1.3,2-1.3,2.9
		c0,0.4-0.2,0.7-0.4,0.7s-0.4,0.4-0.4,0.8s-0.2,0.8-0.4,0.8c-0.2,0-0.4,0.4-0.4,0.8c0,0.4-0.2,0.8-0.4,0.8c-0.2,0-0.4,0.4-0.4,0.8
		c0,0.4-0.1,0.8-0.3,0.8c-0.2,0-0.6,0.9-0.9,2s-0.7,2-0.9,2c-0.2,0-0.3,0.5-0.3,1.2c0,0.7-0.1,1.2-0.3,1.2c-0.2,0-0.5,0.7-0.8,1.5
		c-0.6,1.7-1.2,3.1-1.7,4.2c-0.2,0.4-0.5,1.5-0.6,2.5s-0.4,1.8-0.6,1.8c-0.2,0-0.3,0.5-0.3,1.2c0,0.7-0.2,1.2-0.4,1.2
		s-0.4,0.5-0.4,1.2s-0.2,1.3-0.4,1.4c-0.2,0.1-0.4,0.8-0.4,1.4s-0.2,1.3-0.4,1.4c-0.2,0.1-0.4,0.8-0.4,1.4c0,0.6-0.2,1.3-0.4,1.4
		c-0.2,0.1-0.4,0.8-0.4,1.4c0,0.6-0.2,1.3-0.4,1.4c-0.2,0.1-0.4,0.9-0.4,1.6c0,0.7-0.2,1.5-0.4,1.6c-0.2,0.1-0.4,1-0.4,2
		s-0.2,1.8-0.4,1.8c-0.2,0-0.4,0.7-0.4,1.6c0,0.9-0.2,1.7-0.4,1.8s-0.4,1.1-0.4,2.2c0,1.1-0.2,2-0.4,2c-0.2,0-0.4,1-0.4,2.2
		c0,1.2-0.2,2.3-0.4,2.4s-0.4,1.5-0.4,2.9c0,1.6-0.2,2.9-0.5,3.2c-0.7,0.7-0.9,37.5-0.3,44.7c0.2,2.9,0.5,6.5,0.7,8
		c0.1,1.5,0.4,3,0.6,3.2s0.4,1.3,0.4,2.5s0.2,2.1,0.4,2.1c0.2,0,0.4,1,0.4,2.2c0,1.2,0.2,2.2,0.4,2.2s0.4,0.7,0.4,1.6
		c0,0.9,0.2,1.6,0.4,1.6c0.2,0,0.4,0.8,0.4,1.8s0.2,1.9,0.4,2c0.2,0.1,0.4,1,0.4,1.8c0,0.9,0.2,1.6,0.4,1.6c0.2,0,0.4,0.5,0.4,1.2
		s0.2,1.3,0.4,1.4c0.2,0.1,0.4,0.9,0.4,1.6c0,0.8,0.2,1.4,0.4,1.4c0.2,0,0.4,0.5,0.4,1.2s0.2,1.3,0.4,1.4c0.2,0.1,0.4,0.8,0.4,1.4
		c0,0.6,0.2,1.2,0.4,1.2s0.4,0.5,0.4,1.2s0.2,1.2,0.3,1.2c0.2,0,0.5,0.8,0.6,1.8s0.6,2.6,1.1,3.5s0.8,1.9,0.8,2.1s0.4,1.2,0.8,2.1
		c0.4,0.9,0.8,1.9,0.8,2.3c0,0.3,0.1,0.6,0.3,0.6c0.2,0,0.6,0.9,0.9,2s0.7,2,0.9,2c0.2,0,0.3,0.4,0.3,0.8s0.2,0.8,0.4,0.8
		c0.2,0,0.4,0.4,0.4,0.8s0.2,0.8,0.4,0.8c0.2,0,0.4,0.4,0.4,0.8s0.1,0.8,0.3,0.8c0.2,0,0.5,0.8,0.8,1.7c0.3,0.9,0.9,2.2,1.3,2.8
		c0.4,0.6,0.8,1.4,0.8,1.7c0,0.4,0.2,0.6,0.4,0.6c0.2,0,0.4,0.3,0.4,0.8c0,0.4,0.1,0.8,0.3,0.9c0.4,0.2,1.7,2.3,2,3.2
		c0.1,0.4,0.4,0.7,0.6,0.7c0.2,0,0.4,0.4,0.4,0.8s0.2,0.8,0.4,0.8c0.2,0,0.4,0.3,0.4,0.7c0,0.4,0.4,1,0.8,1.3
		c0.4,0.3,0.8,0.8,0.8,1.1c0,0.8,1.1,3,1.9,3.9c0.4,0.4,0.9,1.2,1.2,1.9c0.3,0.6,0.7,1.1,0.9,1.1c0.2,0,0.3,0.3,0.3,0.7
		c0,0.4,0.4,1,0.8,1.3c0.4,0.3,0.8,0.9,0.8,1.2s0.4,0.9,0.8,1.2c0.4,0.3,0.8,0.8,0.8,1c0,0.2,0.5,1,1.2,1.8s1.2,1.6,1.2,1.8
		c0,0.2,0.4,0.7,0.8,1c0.4,0.3,0.8,0.8,0.8,1c0,0.2,0.6,1.1,1.3,1.9c2.1,2.4,3.4,4,4.5,5.6c0.5,0.8,1.8,2.3,2.8,3.3
		c1,1,1.8,2,1.8,2.2c0,0.2,1.9,2.2,4.2,4.5s4.8,4.7,5.5,5.5c6.6,6.7,8.5,8.5,8.8,8.5c0.2,0,1.3,1,2.6,2.2c1.2,1.2,2.4,2.2,2.5,2.2
		s1,0.6,1.8,1.4c0.8,0.8,1.7,1.4,1.8,1.4s1,0.6,1.8,1.4c0.8,0.8,1.8,1.4,2.1,1.4s0.5,0.1,0.5,0.3c0,0.2,0.5,0.6,1.1,1
		c0.6,0.4,1.6,1.1,2.3,1.7c0.7,0.6,1.4,1,1.6,1c0.2,0,0.7,0.4,1,0.8c0.3,0.4,0.9,0.8,1.2,0.8s0.9,0.4,1.2,0.8
		c0.3,0.4,0.9,0.8,1.3,0.8c0.4,0,0.7,0.1,0.7,0.3c0,0.2,0.5,0.6,1.1,0.9c0.6,0.3,1.4,0.9,1.8,1.2c0.4,0.4,1.6,1.1,2.6,1.6
		c1,0.5,2,1.1,2.1,1.2c0.4,0.4,2.7,1.6,3.3,1.6c0.3,0,0.6,0.1,0.7,0.3c0.2,0.4,2.3,1.7,3.2,2c0.4,0.1,0.7,0.4,0.7,0.6
		c0,0.2,0.4,0.4,0.8,0.4c0.4,0,0.8,0.2,0.8,0.4s0.4,0.4,0.8,0.4c0.4,0,0.8,0.2,0.8,0.4s0.4,0.4,0.8,0.4c0.4,0,0.8,0.1,0.8,0.3
		c0,0.4,2,1.3,2.9,1.3c0.4,0,0.7,0.2,0.7,0.4s0.4,0.4,0.8,0.4s0.8,0.2,0.8,0.4s0.4,0.4,0.8,0.4c0.4,0,0.8,0.2,0.8,0.4
		s0.4,0.4,0.8,0.4c0.4,0,0.8,0.2,0.8,0.4s0.3,0.4,0.8,0.4s0.9,0.2,1,0.4c0.1,0.2,0.7,0.4,1.2,0.4c0.5,0,1,0.2,1,0.4
		c0,0.2,0.4,0.4,0.9,0.6c1.2,0.3,4.8,1.6,5.1,1.9c0.4,0.4,9.4,3.2,10.3,3.2c0.5,0,1,0.2,1.1,0.4c0.1,0.2,0.8,0.4,1.4,0.4
		s1.3,0.2,1.4,0.4s0.8,0.4,1.4,0.4c0.6,0,1.3,0.2,1.4,0.4s0.8,0.4,1.4,0.4s1.2,0.2,1.2,0.4s0.7,0.4,1.6,0.4c0.9,0,1.7,0.2,1.8,0.4
		s1,0.4,2,0.4s1.8,0.2,1.8,0.4s0.7,0.4,1.6,0.4c0.9,0,1.6,0.2,1.6,0.4s1,0.4,2.2,0.4c1.2,0,2.2,0.2,2.2,0.4s1,0.4,2.2,0.4
		c1.2,0,2.3,0.2,2.4,0.4s1.5,0.4,2.9,0.4c1.6,0,2.9,0.2,3.2,0.5c0.4,0.4,5.9,0.5,24.9,0.5s24.5-0.1,24.9-0.5
		c0.3-0.3,1.6-0.5,3.2-0.5c1.5,0,2.8-0.2,2.9-0.4s1.1-0.4,2.2-0.4c1.1,0,2.1-0.2,2.2-0.4c0.1-0.2,1.2-0.4,2.4-0.4
		c1.2,0,2.2-0.2,2.2-0.4s0.7-0.4,1.6-0.4c0.9,0,1.6-0.2,1.6-0.4s0.8-0.4,1.8-0.4s1.9-0.2,2-0.4s1-0.4,1.8-0.4c0.9,0,1.6-0.2,1.6-0.4
		s0.5-0.4,1.2-0.4s1.3-0.2,1.4-0.4s0.9-0.4,1.6-0.4c0.8,0,1.4-0.2,1.4-0.4s0.6-0.4,1.4-0.4c0.8,0,1.4-0.2,1.4-0.4s0.4-0.4,1-0.4
		c0.9,0,3.9-0.8,5.6-1.6c0.4-0.2,1.7-0.6,2.7-0.9c1-0.3,1.9-0.7,1.9-0.8s0.4-0.3,0.8-0.3s1.2-0.2,1.6-0.4s1.2-0.6,1.6-0.8
		c0.4-0.2,1.1-0.4,1.4-0.4c0.3,0,0.6-0.2,0.6-0.4s0.4-0.4,0.8-0.4c0.4,0,1.4-0.4,2.2-0.8s1.7-0.8,2-0.8s0.6-0.2,0.6-0.4
		s0.4-0.4,0.8-0.4s0.8-0.2,0.8-0.4s0.4-0.4,0.8-0.4s0.8-0.2,0.8-0.4s0.3-0.4,0.8-0.4c0.8,0,4.1-1.6,4.4-2.1c0.1-0.2,0.5-0.3,0.9-0.3
		c0.4,0,0.8-0.2,0.8-0.4s0.3-0.4,0.8-0.4c0.4,0,0.8-0.1,0.9-0.3c0.2-0.4,2.3-1.7,3.2-2c0.4-0.1,0.7-0.4,0.7-0.6
		c0-0.2,0.3-0.4,0.6-0.4c0.6,0,3-1.1,3.4-1.6c0.1-0.1,0.7-0.5,1.4-0.8c1.7-0.8,6-3.7,6.1-4.1c0.1-0.2,0.4-0.3,0.8-0.3
		c0.4,0,0.9-0.4,1.3-0.8c0.3-0.4,0.9-0.8,1.2-0.8s0.9-0.4,1.2-0.8c0.3-0.4,0.8-0.8,1-0.8c0.2,0,1-0.5,1.8-1.2s1.6-1.2,1.8-1.2
		c0.2,0,0.7-0.4,1-0.8c0.3-0.4,0.8-0.8,1-0.8c0.2,0,1.2-0.7,2.2-1.6s1.9-1.6,2-1.6c0.1,0,0.9-0.5,1.6-1.2c0.7-0.7,1.4-1.2,1.6-1.2
		c0.2,0,1.3-1,2.5-2.2c1.2-1.2,2.4-2.2,2.6-2.2c0.2,0,2.3-2,4.7-4.4c5.2-5.3,4.4-4.5,9.7-9.7c2.4-2.4,4.4-4.5,4.4-4.7
		c0-0.2,1-1.4,2.2-2.6c1.2-1.2,2.2-2.4,2.2-2.5c0-0.2,0.5-0.9,1.2-1.6c0.7-0.7,1.2-1.4,1.2-1.6c0-0.2,0.7-1.1,1.6-2s1.6-2,1.6-2.2
		c0-0.2,0.4-0.7,0.8-1c0.4-0.3,0.8-0.8,0.8-1c0-0.2,0.5-1,1.2-1.8s1.2-1.6,1.2-1.8c0-0.2,0.4-0.7,0.8-1c0.4-0.3,0.8-0.9,0.8-1.2
		s0.4-0.9,0.8-1.2c0.4-0.3,0.8-0.9,0.8-1.3c0-0.4,0.1-0.7,0.3-0.8c0.4-0.2,3.3-4.5,4.1-6.1c0.3-0.7,0.7-1.3,0.8-1.4
		c0.4-0.4,1.6-2.8,1.6-3.3c0-0.3,0.1-0.6,0.3-0.7c0.4-0.2,1.7-2.3,2-3.2c0.1-0.4,0.4-0.7,0.6-0.7c0.2,0,0.4-0.4,0.4-0.8
		s0.2-0.8,0.4-0.8s0.4-0.3,0.4-0.8c0-0.4,0.1-0.8,0.3-0.9c0.5-0.2,2.1-3.6,2.1-4.4c0-0.4,0.2-0.8,0.4-0.8s0.4-0.4,0.4-0.8
		s0.2-0.8,0.4-0.8s0.4-0.4,0.4-0.8s0.2-0.8,0.4-0.8s0.4-0.3,0.4-0.6s0.4-1.2,0.8-2s0.8-1.8,0.8-2.2c0-0.4,0.2-0.8,0.4-0.8
		s0.4-0.3,0.4-0.6c0-0.3,0.2-1,0.4-1.4c0.2-0.4,0.6-1.2,0.8-1.6s0.4-1.2,0.4-1.6s0.1-0.8,0.3-0.8s0.5-0.9,0.8-1.9
		c0.3-1,0.7-2.3,0.9-2.7c0.8-1.8,1.6-4.7,1.6-5.6c0-0.5,0.2-1,0.4-1s0.4-0.6,0.4-1.4c0-0.8,0.2-1.4,0.4-1.4s0.4-0.6,0.4-1.4
		c0-0.8,0.2-1.5,0.4-1.6s0.4-0.8,0.4-1.4s0.2-1.2,0.4-1.2s0.4-0.7,0.4-1.6c0-0.9,0.2-1.7,0.4-1.8s0.4-1,0.4-2s0.2-1.8,0.4-1.8
		s0.4-0.7,0.4-1.6c0-0.9,0.2-1.6,0.4-1.6s0.4-1,0.4-2.2c0-1.2,0.2-2.3,0.4-2.4c0.2-0.1,0.4-1.1,0.4-2.2c0-1.1,0.2-2.1,0.4-2.2
		s0.4-1.5,0.4-2.9c0-1.6,0.2-2.9,0.5-3.2c0.7-0.7,0.7-48.9,0-49.2c-0.3-0.1-0.5-1.2-0.5-3.3c0-1.7-0.2-3.2-0.4-3.2
		c-0.2,0-0.5-0.9-0.6-2.1c-0.5-4.6-0.7-6.1-1.1-6.5c-0.2-0.2-0.4-1.2-0.4-2.1s-0.2-1.7-0.4-1.7s-0.4-0.7-0.4-1.6
		c0-0.9-0.2-1.6-0.4-1.6s-0.4-0.8-0.4-1.8c0-1-0.2-1.8-0.4-1.8s-0.4-0.6-0.4-1.4c0-0.8-0.2-1.4-0.4-1.4s-0.4-0.6-0.4-1.4
		s-0.2-1.4-0.4-1.4s-0.4-0.5-0.4-1.2s-0.2-1.2-0.3-1.2s-0.4-1-0.6-2.3s-0.4-2.4-0.7-2.7s-0.4-0.8-0.4-1.3s-0.2-1-0.4-1.1
		c-0.2-0.1-0.4-0.7-0.4-1.2c0-0.5-0.2-1-0.4-1s-0.4-0.4-0.4-0.8c0-0.4-0.2-1.2-0.4-1.6c-0.2-0.4-0.6-1.2-0.8-1.6s-0.4-1.1-0.4-1.4
		s-0.2-0.6-0.4-0.6s-0.4-0.5-0.4-1.2c0-0.7-0.2-1.2-0.4-1.2s-0.4-0.4-0.4-0.8c0-0.4-0.2-0.8-0.4-0.8s-0.4-0.4-0.4-1
		c0-0.5-0.2-1.1-0.4-1.2c-0.2-0.1-0.4-0.6-0.4-1c0-0.4-0.2-0.8-0.4-0.8s-0.4-0.4-0.4-0.8c0-0.4-0.2-0.8-0.4-0.8s-0.4-0.4-0.4-0.8
		s-0.2-0.8-0.4-0.8s-0.4-0.4-0.4-0.8c0-0.4-0.2-0.8-0.4-0.8s-0.4-0.4-0.4-1c0-0.5-0.1-1-0.3-1.1c-0.4-0.2-1.7-2.3-2-3.2
		c-0.1-0.4-0.4-0.7-0.6-0.7c-0.2,0-0.4-0.4-0.4-0.8c0-0.4-0.2-0.8-0.4-0.8s-0.4-0.4-0.4-0.8c0-0.4-0.2-0.8-0.4-0.8s-0.4-0.4-0.4-0.8
		c0-0.4-0.2-0.8-0.4-0.8s-0.4-0.3-0.4-0.7s-0.5-1.4-1-2.2c-0.6-0.8-1-1.6-1-1.7s-0.5-1-1.2-2s-1.2-1.9-1.2-2.1
		c0-0.2-0.4-0.6-0.8-0.9c-0.4-0.3-0.8-0.9-0.8-1.3c0-0.4-0.2-0.7-0.4-0.7c-0.2,0-0.6-0.5-0.8-1.2s-0.7-1.2-0.8-1.2
		c-0.2,0-0.4-0.2-0.4-0.5c0-0.3-0.5-1.1-1.2-1.8c-0.7-0.7-1.2-1.5-1.2-1.8c0-0.3-0.4-0.8-0.8-1.1s-0.8-0.8-0.8-1c0-0.2-0.5-1-1-1.6
		s-1.3-1.7-1.7-2.3c-0.4-0.6-0.8-1.1-1-1.1s-0.6-0.5-0.9-1.1c-0.3-0.6-1.2-1.8-2-2.7c-0.8-0.9-1.4-1.7-1.4-1.8s-1-1.4-2.3-2.7
		c-2.7-2.8-3.7-4-3.7-4.3c0-0.1-1.1-1.3-2.5-2.6c-3-2.9-3.8-3.6-7.8-7.8c-1.7-1.8-3.7-3.7-4.5-4.2c-0.8-0.5-2.2-1.8-3.1-2.7
		c-0.9-0.9-2.2-2-2.8-2.4c-1.4-0.9-1.9-1.3-3.1-2.4c-0.5-0.5-1.1-0.9-1.2-0.9c-0.1,0-0.8-0.5-1.4-1.2s-1.3-1.2-1.5-1.2
		c-0.2,0-1-0.5-1.7-1.2c-0.8-0.7-1.6-1.2-1.8-1.2c-0.2,0-0.7-0.4-1-0.8c-0.3-0.4-0.8-0.8-1.1-0.8c-0.3,0-1.1-0.5-1.8-1.2
		c-0.7-0.7-1.5-1.2-1.8-1.2c-0.3,0-0.5-0.2-0.5-0.4c0-0.2-0.5-0.6-1.2-0.8c-0.7-0.3-1.2-0.7-1.2-0.8c0-0.2-0.2-0.4-0.4-0.4
		c-0.2,0-1.6-0.8-3.1-1.8c-1.5-1-3-1.8-3.4-1.8c-0.4,0-0.7-0.2-0.7-0.4c0-0.2-0.3-0.4-0.6-0.4c-0.3,0-0.6-0.2-0.6-0.4
		s-0.3-0.4-0.6-0.4c-0.3,0-0.6-0.2-0.6-0.4c0-0.2-0.4-0.4-0.8-0.4s-0.8-0.2-0.8-0.4c0-0.2-0.4-0.4-0.8-0.4s-0.8-0.2-0.8-0.4
		c0-0.2-0.4-0.4-0.8-0.4S294,23,294,22.8c0-0.2-0.4-0.4-0.8-0.4s-0.8-0.2-0.8-0.4s-0.3-0.4-0.6-0.4c-0.3,0-0.6-0.1-0.7-0.3
		c-0.2-0.4-3.5-2.1-4.2-2.1c-0.3,0-0.6-0.2-0.6-0.4c0-0.2-0.4-0.4-0.8-0.4s-0.8-0.2-0.8-0.4s-0.4-0.4-0.8-0.4s-0.8-0.2-0.8-0.4
		c0-0.2-0.4-0.4-0.8-0.4s-0.8-0.2-0.8-0.4c0-0.2-0.3-0.4-0.8-0.4s-0.9-0.2-1-0.4c-0.1-0.2-0.7-0.4-1.2-0.4c-0.5,0-1-0.2-1-0.4
		s-0.4-0.4-0.8-0.4S276,14.2,276,14s-0.3-0.4-0.7-0.4c-0.4,0-1.5-0.4-2.4-0.8c-0.9-0.4-1.9-0.8-2.3-0.8s-0.7-0.2-0.8-0.4
		c-0.1-0.2-0.7-0.4-1.2-0.4c-0.5,0-1-0.2-1-0.4c0-0.2-0.9-0.5-2-0.6c-1.1-0.2-2.1-0.4-2.2-0.6c-0.1-0.2-0.7-0.4-1.2-0.4
		c-0.5,0-1-0.2-1-0.4s-0.6-0.4-1.4-0.4c-0.8,0-1.4-0.2-1.4-0.4c0-0.2-0.5-0.4-1.2-0.4s-1.3-0.2-1.4-0.4c-0.1-0.2-0.9-0.4-1.6-0.4
		c-0.8,0-1.4-0.2-1.4-0.4c0-0.2-0.6-0.4-1.4-0.4c-0.8,0-1.4-0.2-1.4-0.4c0-0.2-0.8-0.4-1.8-0.4c-1,0-1.8-0.2-1.8-0.4
		c0-0.2-0.7-0.4-1.6-0.4c-0.9,0-1.6-0.2-1.6-0.4c0-0.2-0.8-0.4-1.8-0.4c-1,0-1.8-0.2-1.8-0.4s-0.9-0.4-2-0.4c-1.1,0-2.1-0.2-2.2-0.4
		C235.3,2.2,234.2,2,233,2c-1.2,0-2.2-0.2-2.2-0.4c0-0.2-1.2-0.4-2.9-0.4c-1.8,0-3.1-0.2-3.4-0.5C224,0.2,188-0.1,179,0.3
		 M199.4,74.5c0.2,0.2,0.9,0.3,1.5,0.3s1.2,0.2,1.3,0.4c0.1,0.2,0.8,0.4,1.4,0.4c0.6,0,1.3,0.2,1.4,0.4s0.7,0.4,1.2,0.4s1,0.2,1,0.4
		c0,0.2,0.3,0.4,0.8,0.4c0.4,0,0.8,0.1,0.9,0.3c0.1,0.2,1,0.7,2.1,1.3c5.4,2.7,14.2,11.1,14.2,13.6c0,0.2,0.2,0.4,0.4,0.4
		s0.4,0.3,0.4,0.8c0,0.4,0.1,0.8,0.3,0.9c0.2,0.1,0.7,1,1.2,2.1c0.5,1.1,1.1,2.3,1.3,2.7c0.2,0.4,0.4,1.1,0.4,1.5
		c0,0.4,0.2,1.1,0.4,1.5c1.1,2.2,1.4,4.3,1.4,10.7s-0.3,8.5-1.4,10.7c-0.2,0.4-0.4,1.1-0.4,1.5c0,0.4-0.2,1.1-0.4,1.5
		c-0.2,0.4-1,2-1.7,3.5c-0.7,1.5-1.5,2.9-1.6,2.9c-0.2,0.1-0.3,0.3-0.3,0.5c0,1.2-4.4,6.4-11.8,13.8l-8.5,8.5l52.3,0.2
		c50,0.2,56.2,0.3,57,1.1c0.2,0.2,0.9,0.4,1.5,0.4s1.2,0.2,1.3,0.4s0.6,0.4,1,0.4c0.4,0,1.1,0.2,1.5,0.4c0.4,0.2,1.6,0.7,2.7,1.2
		c1.1,0.5,2.4,1.1,3,1.5c0.5,0.3,1.3,0.7,1.7,0.8c0.4,0.1,0.7,0.4,0.7,0.6c0,0.2,0.2,0.4,0.5,0.4c2.1,0,14.3,12.9,14.3,15.2
		c0,0.2,0.2,0.4,0.4,0.4s0.4,0.4,0.4,0.8c0,0.4,0.2,0.8,0.4,0.8s0.4,0.4,0.4,0.8s0.2,0.8,0.4,0.8s0.4,0.3,0.4,0.7s0.1,0.9,0.3,1.1
		c0.2,0.2,0.6,1.2,0.8,2.2c0.3,1,0.7,2.2,0.8,2.6c1.6,3.9,1.6,18.7,0,22.8c-0.2,0.4-0.5,1.5-0.8,2.4c-0.8,2.7-2.8,7.1-3.3,7.3
		c-0.2,0.1-0.3,0.3-0.3,0.5c0,4.1-17.4,19.1-22.2,19.1c-0.3,0-0.7,0.2-0.8,0.4c-0.1,0.2-0.7,0.4-1.2,0.4c-0.5,0-1.1,0.2-1.2,0.4
		s-0.7,0.4-1.3,0.4s-1.3,0.2-1.5,0.4c-0.9,0.8-7.1,0.9-57.2,1.1l-52.4,0.2l10,10.1c10.1,10.3,11.4,11.6,11.4,12.3
		c0,0.2,0.1,0.4,0.3,0.4c0.2,0,0.5,0.4,0.7,0.9c0.2,0.5,0.8,1.6,1.3,2.5c2.4,4.8,3.1,6.8,4.5,13.4c1.1,5.4-0.4,15.7-3.3,21.3
		c-0.2,0.4-0.4,0.9-0.4,1.1c0,0.2-0.7,1.5-1.6,2.8c-0.9,1.3-1.6,2.5-1.6,2.8s-0.2,0.4-0.4,0.4s-0.4,0.3-0.4,0.6
		c0,0.7-7.4,8.1-8.4,8.4c-0.4,0.1-0.8,0.4-0.8,0.5c0,0.2-1.6,1.1-3.5,2c-1.9,1-3.8,1.9-4.2,2.1c-0.4,0.2-1,0.4-1.3,0.4
		c-0.3,0-0.6,0.2-0.6,0.4s-0.5,0.4-1.2,0.4s-1.3,0.2-1.4,0.4c-0.4,0.7-3.6,0.9-10.4,1c-7.5,0-9.7-0.3-13.3-1.7
		c-0.5-0.2-1.3-0.5-1.8-0.7c-2.5-1-5.6-2.6-8.7-4.7c-2-1.3-101.2-100.1-104-103.6c-1.3-1.5-2.5-3.4-2.8-4.1
		c-0.3-0.7-0.7-1.3-0.9-1.3c-0.2,0-0.3-0.4-0.3-0.8s-0.2-0.8-0.4-0.8c-0.2,0-0.4-0.4-0.4-1s-0.2-1.1-0.4-1.2
		c-0.2-0.1-0.4-0.8-0.4-1.4s-0.2-1.3-0.4-1.4c-0.5-0.3-0.5-10.5,0-10.8c0.2-0.1,0.4-0.8,0.4-1.4s0.2-1.3,0.4-1.4
		c0.2-0.1,0.4-0.7,0.4-1.2c0-0.5,0.1-1,0.3-1.1c0.2-0.1,0.7-1,1.3-2.1c1.9-3.8,5.4-7.4,53.7-55.5c53.9-53.6,50.8-50.7,56.7-53.6
		c2.3-1.1,4.6-2.2,4.9-2.4c0.4-0.2,1.1-0.4,1.7-0.4c0.5,0,1.1-0.2,1.2-0.4c0.1-0.2,0.7-0.4,1.3-0.4s1.3-0.2,1.5-0.4
		C184.2,73.7,198.6,73.7,199.4,74.5"/>
		<path
			id="path2"
			class="st2"
			d="M190.5,74.3c0.6,0.1,1.5,0.1,2,0c0.5-0.1,0-0.2-1.1-0.2C190.3,74.1,189.9,74.2,190.5,74.3
		 M183.8,74.8c-1.1,0.3-1.1,0.3,0.4,0.3c0.9,0,2.1-0.1,2.6-0.3C188.2,74.4,185.5,74.4,183.8,74.8 M196,74.8c0.6,0.2,1.7,0.3,2.6,0.3
		c1.5,0,1.5,0,0.4-0.3C197.3,74.4,194.6,74.4,196,74.8 M180.6,75.6c-0.7,0.3-0.7,0.3,0.3,0.4c0.6,0,1.2-0.2,1.3-0.4
		C182.5,75.1,181.7,75.1,180.6,75.6 M200.6,75.6c0.1,0.2,0.7,0.4,1.3,0.4c1,0,1-0.1,0.3-0.4C201.1,75.1,200.3,75.1,200.6,75.6
		 M178,76.4l-1,0.3l1.1,0c0.6,0,1.2-0.1,1.3-0.4C179.7,75.9,179.4,75.9,178,76.4 M203.4,76.4c0.1,0.2,0.7,0.4,1.3,0.4
		c1.3,0,1.1-0.2-0.4-0.6C203.5,76.1,203.2,76.1,203.4,76.4 M175.3,77.5c-0.7,0.4-1.2,0.7-1.2,0.8c0.2,0.2,2.7-1,2.7-1.3
		C176.8,76.7,176.7,76.7,175.3,77.5 M206,77c0,0.1,1.5,0.9,3.4,1.8c7.1,3.4,13.3,9.5,16.2,15.9c0.5,1.2,1.1,2.1,1.3,2.1
		c1.1,0-4-7.8-7.4-11.2C216,82,206,75.6,206,77 M170.9,79.8c-1.4,0.7-3.4,2.1-4.6,3.1c-3.2,2.6-98.4,97.8-100.9,100.8
		c-2.1,2.6-4.5,6.7-4.1,7.1c0.1,0.1,0.5-0.5,0.9-1.3c1.9-4.2,5.5-7.9,53.6-55.9c49.3-49.2,52.2-52,56.5-53.8
		c0.7-0.3,1.3-0.7,1.3-0.9C173.6,78.3,173.7,78.2,170.9,79.8 M228,99.9c0,0.5,0.2,1,0.4,1.1c0.5,0.3,0.5-0.1,0-1.2
		C228.1,99,228.1,99,228,99.9 M228.8,102.2c0,0.4,0.2,1.1,0.4,1.4c0.5,0.8,0.5-0.2,0-1.4l-0.3-0.8L228.8,102.2 M229.7,105.8
		c0,2.1,0.6,4,0.6,2c0-0.9-0.1-2-0.3-2.4C229.7,104.7,229.7,104.8,229.7,105.8 M230.5,113c0,1.3,0.1,1.8,0.2,1.1
		c0.1-0.7,0.1-1.8,0-2.4C230.6,111.1,230.5,111.7,230.5,113 M229.8,118.7c-0.2,1.2-0.2,2.2-0.1,2.3c0.3,0.3,0.8-2.4,0.6-3.5
		C230.2,116.9,230,117.4,229.8,118.7 M229,122.6c-0.1,0.4-0.2,1-0.2,1.3c0,0.4,0.2,0.1,0.4-0.5C229.6,122.2,229.5,121.5,229,122.6
		 M228.3,125.1c-0.1,0.1-0.3,0.6-0.2,1.1c0,0.8,0.1,0.8,0.4-0.1C228.8,125.1,228.7,124.6,228.3,125.1 M226.3,130.1
		c-0.3,0.5-0.8,1.4-1.1,2.1c-1.8,3.7-3.2,5.3-13.9,16c-5.4,5.4-7.6,7.9-7.5,8.3c0.2,0.6,5.6,0.6,53.5,0.6c29.3,0,52.2-0.2,50.9-0.4
		c-1.3-0.2-25.2-0.3-53.1-0.3c-27.9,0-50.7-0.2-50.7-0.3c0-0.2,3.4-3.7,7.6-7.9c8.7-8.6,11.8-12.3,13.8-16.2
		C227.2,129.3,227.4,128.3,226.3,130.1 M311.8,157.6c0.4,0.2,1.2,0.3,1.8,0.3c0.9,0,0.9,0,0.2-0.3c-0.4-0.2-1.2-0.3-1.8-0.3
		C311.1,157.3,311.1,157.3,311.8,157.6 M315.2,158.4c0.3,0.2,1,0.4,1.6,0.4c0.9,0,0.9-0.1,0.2-0.4
		C315.8,157.9,314.4,157.9,315.2,158.4 M322,160.6c0,0.1,0.9,0.6,1.9,1.1c2.3,1.2,3.8,2,4.1,2.3c0.1,0.1,1,0.8,2,1.5
		c3.3,2.3,7.7,6.9,10.2,10.6c1.3,2,2.4,3.2,1.6,1.8c-3.7-6.3-9.5-12-16.1-15.7C322.8,160.5,322,160.2,322,160.6 M342,178.9
		c0,0.4,1.3,2.7,1.5,2.5c0.2-0.2-1-2.7-1.3-2.7C342.1,178.8,342,178.9,342,178.9 M344.4,183.8c0,0.6,1,3.3,1.3,3.7
		c0.2,0.2,0.2-0.1,0-0.7C345.3,185.3,344.5,183.3,344.4,183.8 M346,189c0,0.4,0.2,1.1,0.4,1.4c0.5,0.8,0.5-0.2,0-1.4l-0.3-0.8
		L346,189 M60.9,191.7c0,0.4-0.2,1-0.3,1.4c-0.2,0.6-0.1,0.6,0.2,0.3c0.3-0.2,0.4-0.9,0.3-1.4C61,191.4,60.9,191.3,60.9,191.7
		 M346.9,192.8c0,0.8,0.1,1.8,0.3,2.4c0.4,1.4,0.4-0.8,0-2.6l-0.3-1.2L346.9,192.8 M59.8,196.1c-0.2,1.3-0.2,2.4-0.1,2.5
		c0.3,0.3,0.8-2.4,0.6-3.7C60.2,194.1,60.1,194.4,59.8,196.1 M59.7,202.4c0,2.4,0.6,4.2,0.7,2c0-1-0.1-2.2-0.3-2.6
		C59.7,201.2,59.7,201.3,59.7,202.4 M347.1,205.2c-0.2,0.6-0.3,1.5-0.2,2.2c0,1.1,0.1,1.1,0.4-0.4
		C347.7,205.2,347.5,203.6,347.1,205.2 M60.4,206.9c0.1,1.3,0.7,2.2,0.7,1c0-0.6-0.2-1.2-0.4-1.3C60.6,206.5,60.4,206.6,60.4,206.9
		 M61.2,209.4c0,0.7,2.4,4.7,4.3,7c3,3.7,102.4,102.8,104.5,104.3c3.3,2.2,6.9,4.1,8.8,4.7c1.6,0.5,0.4-0.4-1.4-1
		c-0.9-0.3-2.6-1.2-3.8-2c-1.2-0.8-2.7-1.7-3.4-2c-1.3-0.7-103-102.1-104.8-104.6c-0.6-0.9-1.3-1.7-1.4-1.8
		c-0.1-0.1-0.7-1.2-1.3-2.5C61.6,209.4,61.2,208.8,61.2,209.4 M346.3,209.8c-0.2,0.4-0.3,1-0.2,1.4c0,0.4,0.2,0.3,0.4-0.3
		c0.2-0.5,0.3-1.2,0.2-1.4C346.6,209.2,346.4,209.4,346.3,209.8 M345.5,212.7c-0.1,0.1-0.3,0.6-0.2,1.1c0,0.8,0.1,0.8,0.4-0.1
		C346,212.7,345.9,212.2,345.5,212.7 M342.6,219.9c-3.7,8.1-13.3,16.7-22.5,20.2c-0.5,0.2-1.3,0.5-1.8,0.7c-0.5,0.2-1.4,0.5-2,0.6
		c-0.6,0.1-1,0.4-0.9,0.5c0.7,0.7,9.6-3.2,13.7-6c5.4-3.7,15.8-16,14.5-17.3C343.4,218.4,342.9,219,342.6,219.9 M312,242.4
		c-0.8,0.5,0.5,0.5,2,0c1-0.3,1-0.3-0.2-0.4C313.1,242,312.3,242.2,312,242.4 M204.1,243.2c-0.9,0.6-0.7,0.8,9.8,11.3
		c9.5,9.5,12.2,12.8,13.9,16.4c0.4,0.8,0.8,1.4,0.9,1.3c0.3-0.3-1.3-3.2-3.1-5.9c-0.8-1.2-6-6.8-11.5-12.3
		c-5.5-5.5-9.9-10.1-9.8-10.2c0.1-0.1,23.1-0.3,51.1-0.3c28,0,51.9-0.2,53.2-0.3c1.3-0.2-21.5-0.3-50.8-0.3
		C228.3,242.8,204.4,243,204.1,243.2 M230.5,277c0,0.4,0.2,1.2,0.3,1.6l0.3,0.8v-0.8c0-0.4-0.2-1.2-0.3-1.6l-0.3-0.8V277
		 M231.3,280.6c0,0.4,0.2,1.2,0.3,1.8l0.3,1l0-1c0-0.5-0.1-1.4-0.3-1.8l-0.3-0.8L231.3,280.6 M232.1,288.6c0,3,0.1,4.7,0.3,4
		c0.2-0.7,0.2-3,0-5.2l-0.3-4L232.1,288.6 M231.4,295.8c-0.2,1-0.2,1.9-0.1,2.1c0.1,0.1,0.3-0.6,0.5-1.7c0.2-1,0.2-1.9,0.1-2.1
		C231.8,294.1,231.6,294.8,231.4,295.8 M229.4,303c-0.4,1-0.6,1.9-0.5,2c0.1,0.1,0.5-0.6,0.9-1.6c0.4-1,0.6-1.9,0.5-2
		C230.2,301.3,229.8,302,229.4,303 M227.8,306.9c-0.4,0.7-1.2,2.1-1.9,3.1c-0.6,1-1.1,1.8-1,1.9c0.1,0.1,1-1.2,2.1-2.9
		c1-1.7,1.8-3.2,1.7-3.3C228.5,305.6,228.1,306.1,227.8,306.9 M224,312.8c0,1.4-10.9,10.4-12.6,10.4c-0.3,0-0.6,0.2-0.6,0.4
		c0,1,5.6-2.5,9.1-5.8c2.8-2.6,5.2-5.4,4.5-5.4C224.2,312.4,224,312.6,224,312.8 M206.3,325.5c-0.6,0.3-1,0.7-0.9,0.8
		c0.1,0.1,0.9-0.2,1.7-0.6c0.8-0.4,1.3-0.8,0.9-0.8C207.7,324.9,206.9,325.2,206.3,325.5 M182.6,326.8c1.2,0.5,2.2,0.5,1.4,0
		c-0.3-0.2-1-0.4-1.4-0.4l-0.8,0L182.6,326.8 M202,326.8c-0.4,0.3-0.1,0.3,1,0.1c2-0.3,2.3-0.6,0.8-0.6
		C203.1,326.4,202.3,326.6,202,326.8 M185.6,327.3c0.1,0.1,1.1,0.3,2.2,0.4c1.4,0.2,1.8,0.1,1.4-0.1
		C188.7,327.3,185.2,327,185.6,327.3 M197.6,327.6c-1,0.3-1,0.3,0.2,0.3c0.7,0,1.6-0.1,2.2-0.3c1-0.3,1-0.3-0.2-0.3
		C199.1,327.3,198.1,327.4,197.6,327.6"/>
		<path
			id="path3"
			class="st3"
			d="M186.9,74.3c0.6,0.1,1.5,0.1,2,0c0.5-0.1,0-0.2-1.1-0.2C186.7,74.1,186.3,74.2,186.9,74.3
		 M194.1,74.3c0.6,0.1,1.6,0.1,2.2,0c0.6-0.1,0.1-0.2-1.1-0.2C194,74.1,193.5,74.2,194.1,74.3 M220.4,86.5c0,0.1,0.6,0.7,1.3,1.3
		L223,89l-1.2-1.3C220.7,86.5,220.4,86.2,220.4,86.5 M230.5,109.2c0,1,0.1,1.4,0.2,0.9c0.1-0.5,0.1-1.3,0-1.8
		C230.6,107.8,230.5,108.2,230.5,109.2 M132.6,115.7l-1.6,1.7l1.7-1.6c1.6-1.5,1.9-1.8,1.6-1.8C134.2,114,133.5,114.8,132.6,115.7
		 M230.5,116.8c0,1,0.1,1.4,0.2,0.9c0.1-0.5,0.1-1.3,0-1.8C230.6,115.4,230.5,115.8,230.5,116.8 M115.8,132.5l-3.6,3.7l3.7-3.6
		c3.4-3.3,3.9-3.8,3.6-3.8C119.4,128.8,117.8,130.5,115.8,132.5 M212.2,148c-4.4,4.4-7.9,8-7.8,8.1c0.1,0.1,3.8-3.5,8.2-8
		c4.4-4.5,7.9-8.1,7.8-8.1C220.3,140,216.6,143.6,212.2,148 M99,149.3l-5.6,5.7l5.7-5.6c5.3-5.2,5.9-5.8,5.6-5.8
		C104.6,143.6,102.1,146.2,99,149.3 M307.1,156.7c0.5,0.1,1.2,0.1,1.6,0c0.4-0.1,0-0.2-0.9-0.2C306.9,156.5,306.6,156.6,307.1,156.7
		 M77.2,171.1l-11,11.1l11.1-11c6.1-6,11.1-11,11.1-11.1C88.4,159.8,87.4,160.8,77.2,171.1 M335.6,169.7c1.7,1.8,2,2.1,2,1.8
		c0-0.1-0.9-0.9-1.9-1.9l-1.9-1.8L335.6,169.7 M343.6,181.4c0,0.2,0.3,0.9,0.6,1.4c0.3,0.6,0.6,0.8,0.6,0.6s-0.3-0.8-0.6-1.4
		C343.9,181.4,343.6,181.2,343.6,181.4 M347.7,197.2c0,1.4,0.1,2,0.2,1.3c0.1-0.7,0.1-1.9,0-2.6
		C347.8,195.2,347.7,195.8,347.7,197.2 M59.3,200c0,1.9,0.1,2.6,0.2,1.7s0.1-2.5,0-3.4S59.3,198.1,59.3,200 M347.7,203
		c0,1.5,0.1,2.1,0.2,1.3s0.1-2.1,0-2.8C347.8,200.8,347.7,201.5,347.7,203 M79.2,231c7.1,7.1,13.1,13,13.2,13c0.1,0-5.6-5.9-12.8-13
		c-7.1-7.1-13.1-13-13.2-13S72.1,223.9,79.2,231 M335,230.9l-2.4,2.5l2.5-2.4c1.4-1.3,2.5-2.4,2.5-2.5
		C337.6,228.2,337.2,228.6,335,230.9 M307.3,243.5c0.4,0.1,1,0.1,1.4,0c0.4-0.1,0.1-0.2-0.7-0.2S306.9,243.4,307.3,243.5
		 M204.3,243.9c-0.2,0.3,34.8,0.3,82.3,0c9.9-0.1-4.5-0.1-32.1-0.2S204.4,243.7,204.3,243.9 M100.2,252c3.7,3.7,6.9,6.8,7,6.8
		s-2.9-3.1-6.6-6.8s-6.9-6.8-7-6.8S96.5,248.3,100.2,252 M115.4,267.2c3.1,3.1,5.7,5.6,5.8,5.6s-2.3-2.5-5.4-5.6
		c-3.1-3.1-5.7-5.6-5.8-5.6S112.3,264.1,115.4,267.2 M225.6,266.4c1.2,1.8,1.2,1.8,1.2,1.4c0-0.2-0.5-0.9-1-1.6l-1-1.2L225.6,266.4
		 M133.4,285.2c2.6,2.6,4.9,4.8,5,4.8s-2-2.2-4.6-4.8c-2.6-2.6-4.9-4.8-5-4.8S130.8,282.6,133.4,285.2 M232.5,287
		c0,1.8,0.1,2.4,0.2,1.5c0.1-0.9,0.1-2.4,0-3.2C232.6,284.5,232.5,285.2,232.5,287 M231.4,297.8c-0.1,0.8-0.2,1.5-0.1,1.6
		c0.1,0.1,0.3-0.5,0.5-1.3c0.1-0.8,0.2-1.5,0.1-1.6C231.8,296.4,231.6,297,231.4,297.8 M149.8,301.6c1.3,1.3,2.5,2.4,2.6,2.4
		s-0.9-1.1-2.2-2.4s-2.5-2.4-2.6-2.4S148.5,300.3,149.8,301.6 M220.8,317c-1,1-1.7,1.8-1.6,1.8s1-0.8,2-1.8s1.7-1.8,1.6-1.8
		S221.8,316,220.8,317 M165.4,317.2c0.9,0.9,1.7,1.6,1.8,1.6s-0.5-0.7-1.4-1.6c-0.9-0.9-1.7-1.6-1.8-1.6S164.5,316.3,165.4,317.2
		 M190.9,328.3c1.5,0.1,3.9,0.1,5.4,0s0.3-0.1-2.7-0.1S189.4,328.2,190.9,328.3"/>
		<path
			id="path4"
			class="st4"
			d="M190.7,73.9c0.5,0.1,1.2,0.1,1.6,0c0.4-0.1,0-0.2-0.9-0.2C190.5,73.7,190.2,73.8,190.7,73.9
		 M183.5,74.3c-0.1,0.2,0.4,0.2,1.2,0.2c0.8-0.1,1.4-0.2,1.4-0.3C186,73.9,183.6,74,183.5,74.3 M197.2,74.2c0,0.1,0.5,0.2,1.2,0.3
		c0.6,0.1,1.1,0,1-0.2C199.2,74,197.2,73.8,197.2,74.2 M163.8,84.5l-1.2,1.3l1.3-1.2c1.2-1.1,1.5-1.4,1.2-1.4
		C165,83.2,164.4,83.8,163.8,84.5 M230.3,105.8c0.3,2,0.5,2.3,0.5,0.8c0-0.6-0.2-1.4-0.4-1.8C230.1,104.4,230.1,104.7,230.3,105.8
		 M230.5,119.3c0,0.6-0.2,1.4-0.3,1.8c-0.2,0.7-0.2,0.7,0.2,0c0.3-0.4,0.4-1.2,0.3-1.8l-0.2-1.1L230.5,119.3 M221.4,138.9l-1.2,1.3
		l1.3-1.2c0.7-0.6,1.3-1.2,1.3-1.3C222.8,137.4,222.5,137.7,221.4,138.9 M213.8,146.9l-3.2,3.3l3.3-3.2c1.8-1.8,3.3-3.2,3.3-3.3
		C217.2,143.4,216.8,143.8,213.8,146.9 M230.7,156.3c14.4,0.1,37.8,0.1,52.2,0c14.4-0.1,2.6-0.1-26.1-0.1
		C228.1,156.2,216.3,156.2,230.7,156.3 M90.3,157.5c-0.6,0.6-1.1,1.2-1.1,1.4s0.5-0.3,1.2-1c1.1-1.2,1.4-1.5,1.1-1.5
		C91.4,156.4,90.9,156.9,90.3,157.5 M82.4,165.5L77,171l5.5-5.4c5.1-5,5.7-5.6,5.4-5.6C87.8,160,85.4,162.5,82.4,165.5 M71,176.8
		c-2.6,2.6-4.7,4.8-4.6,4.8s2.4-2.2,5-4.8c2.6-2.6,4.7-4.8,4.6-4.8S73.6,174.2,71,176.8 M347.5,193c0.3,2,0.5,2.3,0.5,0.8
		c0-0.6-0.2-1.4-0.4-1.8C347.3,191.6,347.3,191.9,347.5,193 M59.4,195c-0.1,0.3-0.2,0.9-0.1,1.3c0.1,0.5,0.2,0.2,0.4-0.6
		C59.9,194.3,59.7,194,59.4,195 M59.2,204.2c0,0.5,0.1,1.1,0.3,1.2c0.2,0.1,0.2-0.3,0.2-1C59.5,202.9,59.2,202.8,59.2,204.2
		 M347.7,206.3c0,0.5-0.2,1.2-0.3,1.6c-0.2,0.7-0.2,0.7,0.2,0c0.3-0.4,0.4-1.1,0.3-1.6C347.7,205.4,347.7,205.4,347.7,206.3
		 M86.4,238.5c11.1,11.2,20.3,20.3,20.4,20.3s-2.9-3.1-6.6-6.8c-12.7-12.7-33.4-33.4-33.7-33.6C66.3,218.3,75.3,227.4,86.4,238.5
		 M306.8,243.6l-2.6,0.3l2.4,0.1c1.3,0,2.7-0.1,3-0.3c0.3-0.2,0.4-0.4,0.2-0.3C309.6,243.3,308.2,243.5,306.8,243.6 M214.2,254
		c5.5,5.5,10.1,10,10.2,10s-4.3-4.5-9.8-10c-5.5-5.5-10.1-10-10.2-10S208.7,248.5,214.2,254 M115.2,267.3c5,5.1,5.6,5.7,5.6,5.4
		c0-0.1-2.5-2.5-5.5-5.5l-5.5-5.4L115.2,267.3 M231.9,280.8c0.3,1.7,0.5,2.1,0.5,0.8c0-0.5-0.2-1.2-0.4-1.6
		C231.7,279.6,231.7,279.8,231.9,280.8 M133,285.2c2.4,2.4,4.5,4.4,4.6,4.4s-1.8-2-4.2-4.4c-2.4-2.4-4.5-4.4-4.6-4.4
		S130.6,282.8,133,285.2 M232.9,288.6c0,2.4,0.1,3.4,0.1,2.1c0.1-1.3,0.1-3.3,0-4.4C233,285.1,232.9,286.2,232.9,288.6 M232.1,296.4
		c0,0.8,0.1,1.1,0.2,0.7c0.1-0.4,0.1-1,0-1.4C232.2,295.3,232.1,295.6,232.1,296.4 M164,316.1c0,0.1,0.6,0.7,1.3,1.3l1.3,1.2
		l-1.2-1.3C164.3,316.1,164,315.8,164,316.1 M186.4,328c0.3,0.2,0.9,0.4,1.4,0.4c1,0,0.7-0.2-0.8-0.6
		C186.1,327.6,186,327.7,186.4,328"/>
	</g>
</svg>
