<?xml version="1.0" encoding="utf-8"?>
<!-- Generator: Adobe Illustrator 24.2.3, SVG Export Plug-In . SVG Version: 6.00 Build 0) -->
<svg version="1.1" id="svg" xmlns="http://www.w3.org/2000/svg" xmlns:xlink="http://www.w3.org/1999/xlink" x="0px" y="0px" viewBox="0 0 400 400" style="enable-background:new 0 0 400 400;" xml:space="preserve">
	<style type="text/css">
		.st0 {
			fill-rule: evenodd;
			clip-rule: evenodd;
			fill: #FBFBFB;
		}
		.st1 {
			fill-rule: evenodd;
			clip-rule: evenodd;
			fill: #861c82;
		}
		.st2 {
			fill-rule: evenodd;
			clip-rule: evenodd;
			fill: #861c82;
		}
		.st3 {
			fill-rule: evenodd;
			clip-rule: evenodd;
			fill: #861c82;
		}
		.st4 {
			fill-rule: evenodd;
			clip-rule: evenodd;
			fill: #861c82;
		}
	</style>
	<g id="svgg">
		<path
			id="path0"
			class="st0"
			d="M203.4,74.9c-3.1,0.5-7.8,1.7-9.1,2.4c-0.4,0.2-1,0.4-1.3,0.4c-0.3,0-0.6,0.1-0.7,0.3
		c-0.1,0.2-1,0.7-2.1,1.3c-5.4,2.7-14.2,10.5-14.2,12.7c0,0.3-0.1,0.5-0.3,0.6c-0.5,0.2-3.6,6.8-4.1,8.7c-0.3,1-0.6,2.2-0.8,2.8
		c-1.6,5-1,19.1,0.9,21c0.2,0.2,0.3,0.6,0.3,1.1s0.5,1.8,1.2,3c2.1,4.1,3,5.8,3.2,6c0.1,0.1,0.7,0.9,1.4,1.8
		c0.7,0.9,5.1,5.6,10,10.5c5.7,5.8,8.7,9,8.4,9.3c-0.2,0.2-19.9,0.4-53.8,0.5c-37.9,0.1-53.9,0.3-55.2,0.6c-1,0.2-2.3,0.6-3,0.7
		c-0.7,0.1-1.6,0.4-2.2,0.7s-1.4,0.6-1.8,0.7C73,162.7,64,169.7,61,174.7c-0.4,0.7-0.9,1.3-1.1,1.3c-0.2,0-0.3,0.3-0.3,0.6
		c0,0.3-0.1,0.6-0.3,0.6s-0.5,0.4-0.7,0.9c-0.2,0.5-0.9,1.7-1.4,2.7c-0.5,1-1,2.2-1.2,2.6c-0.2,0.4-0.5,1.2-0.7,1.8
		c-7.9,19,1.6,43.6,20.5,53.1c3.5,1.8,5.6,2.6,8.2,3.3c1,0.3,2.3,0.7,3,0.9c0.9,0.3,15.8,0.5,55.2,0.7c41.6,0.2,54,0.3,54,0.7
		c0,0.3-3.7,4.2-8.2,8.8c-8.4,8.6-9.6,9.8-9.6,10.5c0,0.2-0.1,0.4-0.3,0.4c-0.2,0-0.5,0.4-0.7,0.9c-0.2,0.5-0.8,1.6-1.3,2.5
		c-1.3,2.6-2.5,5.4-2.5,5.9c0,0.3-0.2,0.7-0.4,0.9c-0.4,0.4-0.5,1-1.3,7c-0.7,5.7,0.1,13.3,2,17.9c0.2,0.5,0.6,1.4,0.8,2
		c0.2,0.6,0.7,1.5,1,2.1c0.3,0.6,0.7,1.3,0.8,1.7c0.1,0.4,0.4,0.7,0.6,0.7c0.2,0,0.4,0.3,0.4,0.6c0,0.3,0.1,0.6,0.3,0.6
		c0.2,0,0.5,0.5,0.8,1.2c1.4,3.3,9.1,9.8,14.7,12.5c3.1,1.5,4.5,2,10.4,3.5c0.9,0.2,3.8,0.4,6.4,0.4c8.7,0,16.3-2.4,23.2-7.4
		c3.4-2.4,98.6-97.5,101.5-101.3c2.8-3.6,4.7-8.2,4.7-10.9c0-0.8,0.2-2,0.4-2.8c1.1-3.8-1.7-12.9-5.5-17.6
		c-4.3-5.3-100.1-100.4-103.4-102.5c-3.8-2.5-8.3-4.7-9.5-4.7c-0.4,0-0.9-0.2-1-0.4c-0.1-0.2-0.8-0.4-1.4-0.4s-1.3-0.2-1.4-0.4
		C217.4,74.9,206.9,74.3,203.4,74.9"/>
		<path
			id="path1"
			class="st1"
			d="M205.3,74.3c0.6,0.1,1.5,0.1,2,0c0.5-0.1,0-0.2-1.1-0.2C205.1,74.1,204.7,74.2,205.3,74.3
		 M210.3,74.3c0.5,0.1,1.3,0.1,1.8,0c0.5-0.1,0.1-0.2-0.9-0.2C210.2,74.1,209.8,74.2,210.3,74.3 M180.4,85.4c-1,1-1.7,1.8-1.6,1.8
		c0.1,0,1-0.8,2-1.8s1.7-1.8,1.6-1.8S181.4,84.4,180.4,85.4 M175.6,91.2c-0.5,0.7-0.8,1.3-0.7,1.4c0.1,0.1,0.6-0.5,1-1.2
		C177,89.7,176.8,89.6,175.6,91.2 M169.3,110.8c0,0.8,0.1,1.1,0.2,0.7c0.1-0.4,0.1-1,0-1.4C169.4,109.7,169.3,110,169.3,110.8
		 M169.3,115.4c0,0.9,0.1,1.2,0.2,0.7c0.1-0.5,0.1-1.2,0-1.6C169.4,114.1,169.3,114.5,169.3,115.4 M285.8,134.4
		c0.9,0.9,1.7,1.6,1.8,1.6c0.1,0-0.5-0.7-1.4-1.6c-0.9-0.9-1.7-1.6-1.8-1.6C284.3,132.8,284.9,133.5,285.8,134.4 M187.3,147.8
		c4.3,4.4,7.9,8.1,7.9,8.3s-23,0.3-51.1,0.4L93,156.6l51.3,0.1c41,0.1,51.3,0,51.3-0.4c0-0.3-3.6-4.1-8.1-8.5l-8.1-8L187.3,147.8
		 M301.4,150c1.3,1.3,2.5,2.4,2.6,2.4c0.1,0-0.9-1.1-2.2-2.4s-2.5-2.4-2.6-2.4C299.1,147.6,300.1,148.7,301.4,150 M318.2,166.8
		c2.4,2.4,4.5,4.4,4.6,4.4c0.1,0-1.8-2-4.2-4.4c-2.4-2.4-4.5-4.4-4.6-4.4C313.9,162.4,315.8,164.4,318.2,166.8 M66.6,167.7l-1.2,1.3
		l1.3-1.2c1.2-1.1,1.5-1.4,1.2-1.4C67.8,166.4,67.2,167,66.6,167.7 M63.4,170.9l-1.2,1.3l1.3-1.2c0.7-0.6,1.3-1.2,1.3-1.3
		C64.8,169.4,64.5,169.7,63.4,170.9 M330.8,179.4c1.2,1.2,2.3,2.2,2.4,2.2c0.1,0-0.8-1-2-2.2c-1.2-1.2-2.3-2.2-2.4-2.2
		C328.7,177.2,329.6,178.2,330.8,179.4 M52.1,200.2c0,2,0.1,2.8,0.2,1.9s0.1-2.5,0-3.6C52.2,197.5,52.1,198.2,52.1,200.2 M340.5,200
		c0,1.6,0.1,2.3,0.2,1.5c0.1-0.8,0.1-2.2,0-3C340.6,197.7,340.5,198.4,340.5,200 M64.8,231c1.4,1.4,2.7,2.6,2.8,2.6
		c0.1,0-1-1.2-2.4-2.6c-1.4-1.4-2.7-2.6-2.8-2.6S63.4,229.6,64.8,231 M145,243.9l50.8,0.1l-7.8,7.9l-7.8,7.9l7.9-7.8
		c4.3-4.3,7.8-7.9,7.7-8.1c-0.1-0.2-23-0.3-50.9-0.2l-50.7,0.1L145,243.9 M267,284.5l-1.6,1.7l1.7-1.6c1.6-1.5,1.9-1.8,1.6-1.8
		C268.6,282.8,267.9,283.6,267,284.5 M250.6,300.9l-1.6,1.7l1.7-1.6c0.9-0.9,1.7-1.6,1.7-1.7C252.4,299,252.1,299.3,250.6,300.9
		 M182.8,313.3c1.7,1.8,2,2.1,2,1.8c0-0.1-0.9-0.9-1.9-1.9l-1.9-1.8L182.8,313.3 M204.1,324.3c0.4,0.1,1,0.1,1.4,0
		c0.4-0.1,0.1-0.2-0.7-0.2S203.7,324.2,204.1,324.3 M215.5,324.3c0.5,0.1,1.2,0.1,1.6,0c0.4-0.1,0-0.2-0.9-0.2
		C215.3,324.1,215,324.2,215.5,324.3 M209.9,324.7c0.5,0.1,1.2,0.1,1.6,0c0.4-0.1,0-0.2-0.9-0.2
		C209.7,324.5,209.4,324.6,209.9,324.7"/>
		<path
			id="path2"
			class="st2"
			d="M179,0.3c-2,0.1-3.8,0.3-4,0.5s-1.6,0.4-3.1,0.4s-2.8,0.2-2.9,0.4S167.8,2,166.6,2
		c-1.2,0-2.2,0.2-2.2,0.4c0,0.2-0.9,0.4-2,0.4c-1.1,0-2.1,0.2-2.2,0.4s-1,0.4-1.8,0.4c-0.9,0-1.6,0.2-1.6,0.4c0,0.2-0.8,0.4-1.8,0.4
		s-1.9,0.2-2,0.4c-0.1,0.2-0.9,0.4-1.6,0.4c-0.7,0-1.5,0.2-1.6,0.4C149.7,5.8,149,6,148.4,6c-0.6,0-1.3,0.2-1.4,0.4
		c-0.1,0.2-0.8,0.4-1.4,0.4c-0.6,0-1.3,0.2-1.4,0.4c-0.1,0.2-0.8,0.4-1.4,0.4s-1.3,0.2-1.4,0.4c-0.1,0.2-0.8,0.4-1.4,0.4
		s-1.2,0.2-1.2,0.4s-0.5,0.4-1.2,0.4c-0.7,0-1.2,0.2-1.2,0.3c0,0.2-0.8,0.5-1.8,0.6s-2.1,0.4-2.5,0.6c-1.1,0.6-2.6,1.1-4.2,1.7
		c-0.8,0.3-1.5,0.7-1.5,0.8c0,0.2-0.5,0.3-1.2,0.3c-0.7,0-1.2,0.1-1.2,0.3c0,0.2-0.9,0.6-2,0.9s-2,0.7-2,0.9c0,0.2-0.4,0.3-0.8,0.3
		c-0.4,0-0.8,0.2-0.8,0.4c0,0.2-0.4,0.4-0.8,0.4c-0.4,0-0.8,0.2-0.8,0.4c0,0.2-0.4,0.4-0.8,0.4s-0.8,0.2-0.8,0.4s-0.3,0.4-0.7,0.4
		c-0.9,0-2.9,0.9-2.9,1.3c0,0.2-0.4,0.3-0.8,0.3c-0.4,0-0.8,0.2-0.8,0.4c0,0.2-0.3,0.4-0.8,0.4c-0.4,0-0.8,0.1-0.9,0.3
		c-0.1,0.3-2.2,1.5-4.6,2.7c-0.5,0.2-0.9,0.6-0.9,0.7s-0.4,0.3-0.8,0.3s-0.8,0.2-0.8,0.4c0,0.2-0.3,0.4-0.7,0.4
		c-0.4,0-0.9,0.3-1.3,0.7c-0.4,0.4-1.2,0.9-1.9,1c-0.7,0.2-1.6,0.6-2,1.1c-0.4,0.4-0.9,0.8-1.2,0.8s-0.5,0.2-0.5,0.4
		c0,0.2-0.2,0.4-0.5,0.4c-0.3,0-0.9,0.4-1.4,0.8c-0.5,0.4-1.1,0.8-1.3,0.8c-0.3,0-0.8,0.3-1.1,0.7c-0.4,0.4-1.1,1-1.7,1.3
		c-0.6,0.3-1.1,0.7-1.1,0.9c0,0.2-0.2,0.3-0.5,0.3c-0.3,0-1.1,0.5-1.9,1.2s-1.6,1.2-1.8,1.2c-0.2,0-0.7,0.4-1,0.8
		c-0.3,0.4-0.8,0.8-1,0.8c-0.2,0-1.2,0.7-2.2,1.6c-1,0.9-2.1,1.9-2.6,2.4c-0.5,0.4-1.4,1-2,1.4c-0.6,0.3-2.1,1.5-3.2,2.5
		c-1.1,1.1-2.6,2.4-3.4,2.9c-0.8,0.5-2.5,2.2-4,3.7c-2.6,2.7-3.9,4-10.2,10.3c-1.9,1.8-3.4,3.5-3.4,3.7c0,0.2-1,1.4-2.2,2.7
		c-1.2,1.3-2.5,2.9-2.8,3.5c-0.3,0.6-1,1.5-1.4,2c-0.4,0.5-1.5,1.6-2.4,2.6c-0.9,1-1.6,2-1.6,2.2c0,0.2-0.4,0.7-0.8,1
		c-0.4,0.3-0.8,0.8-0.8,1c0,0.2-0.5,1-1.2,1.8s-1.2,1.6-1.2,1.9c0,0.3-0.2,0.5-0.3,0.5c-0.2,0-0.6,0.5-0.9,1.1
		c-0.3,0.6-0.9,1.4-1.3,1.7c-0.4,0.4-0.7,0.9-0.7,1.1c0,0.3-0.4,0.9-0.8,1.3c-0.4,0.5-0.8,1.1-0.8,1.4c0,0.3-0.2,0.5-0.4,0.5
		c-0.2,0-0.4,0.2-0.4,0.5s-0.4,0.9-0.8,1.2c-0.4,0.4-0.9,1.3-1.1,2c-0.2,0.7-0.6,1.5-1,1.9c-0.4,0.4-0.7,0.9-0.7,1.3
		c0,0.4-0.2,0.7-0.4,0.7c-0.2,0-0.4,0.4-0.4,0.8s-0.1,0.8-0.3,0.8s-0.5,0.4-0.7,0.9c-1.2,2.4-2.4,4.5-2.7,4.6
		c-0.2,0.1-0.3,0.5-0.3,0.9c0,0.4-0.2,0.8-0.4,0.8c-0.2,0-0.4,0.4-0.4,0.8c0,0.4-0.1,0.8-0.3,0.8c-0.4,0-1.3,2-1.3,2.9
		c0,0.4-0.2,0.7-0.4,0.7s-0.4,0.4-0.4,0.8s-0.2,0.8-0.4,0.8c-0.2,0-0.4,0.4-0.4,0.8c0,0.4-0.2,0.8-0.4,0.8c-0.2,0-0.4,0.4-0.4,0.8
		c0,0.4-0.1,0.8-0.3,0.8c-0.2,0-0.6,0.9-0.9,2s-0.7,2-0.9,2c-0.2,0-0.3,0.5-0.3,1.2c0,0.7-0.1,1.2-0.3,1.2c-0.2,0-0.5,0.7-0.8,1.5
		c-0.6,1.7-1.2,3.1-1.7,4.2c-0.2,0.4-0.5,1.5-0.6,2.5s-0.4,1.8-0.6,1.8c-0.2,0-0.3,0.5-0.3,1.2c0,0.7-0.2,1.2-0.4,1.2
		s-0.4,0.5-0.4,1.2s-0.2,1.3-0.4,1.4c-0.2,0.1-0.4,0.8-0.4,1.4s-0.2,1.3-0.4,1.4c-0.2,0.1-0.4,0.8-0.4,1.4c0,0.6-0.2,1.3-0.4,1.4
		c-0.2,0.1-0.4,0.8-0.4,1.4c0,0.6-0.2,1.3-0.4,1.4c-0.2,0.1-0.4,0.9-0.4,1.6c0,0.7-0.2,1.5-0.4,1.6c-0.2,0.1-0.4,1-0.4,2
		s-0.2,1.8-0.4,1.8c-0.2,0-0.4,0.7-0.4,1.6c0,0.9-0.2,1.7-0.4,1.8s-0.4,1.1-0.4,2.2c0,1.1-0.2,2-0.4,2c-0.2,0-0.4,1-0.4,2.2
		c0,1.2-0.2,2.3-0.4,2.4s-0.4,1.5-0.4,2.9c0,1.6-0.2,2.9-0.5,3.2c-0.7,0.7-0.9,37.5-0.3,44.7c0.2,2.9,0.5,6.5,0.7,8
		c0.1,1.5,0.4,3,0.6,3.2s0.4,1.3,0.4,2.5s0.2,2.1,0.4,2.1c0.2,0,0.4,1,0.4,2.2c0,1.2,0.2,2.2,0.4,2.2s0.4,0.7,0.4,1.6
		c0,0.9,0.2,1.6,0.4,1.6c0.2,0,0.4,0.8,0.4,1.8s0.2,1.9,0.4,2c0.2,0.1,0.4,1,0.4,1.8c0,0.9,0.2,1.6,0.4,1.6c0.2,0,0.4,0.5,0.4,1.2
		s0.2,1.3,0.4,1.4c0.2,0.1,0.4,0.9,0.4,1.6c0,0.8,0.2,1.4,0.4,1.4c0.2,0,0.4,0.5,0.4,1.2s0.2,1.3,0.4,1.4c0.2,0.1,0.4,0.8,0.4,1.4
		c0,0.6,0.2,1.2,0.4,1.2s0.4,0.5,0.4,1.2s0.2,1.2,0.3,1.2c0.2,0,0.5,0.8,0.6,1.8s0.6,2.6,1.1,3.5s0.8,1.9,0.8,2.1s0.4,1.2,0.8,2.1
		c0.4,0.9,0.8,1.9,0.8,2.3c0,0.3,0.1,0.6,0.3,0.6c0.2,0,0.6,0.9,0.9,2s0.7,2,0.9,2c0.2,0,0.3,0.4,0.3,0.8s0.2,0.8,0.4,0.8
		c0.2,0,0.4,0.4,0.4,0.8s0.2,0.8,0.4,0.8c0.2,0,0.4,0.4,0.4,0.8s0.1,0.8,0.3,0.8c0.2,0,0.5,0.8,0.8,1.7c0.3,0.9,0.9,2.2,1.3,2.8
		c0.4,0.6,0.8,1.4,0.8,1.7c0,0.4,0.2,0.6,0.4,0.6c0.2,0,0.4,0.3,0.4,0.8c0,0.4,0.1,0.8,0.3,0.9c0.4,0.2,1.7,2.3,2,3.2
		c0.1,0.4,0.4,0.7,0.6,0.7c0.2,0,0.4,0.4,0.4,0.8s0.2,0.8,0.4,0.8c0.2,0,0.4,0.3,0.4,0.7c0,0.4,0.4,1,0.8,1.3
		c0.4,0.3,0.8,0.8,0.8,1.1c0,0.8,1.1,3,1.9,3.9c0.4,0.4,0.9,1.2,1.2,1.9c0.3,0.6,0.7,1.1,0.9,1.1c0.2,0,0.3,0.3,0.3,0.7
		c0,0.4,0.4,1,0.8,1.3c0.4,0.3,0.8,0.9,0.8,1.2s0.4,0.9,0.8,1.2c0.4,0.3,0.8,0.8,0.8,1c0,0.2,0.5,1,1.2,1.8s1.2,1.6,1.2,1.8
		c0,0.2,0.4,0.7,0.8,1c0.4,0.3,0.8,0.8,0.8,1c0,0.2,0.6,1.1,1.3,1.9c2.1,2.4,3.4,4,4.5,5.6c0.5,0.8,1.8,2.3,2.8,3.3
		c1,1,1.8,2,1.8,2.2c0,0.2,1.9,2.2,4.2,4.5s4.8,4.7,5.5,5.5c6.6,6.7,8.5,8.5,8.8,8.5c0.2,0,1.3,1,2.6,2.2c1.2,1.2,2.4,2.2,2.5,2.2
		s1,0.6,1.8,1.4c0.8,0.8,1.7,1.4,1.8,1.4s1,0.6,1.8,1.4c0.8,0.8,1.8,1.4,2.1,1.4s0.5,0.1,0.5,0.3c0,0.2,0.5,0.6,1.1,1
		c0.6,0.4,1.6,1.1,2.3,1.7c0.7,0.6,1.4,1,1.6,1c0.2,0,0.7,0.4,1,0.8c0.3,0.4,0.9,0.8,1.2,0.8s0.9,0.4,1.2,0.8
		c0.3,0.4,0.9,0.8,1.3,0.8c0.4,0,0.7,0.1,0.7,0.3c0,0.2,0.5,0.6,1.1,0.9c0.6,0.3,1.4,0.9,1.8,1.2c0.4,0.4,1.6,1.1,2.6,1.6
		c1,0.5,2,1.1,2.1,1.2c0.4,0.4,2.7,1.6,3.3,1.6c0.3,0,0.6,0.1,0.7,0.3c0.2,0.4,2.3,1.7,3.2,2c0.4,0.1,0.7,0.4,0.7,0.6
		c0,0.2,0.4,0.4,0.8,0.4c0.4,0,0.8,0.2,0.8,0.4s0.4,0.4,0.8,0.4c0.4,0,0.8,0.2,0.8,0.4s0.4,0.4,0.8,0.4c0.4,0,0.8,0.1,0.8,0.3
		c0,0.4,2,1.3,2.9,1.3c0.4,0,0.7,0.2,0.7,0.4s0.4,0.4,0.8,0.4s0.8,0.2,0.8,0.4s0.4,0.4,0.8,0.4c0.4,0,0.8,0.2,0.8,0.4
		s0.4,0.4,0.8,0.4c0.4,0,0.8,0.2,0.8,0.4s0.3,0.4,0.8,0.4s0.9,0.2,1,0.4c0.1,0.2,0.7,0.4,1.2,0.4c0.5,0,1,0.2,1,0.4
		c0,0.2,0.4,0.4,0.9,0.6c1.2,0.3,4.8,1.6,5.1,1.9c0.4,0.4,9.4,3.2,10.3,3.2c0.5,0,1,0.2,1.1,0.4c0.1,0.2,0.8,0.4,1.4,0.4
		s1.3,0.2,1.4,0.4s0.8,0.4,1.4,0.4c0.6,0,1.3,0.2,1.4,0.4s0.8,0.4,1.4,0.4s1.2,0.2,1.2,0.4s0.7,0.4,1.6,0.4c0.9,0,1.7,0.2,1.8,0.4
		s1,0.4,2,0.4s1.8,0.2,1.8,0.4s0.7,0.4,1.6,0.4c0.9,0,1.6,0.2,1.6,0.4s1,0.4,2.2,0.4c1.2,0,2.2,0.2,2.2,0.4s1,0.4,2.2,0.4
		c1.2,0,2.3,0.2,2.4,0.4s1.5,0.4,2.9,0.4c1.6,0,2.9,0.2,3.2,0.5c0.4,0.4,5.9,0.5,24.9,0.5s24.5-0.1,24.9-0.5
		c0.3-0.3,1.6-0.5,3.2-0.5c1.5,0,2.8-0.2,2.9-0.4s1.1-0.4,2.2-0.4c1.1,0,2.1-0.2,2.2-0.4c0.1-0.2,1.2-0.4,2.4-0.4
		c1.2,0,2.2-0.2,2.2-0.4s0.7-0.4,1.6-0.4c0.9,0,1.6-0.2,1.6-0.4s0.8-0.4,1.8-0.4s1.9-0.2,2-0.4s1-0.4,1.8-0.4c0.9,0,1.6-0.2,1.6-0.4
		s0.5-0.4,1.2-0.4s1.3-0.2,1.4-0.4s0.9-0.4,1.6-0.4c0.8,0,1.4-0.2,1.4-0.4s0.6-0.4,1.4-0.4c0.8,0,1.4-0.2,1.4-0.4s0.4-0.4,1-0.4
		c0.9,0,3.9-0.8,5.6-1.6c0.4-0.2,1.7-0.6,2.7-0.9c1-0.3,1.9-0.7,1.9-0.8s0.4-0.3,0.8-0.3s1.2-0.2,1.6-0.4s1.2-0.6,1.6-0.8
		c0.4-0.2,1.1-0.4,1.4-0.4c0.3,0,0.6-0.2,0.6-0.4s0.4-0.4,0.8-0.4c0.4,0,1.4-0.4,2.2-0.8s1.7-0.8,2-0.8s0.6-0.2,0.6-0.4
		s0.4-0.4,0.8-0.4s0.8-0.2,0.8-0.4s0.4-0.4,0.8-0.4s0.8-0.2,0.8-0.4s0.3-0.4,0.8-0.4c0.8,0,4.1-1.6,4.4-2.1c0.1-0.2,0.5-0.3,0.9-0.3
		c0.4,0,0.8-0.2,0.8-0.4s0.3-0.4,0.8-0.4c0.4,0,0.8-0.1,0.9-0.3c0.2-0.4,2.3-1.7,3.2-2c0.4-0.1,0.7-0.4,0.7-0.6
		c0-0.2,0.3-0.4,0.6-0.4c0.6,0,3-1.1,3.4-1.6c0.1-0.1,0.7-0.5,1.4-0.8c1.7-0.8,6-3.7,6.1-4.1c0.1-0.2,0.4-0.3,0.8-0.3
		c0.4,0,0.9-0.4,1.3-0.8c0.3-0.4,0.9-0.8,1.2-0.8s0.9-0.4,1.2-0.8c0.3-0.4,0.8-0.8,1-0.8c0.2,0,1-0.5,1.8-1.2s1.6-1.2,1.8-1.2
		c0.2,0,0.7-0.4,1-0.8c0.3-0.4,0.8-0.8,1-0.8c0.2,0,1.2-0.7,2.2-1.6s1.9-1.6,2-1.6c0.1,0,0.9-0.5,1.6-1.2c0.7-0.7,1.4-1.2,1.6-1.2
		c0.2,0,1.3-1,2.5-2.2c1.2-1.2,2.4-2.2,2.6-2.2c0.2,0,2.3-2,4.7-4.4c5.2-5.3,4.4-4.5,9.7-9.7c2.4-2.4,4.4-4.5,4.4-4.7
		c0-0.2,1-1.4,2.2-2.6c1.2-1.2,2.2-2.4,2.2-2.5c0-0.2,0.5-0.9,1.2-1.6c0.7-0.7,1.2-1.4,1.2-1.6c0-0.2,0.7-1.1,1.6-2s1.6-2,1.6-2.2
		c0-0.2,0.4-0.7,0.8-1c0.4-0.3,0.8-0.8,0.8-1c0-0.2,0.5-1,1.2-1.8s1.2-1.6,1.2-1.8c0-0.2,0.4-0.7,0.8-1c0.4-0.3,0.8-0.9,0.8-1.2
		s0.4-0.9,0.8-1.2c0.4-0.3,0.8-0.9,0.8-1.3c0-0.4,0.1-0.7,0.3-0.8c0.4-0.2,3.3-4.5,4.1-6.1c0.3-0.7,0.7-1.3,0.8-1.4
		c0.4-0.4,1.6-2.8,1.6-3.3c0-0.3,0.1-0.6,0.3-0.7c0.4-0.2,1.7-2.3,2-3.2c0.1-0.4,0.4-0.7,0.6-0.7c0.2,0,0.4-0.4,0.4-0.8
		s0.2-0.8,0.4-0.8s0.4-0.3,0.4-0.8c0-0.4,0.1-0.8,0.3-0.9c0.5-0.2,2.1-3.6,2.1-4.4c0-0.4,0.2-0.8,0.4-0.8s0.4-0.4,0.4-0.8
		s0.2-0.8,0.4-0.8s0.4-0.4,0.4-0.8s0.2-0.8,0.4-0.8s0.4-0.3,0.4-0.6s0.4-1.2,0.8-2s0.8-1.8,0.8-2.2c0-0.4,0.2-0.8,0.4-0.8
		s0.4-0.3,0.4-0.6c0-0.3,0.2-1,0.4-1.4c0.2-0.4,0.6-1.2,0.8-1.6s0.4-1.2,0.4-1.6s0.1-0.8,0.3-0.8s0.5-0.9,0.8-1.9
		c0.3-1,0.7-2.3,0.9-2.7c0.8-1.8,1.6-4.7,1.6-5.6c0-0.5,0.2-1,0.4-1s0.4-0.6,0.4-1.4c0-0.8,0.2-1.4,0.4-1.4s0.4-0.6,0.4-1.4
		c0-0.8,0.2-1.5,0.4-1.6s0.4-0.8,0.4-1.4s0.2-1.2,0.4-1.2s0.4-0.7,0.4-1.6c0-0.9,0.2-1.7,0.4-1.8s0.4-1,0.4-2s0.2-1.8,0.4-1.8
		s0.4-0.7,0.4-1.6c0-0.9,0.2-1.6,0.4-1.6s0.4-1,0.4-2.2c0-1.2,0.2-2.3,0.4-2.4c0.2-0.1,0.4-1.1,0.4-2.2c0-1.1,0.2-2.1,0.4-2.2
		s0.4-1.5,0.4-2.9c0-1.6,0.2-2.9,0.5-3.2c0.7-0.7,0.7-48.9,0-49.2c-0.3-0.1-0.5-1.2-0.5-3.3c0-1.7-0.2-3.2-0.4-3.2
		c-0.2,0-0.5-0.9-0.6-2.1c-0.5-4.6-0.7-6.1-1.1-6.5c-0.2-0.2-0.4-1.2-0.4-2.1s-0.2-1.7-0.4-1.7s-0.4-0.7-0.4-1.6
		c0-0.9-0.2-1.6-0.4-1.6s-0.4-0.8-0.4-1.8c0-1-0.2-1.8-0.4-1.8s-0.4-0.6-0.4-1.4c0-0.8-0.2-1.4-0.4-1.4s-0.4-0.6-0.4-1.4
		s-0.2-1.4-0.4-1.4s-0.4-0.5-0.4-1.2s-0.2-1.2-0.3-1.2s-0.4-1-0.6-2.3s-0.4-2.4-0.7-2.7s-0.4-0.8-0.4-1.3s-0.2-1-0.4-1.1
		c-0.2-0.1-0.4-0.7-0.4-1.2c0-0.5-0.2-1-0.4-1s-0.4-0.4-0.4-0.8c0-0.4-0.2-1.2-0.4-1.6c-0.2-0.4-0.6-1.2-0.8-1.6s-0.4-1.1-0.4-1.4
		s-0.2-0.6-0.4-0.6s-0.4-0.5-0.4-1.2c0-0.7-0.2-1.2-0.4-1.2s-0.4-0.4-0.4-0.8c0-0.4-0.2-0.8-0.4-0.8s-0.4-0.4-0.4-1
		c0-0.5-0.2-1.1-0.4-1.2c-0.2-0.1-0.4-0.6-0.4-1c0-0.4-0.2-0.8-0.4-0.8s-0.4-0.4-0.4-0.8c0-0.4-0.2-0.8-0.4-0.8s-0.4-0.4-0.4-0.8
		s-0.2-0.8-0.4-0.8s-0.4-0.4-0.4-0.8c0-0.4-0.2-0.8-0.4-0.8s-0.4-0.4-0.4-1c0-0.5-0.1-1-0.3-1.1c-0.4-0.2-1.7-2.3-2-3.2
		c-0.1-0.4-0.4-0.7-0.6-0.7c-0.2,0-0.4-0.4-0.4-0.8c0-0.4-0.2-0.8-0.4-0.8s-0.4-0.4-0.4-0.8c0-0.4-0.2-0.8-0.4-0.8s-0.4-0.4-0.4-0.8
		c0-0.4-0.2-0.8-0.4-0.8s-0.4-0.3-0.4-0.7s-0.5-1.4-1-2.2c-0.6-0.8-1-1.6-1-1.7s-0.5-1-1.2-2s-1.2-1.9-1.2-2.1
		c0-0.2-0.4-0.6-0.8-0.9c-0.4-0.3-0.8-0.9-0.8-1.3c0-0.4-0.2-0.7-0.4-0.7c-0.2,0-0.6-0.5-0.8-1.2s-0.7-1.2-0.8-1.2
		c-0.2,0-0.4-0.2-0.4-0.5c0-0.3-0.5-1.1-1.2-1.8c-0.7-0.7-1.2-1.5-1.2-1.8c0-0.3-0.4-0.8-0.8-1.1s-0.8-0.8-0.8-1c0-0.2-0.5-1-1-1.6
		s-1.3-1.7-1.7-2.3c-0.4-0.6-0.8-1.1-1-1.1s-0.6-0.5-0.9-1.1c-0.3-0.6-1.2-1.8-2-2.7c-0.8-0.9-1.4-1.7-1.4-1.8s-1-1.4-2.3-2.7
		c-2.7-2.8-3.7-4-3.7-4.3c0-0.1-1.1-1.3-2.5-2.6c-3-2.9-3.8-3.6-7.8-7.8c-1.7-1.8-3.7-3.7-4.5-4.2c-0.8-0.5-2.2-1.8-3.1-2.7
		c-0.9-0.9-2.2-2-2.8-2.4c-1.4-0.9-1.9-1.3-3.1-2.4c-0.5-0.5-1.1-0.9-1.2-0.9c-0.1,0-0.8-0.5-1.4-1.2s-1.3-1.2-1.5-1.2
		c-0.2,0-1-0.5-1.7-1.2c-0.8-0.7-1.6-1.2-1.8-1.2c-0.2,0-0.7-0.4-1-0.8c-0.3-0.4-0.8-0.8-1.1-0.8c-0.3,0-1.1-0.5-1.8-1.2
		c-0.7-0.7-1.5-1.2-1.8-1.2c-0.3,0-0.5-0.2-0.5-0.4c0-0.2-0.5-0.6-1.2-0.8c-0.7-0.3-1.2-0.7-1.2-0.8c0-0.2-0.2-0.4-0.4-0.4
		c-0.2,0-1.6-0.8-3.1-1.8c-1.5-1-3-1.8-3.4-1.8c-0.4,0-0.7-0.2-0.7-0.4c0-0.2-0.3-0.4-0.6-0.4c-0.3,0-0.6-0.2-0.6-0.4
		s-0.3-0.4-0.6-0.4c-0.3,0-0.6-0.2-0.6-0.4c0-0.2-0.4-0.4-0.8-0.4s-0.8-0.2-0.8-0.4c0-0.2-0.4-0.4-0.8-0.4s-0.8-0.2-0.8-0.4
		c0-0.2-0.4-0.4-0.8-0.4S294,23,294,22.8c0-0.2-0.4-0.4-0.8-0.4s-0.8-0.2-0.8-0.4s-0.3-0.4-0.6-0.4c-0.3,0-0.6-0.1-0.7-0.3
		c-0.2-0.4-3.5-2.1-4.2-2.1c-0.3,0-0.6-0.2-0.6-0.4c0-0.2-0.4-0.4-0.8-0.4s-0.8-0.2-0.8-0.4s-0.4-0.4-0.8-0.4s-0.8-0.2-0.8-0.4
		c0-0.2-0.4-0.4-0.8-0.4s-0.8-0.2-0.8-0.4c0-0.2-0.3-0.4-0.8-0.4s-0.9-0.2-1-0.4c-0.1-0.2-0.7-0.4-1.2-0.4c-0.5,0-1-0.2-1-0.4
		s-0.4-0.4-0.8-0.4S276,14.2,276,14s-0.3-0.4-0.7-0.4c-0.4,0-1.5-0.4-2.4-0.8c-0.9-0.4-1.9-0.8-2.3-0.8s-0.7-0.2-0.8-0.4
		c-0.1-0.2-0.7-0.4-1.2-0.4c-0.5,0-1-0.2-1-0.4c0-0.2-0.9-0.5-2-0.6c-1.1-0.2-2.1-0.4-2.2-0.6c-0.1-0.2-0.7-0.4-1.2-0.4
		c-0.5,0-1-0.2-1-0.4s-0.6-0.4-1.4-0.4c-0.8,0-1.4-0.2-1.4-0.4c0-0.2-0.5-0.4-1.2-0.4s-1.3-0.2-1.4-0.4c-0.1-0.2-0.9-0.4-1.6-0.4
		c-0.8,0-1.4-0.2-1.4-0.4c0-0.2-0.6-0.4-1.4-0.4c-0.8,0-1.4-0.2-1.4-0.4c0-0.2-0.8-0.4-1.8-0.4c-1,0-1.8-0.2-1.8-0.4
		c0-0.2-0.7-0.4-1.6-0.4c-0.9,0-1.6-0.2-1.6-0.4c0-0.2-0.8-0.4-1.8-0.4c-1,0-1.8-0.2-1.8-0.4s-0.9-0.4-2-0.4c-1.1,0-2.1-0.2-2.2-0.4
		C235.3,2.2,234.2,2,233,2c-1.2,0-2.2-0.2-2.2-0.4c0-0.2-1.2-0.4-2.9-0.4c-1.8,0-3.1-0.2-3.4-0.5C224,0.2,188-0.1,179,0.3
		 M216.6,74.4c0.2,0.2,0.9,0.4,1.5,0.4s1.2,0.2,1.3,0.4c0.1,0.2,0.8,0.4,1.4,0.4c0.6,0,1.2,0.2,1.2,0.4s0.3,0.4,0.7,0.4
		c1.1,0,8.3,3.8,10.8,5.7c2.9,2.2,98.2,97.2,101,100.7c3,3.7,5.4,8.5,5.4,10.7c0,0.5,0.2,1,0.4,1.1c0.2,0.1,0.4,2.4,0.4,5.4
		s-0.2,5.3-0.4,5.4c-0.2,0.1-0.4,0.6-0.4,1.1c0,1.1-0.8,3.4-1.6,4.7c-0.4,0.5-0.8,1.4-0.9,1.9c-0.2,0.5-1.1,1.9-2.2,3.2
		c-4,4.8-99,99.6-101.4,101.2c-3.3,2.2-9.6,5.3-10.8,5.3c-0.5,0-1.1,0.2-1.2,0.4s-0.8,0.4-1.4,0.4c-0.6,0-1.2,0.2-1.4,0.3
		c-0.7,1.1-14.2,1.2-16.8,0.1c-0.4-0.2-1.2-0.4-1.8-0.5c-6.2-1.3-14.5-6.1-19-11.2c-2.1-2.3-5-6.4-5-7c0-0.2-0.1-0.4-0.3-0.5
		c-0.5-0.2-2.2-4-3.3-7.1c-0.3-0.8-0.6-1.8-0.8-2.2c-0.9-2.2-1.3-15-0.5-18.2c0.2-1,0.6-2.3,0.7-3c0.1-0.7,0.6-1.9,1-2.8
		c1.7-3.8,3.4-7.2,3.7-7.3c0.2-0.1,0.3-0.3,0.3-0.6c0-0.8,2.1-3.2,10.2-11.4l8-8.1l-52.8-0.1c-50.3-0.1-56.3-0.3-57.2-1.1
		c-0.2-0.2-0.9-0.4-1.5-0.4s-1.2-0.2-1.3-0.4s-0.6-0.4-1-0.4s-1.1-0.2-1.5-0.4c-0.4-0.2-2-1-3.5-1.7c-5.8-2.7-13.8-9.2-16-13.1
		c-0.4-0.7-0.9-1.3-1.1-1.3c-0.2,0-0.3-0.2-0.3-0.4s-0.5-1.2-1.1-2.1c-1-1.5-2.4-4.2-3.3-6.5c-0.5-1.3-1.9-5.9-2.4-8.1
		c-0.6-2.7-0.6-13.9,0-16.2c0.3-1,0.6-2.5,0.9-3.3c0.2-0.9,0.6-1.9,0.8-2.3c0.2-0.4,0.4-0.9,0.4-1.2c0-0.3,0.7-1.9,1.6-3.7
		c0.9-1.8,1.8-3.6,2.1-4.1c0.3-0.5,0.6-0.9,0.8-0.9c0.2,0,0.3-0.2,0.3-0.5c0-1.8,9.6-11.1,13.6-13.2c0.6-0.3,1.1-0.6,1.2-0.7
		c0.2-0.2,3.7-1.9,5.2-2.5c0.6-0.2,1.3-0.6,1.7-0.8c0.4-0.2,1-0.4,1.5-0.4s0.9-0.2,1-0.4c0.1-0.2,0.9-0.5,1.7-0.6
		c0.8-0.1,2.6-0.5,3.9-0.7c1.6-0.3,18.9-0.5,54.2-0.6l51.8-0.2l-8.6-8.7c-4.8-4.8-9-9.3-9.4-10c-0.4-0.7-0.9-1.3-1.1-1.3
		c-0.2,0-0.3-0.3-0.3-0.6c0-0.3-0.1-0.6-0.3-0.7c-0.3-0.1-3.5-6.6-4.1-8.1c-0.2-0.4-0.5-1.6-0.8-2.6c-0.3-1-0.7-2.3-0.9-2.9
		c-0.5-1.5-0.6-14.2,0-15.7c0.2-0.6,0.6-2,0.9-3c1-3.7,2.1-6.4,2.5-6.4c0.2,0,0.3-0.4,0.3-0.8c0-0.4,0.1-0.8,0.3-0.8s0.6-0.7,1-1.5
		c0.4-0.9,0.9-1.8,1.2-2.1c0.3-0.3,1-1.2,1.5-2c1.5-2.2,3.2-4,5.6-5.9c1.2-1,2.4-2,2.7-2.2c1-0.8,8.2-4.3,8.9-4.3
		c0.4,0,0.8-0.2,1-0.4c0.1-0.2,0.7-0.4,1.2-0.4c0.5,0,1.1-0.2,1.2-0.4C198.5,74,215.4,73.3,216.6,74.4"/>
		<path
			id="path3"
			class="st3"
			d="M200.8,74.4c-0.3,0.2,0.2,0.3,1.4,0.1c1.1-0.1,2-0.3,2.1-0.4C204.7,73.8,201.4,74,200.8,74.4
		 M212.8,74.1c0.4,0.3,3.9,0.5,3.7,0.2c-0.1-0.2-1-0.3-2.1-0.3C213.5,74,212.7,74.1,212.8,74.1 M186.2,80.2
		c-0.4,0.3-0.7,0.7-0.6,0.8c0.1,0.1,0.6-0.2,1.2-0.6c0.5-0.4,0.8-0.8,0.6-0.8S186.7,79.9,186.2,80.2 M231.2,80.5
		c0,0.1,0.7,0.7,1.5,1.3c0.8,0.6,1.3,0.9,1.2,0.7C233.5,82,231.2,80.2,231.2,80.5 M182.5,83.1c-1.3,1.1-2.7,2.4-3.1,2.9
		c-0.4,0.5,0.1,0.1,1.2-0.8c1.1-1,2.6-2.3,3.4-2.9c0.8-0.6,1.3-1.1,1.1-1.1C185,81.2,183.8,82.1,182.5,83.1 M235.6,84.2
		c0.7,0.8,1.4,1.4,1.6,1.4s-0.4-0.6-1.2-1.4c-0.7-0.8-1.4-1.4-1.6-1.4S234.9,83.4,235.6,84.2 M248,96.2c0,0.4,8,8.4,8.2,8.2
		c0.1-0.1-1.7-2-4-4.3C249.9,97.7,248,96,248,96.2 M170.2,102.6c-0.1,0.4-0.2,1-0.2,1.3c0,0.4,0.2,0.1,0.4-0.5
		C170.8,102.2,170.7,101.5,170.2,102.6 M169.4,105.4c-0.1,0.4-0.2,1.5-0.2,2.5c0.1,1.8,0.1,1.8,0.3-0.5
		C169.9,104.8,169.8,104.4,169.4,105.4 M268.4,116.8c3.5,3.5,6.5,6.4,6.7,6.4c0.2,0-2.6-2.9-6.1-6.4c-3.5-3.5-6.5-6.4-6.7-6.4
		C262.1,110.4,264.9,113.3,268.4,116.8 M169.2,118.6c0,1.1,0.1,2.2,0.3,2.5c0.2,0.3,0.3-0.4,0.2-1.6
		C169.5,116.6,169.3,116.2,169.2,118.6 M170,122.6c0,0.4,0.2,1,0.4,1.4c0.3,0.4,0.3,0.3,0.1-0.6C170.2,121.9,170,121.6,170,122.6
		 M279.2,127.3c0,0.2,12.2,12.5,27.1,27.4c14.9,14.9,27.9,28,28.8,29.1c1.7,2,1.7,2,0.4,0.2C334.2,182.1,279.2,126.8,279.2,127.3
		 M171.6,127.8c0,0.4,1.2,2.6,1.4,2.6c0.1,0-0.1-0.6-0.5-1.3C171.8,127.6,171.6,127.3,171.6,127.8 M178,138.6c0.5,0.7,1,1.3,1.1,1.4
		c0.1,0.1,0.2,0.1,0.3,0c0.1-0.1-0.4-0.7-1.1-1.4l-1.3-1.2L178,138.6 M187,148c2.4,2.4,4.5,4.4,4.6,4.4s-1.8-2-4.2-4.4
		c-2.4-2.4-4.5-4.4-4.6-4.4S184.6,145.6,187,148 M92,156.4c-1.3,0.2,78.8,0.2,95.8-0.1c4.2-0.1-15.4-0.1-43.4-0.1
		C116.3,156.1,92.8,156.2,92,156.4 M86.4,157.2c-0.4,0.3-0.2,0.3,0.8,0.1c1.7-0.3,2.1-0.5,0.8-0.5C87.4,156.8,86.7,157,86.4,157.2
		 M64.6,169.3c-1.5,1.6-3.1,3.3-3.4,3.7c-0.5,0.7-0.5,0.7,0,0.2c2-2,6.5-6.8,6.3-6.8C67.5,166.4,66.1,167.7,64.6,169.3 M53,189
		c-0.1,0.4-0.2,1-0.2,1.5c0,0.5,0.2,0.4,0.4-0.5C53.6,188.5,53.5,187.9,53,189 M52.3,192.5c-0.1,0.5-0.2,1.7-0.2,2.7
		c0,1.6,0.1,1.5,0.3-0.8C52.7,191.7,52.7,190.9,52.3,192.5 M340.4,195.9c0.2,1.4,0.2,1.4,0.4,0.4c0.1-0.6,0-1.3-0.2-1.5
		C340.3,194.6,340.2,195,340.4,195.9 M340.5,203.5c0,0.5-0.2,1.2-0.3,1.6c-0.2,0.6-0.1,0.6,0.2,0.3c0.3-0.2,0.4-1,0.3-1.6
		C340.6,202.9,340.5,202.9,340.5,203.5 M52,205.2c0,1,0.2,2.1,0.4,2.6c0.2,0.5,0.2-0.2,0.1-1.6C52.2,203.3,52,202.8,52,205.2
		 M52.8,210c0,0.5,0.2,1.2,0.4,1.6c0.3,0.4,0.3,0.2,0.1-0.8C53,209.1,52.8,208.7,52.8,210 M336.2,214.5c-0.6,1-0.8,1.5-0.4,1.1
		c0.7-0.5,2-2.8,1.7-2.8C337.4,212.8,336.8,213.6,336.2,214.5 M65.2,231.8c0.7,0.8,1.4,1.4,1.6,1.4c0.1,0-0.4-0.6-1.2-1.4
		s-1.4-1.4-1.6-1.4S64.5,231,65.2,231.8 M317.4,234c-0.4,0.4-0.6,0.8-0.4,0.8c0.4,0,1.6-1.2,1.3-1.4
		C318.2,233.3,317.8,233.6,317.4,234 M89.7,243.7c0.3,0.2,1.5,0.3,2.7,0.3c2.7,0,2.2-0.2-0.9-0.5C90.2,243.4,89.4,243.5,89.7,243.7
		 M187.4,252c-4.4,4.4-7.8,8-7.6,7.9c0.4-0.1,16.1-15.9,15.8-15.9C195.5,244,191.8,247.6,187.4,252 M300.6,250.8
		c-1,1.1-0.6,1.3,0.5,0.1c0.5-0.5,0.8-0.9,0.6-0.9S301,250.4,300.6,250.8 M283.7,267.8c-0.8,0.8-1.3,1.4-1.1,1.4
		c0.2,0,1-0.6,1.7-1.4c0.7-0.8,1.2-1.4,1.1-1.4C285.3,266.4,284.5,267,283.7,267.8 M279.8,271.8c-0.8,0.8-1.4,1.4-1.2,1.4
		c0.2,0,1-0.6,1.7-1.4c0.7-0.8,1.3-1.4,1.2-1.4C281.4,270.4,280.7,271,279.8,271.8 M172.7,272.3c-0.1,0.1-0.3,0.6-0.2,1.1
		c0,0.8,0.1,0.8,0.4-0.1C173.2,272.3,173.1,271.8,172.7,272.3 M171.8,275.4c-0.1,0.4-0.2,1-0.2,1.5c0,0.6,0.1,0.5,0.4-0.5
		C172.5,275.1,172.3,274.3,171.8,275.4 M171,279c-0.3,0.9-0.3,11.1,0.1,11.6c0.2,0.3,0.3-2.4,0.3-5.9s0-6.4-0.1-6.4
		C171.3,278.4,171.2,278.7,171,279 M267.5,284.1c-3,3-5.4,5.5-5.2,5.5c0.4,0,11.1-10.7,10.9-10.9
		C273.1,278.6,270.5,281.1,267.5,284.1 M171.6,293.9c0,0.7,0.2,1.4,0.4,1.5c0.2,0.2,0.3-0.3,0.1-1.1
		C171.8,292.6,171.6,292.4,171.6,293.9 M249.9,301.7c-3.7,3.7-6.6,6.7-6.4,6.7c0.4,0,13.5-13.1,13.3-13.3
		C256.7,295,253.6,298,249.9,301.7 M238.4,313.1c-1.4,1.4-3.8,3.4-5.3,4.4c-2.7,1.8-3.8,2.9-1.4,1.3c3.9-2.5,10.9-8.5,9.7-8.4
		C241.2,310.5,239.8,311.7,238.4,313.1 M182.2,313.2c1.1,1.1,2,2,2.1,2c0.3,0-3.4-3.9-3.7-4C180.4,311.2,181.1,312.1,182.2,313.2
		 M185,315.5c0.1,0.2,1.2,1.1,2.3,1.9c1.1,0.8,1.9,1.3,1.8,1.1c-0.1-0.2-1.2-1.1-2.3-1.9C185.6,315.8,184.8,315.3,185,315.5
		 M189.6,319c0,0.1,0.5,0.5,1.2,0.8c0.7,0.3,1.2,0.5,1.2,0.4c0-0.1-0.5-0.5-1.2-0.8S189.6,318.9,189.6,319 M208,324.8
		c0.6,0.2,1.7,0.3,2.6,0.3c0.9,0,2-0.1,2.6-0.3c0.6-0.2-0.6-0.3-2.6-0.3C208.6,324.6,207.4,324.7,208,324.8"/>
		<path
			id="path4"
			class="st4"
			d="M201.6,74.8l-1.4,0.3l1.6,0c0.9,0,2.1-0.1,2.8-0.3l1.2-0.3l-1.4,0
		C203.6,74.5,202.4,74.6,201.6,74.8 M212.6,74.8c0.7,0.2,1.9,0.3,2.8,0.3l1.6,0l-1.6-0.3c-0.9-0.2-2.1-0.3-2.8-0.3l-1.2,0
		L212.6,74.8 M198.2,75.6l-0.8,0.3l0.8,0c0.4,0,1.1-0.2,1.4-0.4C200.4,75.1,199.4,75.1,198.2,75.6 M217.8,75.6
		c0.1,0.2,0.6,0.4,1.1,0.4c0.8,0,0.8,0,0.1-0.4C217.9,75.1,217.5,75.1,217.8,75.6 M195.6,76.4c-0.8,0.3-0.9,0.3-0.2,0.4
		c0.4,0,1.1-0.1,1.4-0.4C197.5,75.9,197,75.9,195.6,76.4 M220.6,76.4c0.1,0.2,0.6,0.4,1.1,0.4c0.8,0,0.8,0,0.1-0.4
		C220.7,75.9,220.3,75.9,220.6,76.4 M189.3,79.2c-4.9,2.7-13.1,9.9-12.3,10.8c0.1,0.1,0.4-0.1,0.7-0.6c1.5-2.6,8.1-8.1,12.5-10.2
		c2.4-1.2,2.4-1.2,2.2-1.4C192.3,77.7,190.9,78.3,189.3,79.2 M228.2,79.5c0.2,0.2,1.7,1.2,3.2,2.2c1.5,1,3.6,2.6,4.5,3.5
		c0.9,0.9,1.7,1.5,1.7,1.3c0-0.3-1.7-1.9-5.2-4.6C231.1,80.8,227.4,78.7,228.2,79.5 M238.8,87.7c0,0.2,21.1,21.4,46.9,47.2
		s47.7,47.9,48.7,49.1c1.7,2.1,4.3,7,4.4,8.1c0,0.3,0.2,0.8,0.4,1.1c0.3,0.4,0.3,0.3,0.2-0.6c-0.5-2.2-2.7-6.4-4.8-9
		C332.3,180.8,238.8,87.2,238.8,87.7 M171.4,100.4c-0.1,0.5-0.2,0.9-0.1,1.1s0.3-0.2,0.5-0.7c0.1-0.5,0.2-1,0.1-1.1
		S171.6,99.9,171.4,100.4 M170.6,103.2c-0.2,0.5-0.2,1-0.1,1.1c0.1,0.1,0.3-0.2,0.5-0.7s0.2-0.9,0.1-1.1S170.8,102.7,170.6,103.2
		 M169.9,106.3c-0.2,0.7-0.3,1.9-0.2,2.6c0,1.1,0.1,1,0.4-0.5c0.2-1,0.3-2.2,0.2-2.6C170.2,105.3,170.1,105.4,169.9,106.3
		 M169.7,117.6c0,1,0.1,2.2,0.3,2.8l0.3,1l0-1c0-0.6-0.1-1.8-0.3-2.8l-0.3-1.8L169.7,117.6 M170.5,122c0,0.3,0.2,1,0.3,1.4
		c0.2,0.5,0.3,0.6,0.3,0.2c0-0.3-0.2-1-0.3-1.4C170.6,121.7,170.5,121.6,170.5,122 M171.2,125.1c0.1,1,0.7,1.9,0.7,1
		c0-0.5-0.2-1-0.4-1.1S171.2,124.9,171.2,125.1 M174.2,131.9c0.8,1.6,1.6,2.9,1.7,2.8c0.2-0.2-2.1-4.6-2.7-5.3
		C172.9,129.2,173.4,130.3,174.2,131.9 M177.8,137.5c1,1.3,5.4,5.9,9.8,10.3c4.4,4.4,8,8.2,8,8.5c0,0.4-10.7,0.5-52.5,0.6L90.6,157
		l52.7,0.1c36.5,0.1,52.8,0,52.9-0.3c0.1-0.2-3.9-4.6-8.9-9.7c-5-5.1-9.5-9.9-9.9-10.6c-0.4-0.7-0.9-1.3-1.1-1.3
		S176.8,136.2,177.8,137.5 M87.2,157.6l-1,0.3l1,0c0.6,0,1.4-0.1,1.8-0.3l0.8-0.3l-0.8,0C88.6,157.3,87.8,157.4,87.2,157.6
		 M83.6,158.4l-1,0.3l1,0c0.6,0,1.3-0.1,1.6-0.4C86,157.9,85.1,157.9,83.6,158.4 M75.1,161.9c-5.8,3.2-17.6,14.1-15.2,14.1
		c0.2,0,0.7-0.6,1.1-1.3c2.2-3.8,9.9-10.4,14.8-12.7c2.4-1.1,3-1.6,2.3-1.6C77.9,160.4,76.6,161.1,75.1,161.9 M57.9,178.9l-0.7,1.3
		l0.8-1c0.7-0.9,1.1-1.6,0.7-1.6C58.6,177.6,58.2,178.2,57.9,178.9 M54.2,186.8c-0.2,0.5-0.2,0.9-0.1,1.1s0.3-0.2,0.5-0.7
		c0.2-0.5,0.2-0.9,0.1-1.1S54.3,186.3,54.2,186.8 M53.5,189.8c-0.1,0.4-0.3,1-0.2,1.4c0,0.4,0.2,0.3,0.4-0.3
		c0.2-0.5,0.3-1.2,0.2-1.4C53.8,189.2,53.6,189.4,53.5,189.8 M52.7,193.6c-0.2,0.7-0.3,2-0.2,2.8c0,1.2,0.1,1.1,0.4-0.7
		C53.3,193.1,53.1,191.5,52.7,193.6 M339.7,195.4c0,0.9,0.1,2.1,0.3,2.8l0.3,1.2l0-1.2c0-0.7-0.1-1.9-0.3-2.8l-0.3-1.6L339.7,195.4
		 M339.9,201.9c-0.2,0.7-0.3,2-0.3,2.8c0,1.4,0,1.4,0.4-0.4c0.2-1,0.3-2.2,0.3-2.8C340.2,200.7,340.2,200.8,339.9,201.9 M52.4,204
		c0,1,0.2,2.3,0.4,3c0.2,0.8,0.2,0.2,0.1-1.6C52.7,202.2,52.4,201.4,52.4,204 M339,207.5c-1.4,5.8-1.7,6.1-53.4,57.9
		c-26,26.1-47.8,47.9-48.3,48.5c-0.5,0.6,20.7-20.4,47.1-46.8c47.2-47.1,50.9-50.9,53-54.7c1.2-2.1,2.4-5.5,2.1-5.8
		C339.3,206.4,339.1,206.8,339,207.5 M53.2,209.4c0,0.4,0.2,1.1,0.4,1.4c0.5,0.8,0.5-0.2,0-1.4l-0.3-0.8L53.2,209.4 M54.8,214.8
		c0,0.3,0.2,0.9,0.4,1.2c0.3,0.5,0.4,0.5,0.4,0c0-0.3-0.2-0.9-0.4-1.2C54.9,214.3,54.8,214.3,54.8,214.8 M56.4,218.6
		c0,0.5,1.3,2.6,1.4,2.5c0.2-0.2-1-2.7-1.3-2.7C56.5,218.4,56.4,218.5,56.4,218.6 M58.4,222.5c1.8,3.5,8.1,10.3,12,13
		c3.2,2.2,7.2,4.4,7.2,3.9c0-0.1-0.9-0.6-2.1-1.2c-5.5-2.9-12.1-8.8-15.4-13.9C58.3,221.6,57.5,220.8,58.4,222.5 M82.6,241.6
		c1.2,0.5,2.2,0.5,1.4,0c-0.3-0.2-1-0.4-1.4-0.4l-0.8,0L82.6,241.6 M85.6,242.4c1.5,0.5,2.4,0.5,1.6,0c-0.3-0.2-1-0.4-1.6-0.4l-1,0
		L85.6,242.4 M90.2,243.3c0.9,0.2,24.9,0.3,53.4,0.3c28.5,0,52,0.1,52.1,0.3c0.1,0.1-3.7,4.3-8.6,9.2s-8.7,9.1-8.6,9.2
		c0.2,0.2,0.5-0.1,0.7-0.5s4.1-4.5,8.7-9.1c8.6-8.7,8.8-9,8-9.3c-0.3-0.1-24.5-0.2-53.9-0.3C112.7,243,89.4,243.1,90.2,243.3
		 M176.6,265.3l-0.6,1.3l0.8-1c0.8-1,1-1.6,0.6-1.6C177.3,264,176.9,264.6,176.6,265.3 M172.4,275.6c0,0.3-0.2,1-0.3,1.6
		c-0.2,0.9-0.2,0.9,0.2,0.3c0.2-0.4,0.4-1.1,0.3-1.6C172.6,275.4,172.5,275.3,172.4,275.6 M171.4,280c-0.3,1.6-0.3,8.7,0.1,9.9
		c0.1,0.5,0.3-1.8,0.3-5.1C171.9,278.4,171.8,278.1,171.4,280 M172.1,292.8c0,0.6,0.2,1.4,0.3,1.8c0.3,0.7,0.3,0.7,0.3-0.2
		c0-0.5-0.2-1.4-0.3-1.8C172.1,291.9,172.1,291.9,172.1,292.8 M175.6,303c0.7,1.3,1.2,2,1.2,1.6c0-0.2-0.4-0.9-0.8-1.4
		C175.4,302.5,175.3,302.5,175.6,303 M177,305.7c3.5,6,9.6,11.4,16.3,14.8c3,1.5,7.4,2.9,7.7,2.6c0.1-0.1-0.3-0.3-0.8-0.4
		c-4.9-1.3-8.6-3.1-13-6.3c-3.6-2.6-7.8-6.9-8.6-8.7c-0.3-0.6-0.7-1.2-0.8-1.2c-0.2,0-0.3-0.3-0.3-0.6c0-0.3-0.2-0.6-0.4-0.6
		S176.9,305.4,177,305.7 M233.6,316.4c-3.1,2.3-3.4,2.8-0.5,0.8c1.4-0.9,2.6-1.8,2.7-2.1C236.2,314.6,236,314.7,233.6,316.4
		 M227.4,320.2c-1.5,0.7-3.5,1.6-4.4,1.8c-2.5,0.8-3.4,1.2-2,1c2-0.4,9.4-3.5,9.4-4C230.4,318.7,230.5,318.7,227.4,320.2
		 M202.4,323.6c0.6,0.2,1.4,0.3,1.8,0.3l0.8,0l-0.8-0.3c-0.4-0.2-1.2-0.3-1.8-0.3l-1,0L202.4,323.6 M216.8,323.6l-1,0.3h1
		c0.6,0,1.4-0.1,2-0.3l1-0.3h-1C218.2,323.3,217.4,323.4,216.8,323.6 M208.1,324.3c1.3,0.1,3.3,0.1,4.6,0c1.3-0.1,0.2-0.1-2.3-0.1
		S206.8,324.2,208.1,324.3"/>
	</g>
</svg>
