<?xml version="1.0" encoding="utf-8"?>
<!-- Generator: Adobe Illustrator 21.0.0, SVG Export Plug-In . SVG Version: 6.00 Build 0) -->
<svg version="1.1" id="Capa_1" xmlns="http://www.w3.org/2000/svg" xmlns:xlink="http://www.w3.org/1999/xlink" x="0px" y="0px" viewBox="0 0 1200 1200" style="enable-background:new 0 0 1200 1200;" xml:space="preserve">
	<style type="text/css">
		.st0 {
			fill: url("#SVGID_1_");
		}
		.st1 {
			fill: #FFFFFF;
		}
		.st2 {
			fill: #599BEE;
		}
		.st3 {
			fill: url("#SVGID_2_");
		}
		.st4 {
			fill: url("#SVGID_3_");
		}
		.st5 {
			fill: url("#SVGID_4_");
		}
		.st6 {
			fill: url("#SVGID_5_");
		}
		.st7 {
			fill: url("#SVGID_6_");
		}
		.st8 {
			fill: url("#SVGID_7_");
		}
		.st9 {
			fill: #960000;
		}
		.st10 {
			fill: #EBD8BB;
		}
		.st11 {
			opacity: 0.26;
			fill: #272425;
		}
		.st12 {
			fill: #233048;
		}
		.st13 {
			fill: #1C283A;
		}
		.st14 {
			fill: #9BCDDF;
		}
		.st15 {
			fill: #6EBDCD;
		}
		.st16 {
			fill: #B6E4EF;
		}
		.st17 {
			fill: #C90100;
		}
		.st18 {
			fill: url("#SVGID_8_");
		}
		.st19 {
			fill: url("#SVGID_9_");
		}
		.st20 {
			opacity: 0.26;
		}
		.st21 {
			fill: #272425;
		}
		.st22 {
			fill: #E9E3D8;
		}
		.st23 {
			opacity: 0.69;
		}
		.st24 {
			fill: #82CEC2;
		}
		.st25 {
			fill-rule: evenodd;
			clip-rule: evenodd;
			fill: #FFFFFF;
		}
		.st26 {
			fill: #7E2B89;
		}
		.st27 {
			fill: none;
			stroke: #599BEE;
			stroke-width: 9.7595;
			stroke-miterlimit: 10;
		}
		.st28 {
			fill: none;
			stroke: #FFFFFF;
			stroke-width: 8.9147;
			stroke-miterlimit: 10;
		}
		.st29 {
			fill: #E27F25;
		}
		.st30 {
			fill: none;
			stroke: #FFFFFF;
			stroke-width: 8.9152;
			stroke-miterlimit: 10;
		}
		.st31 {
			fill: #211915;
		}
		.st32 {
			fill: none;
			stroke: #FFFFFF;
			stroke-width: 8.885;
			stroke-miterlimit: 10;
		}
		.st33 {
			fill: #FFFFFF;
			stroke: #FFFFFF;
			stroke-width: 1.5743;
			stroke-miterlimit: 10;
		}
		.st34 {
			fill: none;
			stroke: #FFFFFF;
			stroke-width: 8.8329;
			stroke-miterlimit: 10;
		}
	</style>
	<g>
		<radialGradient id="SVGID_1_" cx="600.8368" cy="609.6694" r="524.4097" gradientUnits="userSpaceOnUse">
			<stop offset="0.5217" style="stop-color:#202020"/>
			<stop offset="0.5776" style="stop-color:#434343"/>
			<stop offset="0.6914" style="stop-color:#858585"/>
			<stop offset="0.7946" style="stop-color:#BABABA"/>
			<stop offset="0.8837" style="stop-color:#DFDFDF"/>
			<stop offset="0.9552" style="stop-color:#F7F7F7"/>
			<stop offset="1" style="stop-color:#FFFFFF"/>
		</radialGradient>
		<path class="st0" d="M600.8,1134.1L600.8,1134.1c-289.6,0-524.4-234.8-524.4-524.4l0,0C76.4,320,311.2,85.3,600.8,85.3l0,0
		c289.6,0,524.4,234.8,524.4,524.4l0,0C1125.2,899.3,890.5,1134.1,600.8,1134.1z"/>
		<path class="st1" d="M625.9,971.4L625.9,971.4c-229,0-414.7-185.7-414.7-414.7l0,0c0-229,185.7-414.7,414.7-414.7l0,0
		c229,0,414.7,185.7,414.7,414.7l0,0C1040.6,785.8,854.9,971.4,625.9,971.4z"/>
	</g>
	<g>
		<path
			class="st2"
			d="M934,574.9c-0.5,1.5-1,3-1.6,4.7c-10.3,0-20.5,0-30.7,0c-42.6,0-85.1-0.1-127.7,0c-34.3,0.1-60.6,23-65.6,56.8
		c-5.5,36.9,23.9,72.2,61.6,73.3c14.6,0.4,27.2,4.5,37.2,15.4c7.9,8.6,12,18.9,12.2,30.6c0.2,12.6,0.2,25.3,0,38
		c0,1.9-0.9,4.5-2.4,5.6c-26.2,20.9-55.1,37.2-87.2,48.7c-0.6-1.6-1.3-2.9-1.6-4.4c-12.1-49.3-53.4-86.1-103.4-92.3
		c-5-0.6-10-0.5-15-0.5c-32.7,0-65.5,0-98.2-0.1c-8.9,0-16.3-3.2-19.7-12c-3.2-8.4-1.6-16.2,4.5-22.9c4.7-5.1,10.8-6.2,17.5-6.6
		c12-0.7,24.3-0.3,35.8-3.2c27.6-6.9,43.7-31.3,42.3-61.5c-1.2-26.8-20.6-49.1-47.4-54c-5.5-1-11.2-1.4-16.7-1.4
		c-67.1-0.1-134.1-0.1-201.2-0.1c-2.4,0-4.7,0-6.9,0c-3.6-12.3-3-55.6,1-74.4c2.1,0,4.4,0,6.7,0c40.6,0,81.1,0,121.7,0
		c42.3,0,71.7-28.5,73.1-70.6c0.4-11.5,6.8-17.6,19.4-18.4c18.1-1.1,34.4-6.8,47-20.1c20.6-21.8,25.2-47.6,14.9-75.3
		c-10.1-27.2-31.5-41.2-59.9-43c-20.6-1.3-41.3-0.3-62.3-0.3c14.2-18.4,100.1-39.6,154.7-36.9c84.7,4.1,157.6,35.2,215.9,97.6
		c-0.1,0.6-0.2,1.2-0.4,1.8c-2.1,0-4.1,0-6.2,0c-33.7,0-67.5-0.3-101.2,0.1c-33.2,0.4-60.4,12.9-77.3,42.6
		c-29.2,51.1-3.5,128.4,73.1,130.8c61,2,122.1,0.5,183.1,0.5c2.8,0,5.6,0,8.9,0c0.8,5.8,1.6,11.2,2.3,16.7
		C934,551.6,934,563.2,934,574.9z"/>
		<path
			class="st2"
			d="M607.4,866.4c-11.5-1.6-23-2.8-34.5-4.9c-117.9-21.2-219.6-111.9-246.8-229.2c-0.3-1.3-0.5-2.7-0.9-5
		c2.3,0,4.3,0,6.2,0c65.8,0,131.7,0,197.5,0c16.6,0,26.3,9.9,24.4,24.7c-1.2,9.4-7.5,16.7-16.8,17.9c-7.3,1-14.8,0.7-22.2,0.8
		c-30.3,0.4-52.7,16.5-60.2,43.3c-11,39.9,16.1,74.8,58.5,75.1c33.1,0.2,66.2-0.1,99.4,0.1c38.4,0.2,72.7,29.2,79.4,67
		c0.1,0.7,0,1.5,0,3.4c-13.3,1.9-26.5,3.8-39.8,5.7c-2.3,0.3-4.7,0.8-7,1.2C632.3,866.4,619.9,866.4,607.4,866.4z"/>
		<path
			class="st2"
			d="M326.7,476.1c7.3-18.2,13.3-35.7,21.1-52.3c17.3-36.7,41.5-68.5,71.8-95.6c2-1.8,5.2-3.1,7.9-3.1
		c36.5-0.2,73.1-0.3,109.6-0.1c23.1,0.1,37.4,18.2,31.8,39.7c-3.3,12.6-13.7,21.3-27.6,22.2c-12,0.8-23.5,3-33.5,10.1
		c-15.8,11.2-23.7,26.7-24.3,46.1c-0.6,20.8-13.1,33-33.9,33c-38.3,0-76.7,0-115,0C332.6,476.1,330.7,476.1,326.7,476.1z"/>
		<path
			class="st2"
			d="M924.7,484.7c-2.1,0-3.7,0-5.2,0c-59,0-118,0.1-177,0c-29.2-0.1-50.6-22.3-49.5-51.1
		c0.9-23.5,20.5-44.5,44-45.4c22.4-0.9,44.9-0.4,67.4-0.5c24.3-0.1,48.6-0.1,72.8,0.1c2.5,0,6.1,1.3,7.4,3.2
		c18.3,27.9,31.4,58.1,39.6,90.4C924.5,482.1,924.5,482.9,924.7,484.7z"/>
		<path
			class="st2"
			d="M927.9,618.3c-11,53.2-33.9,99.8-69.1,141.1c-1.3-8.6-1.9-16.6-3.9-24.3c-9.6-37-41.7-62.2-80.3-63.6
		c-15.5-0.6-25-7.9-27.8-21.5c-3.2-15.6,7.5-30.2,23.3-31.7c1.4-0.1,2.8-0.2,4.2-0.2c50,0,99.9,0,149.9,0
		C925.1,618,926.1,618.1,927.9,618.3z"/>
	</g>
</svg>
