<?xml version="1.0" encoding="utf-8"?>
<!-- Generator: Adobe Illustrator 21.0.0, SVG Export Plug-In . SVG Version: 6.00 Build 0) -->
<svg version="1.1" id="Capa_1" xmlns="http://www.w3.org/2000/svg" xmlns:xlink="http://www.w3.org/1999/xlink" x="0px" y="0px" viewBox="0 0 1200 1200" style="enable-background:new 0 0 1200 1200;" xml:space="preserve">
	<style type="text/css">
		.st0 {
			fill: url("#SVGID_1_");
		}
		.st1 {
			fill: #FFFFFF;
		}
		.st2 {
			fill: #599AED;
		}
		.st3 {
			fill: url("#SVGID_2_");
		}
		.st4 {
			fill: url("#SVGID_3_");
		}
		.st5 {
			fill: #7E2B88;
			stroke: #FFFFFF;
			stroke-width: 1.2553;
			stroke-miterlimit: 10;
		}
		.st6 {
			fill: url("#SVGID_4_");
		}
		.st7 {
			fill: url("#SVGID_5_");
		}
		.st8 {
			fill: #DF7596;
		}
		.st9 {
			fill: url("#SVGID_6_");
		}
		.st10 {
			fill: #ECC756;
		}
		.st11 {
			fill: #FFF5EA;
		}
		.st12 {
			fill: #9E9E2E;
		}
		.st13 {
			fill: #6E3B24;
		}
		.st14 {
			fill: #C9C641;
		}
		.st15 {
			fill: #75644A;
		}
		.st16 {
			fill: #A28051;
		}
		.st17 {
			fill: url("#SVGID_7_");
		}
		.st18 {
			fill: url("#SVGID_8_");
		}
		.st19 {
			fill: url("#SVGID_9_");
		}
		.st20 {
			fill: url("#SVGID_10_");
		}
		.st21 {
			fill: url("#SVGID_11_");
		}
		.st22 {
			fill: url("#SVGID_12_");
		}
		.st23 {
			fill: url("#SVGID_13_");
		}
		.st24 {
			fill: url("#SVGID_14_");
		}
		.st25 {
			fill: url("#SVGID_15_");
		}
		.st26 {
			fill: url("#SVGID_16_");
		}
		.st27 {
			fill: url("#SVGID_17_");
		}
		.st28 {
			fill: url("#SVGID_18_");
		}
		.st29 {
			fill: url("#SVGID_19_");
		}
		.st30 {
			fill: url("#SVGID_20_");
		}
		.st31 {
			fill: url("#SVGID_21_");
		}
		.st32 {
			fill: url("#SVGID_22_");
		}
		.st33 {
			fill: url("#SVGID_23_");
		}
		.st34 {
			fill: url("#SVGID_24_");
		}
		.st35 {
			fill: url("#SVGID_25_");
		}
		.st36 {
			fill: url("#SVGID_26_");
		}
		.st37 {
			fill: url("#SVGID_27_");
		}
		.st38 {
			fill: url("#SVGID_28_");
		}
		.st39 {
			fill: url("#SVGID_29_");
		}
		.st40 {
			fill: url("#SVGID_30_");
		}
		.st41 {
			fill: url("#SVGID_31_");
		}
		.st42 {
			fill: url("#SVGID_32_");
		}
		.st43 {
			fill: url("#SVGID_33_");
		}
		.st44 {
			fill: url("#SVGID_34_");
		}
		.st45 {
			fill: url("#SVGID_35_");
		}
		.st46 {
			fill: url("#SVGID_36_");
		}
		.st47 {
			fill: url("#SVGID_37_");
		}
		.st48 {
			fill: url("#SVGID_38_");
		}
		.st49 {
			fill: url("#SVGID_39_");
		}
		.st50 {
			fill: url("#SVGID_40_");
		}
		.st51 {
			fill: url("#SVGID_41_");
		}
		.st52 {
			fill: url("#SVGID_42_");
		}
		.st53 {
			fill: url("#SVGID_43_");
		}
		.st54 {
			fill: url("#SVGID_44_");
		}
		.st55 {
			fill: url("#SVGID_45_");
		}
		.st56 {
			fill: url("#SVGID_46_");
		}
		.st57 {
			fill: url("#SVGID_47_");
		}
		.st58 {
			fill: url("#SVGID_48_");
		}
		.st59 {
			fill: url("#SVGID_49_");
		}
		.st60 {
			fill: url("#SVGID_50_");
		}
		.st61 {
			fill: url("#SVGID_51_");
		}
		.st62 {
			fill: url("#SVGID_52_");
		}
		.st63 {
			fill: url("#SVGID_53_");
		}
		.st64 {
			fill: url("#SVGID_54_");
		}
		.st65 {
			fill: #DABF78;
		}
		.st66 {
			opacity: 0.1;
		}
		.st67 {
			fill: #312A22;
		}
		.st68 {
			fill: #70A53B;
		}
		.st69 {
			fill: #C14543;
		}
		.st70 {
			fill: #A7BF44;
		}
		.st71 {
			fill: #519191;
		}
		.st72 {
			fill: #F57F35;
		}
		.st73 {
			fill: #739735;
		}
		.st74 {
			fill: #D3D796;
		}
		.st75 {
			fill: #614911;
		}
		.st76 {
			fill: #FFC09E;
		}
		.st77 {
			clip-path: url("#SVGID_56_");
		}
		.st78 {
			fill: #FFC19F;
		}
		.st79 {
			fill: #79ADC9;
		}
		.st80 {
			opacity: 0.5;
			fill: #79ADC9;
		}
		.st81 {
			fill: #85B3CB;
		}
		.st82 {
			opacity: 0.28;
			fill: #AE3708;
		}
		.st83 {
			fill: #F29D77;
		}
		.st84 {
			fill: none;
			stroke: #FFFFFF;
			stroke-width: 1.2556;
			stroke-miterlimit: 10;
		}
		.st85 {
			clip-path: url("#SVGID_58_");
		}
		.st86 {
			fill: #333C89;
		}
		.st87 {
			fill: #406880;
		}
		.st88 {
			fill: #7E2B88;
			stroke: #FFFFFF;
			stroke-width: 1.9339;
			stroke-miterlimit: 10;
		}
		.st89 {
			fill: url("#SVGID_59_");
		}
		.st90 {
			fill: url("#SVGID_60_");
		}
		.st91 {
			fill: none;
			stroke: #FFFFFF;
			stroke-width: 4.3956;
			stroke-miterlimit: 10;
		}
		.st92 {
			fill: none;
			stroke: #FFFFFF;
			stroke-width: 1.9336;
			stroke-miterlimit: 10;
		}
		.st93 {
			clip-path: url("#SVGID_64_");
		}
		.st94 {
			fill: #599AED;
			stroke: #FFFFFF;
			stroke-width: 4.2387;
			stroke-miterlimit: 10;
		}
		.st95 {
			fill: none;
			stroke: #FFFFFF;
			stroke-width: 4.2387;
			stroke-miterlimit: 10;
		}
		.st96 {
			fill: #7E2B88;
			stroke: #FFFFFF;
			stroke-width: 1.8551;
			stroke-miterlimit: 10;
		}
		.st97 {
			fill: url("#SVGID_73_");
		}
		.st98 {
			fill: url("#SVGID_74_");
		}
		.st99 {
			fill: none;
			stroke: #FFFFFF;
			stroke-width: 1.8548;
			stroke-miterlimit: 10;
		}
		.st100 {
			clip-path: url("#SVGID_76_");
		}
		.st101 {
			fill: #7E2B88;
			stroke: #FFFFFF;
			stroke-width: 1.8941;
			stroke-miterlimit: 10;
		}
		.st102 {
			fill: url("#SVGID_77_");
		}
		.st103 {
			fill: url("#SVGID_78_");
		}
		.st104 {
			fill: none;
			stroke: #FFFFFF;
			stroke-width: 1.8938;
			stroke-miterlimit: 10;
		}
		.st105 {
			fill: none;
			stroke: #FFFFFF;
			stroke-width: 3.7876;
			stroke-linecap: round;
			stroke-linejoin: round;
			stroke-miterlimit: 10;
		}
		.st106 {
			fill: #950000;
		}
		.st107 {
			fill: #EAD7BA;
		}
		.st108 {
			opacity: 0.26;
			fill: #272425;
		}
		.st109 {
			fill: #233048;
		}
		.st110 {
			fill: #1C283A;
		}
		.st111 {
			fill: #9ACCDE;
		}
		.st112 {
			fill: #6EBCCC;
		}
		.st113 {
			fill: #B5E3EE;
		}
		.st114 {
			fill: #C80100;
		}
		.st115 {
			fill: url("#SVGID_79_");
		}
		.st116 {
			fill: url("#SVGID_80_");
		}
		.st117 {
			opacity: 0.26;
		}
		.st118 {
			fill: #272425;
		}
		.st119 {
			fill: #E8E2D7;
		}
		.st120 {
			opacity: 0.69;
		}
		.st121 {
			fill: #CB5045;
		}
		.st122 {
			fill: #D5706E;
		}
		.st123 {
			fill: #B92C28;
		}
		.st124 {
			clip-path: url("#SVGID_82_");
		}
		.st125 {
			fill: #7E2B88;
			stroke: #FFFFFF;
			stroke-width: 1.8721;
			stroke-miterlimit: 10;
		}
		.st126 {
			fill: url("#SVGID_83_");
		}
		.st127 {
			fill: url("#SVGID_84_");
		}
		.st128 {
			fill: none;
			stroke: #FFFFFF;
			stroke-width: 1.8718;
			stroke-miterlimit: 10;
		}
		.st129 {
			fill: none;
			stroke: #FFFFFF;
			stroke-width: 0.9869;
			stroke-miterlimit: 10;
		}
		.st130 {
			fill: #7E2B88;
		}
		.st131 {
			fill: url("#SVGID_85_");
		}
		.st132 {
			fill: url("#SVGID_86_");
		}
		.st133 {
			fill: #FFFFFF;
			stroke: #FFFFFF;
			stroke-miterlimit: 10;
		}
		.st134 {
			fill: none;
			stroke: #333C89;
			stroke-width: 68.3223;
			stroke-miterlimit: 10;
		}
	</style>
	<g>
		<radialGradient id="SVGID_1_" cx="576.7777" cy="614.5357" r="459.2787" gradientUnits="userSpaceOnUse">
			<stop offset="0.5217" style="stop-color:#202020"/>
			<stop offset="0.5776" style="stop-color:#434343"/>
			<stop offset="0.6914" style="stop-color:#858585"/>
			<stop offset="0.7946" style="stop-color:#BABABA"/>
			<stop offset="0.8837" style="stop-color:#DFDFDF"/>
			<stop offset="0.9552" style="stop-color:#F7F7F7"/>
			<stop offset="1" style="stop-color:#FFFFFF"/>
		</radialGradient>
		<path class="st0" d="M576.8,1073.8L576.8,1073.8c-253.7,0-459.3-205.6-459.3-459.3l0,0c0-253.7,205.6-459.3,459.3-459.3l0,0
		c253.7,0,459.3,205.6,459.3,459.3l0,0C1036.1,868.2,830.4,1073.8,576.8,1073.8z"/>
		<path class="st1" d="M598.7,931.4L598.7,931.4c-200.6,0-363.2-162.6-363.2-363.2l0,0c0-200.6,162.6-363.2,363.2-363.2l0,0
		c200.6,0,363.2,162.6,363.2,363.2l0,0C961.9,768.8,799.3,931.4,598.7,931.4z"/>
	</g>
	<g>
		<path
			class="st2"
			d="M757.3,392.9h0.9c6.9,0,12.4-5.6,12.4-12.4s-5.6-12.4-12.4-12.4H472.4c-25.2,0-45.6,20.5-45.6,45.6v332.3
		c0,25.2,20.5,45.6,45.6,45.6H725c25.2,0,45.6-20.5,45.6-45.6V480.2c0-12.5-5.1-23.9-13.3-32.2L757.3,392.9L757.3,392.9z
		 M680.5,605.6l-31.9,31.1l7.4,43.2c0.2,0.9,0.3,1.8,0.3,2.8c0,6.8-5.5,12.4-12.4,12.4c0,0,0,0,0,0c-2,0-4-0.5-5.8-1.4L598.7,673
		l-39.4,20.7c-4.2,2.2-9.2,1.8-13.1-0.9c-3.8-2.8-5.7-7.5-4.9-12.1l7.5-43.9l-31.9-31.1c-3.4-3.3-4.6-8.2-3.1-12.7
		c1.5-4.5,5.3-7.8,10-8.4l44.1-6.4l19.7-39.9c2.1-4.2,6.4-6.9,11.1-6.9c4.7,0,9,2.7,11.1,6.9l19.7,39.9l44.1,6.4
		c4.7,0.7,8.6,4,10,8.4C685.1,597.4,683.9,602.3,680.5,605.6L680.5,605.6z M732.5,435.2c-2.5-0.4-5-0.6-7.5-0.6H472.4
		c-11.5,0-20.8-9.3-20.8-20.8c0-11.5,9.3-20.8,20.8-20.8h260.1V435.2z"/>
	</g>
</svg>
