<?xml version="1.0" encoding="utf-8"?>
<!-- Generator: Adobe Illustrator 21.0.0, SVG Export Plug-In . SVG Version: 6.00 Build 0)  -->
<svg version="1.1" id="Capa_1" xmlns="http://www.w3.org/2000/svg" xmlns:xlink="http://www.w3.org/1999/xlink" x="0px" y="0px"
	 viewBox="0 0 1200 1200" style="enable-background:new 0 0 1200 1200;" xml:space="preserve">
<style type="text/css">
	.st0{fill:url(#SVGID_1_);}
	.st1{fill:#FFFFFF;}
	.st2{fill:#599BEE;}
	.st3{fill:url(#SVGID_2_);}
	.st4{fill:url(#SVGID_3_);}
	.st5{fill:url(#SVGID_4_);}
	.st6{fill:url(#SVGID_5_);}
	.st7{fill:url(#SVGID_6_);}
	.st8{fill:url(#SVGID_7_);}
	.st9{fill:#960000;}
	.st10{fill:#EBD8BB;}
	.st11{opacity:0.26;fill:#272425;}
	.st12{fill:#233048;}
	.st13{fill:#1C283A;}
	.st14{fill:#9BCDDF;}
	.st15{fill:#6EBDCD;}
	.st16{fill:#B6E4EF;}
	.st17{fill:#C90100;}
	.st18{fill:url(#SVGID_8_);}
	.st19{fill:url(#SVGID_9_);}
	.st20{opacity:0.26;}
	.st21{fill:#272425;}
	.st22{fill:#E9E3D8;}
	.st23{opacity:0.69;}
	.st24{fill:#82CEC2;}
	.st25{fill-rule:evenodd;clip-rule:evenodd;fill:#FFFFFF;}
	.st26{fill:#7E2B89;}
	.st27{fill:none;stroke:#599BEE;stroke-width:9.7595;stroke-miterlimit:10;}
	.st28{fill:none;stroke:#FFFFFF;stroke-width:8.9147;stroke-miterlimit:10;}
	.st29{fill:#E27F25;}
	.st30{fill:none;stroke:#FFFFFF;stroke-width:8.9152;stroke-miterlimit:10;}
	.st31{fill:#211915;}
	.st32{fill:none;stroke:#FFFFFF;stroke-width:8.885;stroke-miterlimit:10;}
	.st33{fill:#FFFFFF;stroke:#FFFFFF;stroke-width:1.5743;stroke-miterlimit:10;}
	.st34{fill:none;stroke:#FFFFFF;stroke-width:8.8329;stroke-miterlimit:10;}
</style>
<g>
	<g>
		<path class="st1" d="M600.3,869.7c0,15.4-8.9,29.5-22.9,36c-5.4,2.6-11.2,3.8-16.9,3.8c-9.1,0-18.1-3.1-25.4-9.2L317.5,720H201.7
			c-22,0-39.8-17.8-39.8-39.8V521.7c0-22,17.8-39.8,39.8-39.8h115.9l217.5-180.3c11.9-9.9,28.4-12,42.3-5.4
			c13.9,6.5,22.9,20.6,22.9,36L600.3,869.7L600.3,869.7z M753.2,807.5c-1,0.1-1.9,0.1-2.9,0.1c-10.5,0-20.6-4.2-28.1-11.7l-5.3-5.3
			c-14-13.9-15.6-36-3.8-51.8c29.8-40.2,45.5-87.8,45.5-137.8c0-53.7-17.9-104.1-51.6-145.8c-12.9-15.8-11.7-38.8,2.7-53.2l5.3-5.3
			c7.9-7.9,18.6-12.3,30.1-11.6c11.2,0.6,21.7,5.8,28.8,14.6c46.9,57.4,71.6,127,71.6,201.4c0,69.3-21.9,135.2-63.3,190.6
			C775.3,800.9,764.7,806.7,753.2,807.5z M917.7,930.5c-7.2,8.5-17.6,13.6-28.7,14.1c-0.5,0-1.1,0-1.7,0c-10.5,0-20.7-4.2-28.1-11.7
			l-5.2-5.2c-14.6-14.6-15.6-37.9-2.3-53.8c64.2-76.3,99.5-173.3,99.5-273c0-103.7-37.9-203.5-106.6-281.1
			c-13.9-15.7-13.2-39.6,1.6-54.5l5.2-5.2c7.7-7.8,17.8-12.1,29.3-11.7c11,0.3,21.3,5.2,28.6,13.3c83.1,93.5,128.8,214,128.8,339.2
			C1038.1,721.5,995.4,838.5,917.7,930.5z"/>
	</g>
</g>
</svg>
