<?xml version="1.0" encoding="utf-8"?>
<!-- Generator: Adobe Illustrator 21.0.0, SVG Export Plug-In . SVG Version: 6.00 Build 0) -->
<svg version="1.1" id="Capa_1" xmlns="http://www.w3.org/2000/svg" xmlns:xlink="http://www.w3.org/1999/xlink" x="0px" y="0px" viewBox="0 0 1200 1200" style="enable-background:new 0 0 1200 1200;" xml:space="preserve">
	<style type="text/css">
		.st0 {
			fill: url("#SVGID_1_");
		}
		.st1 {
			fill: #FFFFFF;
		}
		.st2 {
			fill: #599BEE;
		}
		.st3 {
			fill: url("#SVGID_2_");
		}
		.st4 {
			fill: url("#SVGID_3_");
		}
		.st5 {
			fill: url("#SVGID_4_");
		}
		.st6 {
			fill: url("#SVGID_5_");
		}
		.st7 {
			fill: url("#SVGID_6_");
		}
		.st8 {
			fill: url("#SVGID_7_");
		}
		.st9 {
			fill: #960000;
		}
		.st10 {
			fill: #EBD8BB;
		}
		.st11 {
			opacity: 0.26;
			fill: #272425;
		}
		.st12 {
			fill: #233048;
		}
		.st13 {
			fill: #1C283A;
		}
		.st14 {
			fill: #9BCDDF;
		}
		.st15 {
			fill: #6EBDCD;
		}
		.st16 {
			fill: #B6E4EF;
		}
		.st17 {
			fill: #C90100;
		}
		.st18 {
			fill: url("#SVGID_8_");
		}
		.st19 {
			fill: url("#SVGID_9_");
		}
		.st20 {
			opacity: 0.26;
		}
		.st21 {
			fill: #272425;
		}
		.st22 {
			fill: #E9E3D8;
		}
		.st23 {
			opacity: 0.69;
		}
		.st24 {
			fill: #82CEC2;
		}
		.st25 {
			fill-rule: evenodd;
			clip-rule: evenodd;
			fill: #FFFFFF;
		}
		.st26 {
			fill: #7E2B89;
		}
		.st27 {
			fill: none;
			stroke: #599BEE;
			stroke-width: 9.7595;
			stroke-miterlimit: 10;
		}
		.st28 {
			fill: none;
			stroke: #FFFFFF;
			stroke-width: 8.9147;
			stroke-miterlimit: 10;
		}
		.st29 {
			fill: #E27F25;
		}
		.st30 {
			fill: none;
			stroke: #FFFFFF;
			stroke-width: 8.9152;
			stroke-miterlimit: 10;
		}
		.st31 {
			fill: #211915;
		}
		.st32 {
			fill: none;
			stroke: #FFFFFF;
			stroke-width: 8.885;
			stroke-miterlimit: 10;
		}
		.st33 {
			fill: #FFFFFF;
			stroke: #FFFFFF;
			stroke-width: 1.5743;
			stroke-miterlimit: 10;
		}
		.st34 {
			fill: none;
			stroke: #FFFFFF;
			stroke-width: 8.8329;
			stroke-miterlimit: 10;
		}
	</style>
	<g>
		<g>
			<radialGradient id="SVGID_1_" cx="586.4551" cy="616.424" r="517.655" gradientUnits="userSpaceOnUse">
				<stop offset="0.5217" style="stop-color:#202020"/>
				<stop offset="0.5776" style="stop-color:#434343"/>
				<stop offset="0.6914" style="stop-color:#858585"/>
				<stop offset="0.7946" style="stop-color:#BABABA"/>
				<stop offset="0.8837" style="stop-color:#DFDFDF"/>
				<stop offset="0.9552" style="stop-color:#F7F7F7"/>
				<stop offset="1" style="stop-color:#FFFFFF"/>
			</radialGradient>
			<path class="st0" d="M586.5,1134.1L586.5,1134.1c-285.9,0-517.7-231.8-517.7-517.7l0,0c0-285.9,231.8-517.7,517.7-517.7l0,0
			c285.9,0,517.7,231.8,517.7,517.7l0,0C1104.1,902.3,872.3,1134.1,586.5,1134.1z"/>
			<path class="st1" d="M611.2,973.5L611.2,973.5c-226.1,0-409.3-183.3-409.3-409.3l0,0c0-226.1,183.3-409.3,409.3-409.3l0,0
			c226.1,0,409.3,183.3,409.3,409.3l0,0C1020.5,790.3,837.2,973.5,611.2,973.5z"/>
		</g>
		<g>
			<g>
				<path class="st2" d="M454,624.6l-132.5,38.1c10,31.5,24.9,60.9,43.8,87.1L475,666.6C466.2,653.7,459.1,639.6,454,624.6z"/>
				<path class="st2" d="M444.9,569.8c0-2.5,0.3-4.8,0.4-7.3L308,550.2c-0.4,6.5-0.7,13-0.7,19.6c0,26.8,3.4,52.8,9.8,77.5
				l132.5-38.1C446.7,596.5,444.9,583.4,444.9,569.8z"/>
				<path class="st2" d="M546.1,413.8l-50.3-128.3c-30.4,12.8-58.2,30.4-82.7,51.8l93.1,101.4C518.3,428.6,531.7,420.3,546.1,413.8z"/>
				<path class="st2" d="M669.9,407.8l49.7-128.5c-30.1-10.8-62.3-16.9-95.9-17.8v137.8C639.8,400,655.3,402.9,669.9,407.8z"/>
				<path class="st2" d="M607.8,399.3V261.5c-34,0.9-66.6,7.2-97,18.2L561,408C575.8,403,591.5,400.1,607.8,399.3z"/>
				<path class="st2" d="M764.9,486.5L888.1,425c-15.4-29-35.4-55.2-58.9-77.7L736.6,449C747.7,460,757.2,472.7,764.9,486.5z"/>
				<path class="st2" d="M459.2,501.4l-123.5-61c-13.5,29.1-22.6,60.7-26.4,93.9l137.2,12.3C448.8,530.7,453,515.5,459.2,501.4z"/>
				<path class="st2" d="M786.6,569.8c0,13.4-1.7,26.3-4.6,38.8l132.6,37.6c6.2-24.4,9.5-50,9.5-76.4c0-7-0.3-13.9-0.8-20.8
				l-137.2,12.8C786.3,564.5,786.6,567.1,786.6,569.8z"/>
				<path class="st2" d="M784.8,545.9l137.2-12.8c-3.9-33.2-13.1-64.7-26.7-93.8L772,500.8C778.3,514.9,782.5,530.1,784.8,545.9z"/>
				<path class="st2" d="M494.5,449.5l-93.1-101.4c-23.4,22.6-43.2,48.9-58.6,78l123.4,61C474,473.2,483.5,460.6,494.5,449.5z"/>
				<path class="st2" d="M724.8,438.2l92.6-101.7c-24.6-21.2-52.4-38.7-82.9-51.4l-49.7,128.5C699.3,420,712.7,428.2,724.8,438.2z"/>
				<path class="st2" d="M533.1,719.2l-72.2,117.2c27.9,16.2,58.5,28.2,91,35.1l25-135.5C561.4,732.4,546.6,726.8,533.1,719.2z"/>
				<path class="st2" d="M655.3,735.8l25.6,135.4c32.5-7,63.1-19.1,90.9-35.4L699,718.9C685.5,726.5,670.8,732.2,655.3,735.8z"/>
				<path class="st2" d="M615.8,740.6c-7.9,0-15.5-0.7-23.1-1.7l-25.1,135.5c15.7,2.5,31.8,3.8,48.2,3.8c16.8,0,33.3-1.4,49.3-4
				l-25.6-135.4C631.7,739.9,623.9,740.6,615.8,740.6z"/>
				<path class="st2" d="M712.6,710.5l72.7,116.9c27.3-18,51.6-40.3,71.9-65.8l-109.9-82.8C737.2,690.9,725.6,701.5,712.6,710.5z"/>
				<path class="st2" d="M756.9,666l109.9,82.8c18.8-26.3,33.7-55.7,43.5-87.3L777.7,624C772.7,639,765.7,653.2,756.9,666z"/>
				<path class="st2" d="M484.7,679.3l-109.6,83.2c20.4,25.5,44.8,47.6,72.2,65.5l72.2-117.2C506.5,702,494.8,691.3,484.7,679.3z"/>
			</g>
		</g>
	</g>
</svg>
